<?xml version="1.0" encoding="UTF-8" standalone="no"?>
<!-- Created with Inkscape (http://www.inkscape.org/) -->

<svg
   xmlns:dc="http://purl.org/dc/elements/1.1/"
   xmlns:cc="http://creativecommons.org/ns#"
   xmlns:rdf="http://www.w3.org/1999/02/22-rdf-syntax-ns#"
   xmlns:svg="http://www.w3.org/2000/svg"
   xmlns="http://www.w3.org/2000/svg"
   xmlns:xlink="http://www.w3.org/1999/xlink"
   xmlns:sodipodi="http://sodipodi.sourceforge.net/DTD/sodipodi-0.dtd"
   xmlns:inkscape="http://www.inkscape.org/namespaces/inkscape"
   width="1024"
   height="512"
   viewBox="0 0 1024.0001 512.00002"
   id="svg2"
   version="1.1"
   inkscape:version="0.92.3 (2405546, 2018-03-11)"
   sodipodi:docname="ccna.svg"
   inkscape:export-filename="/home/felixmf/syncthing/default/projects/bandonga/posts/images/CCNA/ccna.png"
   inkscape:export-xdpi="90"
   inkscape:export-ydpi="90">
  <defs
     id="defs4">
    <linearGradient
       inkscape:collect="always"
       id="linearGradient5741">
      <stop
         style="stop-color:#2875a9;stop-opacity:1"
         offset="0"
         id="stop5743" />
      <stop
         style="stop-color:#2875a9;stop-opacity:0"
         offset="1"
         id="stop5745" />
    </linearGradient>
    <linearGradient
       inkscape:collect="always"
       xlink:href="#linearGradient5741"
       id="linearGradient5747"
       x1="541.125"
       y1="994.54968"
       x2="538.56262"
       y2="541.42468"
       gradientUnits="userSpaceOnUse"
       gradientTransform="translate(1.0625571,-1.3123095)" />
  </defs>
  <sodipodi:namedview
     id="base"
     pagecolor="#ffffff"
     bordercolor="#666666"
     borderopacity="1.0"
     inkscape:pageopacity="0.0"
     inkscape:pageshadow="2"
     inkscape:zoom="0.90509668"
     inkscape:cx="381.96441"
     inkscape:cy="242.5733"
     inkscape:document-units="px"
     inkscape:current-layer="layer1"
     showgrid="false"
     units="px"
     inkscape:window-width="1883"
     inkscape:window-height="1053"
     inkscape:window-x="37"
     inkscape:window-y="27"
     inkscape:window-maximized="1"
     showguides="true" />
  <metadata
     id="metadata7">
    <rdf:RDF>
      <cc:Work
         rdf:about="">
        <dc:format>image/svg+xml</dc:format>
        <dc:type
           rdf:resource="http://purl.org/dc/dcmitype/StillImage" />
        <dc:title></dc:title>
      </cc:Work>
    </rdf:RDF>
  </metadata>
  <g
     inkscape:label="Layer 1"
     inkscape:groupmode="layer"
     id="layer1"
     transform="translate(0,-540.36216)">
    <rect
       style="opacity:1;fill:#2e86c1;fill-opacity:1;stroke:none;stroke-width:5.00900126;stroke-linecap:round;stroke-linejoin:round;stroke-miterlimit:4;stroke-dasharray:none;stroke-opacity:1"
       id="rect4164"
       width="1024"
       height="512"
       x="0"
       y="540.36218"
       inkscape:export-xdpi="90"
       inkscape:export-ydpi="90" />
    <rect
       style="opacity:1;fill:url(#linearGradient5747);fill-opacity:1;stroke:none;stroke-width:5.00900078;stroke-linecap:round;stroke-linejoin:round;stroke-miterlimit:4;stroke-dasharray:none;stroke-opacity:1"
       id="rect4164-4"
       width="1024"
       height="512"
       x="0"
       y="540.36218"
       inkscape:export-xdpi="90"
       inkscape:export-ydpi="90" />
    <text
       xml:space="preserve"
       style="font-style:normal;font-weight:normal;line-height:0%;font-family:sans-serif;letter-spacing:0px;word-spacing:0px;fill:#000000;fill-opacity:1;stroke:none;stroke-width:1px;stroke-linecap:butt;stroke-linejoin:miter;stroke-opacity:1"
       x="474.7717"
       y="957.40784"
       id="text3340"><tspan
         sodipodi:role="line"
         id="tspan3342"
         x="474.7717"
         y="957.40784"
         style="font-size:40px;line-height:1.25"> </tspan></text>
    <flowRoot
       xml:space="preserve"
       id="flowRoot4235"
       style="font-style:normal;font-weight:normal;line-height:0.01%;font-family:sans-serif;letter-spacing:0px;word-spacing:0px;fill:#000000;fill-opacity:1;stroke:none;stroke-width:1px;stroke-linecap:butt;stroke-linejoin:miter;stroke-opacity:1"><flowRegion
         id="flowRegion4237"><rect
           id="rect4239"
           width="218.75"
           height="14.0625"
           x="150.78125"
           y="642.96875" /></flowRegion><flowPara
         id="flowPara4241"
         style="font-size:10px;line-height:1.25"> </flowPara></flowRoot>    <text
       xml:space="preserve"
       style="font-style:normal;font-weight:normal;line-height:0%;font-family:sans-serif;letter-spacing:0px;word-spacing:0px;fill:#e5f0f7;fill-opacity:1;stroke:none;stroke-width:1px;stroke-linecap:butt;stroke-linejoin:miter;stroke-opacity:1"
       x="399.41428"
       y="794.84094"
       id="text4160-3"
       transform="scale(1.0007619,0.99923868)"
       inkscape:export-xdpi="90"
       inkscape:export-ydpi="90"><tspan
         sodipodi:role="line"
         id="tspan4162-6"
         x="399.41428"
         y="794.84094"
         style="font-style:normal;font-variant:normal;font-weight:bold;font-stretch:normal;font-size:71.45490265px;line-height:1.25;font-family:sans-serif;-inkscape-font-specification:'sans-serif Bold';fill:#e5f0f7;fill-opacity:1">CCNA</tspan></text>
    <text
       xml:space="preserve"
       style="font-style:normal;font-weight:normal;line-height:0%;font-family:sans-serif;letter-spacing:0px;word-spacing:0px;fill:#e5f0f7;fill-opacity:1;stroke:none;stroke-width:1px;stroke-linecap:butt;stroke-linejoin:miter;stroke-opacity:1"
       x="32.91861"
       y="900.22375"
       id="text4160-3-6"
       transform="scale(1.0007619,0.99923868)"
       inkscape:export-xdpi="90"
       inkscape:export-ydpi="90"><tspan
         sodipodi:role="line"
         id="tspan4162-6-9"
         x="32.91861"
         y="900.22375"
         style="font-style:normal;font-variant:normal;font-weight:normal;font-stretch:normal;font-size:56.54173279px;line-height:1.25;font-family:sans-serif;-inkscape-font-specification:'sans-serif Bold';fill:#e5f0f7;fill-opacity:1">Cisco Certified Network Associate </tspan></text>
    <g
       id="g939"
       style="stroke:#e5f0f7;stroke-opacity:1"
       transform="matrix(0.16316486,0,0,0.1631657,894.04426,776.11777)"
       inkscape:export-xdpi="96"
       inkscape:export-ydpi="96">
      <path
         transform="matrix(-0.75451103,0,0,-0.54952197,1101.4103,1279.4667)"
         d="m 818.15623,151.40733 c 16.6645,7.97257 6.7161,31.18806 -4.31737,38.90375 -24.4319,17.0852 -56.67701,0.42955 -68.52922,-23.72688 -18.85616,-38.43145 5.72937,-82.950654 43.13639,-98.154695 C 840.46905,47.284808 897.92914,80.282292 916.2262,130.97542 939.86599,196.4709 898.27346,267.1046 834.27078,288.38106 755.35114,314.61636 671.43491,264.34242 647.23966,187.01612 618.35294,94.696166 677.35547,-2.5627125 768.01412,-29.640471 873.721,-61.212808 984.35938,6.5468433 1014.2962,110.5435 1048.5765,229.6291 972.04122,353.67126 854.70269,386.45103 722.24376,423.45485 584.78094,338.13115 549.16969,207.44803 509.4313,61.619488 603.55249,-89.276217 747.5822,-127.71045 c 9.03621,-2.4113 18.19014,-4.38086 27.41802,-5.90175"
         sodipodi:t0="0.042052984"
         sodipodi:argument="-19.817743"
         sodipodi:radius="289.19339"
         sodipodi:revolution="2.8868599"
         sodipodi:expansion="1"
         sodipodi:cy="153.88779"
         sodipodi:cx="806.25043"
         id="path881-7"
         style="fill:none;fill-opacity:1;fill-rule:evenodd;stroke:#e5f0f7;stroke-width:46.59034348;stroke-miterlimit:4;stroke-dasharray:none;stroke-opacity:1"
         sodipodi:type="spiral" />
      <text
         transform="scale(1.0067661,0.99327937)"
         id="text3340-3"
         y="1527.2913"
         x="689.02264"
         style="font-style:normal;font-weight:normal;font-size:12.09028149px;line-height:0%;font-family:sans-serif;letter-spacing:0px;word-spacing:0px;fill:#000000;fill-opacity:1;stroke:#e5f0f7;stroke-width:30;stroke-linecap:butt;stroke-linejoin:miter;stroke-miterlimit:4;stroke-dasharray:none;stroke-opacity:1"
         xml:space="preserve"><tspan
           style="font-size:39.95794678px;line-height:1.25;stroke:#e5f0f7;stroke-width:30;stroke-miterlimit:4;stroke-dasharray:none;stroke-opacity:1"
           y="1527.2913"
           x="689.02264"
           id="tspan3342-6"
           sodipodi:role="line"> </tspan></text>
      <path
         transform="matrix(0.75451103,0,0,0.54952197,1094.7544,1224.2565)"
         d="m -729.37901,420.178 c 15.13108,11.98047 1.37745,33.94081 -11.81227,40.29637 -27.87814,13.43328 -58.40934,-8.38434 -66.9121,-35.17893 -13.30648,-41.93247 18.1631,-83.59679 58.54559,-93.52784 55.69793,-13.69748 109.02445,27.94081 120.14356,81.91225 14.29412,69.3827 -37.71125,134.56094 -105.2789,146.7593 -83.03614,14.99097 -160.1564,-47.47646 -173.37503,-128.64556 -15.74378,-96.67473 57.23825,-185.78748 152.01222,-199.99077 110.30527,-16.53088 211.44174,66.99781 226.6065,175.37888 17.34051,123.93103 -76.75584,237.11196 -198.74554,253.22223 -137.55374,18.1657 -262.7936,-86.51281 -279.83792,-222.11219 -18.395,-146.34425 89.31287,-280.99238 233.03269,-304.67954"
         sodipodi:t0="0.04979825"
         sodipodi:argument="-19.817743"
         sodipodi:radius="289.19339"
         sodipodi:revolution="2.8868599"
         sodipodi:expansion="1"
         sodipodi:cy="421.11218"
         sodipodi:cx="-743.75"
         id="path881"
         style="fill:none;fill-opacity:1;fill-rule:evenodd;stroke:#e5f0f7;stroke-width:46.59034348;stroke-miterlimit:4;stroke-dasharray:none;stroke-opacity:1"
         sodipodi:type="spiral" />
      <path
         sodipodi:nodetypes="cc"
         inkscape:connector-curvature="0"
         id="path941"
         d="m 479.46207,1186.0292 68.02455,279.0628"
         style="fill:none;stroke:#e5f0f7;stroke-width:30;stroke-linecap:butt;stroke-linejoin:miter;stroke-miterlimit:4;stroke-dasharray:none;stroke-opacity:1" />
    </g>
    <g
       id="g1541"
       transform="matrix(2.7917885,0,0,2.7917885,101.43285,-1495.3851)"
       style="fill:#e5f0f7;fill-opacity:1">
      <path
         id="path268"
         style="fill:#e5f0f7;fill-opacity:1;stroke-width:0.09673701"
         d="m 134.39615,771.1029 h -3.157 v 12.511 h 3.157 z"
         inkscape:connector-curvature="0" />
      <use
         id="use360"
         transform="translate(32.9532,5e-5)"
         xlink:href="#path284"
         style="fill:#e5f0f7;fill-opacity:1"
         x="0"
         y="0"
         width="100%"
         height="100%" />
      <path
         id="path284"
         d="m 126.89875,774.6879 c -0.127,-0.066 -1.142,-0.668 -2.652,-0.668 -2.045,0 -3.46,1.421 -3.46,3.337 0,1.859 1.356,3.34 3.46,3.34 1.484,0 2.516,-0.589 2.652,-0.664 v 3.358 c -0.392,0.111 -1.469,0.445 -2.879,0.445 -3.549,0 -6.662,-2.448 -6.662,-6.479 0,-3.736 2.82,-6.476 6.662,-6.476 1.486,0 2.582,0.361 2.879,0.449 z"
         style="fill:#e5f0f7;fill-opacity:1"
         inkscape:connector-curvature="0" />
      <path
         id="path288"
         d="m 169.78355,774.0668 c -1.873,0 -3.264,1.474 -3.264,3.29 0,1.82 1.391,3.293 3.264,3.293 1.871,0 3.266,-1.473 3.266,-3.293 0,-1.816 -1.395,-3.29 -3.266,-3.29 m 6.611,3.29 c 0,3.579 -2.763,6.479 -6.611,6.479 -3.848,0 -6.607,-2.9 -6.607,-6.479 0,-3.573 2.759,-6.476 6.607,-6.476 3.848,0 6.611,2.903 6.611,6.476"
         style="fill:#e5f0f7;fill-opacity:1"
         inkscape:connector-curvature="0" />
      <path
         id="path292"
         d="m 146.36855,773.9467 c -0.047,-0.015 -1.376,-0.382 -2.468,-0.382 -1.265,0 -1.953,0.424 -1.953,1.025 0,0.762 0.928,1.028 1.447,1.192 l 0.871,0.277 c 2.049,0.652 2.983,2.055 2.983,3.579 0,3.143 -2.764,4.199 -5.18,4.199 -1.679,0 -3.252,-0.309 -3.407,-0.342 v -2.879 c 0.278,0.07 1.602,0.465 2.981,0.465 1.571,0 2.293,-0.459 2.293,-1.168 0,-0.634 -0.625,-1 -1.408,-1.246 -0.191,-0.064 -0.478,-0.154 -0.674,-0.218 -1.758,-0.556 -3.224,-1.589 -3.224,-3.66 0,-2.34 1.752,-3.911 4.662,-3.911 1.537,0 2.983,0.373 3.077,0.398 z"
         style="fill:#e5f0f7;fill-opacity:1"
         inkscape:connector-curvature="0" />
      <g
         id="g383"
         style="fill:#e5f0f7;fill-opacity:1"
         transform="translate(110.87515,745.858)">
        <path
           id="path296"
           d="m 3.135,11.7996 c 0,-0.862 -0.704,-1.561 -1.567,-1.561 -0.863,0 -1.568,0.699 -1.568,1.561 v 3.284 c 0,0.867 0.705,1.567 1.568,1.567 0.863,0 1.567,-0.7 1.567,-1.567 z"
           inkscape:connector-curvature="0"
           style="fill:#e5f0f7;fill-opacity:1" />
        <path
           id="path300"
           d="m 11.7443,7.4891 c 0,-0.862 -0.704,-1.563 -1.567,-1.563 -0.864,0 -1.568,0.701 -1.568,1.563 v 7.595 c 0,0.867 0.704,1.566 1.568,1.566 0.863,0 1.567,-0.699 1.567,-1.566 z"
           inkscape:connector-curvature="0"
           style="fill:#e5f0f7;fill-opacity:1" />
        <path
           id="path304"
           d="m 20.3537,1.5916 c 0,-0.862 -0.704,-1.562 -1.567,-1.562 -0.864,0 -1.568,0.7 -1.568,1.562 v 16.613 c 0,0.867 0.704,1.567 1.568,1.567 0.863,0 1.567,-0.7 1.567,-1.567 z"
           inkscape:connector-curvature="0"
           style="fill:#e5f0f7;fill-opacity:1" />
        <path
           id="path308"
           d="m 28.9631,7.4891 c 0,-0.862 -0.704,-1.563 -1.567,-1.563 -0.864,0 -1.568,0.701 -1.568,1.563 v 7.595 c 0,0.867 0.704,1.566 1.568,1.566 0.863,0 1.567,-0.699 1.567,-1.566 z"
           inkscape:connector-curvature="0"
           style="fill:#e5f0f7;fill-opacity:1" />
        <path
           id="path312"
           d="m 37.5627,11.7996 c 0,-0.862 -0.699,-1.561 -1.558,-1.561 -0.863,0 -1.567,0.699 -1.567,1.561 v 3.284 c 0,0.867 0.704,1.567 1.567,1.567 0.859,0 1.558,-0.7 1.558,-1.567 z"
           inkscape:connector-curvature="0"
           style="fill:#e5f0f7;fill-opacity:1" />
      </g>
      <use
         id="use385"
         transform="translate(34.4317,-5e-5)"
         xlink:href="#g383"
         style="fill:#e5f0f7;fill-opacity:1"
         x="0"
         y="0"
         width="100%"
         height="100%" />
    </g>
  </g>
</svg>
