<?xml version="1.0" encoding="UTF-8" standalone="no"?>
<svg
   xmlns:dc="http://purl.org/dc/elements/1.1/"
   xmlns:cc="http://creativecommons.org/ns#"
   xmlns:rdf="http://www.w3.org/1999/02/22-rdf-syntax-ns#"
   xmlns:svg="http://www.w3.org/2000/svg"
   xmlns="http://www.w3.org/2000/svg"
   xmlns:xlink="http://www.w3.org/1999/xlink"
   xmlns:sodipodi="http://sodipodi.sourceforge.net/DTD/sodipodi-0.dtd"
   xmlns:inkscape="http://www.inkscape.org/namespaces/inkscape"
   width="1024"
   height="512"
   viewBox="0 0 1024.0001 512.00002"
   id="svg2"
   version="1.1"
   inkscape:version="0.92.5 (2060ec1f9f, 2020-04-08)"
   sodipodi:docname="devops.svg"
   inkscape:export-filename="/Users/marcelo.felix/default/projects/bandonga/posts/images/sip.png"
   inkscape:export-xdpi="96"
   inkscape:export-ydpi="96">
  <defs
     id="defs4">
    <linearGradient
       inkscape:collect="always"
       id="linearGradient4542">
      <stop
         style="stop-color:#ebedef;stop-opacity:1;"
         offset="0"
         id="stop4538" />
      <stop
         style="stop-color:#ebedef;stop-opacity:0;"
         offset="1"
         id="stop4540" />
    </linearGradient>
    <rect
       x="-53.125"
       y="1432.5497"
       width="862.5"
       height="918.75"
       id="rect1298" />
    <linearGradient
       inkscape:collect="always"
       id="linearGradient5741">
      <stop
         style="stop-color:#212f3c;stop-opacity:1"
         offset="0"
         id="stop5743" />
      <stop
         style="stop-color:#17202a;stop-opacity:1"
         offset="1"
         id="stop5745" />
    </linearGradient>
    <linearGradient
       inkscape:collect="always"
       xlink:href="#linearGradient5741"
       id="linearGradient5747"
       x1="553.625"
       y1="989.86218"
       x2="491.68762"
       y2="591.42468"
       gradientUnits="userSpaceOnUse"
       gradientTransform="translate(1.0625571,-1.3123785)" />
    <linearGradient
       inkscape:collect="always"
       xlink:href="#linearGradient4542"
       id="linearGradient4544"
       x1="315.5401"
       y1="637.81217"
       x2="707.31489"
       y2="637.81217"
       gradientUnits="userSpaceOnUse" />
    <clipPath
       clipPathUnits="userSpaceOnUse"
       id="clipPath844">
      <g
         inkscape:label="Clip"
         id="use846">
        <text
           inkscape:export-ydpi="90"
           inkscape:export-xdpi="90"
           transform="scale(1.0015244,0.99847792)"
           id="text943"
           y="908.02124"
           x="341.66965"
           style="font-style:normal;font-weight:normal;font-size:96px;line-height:0%;font-family:sans-serif;letter-spacing:0px;word-spacing:0px;fill:#d6dbdf;fill-opacity:0.94117647;stroke:none;stroke-width:1px;stroke-linecap:butt;stroke-linejoin:miter;stroke-opacity:1"
           xml:space="preserve"><tspan
             style="font-style:normal;font-variant:normal;font-weight:bold;font-stretch:normal;font-size:229.33332825px;line-height:1.25;font-family:Impact;-inkscape-font-specification:'Impact Bold';fill:#d6dbdf;fill-opacity:0.94117647"
             y="908.02124"
             x="341.66965"
             id="tspan941"
             sodipodi:role="line">DevOps</tspan></text>
        <g
           aria-label="DevOps"
           transform="scale(1.0015244,0.99847792)"
           style="font-style:normal;font-weight:normal;font-size:96px;line-height:0%;font-family:sans-serif;letter-spacing:0px;word-spacing:0px;fill:#d6dbdf;fill-opacity:0.94117647;stroke:none;stroke-width:1px;stroke-linecap:butt;stroke-linejoin:miter;stroke-opacity:1"
           id="g951">
          <path
             d="m 450.96131,781.59676 h -43.78385 v -13.4375 q 0,-9.40625 -1.67969,-11.98177 -1.67969,-2.57552 -5.59896,-2.57552 -4.25521,0 -6.49479,3.47136 -2.1276,3.47135 -2.1276,10.52604 0,9.07031 2.46354,13.66146 2.35156,4.59114 13.32552,11.08593 31.46614,18.70052 39.64062,30.68229 8.17448,11.98178 8.17448,38.63282 0,19.37239 -4.59114,28.55468 -4.47917,9.18229 -17.46875,15.45313 -12.98959,6.15885 -30.23438,6.15885 -18.92448,0 -32.36198,-7.16666 -13.32552,-7.16667 -17.46875,-18.25261 -4.14322,-11.08594 -4.14322,-31.46614 v -11.86979 h 43.78385 v 22.05989 q 0,10.1901 1.79167,13.10156 1.90364,2.91146 6.60677,2.91146 4.70312,0 6.9427,-3.69531 2.35157,-3.69531 2.35157,-10.97396 0,-16.01302 -4.36719,-20.9401 -4.47917,-4.92709 -22.0599,-16.46094 -17.58072,-11.64583 -23.29166,-16.90885 -5.71094,-5.26303 -9.51823,-14.5573 -3.69531,-9.29427 -3.69531,-23.73958 0,-20.82812 5.26302,-30.45833 5.375,-9.63021 17.24479,-15.00521 11.86979,-5.48698 28.66666,-5.48698 18.36459,0 31.24219,5.9349 12.98958,5.93489 17.13281,15.00521 4.25521,8.95833 4.25521,30.57031 z"
             style="font-style:normal;font-variant:normal;font-weight:bold;font-stretch:normal;font-size:229.33332825px;line-height:1.25;font-family:Impact;-inkscape-font-specification:'Impact Bold';fill:#d6dbdf;fill-opacity:0.94117647"
             id="path945"
             inkscape:connector-curvature="0" />
          <path
             d="m 469.66183,726.72697 h 33.3698 q 33.36979,0 45.1276,2.57552 11.86979,2.57552 19.26041,13.21355 7.50261,10.52604 7.50261,33.70572 0,21.16407 -5.26302,28.44271 -5.26302,7.27865 -20.71615,8.73438 13.9974,3.47135 18.8125,9.29427 4.81511,5.82291 5.9349,10.75 1.23177,4.8151 1.23177,26.76302 v 47.8151 H 531.1384 v -60.24479 q 0,-14.55729 -2.35157,-18.02865 -2.23958,-3.47135 -11.98177,-3.47135 v 81.74479 h -47.14323 z m 47.14323,31.01823 v 40.3125 q 7.95052,0 11.08594,-2.1276 3.2474,-2.23959 3.2474,-14.22136 v -9.96614 q 0,-8.6224 -3.13542,-11.3099 -3.02344,-2.6875 -11.19792,-2.6875 z"
             style="font-style:normal;font-variant:normal;font-weight:bold;font-stretch:normal;font-size:229.33332825px;line-height:1.25;font-family:Impact;-inkscape-font-specification:'Impact Bold';fill:#d6dbdf;fill-opacity:0.94117647"
             id="path947"
             inkscape:connector-curvature="0" />
          <path
             d="m 593.17485,726.72697 h 78.60937 v 36.28125 h -31.46614 v 34.37761 h 29.45052 v 34.48958 h -29.45052 v 39.86458 h 34.60156 v 36.28125 h -81.74479 z"
             style="font-style:normal;font-variant:normal;font-weight:bold;font-stretch:normal;font-size:229.33332825px;line-height:1.25;font-family:Impact;-inkscape-font-specification:'Impact Bold';fill:#d6dbdf;fill-opacity:0.94117647"
             id="path949"
             inkscape:connector-curvature="0" />
        </g>
        <text
           inkscape:export-ydpi="90"
           inkscape:export-xdpi="90"
           transform="scale(1.0015244,0.99847792)"
           id="text955"
           y="1310.491"
           x="329.87048"
           style="font-style:normal;font-weight:normal;font-size:96px;line-height:0%;font-family:sans-serif;letter-spacing:0px;word-spacing:0px;display:inline;opacity:0.98000004;fill:#11dbdf;fill-opacity:0.94117647;stroke:none;stroke-width:1px;stroke-linecap:butt;stroke-linejoin:miter;stroke-opacity:1"
           xml:space="preserve"><tspan
             style="font-style:normal;font-variant:normal;font-weight:bold;font-stretch:normal;font-size:229.33332825px;line-height:1.25;font-family:Impact;-inkscape-font-specification:'Impact Bold';fill:#11dbdf;fill-opacity:0.94117647"
             y="1310.491"
             x="329.87048"
             id="tspan953"
             sodipodi:role="line">DevOps</tspan></text>
      </g>
    </clipPath>
  </defs>
  <sodipodi:namedview
     id="base"
     pagecolor="#ffffff"
     bordercolor="#666666"
     borderopacity="1.0"
     inkscape:pageopacity="0.0"
     inkscape:pageshadow="2"
     inkscape:zoom="0.45254834"
     inkscape:cx="-24.381886"
     inkscape:cy="623.75953"
     inkscape:document-units="px"
     inkscape:current-layer="layer1"
     showgrid="false"
     units="px"
     inkscape:window-width="2560"
     inkscape:window-height="1410"
     inkscape:window-x="1920"
     inkscape:window-y="0"
     inkscape:window-maximized="1"
     showguides="false"
     inkscape:document-rotation="0" />
  <metadata
     id="metadata7">
    <rdf:RDF>
      <cc:Work
         rdf:about="">
        <dc:format>image/svg+xml</dc:format>
        <dc:type
           rdf:resource="http://purl.org/dc/dcmitype/StillImage" />
        <dc:title />
      </cc:Work>
    </rdf:RDF>
  </metadata>
  <g
     style="display:inline"
     inkscape:label="Layer 1"
     inkscape:groupmode="layer"
     id="layer1"
     transform="translate(0,-540.36216)">
    <rect
       style="opacity:1;fill:url(#linearGradient5747);fill-opacity:1;stroke:none;stroke-width:5;stroke-linecap:round;stroke-linejoin:round;stroke-miterlimit:4;stroke-dasharray:none;stroke-opacity:1"
       id="rect4164-4"
       width="1024.0001"
       height="512.00006"
       x="0"
       y="540.36218" />
    <flowRoot
       xml:space="preserve"
       id="flowRoot4235"
       style="font-style:normal;font-weight:normal;line-height:0.01%;font-family:sans-serif;letter-spacing:0px;word-spacing:0px;fill:#000000;fill-opacity:1;stroke:none;stroke-width:1px;stroke-linecap:butt;stroke-linejoin:miter;stroke-opacity:1"
       transform="matrix(0.99896342,0,0,0.9974429,1.0614558,1.381783)"><flowRegion
         id="flowRegion4237"><rect
           id="rect4239"
           width="218.75"
           height="14.0625"
           x="150.78125"
           y="642.96875" /></flowRegion><flowPara
         id="flowPara4241"
         style="font-size:10px;line-height:1.25"> </flowPara></flowRoot>    <g
       id="g939"
       style="stroke:#fab387;stroke-opacity:1"
       transform="matrix(0.16316486,0,0,0.1631657,894.04426,776.11777)"
       inkscape:export-xdpi="96"
       inkscape:export-ydpi="96">
      <path
         transform="matrix(-0.75451103,0,0,-0.54952197,1101.4103,1279.4667)"
         d="m 818.15623,151.40733 c 16.6645,7.97257 6.7161,31.18806 -4.31737,38.90375 -24.4319,17.0852 -56.67701,0.42955 -68.52922,-23.72688 -18.85616,-38.43145 5.72937,-82.950654 43.13639,-98.154695 C 840.46905,47.284808 897.92914,80.282292 916.2262,130.97542 939.86599,196.4709 898.27346,267.1046 834.27078,288.38106 755.35114,314.61636 671.43491,264.34242 647.23966,187.01612 618.35294,94.696166 677.35547,-2.5627125 768.01412,-29.640471 873.721,-61.212808 984.35938,6.5468433 1014.2962,110.5435 1048.5765,229.6291 972.04122,353.67126 854.70269,386.45103 722.24376,423.45485 584.78094,338.13115 549.16969,207.44803 509.4313,61.619488 603.55249,-89.276217 747.5822,-127.71045 c 9.03621,-2.4113 18.19014,-4.38086 27.41802,-5.90175"
         sodipodi:t0="0.042052984"
         sodipodi:argument="-19.817743"
         sodipodi:radius="289.19339"
         sodipodi:revolution="2.8868599"
         sodipodi:expansion="1"
         sodipodi:cy="153.88779"
         sodipodi:cx="806.25043"
         id="path881-7"
         style="fill:none;fill-opacity:1;fill-rule:evenodd;stroke:#fab387;stroke-width:46.5903;stroke-miterlimit:4;stroke-dasharray:none;stroke-opacity:1"
         sodipodi:type="spiral" />
      <text
         transform="scale(1.0067661,0.99327937)"
         id="text3340-3"
         y="1527.2913"
         x="689.02264"
         style="font-style:normal;font-weight:normal;font-size:12.0903px;line-height:0%;font-family:sans-serif;letter-spacing:0px;word-spacing:0px;fill:#000000;fill-opacity:1;stroke:#fab387;stroke-width:30;stroke-linecap:butt;stroke-linejoin:miter;stroke-miterlimit:4;stroke-dasharray:none;stroke-opacity:1"
         xml:space="preserve"><tspan
           style="font-size:39.9579px;line-height:1.25;stroke:#fab387;stroke-width:30;stroke-miterlimit:4;stroke-dasharray:none;stroke-opacity:1"
           y="1527.2913"
           x="689.02264"
           id="tspan3342-6"
           sodipodi:role="line"> </tspan></text>
      <path
         transform="matrix(0.75451103,0,0,0.54952197,1094.7544,1224.2565)"
         d="m -729.37901,420.178 c 15.13108,11.98047 1.37745,33.94081 -11.81227,40.29637 -27.87814,13.43328 -58.40934,-8.38434 -66.9121,-35.17893 -13.30648,-41.93247 18.1631,-83.59679 58.54559,-93.52784 55.69793,-13.69748 109.02445,27.94081 120.14356,81.91225 14.29412,69.3827 -37.71125,134.56094 -105.2789,146.7593 -83.03614,14.99097 -160.1564,-47.47646 -173.37503,-128.64556 -15.74378,-96.67473 57.23825,-185.78748 152.01222,-199.99077 110.30527,-16.53088 211.44174,66.99781 226.6065,175.37888 17.34051,123.93103 -76.75584,237.11196 -198.74554,253.22223 -137.55374,18.1657 -262.7936,-86.51281 -279.83792,-222.11219 -18.395,-146.34425 89.31287,-280.99238 233.03269,-304.67954"
         sodipodi:t0="0.04979825"
         sodipodi:argument="-19.817743"
         sodipodi:radius="289.19339"
         sodipodi:revolution="2.8868599"
         sodipodi:expansion="1"
         sodipodi:cy="421.11218"
         sodipodi:cx="-743.75"
         id="path881"
         style="fill:none;fill-opacity:1;fill-rule:evenodd;stroke:#fab387;stroke-width:46.5903;stroke-miterlimit:4;stroke-dasharray:none;stroke-opacity:1"
         sodipodi:type="spiral" />
      <path
         sodipodi:nodetypes="cc"
         inkscape:connector-curvature="0"
         id="path941"
         d="m 479.46207,1186.0292 68.02455,279.0628"
         style="fill:none;stroke:#fab387;stroke-width:30;stroke-linecap:butt;stroke-linejoin:miter;stroke-miterlimit:4;stroke-dasharray:none;stroke-opacity:1" />
    </g>
    <text
       xml:space="preserve"
       id="text1296"
       style="font-size:26.66669999999999874px;line-height:1.25;font-family:Verdana;-inkscape-font-specification:Verdana;white-space:pre;shape-inside:url(#rect1298);" />
    <g
       inkscape:groupmode="layer"
       id="layer2"
       inkscape:label="draft" />
    <flowRoot
       xml:space="preserve"
       id="flowRoot869"
       style="fill:black;fill-opacity:1;stroke:none;font-family:sans-serif;font-style:normal;font-weight:normal;font-size:40px;line-height:1.25;letter-spacing:0px;word-spacing:0px"><flowRegion
         id="flowRegion871"><rect
           id="rect873"
           width="61.871841"
           height="1179.9845"
           x="-662.9126"
           y="-142.07378" /></flowRegion><flowPara
         id="flowPara875" /></flowRoot>    <g
       id="g1092"
       transform="translate(-1154.4509,516.24386)">
      <path
         style="fill:#d6dbdf;fill-opacity:0.94117647;stroke-width:0.28711164"
         d="m 1522.2532,439.8503 c -30.1284,-1.88968 -57.8214,-12.42895 -80.6848,-30.70665 -4.0128,-3.20799 -9.7833,-8.44286 -10.7356,-9.73908 l -0.6518,-0.88721 1.6567,0.15285 c 2.994,0.27624 35.4855,2.42637 35.547,2.35233 0.033,-0.0398 0.661,-7.43674 1.3953,-16.43769 0.7344,-9.00095 1.4076,-16.97029 1.496,-17.70964 l 0.1607,-1.34429 3.7468,3.02641 c 13.2257,10.68299 27.3135,17.03797 43.291,19.5285 5.0498,0.78713 17.0792,0.71317 22.5383,-0.13858 11.342,-1.76962 22.5907,-5.67625 31.5051,-10.94159 l 2.3999,-1.4175 18.9364,1.45846 c 10.4151,0.80216 18.988,1.49982 19.0511,1.55037 0.2126,0.17061 -1.4542,34.40607 -1.7062,35.0441 -0.3409,0.86305 -5.875,4.9714 -10.7542,7.98365 -4.5692,2.82084 -12.636,6.8624 -17.9621,8.99928 -11.1404,4.46956 -24.2692,7.60456 -36.8762,8.8056 -5.6744,0.54058 -17.0334,0.75433 -22.3534,0.42068 z m 267.9774,-0.46443 c -13.6717,-1.20805 -24.8019,-3.804 -36.4632,-8.50445 -15.7632,-6.35384 -31.0267,-16.40934 -43.2821,-28.51405 -4.0499,-4.0001 -4.0912,-4.0539 -4.0834,-5.31309 0.013,-2.1033 2.7562,-34.13508 2.9388,-34.31768 0.093,-0.093 8.9966,0.57891 19.7857,1.49319 l 19.6165,1.66231 2.2435,2.02503 c 9.994,9.0211 23.8742,15.85216 37.948,18.67587 7.0824,1.42099 9.9618,1.70661 17.2309,1.70921 5.2762,0.002 7.6979,-0.12182 10.336,-0.52795 11.6525,-1.7939 24.4962,-6.69273 33.6638,-12.83999 1.9191,-1.2868 2.0801,-1.34563 2.0623,-0.75349 -0.011,0.35325 -0.7575,8.78189 -1.6597,18.73031 l -1.6404,18.08803 0.7266,0.20384 c 0.3996,0.11211 8.6078,0.86615 18.2404,1.67564 9.6326,0.8095 17.5602,1.5179 17.617,1.57424 0.057,0.0563 -1.4678,1.1405 -3.3881,2.40926 -15.8315,10.46034 -35.9933,17.93058 -56.5942,20.96903 -8.6821,1.28052 -11.9362,1.50418 -23.0962,1.58747 -6.0006,0.0448 -11.4916,0.0301 -12.2022,-0.0327 z m 83.7227,-32.71835 c -9.4584,-0.84851 -17.2453,-1.59099 -17.3043,-1.64996 -0.059,-0.059 0.6706,-8.25736 1.6212,-18.21865 0.9507,-9.96128 1.7318,-18.34592 1.7359,-18.63253 0,-0.30375 0.6323,-0.94028 1.5054,-1.52601 0.8238,-0.55269 2.5815,-2.03849 3.9058,-3.30178 9.7587,-9.3088 15.7635,-22.74405 17.7272,-39.66321 0.6398,-5.51233 0.4268,-15.77981 -0.4265,-20.56001 -1.332,-7.46206 -3.052,-12.83385 -6.1816,-19.30671 -3.6957,-7.64372 -7.5085,-13.15569 -13.0579,-18.87759 -1.7996,-1.85545 -3.1572,-3.37505 -3.017,-3.37688 0.1403,-0.002 8.9561,0.46387 19.5907,1.03487 10.6346,0.57101 19.4317,0.9278 19.5491,0.79288 0.1174,-0.13492 0.6955,-7.22213 1.2847,-15.74934 0.5892,-8.52722 1.1477,-16.20928 1.2412,-17.07124 l 0.1701,-1.56722 1.8374,1.97803 c 10.6084,11.41965 20.9033,29.39705 26.5775,46.41049 4.7746,14.31619 6.897,27.52819 6.8897,42.88918 -0.01,18.59443 -3.4102,33.52613 -11.1757,49.05802 -6.9598,13.92041 -17.8766,27.66554 -29.2173,36.78706 -2.6776,2.15366 -2.6796,2.15463 -4.3687,2.124 -0.9294,-0.0169 -9.4285,-0.72489 -18.8869,-1.5734 z M 1617.973,406.19 c 0.01,-0.98694 0.3762,-9.02966 0.8247,-17.8727 0.4484,-8.84303 0.7118,-16.14476 0.5854,-16.22605 -0.1265,-0.0813 -8.4757,-0.77547 -18.5539,-1.54262 -10.0781,-0.76715 -18.3791,-1.44489 -18.4465,-1.50608 -0.068,-0.0612 0.2025,-0.46523 0.5999,-0.89783 0.3974,-0.43261 10.2638,-11.38099 21.9252,-24.32972 11.6615,-12.94874 22.3441,-24.79061 23.7393,-26.31528 l 2.5366,-2.77211 -18.7727,-20.88118 -18.7727,-20.88119 0.1152,-1.18185 c 0.063,-0.65002 0.6862,-9.37008 1.3843,-19.3779 0.698,-10.00782 1.324,-18.25084 1.391,-18.31781 0.067,-0.067 8.4379,0.58866 18.602,1.45698 l 18.4804,1.57875 0.7178,0.83489 c 0.3947,0.45919 7.9429,8.93497 16.7736,18.83505 15.3125,17.16678 16.0786,17.97623 16.548,17.48329 0.2707,-0.28429 11.3814,-12.59711 24.6904,-27.36182 13.3091,-14.76472 24.4027,-26.88086 24.6525,-26.92477 0.595,-0.10456 36.8384,3.63749 37.0235,3.8226 0.2828,0.28279 -2.6248,35.87165 -2.9782,36.45286 -0.192,0.31582 -11.1555,12.57024 -24.3632,27.23203 -13.2077,14.66179 -24.0141,26.76256 -24.0141,26.89059 0,0.12802 8.5722,9.83765 19.0493,21.57694 10.4771,11.7393 19.0198,21.38252 18.9838,21.42938 -0.036,0.0469 -8.4908,-0.57655 -18.7884,-1.38535 -10.2977,-0.8088 -18.7553,-1.42854 -18.7947,-1.3772 -0.04,0.0513 -0.8747,7.84536 -1.8561,17.32004 -0.9813,9.47468 -1.874,17.45479 -1.9835,17.73358 -0.1561,0.39716 -3.6021,-3.27567 -15.9202,-16.9683 -8.6465,-9.61135 -15.9615,-17.69288 -16.2555,-17.95896 -0.5122,-0.46348 -1.5491,0.64342 -24.7053,26.3712 -13.2939,14.77025 -24.2284,26.85499 -24.299,26.85499 -0.071,0 -0.1241,-0.8075 -0.1189,-1.79445 z m -177.3008,-14.48603 -17.801,-1.28251 -2.0967,-2.20053 c -10.2761,-10.78453 -18.6954,-27.97231 -22.5808,-46.09794 -2.1294,-9.93363 -2.8661,-17.39171 -2.8675,-29.02894 0,-8.66746 0.2357,-12.5821 1.155,-19.09292 2.9243,-20.71226 11.2558,-39.78225 24.4484,-55.96018 3.3109,-4.06004 10.4164,-11.14215 14.1439,-14.09717 2.5927,-2.05541 3.0269,-2.30758 3.102,-1.80147 0.048,0.32368 -0.2369,6.1268 -0.6332,12.89584 -0.3964,6.76903 -0.808,14.33551 -0.9148,16.81439 l -0.1941,4.50705 0.6839,0.13463 c 0.5778,0.11378 36.3713,2.51314 37.1148,2.48793 0.1402,-0.005 -1.2213,1.51154 -3.0255,3.36955 -5.9683,6.1461 -10.6068,12.75032 -14.4654,20.59563 -4.6804,9.51623 -6.7335,16.98356 -7.3017,26.55783 -0.9962,16.78659 3.7716,34.64092 12.2538,45.88723 1.4969,1.98471 1.8042,2.58297 1.8042,3.51192 0,1.07143 -2.0906,28.63153 -2.4544,32.35589 l -0.1753,1.79445 -1.1974,-0.0341 c -0.6585,-0.0188 -9.2077,-0.61121 -18.9982,-1.31659 z m 352.7166,-70.8579 v -17.37026 h 4.4502 4.4503 v 1.86623 1.86622 l 1.1386,-1.13864 c 0.6263,-0.62625 1.8214,-1.49526 2.6558,-1.93112 1.3577,-0.7092 1.8188,-0.7932 4.3883,-0.79936 2.6193,-0.006 3.0348,0.0707 4.7381,0.87794 4.44,2.10419 7.1699,6.90649 7.1678,12.60942 0,5.98216 -2.6571,10.75884 -7.1678,12.89654 -1.7002,0.80575 -2.1236,0.8846 -4.7381,0.88232 -2.5778,-0.002 -3.0325,-0.0849 -4.4503,-0.80892 -0.8685,-0.44353 -2.0636,-1.27613 -2.6558,-1.85022 l -1.0766,-1.04379 v 5.65695 5.65694 h -4.4503 -4.4502 z m 15.8708,2.13607 c 2.4436,-0.67861 4.2144,-3.20472 4.2144,-6.01208 0,-2.80736 -1.7708,-5.33347 -4.2144,-6.01208 -1.3375,-0.37143 -1.4058,-0.37143 -2.7433,0 -5.4119,1.50289 -5.6345,10.01042 -0.3116,11.90797 1.3605,0.48502 1.6826,0.49727 3.0549,0.11619 z m -276.8266,7.2007 c -3.902,-1.0575 -6.8273,-3.34706 -8.4688,-6.62811 -2.2651,-4.52781 -1.9883,-10.1658 0.7052,-14.36331 3.6314,-5.659 11.3107,-7.60101 17.7838,-4.49728 1.8936,0.90791 4.1828,3.33322 5.202,5.51132 1.2041,2.57305 2.045,7.51184 1.5144,8.89445 -0.1538,0.40079 -1.2339,0.45415 -9.1934,0.45415 h -9.0191 l 0.5521,1.07667 c 1.1248,2.19352 2.9131,3.23288 5.5464,3.2237 1.9657,-0.007 3.7031,-0.63161 5.1558,-1.85392 l 0.8482,-0.71374 2.2787,1.88524 c 1.2533,1.03689 2.3588,2.01479 2.4567,2.17313 0.2352,0.38056 -1.4213,2.0674 -3.068,3.12418 -3.2793,2.10447 -8.2798,2.80144 -12.294,1.71352 z m 8.2912,-15.86856 c -0.013,-0.77398 -1.1107,-2.733 -1.8613,-3.32338 -2.8322,-2.22781 -6.8856,-0.71765 -7.7642,2.89271 l -0.1922,0.78956 h 4.912 c 3.7416,0 4.9106,-0.0855 4.9057,-0.35889 z m 224.6712,15.99432 c -6.8198,-1.47112 -12.4058,-6.93635 -13.7801,-13.4821 -1.1957,-5.69533 0.3025,-11.59731 4.0233,-15.84875 5.3607,-6.12526 15.2808,-7.8661 23.0978,-4.05334 8.7923,4.28851 12.3416,15.23097 7.7819,23.99195 -3.1621,6.07576 -8.732,9.46799 -15.9549,9.71693 -2.12,0.0731 -3.8189,-0.0337 -5.168,-0.32469 z m 7.2505,-8.31964 c 6.3469,-1.88484 8.4643,-10.63108 3.8073,-15.72663 -1.9649,-2.14991 -3.7395,-2.91592 -6.7511,-2.91422 -1.8478,10e-4 -2.5752,0.13758 -3.7203,0.69839 -4.2499,2.08127 -6.2371,6.94225 -4.7882,11.71256 1.5163,4.99208 6.4969,7.70148 11.4523,6.2299 z m 60.5079,8.31204 c -2.0458,-0.44597 -5.5531,-1.94023 -7.041,-2.99973 l -0.8226,-0.58571 1.741,-2.72087 1.7409,-2.72088 1.4731,0.83728 c 1.6952,0.96358 4.9665,1.98607 6.641,2.07576 2.1584,0.1156 2.6991,-0.0157 3.1974,-0.77625 0.4648,-0.70943 0.457,-0.76267 -0.2087,-1.41068 -0.4502,-0.4383 -1.9325,-1.03744 -4.2454,-1.71597 -4.0074,-1.17567 -5.298,-1.76195 -6.8195,-3.09786 -1.4683,-1.28922 -2.1023,-2.82682 -2.1099,-5.11756 -0.018,-5.27878 3.3825,-8.43966 9.4683,-8.80214 3.2106,-0.19122 6.6072,0.46048 9.5172,1.82602 1.2399,0.58188 2.2544,1.10827 2.2544,1.16976 0,0.13407 -2.2117,4.26307 -2.7762,5.18283 l -0.3977,0.64785 -1.1986,-0.61148 c -4.153,-2.11872 -8.449,-2.47442 -8.7855,-0.72741 -0.1886,0.9796 0.8926,1.61411 5.0094,2.93989 5.0582,1.62893 6.7786,2.70991 7.9559,4.99888 0.727,1.41352 0.8001,1.80607 0.697,3.74345 -0.2002,3.76325 -2.2076,6.3922 -5.8098,7.60896 -2.0202,0.6824 -6.9178,0.81457 -9.4807,0.25586 z m -275.3518,-8.37826 c -1.853,-4.69787 -4.2423,-10.73798 -5.3095,-13.42247 l -1.9405,-4.8809 4.614,-0.0791 c 2.5378,-0.0435 4.6999,0.0211 4.8047,0.14355 0.1049,0.12248 1.3199,3.69452 2.7,7.93787 1.3801,4.24335 2.6128,7.60255 2.7394,7.4649 0.1265,-0.13765 1.3743,-3.70638 2.7728,-7.93051 l 2.5427,-7.68024 h 4.5596 c 4.2887,0 4.5513,0.0314 4.4211,0.52915 -0.076,0.29103 -2.4362,6.36344 -5.2446,13.49425 l -5.1063,12.9651 h -4.0922 -4.0922 z m -72.1969,-9.1158 v -17.42008 l 8.8287,0.11941 c 9.9719,0.13488 11.4304,0.36572 15.375,2.43345 6.4307,3.37096 9.7177,10.92195 8.0931,18.59144 -1.3458,6.35344 -5.6629,10.78333 -12.4861,12.81231 -1.9733,0.5868 -2.8914,0.6505 -10.982,0.76194 l -8.8287,0.12161 z m 15.1372,9.04403 c 3.4084,-0.44277 5.9669,-2.08511 7.32,-4.69875 0.8534,-1.64838 1.0537,-5.58339 0.3863,-7.59254 -0.6136,-1.84745 -2.4122,-3.88922 -4.2894,-4.86924 -1.3446,-0.70203 -1.8099,-0.77718 -5.4187,-0.87527 l -3.9478,-0.10731 v 9.2151 9.21511 l 1.938,-0.009 c 1.0659,-0.005 2.8711,-0.13008 4.0116,-0.27824 z m 82.9115,-60.53605 c -15.3502,-14.66971 -39.3111,-23.70816 -58.7862,-22.1751 -9.0285,0.71071 -17.749,2.83008 -27.4177,6.66337 -4.1819,1.65799 -9.8512,4.31985 -12.43,5.83621 l -1.8552,1.09088 -19.3083,-1.25449 -19.3082,-1.2545 v -0.86368 c 0,-0.47502 0.4522,-8.16349 1.004,-17.08549 0.5517,-8.92199 1.0035,-16.29855 1.004,-16.39236 0,-0.28242 5.0847,-3.76866 8.7159,-5.97759 22.3204,-13.57797 50.6124,-21.26502 78.2798,-21.26898 27.0274,-0.004 53.3177,9.24972 77.0895,27.13371 4.3529,3.27481 10.5708,8.60483 13.2071,11.32135 l 1.4356,1.4792 -1.8662,-0.17362 c -6.1953,-0.57638 -34.3315,-2.38199 -34.4729,-2.21225 -0.094,0.11262 -0.848,8.40897 -1.6761,18.43635 -0.828,10.02737 -1.5282,18.31846 -1.5559,18.42463 -0.028,0.10618 -0.9547,-0.67126 -2.0601,-1.72764 z m 289.8582,-4.69759 -18.7867,-1.13638 -1.7418,-1.58229 c -6.2627,-5.68942 -17.5677,-11.00324 -28.0016,-13.16189 -15.1733,-3.1392 -33.8014,-2.0171 -47.9734,2.88977 -6.0448,2.09292 -13.4057,6.05885 -17.1538,9.24215 -0.8367,0.71058 -1.5553,1.24435 -1.597,1.18616 -0.042,-0.0582 0.5279,-8.11621 1.2657,-17.90672 0.7379,-9.79051 1.3186,-17.83116 1.2906,-17.86811 -0.028,-0.037 -8.1174,-0.85317 -17.9762,-1.81381 -9.8588,-0.96065 -18.1721,-1.8428 -18.474,-1.96033 -1.2544,-0.48841 11.1289,-7.49072 20.3596,-11.51253 26.9649,-11.74868 57.136,-16.17384 85.9899,-12.61205 20.0299,2.47253 38.6412,9.4684 52.9432,19.90102 3.8858,2.83445 8.8919,7.16899 11.0415,9.56031 1.519,1.68967 1.7542,2.1032 1.763,3.09837 0.012,1.39171 -2.2527,32.63202 -2.4614,33.95095 -0.1264,0.79837 -0.2599,0.92796 -0.9243,0.89743 -0.4271,-0.0196 -9.2306,-0.54705 -19.5633,-1.17205 z"
         id="path1096"
         inkscape:connector-curvature="0" />
      <path
         style="fill:#fab387;fill-opacity:1;stroke:none;stroke-width:0.28711164;stroke-opacity:1"
         d="m 1524.6523,439.82492 c -29.8582,-1.16878 -58.6571,-11.69552 -81.9928,-29.97052 -3.1198,-2.44322 -8.6013,-7.26989 -10.7344,-9.45212 l -1.5694,-1.6054 0.8516,-0.005 c 0.4683,-0.003 8.7692,0.53145 18.4464,1.18697 9.6772,0.65552 17.6595,1.12726 17.7385,1.04831 0.079,-0.079 0.7871,-7.9452 1.5738,-17.48056 0.7866,-9.53536 1.4626,-17.43939 1.5021,-17.56451 0.039,-0.12512 0.9744,0.52733 2.0775,1.4499 13.5878,11.36354 27.6515,17.93723 44.1821,20.65175 4.1331,0.67871 15.8035,0.82909 20.6593,0.2662 11.742,-1.36115 23.9547,-5.30404 33.4872,-10.81139 2.4709,-1.42755 3.1796,-1.70873 4.2814,-1.69866 2.1236,0.0194 36.4807,2.75252 36.6432,2.91497 0.081,0.0813 -0.2316,7.95082 -0.6951,17.48794 l -0.8428,17.34021 -1.2449,1.11156 c -3.2942,2.94143 -10.4717,7.56373 -17.036,10.97117 -19.7684,10.26155 -42.8564,15.11698 -67.3277,14.15906 z m 14.4677,-20.75503 c 2.0209,-0.84438 2.9082,-2.80542 2.0341,-4.49574 -0.4458,-0.86207 -2.8369,-2.272 -3.8689,-2.28129 -0.7895,-0.007 -2.2969,-1.12532 -2.2969,-1.7039 0,-0.6617 1.0296,-1.4614 1.8584,-1.44346 0.5152,0.0111 1.68,0.38037 3.0432,0.96461 0.3163,0.13556 0.5588,-0.0426 0.8107,-0.59556 0.3111,-0.6826 0.2907,-0.8393 -0.1509,-1.1622 -1.3413,-0.98079 -4.1827,-1.21456 -5.746,-0.47274 -1.5701,0.7451 -2.3268,2.93776 -1.5285,4.42945 0.3554,0.66397 1.9517,1.5163 3.7245,1.9886 0.7097,0.18908 1.5165,0.54558 1.7929,0.79223 0.5799,0.51764 0.6584,1.52417 0.1579,2.02471 -0.5658,0.56578 -3.12,0.41573 -4.3752,-0.25701 l -1.1224,-0.60154 -0.5106,0.67332 c -0.6585,0.86836 -0.2994,1.26464 1.8044,1.99116 1.8507,0.63913 3.0991,0.68177 4.3733,0.14936 z m -11.1073,-0.66636 c 1.4529,-0.66821 1.726,-1.15362 1.0367,-1.84289 l -0.5801,-0.58007 -0.9754,0.59466 c -2.0773,1.26646 -4.8423,0.39736 -5.6721,-1.78288 -0.2258,-0.5932 -0.3481,-1.14098 -0.2718,-1.21728 0.1247,-0.12473 3.8825,0.17039 7.4808,0.58752 l 1.3637,0.1581 v -1.64191 c 0,-2.16049 -0.8468,-3.91238 -2.3824,-4.92861 -0.9509,-0.62923 -1.493,-0.77061 -2.9552,-0.77061 -1.5264,0 -1.9712,0.12711 -3.0139,0.86134 -2.4224,1.7058 -3.2989,5.32383 -1.9598,8.09003 1.3252,2.73747 4.9177,3.85771 7.9295,2.4726 z m -3.0015,-6.22316 c -1.7765,-0.13987 -3.23,-0.37239 -3.23,-0.5167 0,-0.54307 0.8819,-1.9384 1.4978,-2.36979 0.9156,-0.64131 2.8589,-0.5737 3.7543,0.13062 0.6871,0.54052 1.5157,2.31964 1.3028,2.79735 -0.052,0.11706 -1.5484,0.0984 -3.3249,-0.0415 z m 25.2713,5.90804 c 0.2417,-0.20059 0.3493,-0.6705 0.2729,-1.19124 -0.1071,-0.73 -0.2054,-0.81761 -0.65,-0.57968 -0.7414,0.39679 -2.158,0.34765 -2.519,-0.0874 -0.258,-0.31082 -0.9136,-5.19327 -0.9136,-6.80343 0,-0.40718 0.344,-0.54564 1.7516,-0.70488 1.6231,-0.18364 1.7392,-0.24425 1.583,-0.82664 -0.093,-0.34566 -0.1703,-0.76592 -0.1725,-0.93391 0,-0.19475 -0.6147,-0.26125 -1.6895,-0.18351 l -1.6856,0.12193 -0.2013,-1.61094 -0.2012,-1.61094 h -1.0098 -1.0097 l 0.097,1.72319 c 0.078,1.3823 0.012,1.72396 -0.3334,1.72706 -0.8339,0.007 -1.1887,0.45264 -0.9904,1.24255 0.138,0.55005 0.3761,0.76232 0.8551,0.76232 0.7742,0 0.8778,0.36366 1.1448,4.01956 0.3258,4.46112 1.1299,5.60688 3.7822,5.38939 0.8194,-0.0672 1.6696,-0.27125 1.8891,-0.45344 z m -33.7839,-0.56189 c 0.1739,-0.11602 0.3821,-0.56624 0.4626,-1.0005 0.1408,-0.75832 0.099,-0.78955 -1.0482,-0.78955 -2.0545,0 -2.2081,-0.54049 -1.4155,-4.98331 0.2575,-1.44383 0.5559,-2.72336 0.6632,-2.84339 0.1073,-0.12003 0.8864,-0.0871 1.7316,0.0732 0.845,0.16027 1.5676,0.25847 1.6057,0.21824 0.038,-0.0402 0.114,-0.46076 0.1688,-0.9345 0.097,-0.83452 0.051,-0.8709 -1.4794,-1.16878 -1.7089,-0.33271 -1.6437,-0.21392 -1.4074,-2.56367 0.1141,-1.1359 0.1041,-1.14939 -0.9184,-1.235 l -1.0339,-0.0866 -0.2599,1.52212 c -0.2416,1.41543 -0.3126,1.5167 -1.0128,1.44494 -0.5744,-0.0589 -0.7943,0.0772 -0.9275,0.57422 -0.3006,1.12226 -0.2041,1.36918 0.5355,1.36918 0.8606,0 0.8502,-0.2578 0.1435,3.58889 -0.6962,3.78911 -0.7136,4.69772 -0.1067,5.56414 0.7961,1.13661 3.3543,1.88068 4.2988,1.25037 z m 279.8346,2.19579 c -1.7098,-0.49377 -1.8994,-1.16028 -1.6666,-5.86001 l 0.2058,-4.15518 h -0.7418 c -0.5998,0 -0.7418,-0.13735 -0.7418,-0.71778 0,-0.60612 0.134,-0.71778 0.8613,-0.71778 0.8585,0 0.8614,-0.006 0.8614,-1.67294 v -1.67294 l 0.8613,0.12641 c 0.8452,0.12405 0.8613,0.15813 0.8613,1.8165 v 1.69008 h 1.7418 c 1.7307,0 1.7411,0.005 1.6509,0.78956 -0.09,0.77962 -0.1135,0.78832 -1.8853,0.69136 l -1.7945,-0.0982 v 1.13075 c 0,0.62192 -0.082,2.28673 -0.1823,3.69958 -0.215,3.0289 0.067,3.54874 1.9255,3.54874 0.997,0 1.128,0.0794 1.128,0.68429 0,0.99189 -1.1826,1.26695 -3.085,0.71755 z m 9.8715,-0.0833 c -2.2148,-0.82232 -3.8966,-3.1874 -3.9091,-5.49705 -0.01,-1.65106 1.1926,-3.90567 2.6021,-4.88243 1.3558,-0.93954 3.6413,-1.24402 5.2796,-0.70334 4.6198,1.52468 5.2628,8.2023 1.0194,10.58721 -1.4592,0.8201 -3.5571,1.02839 -4.992,0.49561 z m 4.1573,-1.8147 c 0.9463,-0.559 1.9762,-2.44727 1.9762,-3.62326 0,-1.94225 -1.7025,-4.01541 -3.5879,-4.36912 -1.3192,-0.24748 -3.2758,0.7014 -4.0103,1.94487 -1.1368,1.92451 -0.4648,4.8639 1.3674,5.98108 1.1479,0.69989 3.1298,0.73084 4.2546,0.0664 z m 7.3199,0.56771 c -0.086,-0.43413 -0.3604,-2.59812 -0.609,-4.80888 -0.2487,-2.21076 -0.5181,-4.35915 -0.5988,-4.7742 -0.1234,-0.63515 -0.024,-0.78552 0.6308,-0.94976 0.9259,-0.23238 1.2519,0.15344 1.2582,1.48906 0.01,1.07145 0.4372,1.24871 0.6805,0.27916 0.2365,-0.94208 1.6346,-2.17685 2.7079,-2.39151 0.8707,-0.17413 0.9227,-0.13717 0.9227,0.65547 0,0.71292 -0.1983,0.93634 -1.3105,1.47669 -1.0449,0.50763 -1.4328,0.912 -1.9141,1.99521 -0.5682,1.27902 -0.5841,1.53377 -0.2713,4.352 0.1827,1.64641 0.3011,3.01713 0.2632,3.04606 -0.038,0.0289 -0.4141,0.13527 -0.8359,0.23631 -0.6684,0.16013 -0.7869,0.0824 -0.9237,-0.60561 z m -29.7567,0.14379 c 0,-0.19738 0.2828,-2.71679 0.6387,-5.59867 l 0.6471,-5.23979 h 0.7491 c 0.4119,0 0.8114,0.0624 0.8876,0.13863 0.076,0.0763 -0.015,1.27136 -0.2019,2.65579 -0.1873,1.38443 -0.5011,3.84145 -0.6973,5.46004 l -0.3567,2.94289 h -0.8291 c -0.4673,0 -0.8327,-0.15658 -0.8375,-0.35889 z m -5.7024,-0.76409 c -0.3348,-0.212 -0.2747,-0.85239 0.3715,-3.96333 0.8501,-4.09194 0.7886,-4.7225 -0.5637,-5.78622 -1.4382,-1.13129 -3.8166,-0.57725 -4.7132,1.09788 -0.1521,0.28426 -0.5468,1.79235 -0.8771,3.3513 -0.8046,3.79718 -0.8199,3.84 -1.3742,3.83495 -1.2244,-0.0111 -1.2279,-0.27559 -0.076,-5.69828 0.6126,-2.88463 1.1763,-5.30729 1.2527,-5.3837 0.076,-0.0764 0.484,-0.0523 0.9058,0.0535 0.6702,0.16823 0.7439,0.2965 0.5853,1.01887 -0.2147,0.97734 -0.046,1.02296 0.9342,0.25218 1.6231,-1.27679 4.9714,-0.48416 5.9502,1.40861 0.6171,1.19343 0.5675,2.20679 -0.3143,6.41519 -0.7854,3.74844 -0.9932,4.08781 -2.0809,3.39902 z m -17.4775,-4.32611 c -4.2671,-1.01211 -5.8411,-6.41411 -2.8334,-9.72399 2.3843,-2.62389 7.0787,-2.26693 9.153,0.69599 2.2119,3.15957 0.6335,7.79003 -3.026,8.87677 -1.5842,0.47047 -1.8887,0.48445 -3.2936,0.15123 z m 4.1322,-2.67356 c 1.6098,-1.75668 1.8081,-3.82277 0.5509,-5.74148 -0.4909,-0.74926 -2.3008,-1.63989 -3.3325,-1.63989 -1.2098,0 -2.7779,1.09742 -3.3978,2.37793 -0.7702,1.5911 -0.7658,2.85543 0.015,4.24423 0.8167,1.45319 2.0036,2.0428 3.8132,1.89432 1.182,-0.097 1.573,-0.28571 2.3514,-1.13511 z m -15.178,-1.36901 c -0.4519,-0.26675 -0.3375,-0.6158 1.2202,-3.72317 1.8857,-3.76164 2.1258,-5.04041 1.1331,-6.03311 -1.4067,-1.40678 -3.2287,-1.37427 -4.4519,0.0794 -0.4105,0.48791 -1.3842,2.15801 -2.1637,3.71135 -0.7795,1.55333 -1.4746,2.82424 -1.5447,2.82424 -0.07,0 -0.4488,-0.14645 -0.8417,-0.32545 l -0.7143,-0.32545 1.7357,-3.46241 c 1.9993,-3.98844 2.1653,-5.00221 1.0085,-6.15905 -0.6136,-0.61353 -1.0527,-0.78144 -2.0438,-0.78144 -1.7191,0 -2.391,0.69752 -4.3376,4.50317 l -1.5894,3.1073 -0.8181,-0.42305 -0.8181,-0.42306 2.611,-5.01047 2.611,-5.01048 0.8062,0.4169 c 0.784,0.4054 0.7941,0.44026 0.3682,1.26405 l -0.4382,0.84715 0.7411,-0.28175 c 1.0731,-0.408 2.6179,-0.34593 3.5638,0.14317 1.0539,0.54505 2.0208,1.77488 2.0208,2.5705 0,0.58448 0.1312,0.62028 2.2251,0.60728 2.4257,-0.0151 3.3063,0.38164 4.2107,1.89671 0.8579,1.43724 0.5873,2.71618 -1.3881,6.56106 -1.0136,1.97291 -2.0149,3.61721 -2.2251,3.65401 -0.2102,0.0368 -0.6065,-0.0656 -0.8807,-0.22744 z m 36.1511,-4.20456 c -0.3233,-0.0836 -0.4605,-0.29944 -0.3589,-0.5644 0.091,-0.23597 0.1647,-0.61227 0.1647,-0.83622 0,-0.27395 0.3288,-0.40718 1.0048,-0.40718 0.7993,0 1.0049,0.11273 1.0049,0.55074 0,1.32993 -0.417,1.61867 -1.8155,1.25706 z m -348.5405,-13.56293 -18.3113,-1.35111 -1.1703,-1.12712 c -1.8545,-1.78619 -5.7182,-6.58791 -8.0687,-10.02758 -6.2649,-9.1681 -11.0251,-19.85362 -14.261,-32.01295 -4.7554,-17.86891 -5.5262,-40.03367 -2.0323,-58.43361 4.2949,-22.61786 15.215,-43.13491 31.3273,-58.85881 3.9537,-3.85836 9.0233,-8.11142 9.3178,-7.81693 0.077,0.077 -0.058,3.2256 -0.3003,6.99682 -0.7141,11.12012 -1.301,22.46376 -1.3017,25.16014 0,2.20546 0.061,2.51092 0.5019,2.50158 0.2763,-0.006 8.73,0.53721 18.786,1.20682 l 18.2835,1.21747 -2.8154,2.92308 c -6.0588,6.29038 -10.728,12.95411 -14.6685,20.93399 -3.6618,7.41573 -5.6173,13.49981 -6.7825,21.10271 -0.6111,3.98739 -0.686,14.65263 -0.134,19.09292 1.5989,12.86235 5.9022,24.42541 12.1658,32.68963 l 1.7097,2.25581 -1.3241,16.98067 c -0.7283,9.33938 -1.3229,17.20679 -1.3213,17.48313 0,0.34046 -0.2054,0.49149 -0.6432,0.46845 -0.3553,-0.0187 -8.8861,-0.64199 -18.9574,-1.38511 z m -15.8627,-51.57384 c 3.9434,-0.87471 7.1904,-1.61545 7.2155,-1.6461 0.025,-0.0306 -0.02,-0.48784 -0.1005,-1.01598 -0.1351,-0.88841 -0.215,-0.9522 -1.0675,-0.85269 l -0.9214,0.10757 0.5549,-0.94042 c 0.3562,-0.60376 0.5509,-1.45607 0.5437,-2.3808 -0.036,-4.64972 -5.3215,-6.91358 -9.6159,-4.11865 -1.5037,0.97867 -2.6304,3.39411 -2.3631,5.06598 0.2405,1.50405 1.0871,2.87564 2.2161,3.59047 l 0.8845,0.56003 -2.2581,0.4899 c -4.0489,0.87842 -3.9887,0.85349 -3.9056,1.61806 0.1305,1.20151 0.3109,1.43141 0.9951,1.26841 0.3588,-0.0855 3.8788,-0.87107 7.8223,-1.74578 z m -1.889,-2.83303 c -1.6984,-0.96023 -2.346,-3.57026 -1.2869,-5.18667 0.6107,-0.93203 2.5396,-1.85033 3.9015,-1.85743 3.3358,-0.0174 4.8718,3.86816 2.4762,6.26375 -0.8871,0.88709 -1.2163,1.02328 -2.6769,1.10748 -1.0955,0.0632 -1.9216,-0.0488 -2.4139,-0.32713 z m 0.6044,-11.80749 c 1.342,-0.0972 2.8384,-0.34326 3.3254,-0.54671 2.6074,-1.08946 3.2213,-4.86095 1.1313,-6.95087 l -0.9535,-0.95354 h 0.8326 c 0.7602,0 0.8326,-0.0874 0.8326,-1.00489 v -1.00489 l -1.6508,0.003 c -1.9725,0.003 -9.9132,0.55531 -10.0569,0.699 -0.055,0.0555 -0.019,0.53546 0.08,1.06668 l 0.1812,0.96587 3.3545,-0.22593 c 1.8449,-0.12426 3.7536,-0.15612 4.2416,-0.0708 1.2006,0.20995 2.1426,1.28729 2.3269,2.6614 0.1294,0.96443 0.027,1.27602 -0.6765,2.06366 -0.7974,0.89244 -0.9434,0.93719 -3.8366,1.17666 -1.6542,0.13692 -3.4922,0.25457 -4.0843,0.26145 -1.0264,0.0119 -1.0767,0.0573 -1.0767,0.96956 0,0.52637 0.09,1.04675 0.1993,1.15639 0.1097,0.10964 0.9172,0.13445 1.7945,0.0551 0.8773,-0.0793 2.6931,-0.22378 4.0351,-0.32101 z m 5.4556,-14.62402 c 0,-0.55269 -0.032,-1.02209 -0.072,-1.04311 -0.039,-0.021 -2.6222,-0.18252 -5.7394,-0.35889 -6.1128,-0.34587 -5.9604,-0.37498 -5.9604,1.13837 0,0.58441 0.1477,0.70008 0.9331,0.73082 0.5132,0.0201 2.3543,0.12728 4.0913,0.23819 1.7371,0.11092 3.9658,0.22368 4.9527,0.25059 l 1.7945,0.0489 z m -13.7814,-0.71231 c 0,-0.97945 -0.1026,-1.16873 -0.7172,-1.32296 -1.1834,-0.29702 -1.5797,0.0313 -1.5797,1.30848 v 1.15746 h 1.1484 c 1.1476,0 1.1485,-8.6e-4 1.1485,-1.14298 z m 14.1813,-4.19207 c 0.352,-0.91733 0.1765,-1.54422 -0.4717,-1.68451 -0.6857,-0.14841 -14.5844,-1.8809 -15.0893,-1.8809 -0.3417,0 -0.7758,1.67269 -0.5045,1.94399 0.1705,0.17045 13.515,1.9715 15.1324,2.04233 0.4505,0.0197 0.8296,-0.15127 0.9331,-0.42091 z m -1.8066,-5.61911 c 3.2021,-1.08607 4.7323,-4.62503 3.1555,-7.29753 l -0.5959,-1.00997 0.974,0.18272 c 0.9143,0.17153 0.9862,0.12707 1.1735,-0.72572 0.1098,-0.49964 0.1355,-0.97245 0.057,-1.05068 -0.258,-0.25799 -15.4416,-4.02809 -15.5399,-3.85856 -0.053,0.0912 -0.1797,0.55617 -0.2818,1.03322 l -0.1857,0.86736 2.0359,0.52447 c 1.1198,0.28846 2.5018,0.65308 3.071,0.81025 l 1.035,0.28578 -0.8994,0.56946 c -2.1378,1.35357 -2.818,4.30861 -1.5529,6.74604 1.3053,2.51468 4.7861,3.86177 7.5534,2.92316 z m -4.0281,-2.45241 c -2.0349,-1.07142 -2.7098,-3.29871 -1.5795,-5.21225 0.9455,-1.60047 3.4992,-2.26536 5.2341,-1.36272 1.5882,0.82637 2.2108,1.80924 2.2108,3.49023 0,1.35955 -0.1124,1.66292 -0.9134,2.46384 -1.1629,1.16289 -3.3918,1.44236 -4.952,0.6209 z m 258.8108,74.27696 c -8.8431,-9.82975 -16.0783,-17.90013 -16.0783,-17.93416 0,-0.36167 35.5898,-39.47247 35.7598,-39.29759 0.7735,0.79584 37.8296,42.44715 37.7898,42.47594 -0.027,0.0195 -8.4103,-0.61968 -18.6297,-1.4203 -10.2194,-0.80063 -18.6446,-1.39176 -18.7228,-1.31363 -0.078,0.0781 -0.9201,7.56538 -1.871,16.63833 -0.951,9.07295 -1.8282,16.99744 -1.9493,17.60999 l -0.2203,1.11371 z m 216.3517,-7.63322 c -0.5455,-0.23663 -1.0291,-0.46761 -1.0748,-0.5133 -0.046,-0.0457 0.825,-1.79012 1.9348,-3.87654 1.1098,-2.08641 1.9412,-3.91758 1.8475,-4.06925 -0.094,-0.15168 -0.712,-0.2753 -1.3738,-0.2747 -2.4435,0.002 -4.0878,1.90939 -3.8816,4.50224 0.081,1.01244 0,1.27589 -0.4347,1.4137 -0.8763,0.27811 -1.1274,-0.29805 -1.0002,-2.2949 0.099,-1.55991 0.2661,-2.05916 0.9846,-2.94686 1.5647,-1.93332 2.2142,-2.25437 4.5605,-2.25437 1.8838,0 2.2394,0.0926 3.3483,0.872 3.6113,2.53811 3.7373,6.90308 0.2668,9.24185 -1.1581,0.78046 -3.6202,0.87563 -5.1774,0.20013 z m 5.0935,-2.11404 c 1.175,-1.17503 1.363,-2.39078 0.6101,-3.94607 -1.1179,-2.30933 -1.4154,-2.18737 -3.2427,1.32969 -1.1392,2.1926 -1.514,3.16588 -1.2586,3.2687 0.2001,0.0805 0.9675,0.15662 1.7054,0.16909 1.1184,0.0189 1.4822,-0.11786 2.1858,-0.82141 z m 4.6166,-7.9608 c -0.4279,-0.1139 -0.4216,-0.25057 0.072,-1.54889 0.2976,-0.78318 0.541,-1.54222 0.541,-1.68674 0,-0.40597 -6.0353,-2.64164 -6.8693,-2.54462 -0.5533,0.0644 -0.8825,0.39481 -1.3095,1.31419 -0.6727,1.44858 -1.3951,1.52022 -1.528,0.15151 -0.1082,-1.11449 0.5719,-2.50483 1.5335,-3.1349 0.8997,-0.58955 1.6486,-0.44869 5.6555,1.06376 3.0282,1.14304 3.6663,1.21046 3.6663,0.38737 0,-0.43222 0.5069,-0.53171 1.2521,-0.24574 0.3421,0.13129 0.3769,0.32812 0.159,0.90116 -0.1533,0.40324 -0.2428,0.76024 -0.1989,0.79334 0.044,0.0331 0.7442,0.29411 1.5563,0.58003 1.4403,0.50714 1.4695,0.53982 1.1921,1.33557 -0.3294,0.94493 -0.3909,0.95835 -1.763,0.38504 -1.5861,-0.66269 -1.8208,-0.56195 -2.3412,1.00489 -0.4619,1.39075 -0.6174,1.5103 -1.6177,1.24403 z m -2.9551,-10.73184 c -1.8834,-0.46976 -3.4816,-0.91137 -3.5516,-0.98135 -0.07,-0.07 -0.044,-0.45798 0.057,-0.86223 0.1538,-0.61239 0.3032,-0.70523 0.8959,-0.55648 0.841,0.2111 0.8465,0.1885 0.2472,-1.01301 -0.6116,-1.22594 -0.4177,-3.77302 0.3684,-4.84017 0.3151,-0.42771 1.0412,-1.03403 1.6137,-1.34738 0.9665,-0.5291 1.1268,-0.53934 2.2476,-0.14356 1.7372,0.61346 2.4087,1.65447 2.3695,3.6732 -0.017,0.90206 -0.303,2.33509 -0.6375,3.19942 -0.4641,1.19951 -0.5231,1.61804 -0.2524,1.79005 1.8471,1.17327 4.297,-2.02773 3.8226,-4.99443 -0.1624,-1.01562 -0.126,-1.08873 0.5416,-1.08873 0.5298,0 0.7639,0.19232 0.9016,0.74059 0.2823,1.12504 -0.1155,3.75947 -0.7579,5.0187 -1.2024,2.35681 -2.8623,2.6534 -7.8659,1.40538 z M 1908.5,340.646 c 1.0142,-2.71077 0.7387,-4.42007 -0.7988,-4.95605 -1.1122,-0.38771 -2.051,0.0933 -2.6973,1.38192 -0.953,1.90018 -0.3694,4.01329 1.3101,4.74378 1.4052,0.61115 1.5483,0.53458 2.186,-1.16965 z m -115.1112,-19.79993 v -17.37026 h 4.4502 4.4503 v 1.90279 1.9028 l 1.3079,-1.2056 c 5.4527,-5.02609 13.8611,-3.03531 17.2169,4.07627 2.6996,5.72095 1.6399,13.09492 -2.4729,17.20772 -4.0699,4.06983 -10.6936,4.37073 -14.7041,0.66797 -0.601,-0.55483 -1.1501,-1.00879 -1.2203,-1.00879 -0.07,0 -0.1275,2.5194 -0.1275,5.59867 v 5.59868 h -4.4503 -4.4502 z m 16.586,1.99607 c 2.3739,-0.99187 3.5625,-2.95105 3.5625,-5.87208 0,-3.68484 -2.3537,-6.31646 -5.6494,-6.31646 -3.2956,0 -5.6493,2.63162 -5.6493,6.31646 0,4.59805 3.8292,7.50455 7.7362,5.87208 z m -158.6365,7.41401 -4.0934,-3.6265 0.6302,-0.67077 0.6301,-0.67076 0.8929,0.86542 c 0.4911,0.47599 0.9657,0.86543 1.0547,0.86543 0.089,0 0.031,-0.48971 -0.1287,-1.08825 -0.3285,-1.23064 -0.1025,-2.80562 0.5207,-3.62933 0.4116,-0.54393 0.4328,-0.54201 1.1174,0.10111 l 0.6978,0.65556 -0.5511,0.90379 c -1.2513,2.05204 -0.5282,3.97026 2.5579,6.78608 2.1485,1.96028 2.1672,1.98968 1.6399,2.57233 -0.2933,0.32416 -0.6102,0.58331 -0.7042,0.57589 -0.094,-0.007 -2.0129,-1.64543 -4.2642,-3.64 z m 263.2116,3.13087 c -0.2368,-0.10733 -0.4716,-0.58275 -0.5217,-1.05649 -0.241,-2.28065 -2.1761,-3.7055 -5.4543,-4.01616 -3.2121,-0.30439 -3.4987,-0.39921 -3.4987,-1.15772 0,-0.37291 0.1075,-0.74444 0.2389,-0.82563 0.1313,-0.0812 2.5538,0.10267 5.3833,0.40857 2.8295,0.3059 5.2837,0.5585 5.4537,0.56134 0.1822,0.003 0.2552,0.37246 0.1779,0.8996 -0.128,0.87159 -0.1634,0.89084 -1.3858,0.75305 -0.6901,-0.0778 -1.2546,-0.079 -1.2546,-0.003 0,0.0763 0.3386,0.40513 0.7526,0.73071 1.3536,1.06476 2.1241,3.96419 1.0418,3.92072 -0.2763,-0.0111 -0.6962,-0.108 -0.9331,-0.21533 z m -148.2931,-3.0606 c -7.2185,-1.34033 -12.8761,-6.53985 -14.5332,-13.35636 -0.5481,-2.25436 -0.473,-6.65668 0.1493,-8.75691 1.8522,-6.25099 6.7393,-10.9761 13.0919,-12.65811 2.5107,-0.66478 7.2855,-0.67865 9.7618,-0.0284 6.5476,1.71947 11.7147,6.83821 13.2411,13.11715 0.5481,2.25436 0.473,6.65668 -0.1493,8.7569 -2.0908,7.05623 -7.8529,11.98028 -15.2745,13.05305 -2.5138,0.36337 -3.7827,0.33767 -6.2871,-0.12736 z m 6.8985,-8.37899 c 2.0393,-0.69488 4.47,-3.17717 5.2955,-5.40804 0.8164,-2.20617 0.7266,-5.87473 -0.1941,-7.93071 -1.4449,-3.22655 -4.2585,-5.14138 -7.8732,-5.35827 -3.102,-0.18613 -4.7653,0.41687 -6.8706,2.49089 -2.2438,2.21026 -2.9553,4.12134 -2.7913,7.49631 0.1383,2.84389 0.767,4.49662 2.3968,6.30061 1.0461,1.15788 2.6226,2.15424 4.1433,2.61847 1.293,0.39477 4.4498,0.28268 5.8936,-0.20926 z m 60.8598,8.39314 c -2.5157,-0.49722 -3.9469,-1.01601 -6.4911,-2.35297 -1.3345,-0.70126 -1.9567,-1.18613 -1.8566,-1.44691 0.1592,-0.41475 3.0485,-4.97684 3.152,-4.97684 0.033,0 0.955,0.44999 2.0482,0.99999 3.3994,1.71036 7.9104,2.34795 9.1767,1.29703 0.5805,-0.4818 0.5445,-1.53123 -0.072,-2.08709 -0.2764,-0.2493 -2.0529,-0.91962 -3.9478,-1.4896 -4.4263,-1.33137 -6.1237,-2.16724 -7.5555,-3.7206 -3.3011,-3.58131 -1.7989,-9.81845 2.9003,-12.04133 3.9776,-1.88157 9.2449,-1.61291 14.3452,0.73168 1.0659,0.48999 1.938,1.00219 1.938,1.13823 0,0.35934 -2.5887,5.09183 -2.8857,5.27536 -0.138,0.0853 -0.8788,-0.163 -1.646,-0.55181 -4.0733,-2.06409 -8.3883,-2.07529 -8.3883,-0.0218 0,0.93321 0.6749,1.31078 4.5938,2.56991 5.3892,1.73156 7.163,2.82155 8.4173,5.17244 1.2346,2.31369 0.5735,6.66098 -1.3253,8.7159 -2.363,2.55716 -7.6079,3.73625 -12.4036,2.78839 z m -176.1771,-4.69783 c -2.1196,-1.10731 -3.1924,-2.68309 -3.3547,-4.92777 -0.1058,-1.46159 -0.014,-1.90085 0.625,-2.99117 1.5587,-2.65963 4.6008,-3.37592 7.2863,-1.71559 0.7498,0.46357 1.3633,0.99168 1.3633,1.17357 0,0.18189 -1.2532,1.7486 -2.785,3.48158 -3.104,3.5118 -3.1393,3.754 -0.579,3.9742 1.0196,0.0877 1.5889,-0.0308 2.304,-0.47966 0.9804,-0.61531 2.0473,-2.51783 2.0586,-3.67072 0,-0.49598 0.173,-0.646 0.7241,-0.646 0.6196,0 0.7169,0.12751 0.7114,0.93311 -0.014,2.03961 -1.6866,4.34648 -3.7887,5.22456 -1.555,0.64957 -2.8307,0.55006 -4.5653,-0.35611 z m 1.7736,-5.28076 2.3674,-2.63742 -1.1555,-0.55963 c -1.492,-0.72264 -2.8509,-0.4873 -3.9778,0.68889 -0.6861,0.71616 -0.839,1.12279 -0.8356,2.22154 0,0.82677 0.2089,1.64913 0.5355,2.13449 0.2922,0.43425 0.5689,0.78955 0.6149,0.78955 0.046,0 1.149,-1.18683 2.4511,-2.63742 z m 251.1044,1.01499 c -0.1021,-1.20816 -0.1856,-3.14616 -0.1856,-4.30667 0,-2.41798 -0.2934,-2.62902 -2.0289,-1.45946 -1.8407,1.24046 -2.1409,3.65696 -0.7152,5.75786 0.657,0.9681 0.6643,1.03082 0.1717,1.47658 -0.4797,0.43418 -0.5644,0.40611 -1.2569,-0.41687 -1.9932,-2.36883 -1.6464,-6.32962 0.7116,-8.12587 3.0831,-2.3487 7.725,-1.33174 9.2063,2.01696 1.5087,3.41056 -0.9559,7.22511 -4.6827,7.24782 l -1.0346,0.006 -0.1857,-2.19666 z m 2.832,0.0606 c 1.0793,-0.45099 2.1476,-1.92934 2.1493,-2.97443 0,-0.81459 -0.615,-2.04346 -1.3655,-2.72268 -0.7168,-0.64869 -2.299,-1.12063 -2.526,-0.75344 -0.26,0.42075 0.2051,6.86394 0.4955,6.86394 0.1415,0 0.7025,-0.18603 1.2467,-0.41339 z m -248.37,-7.42693 c -2.5341,-2.24115 -5.211,-4.60475 -5.9487,-5.25246 l -1.3413,-1.17765 0.6543,-0.61471 0.6544,-0.61471 5.7259,5.05281 c 3.1493,2.77904 5.8246,5.14417 5.9451,5.25585 0.1205,0.11168 -0.074,0.47814 -0.4316,0.81437 l -0.6507,0.61132 z m -52.0953,-19.59525 c -9.8695,-10.97496 -18.2521,-20.33876 -18.628,-20.80844 l -0.6835,-0.85398 1.3602,-19.30731 c 0.7481,-10.61902 1.3787,-19.3281 1.4013,-19.35351 0.023,-0.0254 8.3099,0.66024 18.4162,1.52369 l 18.3752,1.56989 0.7643,0.7732 c 1.7232,1.74331 32.6842,36.63926 32.6842,36.83819 0,0.23063 -35.2607,39.40194 -35.5647,39.50906 -0.099,0.035 -8.2557,-8.91584 -18.1252,-19.89079 z m 26.4353,-8.78825 c 2.7889,-2.57977 3.9985,-4.2899 3.9985,-5.65301 0,-0.99227 -1.0432,-2.7986 -2.0167,-3.49176 -0.4847,-0.34514 -1.3962,-0.69658 -2.0255,-0.78099 -1.1037,-0.14804 -1.1267,-0.17276 -0.6499,-0.69955 0.4708,-0.52028 0.4584,-0.58191 -0.2642,-1.30442 l -0.7583,-0.75833 -4.1341,3.99923 -4.1342,3.99924 0.7158,0.77599 0.7157,0.776 2.97,-2.714 c 2.6815,-2.45028 3.0783,-2.714 4.0837,-2.714 1.2692,0 2.5179,0.82515 2.9438,1.94529 0.5023,1.32109 -0.1871,2.47728 -3.1162,5.22629 l -2.7579,2.58842 0.6752,0.71867 c 0.3713,0.39528 0.7278,0.71869 0.7921,0.71869 0.064,0 1.3973,-1.18429 2.9622,-2.63176 z m -9.3491,-9.54383 c 3.0218,-2.7563 3.9512,-4.07509 3.9512,-5.60659 0,-2.08625 -1.9872,-4.5741 -4.4884,-5.61918 -0.9355,-0.39087 -0.9752,-0.37965 -1.3175,0.37144 -0.3022,0.66321 -0.2823,0.81603 0.138,1.06373 1.6062,0.94648 2.3464,1.55853 2.927,2.42011 0.8045,1.19378 0.8274,2.04971 0.079,2.93357 -0.5514,0.65086 -0.5871,0.65626 -0.8976,0.13604 -1.2929,-2.16626 -3.7691,-3.90846 -5.5551,-3.90846 -1.4768,0 -3.0023,1.45586 -3.219,3.07201 -0.2943,2.19347 1.6525,4.57499 4.1766,5.10948 0.8836,0.18711 0.9262,0.24292 0.5064,0.66272 -0.4198,0.41981 -0.4057,0.51448 0.1671,1.12418 0.344,0.36618 0.7196,0.63099 0.8346,0.58848 0.1151,-0.0425 1.3292,-1.0989 2.6981,-2.34753 z m -5.1761,-2.25177 c -1.2867,-1.19899 -1.5777,-2.50866 -0.7427,-3.34366 1.2256,-1.22557 3.2081,-0.41145 4.9479,2.0319 l 0.6026,0.84624 -0.657,0.69932 c -1.0193,1.085 -2.8458,0.98212 -4.1508,-0.2338 z m -0.5692,-10.09349 5.7422,-5.55997 -0.686,-0.74008 c -0.6728,-0.72584 -0.6988,-0.73001 -1.3513,-0.2168 -0.3658,0.2878 -3.0159,2.80568 -5.889,5.59528 l -5.2237,5.072 0.6675,0.71052 c 0.3671,0.39079 0.7419,0.70794 0.8328,0.70478 0.091,-0.003 2.7493,-2.50774 5.9075,-5.56573 z m -7.8768,-0.17122 c 1.3452,-0.37369 3.2998,-2.07085 4.0273,-3.49683 1.1737,-2.30062 0.4887,-5.44966 -1.4922,-6.86022 -0.525,-0.37379 -1.4976,-0.70106 -2.3179,-0.77987 l -1.4133,-0.1358 0.6461,-0.6877 0.6461,-0.68771 -0.7674,-0.7673 -0.7673,-0.76731 -3.9556,3.84148 c -2.1756,2.11281 -4.5906,4.45462 -5.3665,5.20402 -1.4008,1.35289 -1.4073,1.36779 -0.9265,2.10168 0.2664,0.40652 0.6394,0.73913 0.8289,0.73913 0.1895,0 1.1555,-0.80377 2.1467,-1.78615 l 1.8022,-1.78616 v 1.07982 c 0,3.42776 3.3789,5.76969 6.9094,4.78892 z m -4.0111,-2.74826 c -1.3008,-1.09452 -1.6777,-2.63512 -1.048,-4.28387 1.0333,-2.70569 4.2598,-3.64906 6.3134,-1.84593 1.8173,1.59558 1.643,3.97342 -0.4286,5.84491 -0.9756,0.88144 -1.3297,1.02383 -2.5459,1.02383 -1.0988,0 -1.6079,-0.1642 -2.2909,-0.73894 z m 57.6481,50.75569 c -2.1196,-1.1073 -3.1924,-2.68308 -3.3547,-4.92776 -0.1058,-1.46159 -0.014,-1.90085 0.625,-2.99117 1.5587,-2.65963 4.6008,-3.37592 7.2863,-1.71559 0.7498,0.46357 1.3633,0.99168 1.3633,1.17357 0,0.18189 -1.2532,1.7486 -2.785,3.48158 -3.104,3.5118 -3.1393,3.754 -0.579,3.9742 1.0196,0.0877 1.5889,-0.0308 2.304,-0.47966 0.9804,-0.61532 2.0473,-2.51783 2.0586,-3.67072 0,-0.49598 0.173,-0.646 0.7241,-0.646 0.6197,0 0.7169,0.12751 0.7114,0.93311 -0.014,2.03961 -1.6866,4.34648 -3.7887,5.22455 -1.555,0.64958 -2.8307,0.55007 -4.5653,-0.35611 z m 1.7736,-5.28075 2.3674,-2.63742 -1.1555,-0.55963 c -1.492,-0.72264 -2.8509,-0.4873 -3.9778,0.68889 -0.6861,0.71616 -0.839,1.12279 -0.8356,2.22154 0,0.82677 0.2089,1.64912 0.5355,2.13449 0.2922,0.43425 0.5689,0.78955 0.6149,0.78955 0.046,0 1.149,-1.18684 2.4511,-2.63742 z m 234.8888,3.45692 c -1.8086,-0.89526 -2.7759,-2.49065 -2.7759,-4.5787 0,-1.27693 0.1511,-1.85217 0.6713,-2.55577 0.3692,-0.49937 0.6093,-0.97002 0.5334,-1.04587 -0.076,-0.0759 -1.1997,0.0635 -2.4975,0.30968 -3.0149,0.57192 -2.8703,0.59249 -2.8703,-0.40827 0,-1.01218 -0.735,-0.7949 7.7429,-2.28881 6.6893,-1.17873 6.8847,-1.17688 6.8954,0.0654 0,0.33813 -0.2854,0.5676 -0.8569,0.68189 -0.4737,0.0947 -0.8613,0.22467 -0.8613,0.28871 0,0.064 0.4714,0.53037 1.0476,1.03629 1.8354,1.61152 2.2768,3.63535 1.2742,5.84306 -1.2873,2.83476 -5.3272,4.12531 -8.3029,2.65239 z m 5.1374,-1.83351 c 1.8098,-0.93591 2.5453,-3.55951 1.4959,-5.33602 -0.7049,-1.19337 -2.6778,-2.08821 -4.1642,-1.88883 -2.1536,0.28885 -3.8094,2.06045 -3.8094,4.07575 0,3.0992 3.3886,4.74654 6.4777,3.1491 z m -232.4574,-4.69534 c -1.0947,-0.66749 -1.6829,-2.01228 -1.4657,-3.3506 0.1952,-1.20287 1.8173,-3.48572 3.0489,-4.29074 1.0602,-0.69305 1.1055,-1.07434 0.1859,-1.56648 -0.9451,-0.50581 -2.0231,-0.46658 -2.896,0.10539 -0.8468,0.55482 -2.4392,2.66143 -2.4392,3.22684 0,0.52582 -1.1255,0.49433 -1.3294,-0.0372 -0.2704,-0.7046 1.0087,-2.94213 2.3636,-4.1348 2.3319,-2.05261 3.9986,-1.81166 7.2376,1.04635 1.0266,0.90585 2.331,2.05266 2.8986,2.54847 1.0253,0.89573 1.0284,0.90533 0.4828,1.50976 -0.5075,0.56217 -0.6001,0.57495 -1.2203,0.16859 -0.663,-0.43446 -0.6711,-0.42659 -0.6711,0.65914 0,1.4616 -1.3252,3.54128 -2.6604,4.17486 -1.3215,0.62708 -2.4402,0.60823 -3.5353,-0.0596 z m 4.0688,-2.19452 c 1.1892,-1.26084 1.5109,-2.71499 0.8892,-4.01866 -0.6567,-1.37717 -1.4618,-1.52298 -2.7374,-0.49579 -1.1257,0.90642 -2.3289,2.76154 -2.3366,3.60269 -0.01,0.84354 1.294,1.92495 2.317,1.92495 0.6721,0 1.1639,-0.26675 1.8678,-1.01319 z m 220.7991,-6.28157 c -3.6002,-1.33977 -5.8236,-5.77036 -4.7981,-9.56097 0.4411,-1.63062 1.9049,-3.47968 3.5691,-4.50856 1.1569,-0.71526 1.7401,-0.86663 3.7225,-0.96628 2.1572,-0.10842 2.4804,-0.0499 3.9246,0.71069 3.6981,1.94749 5.3204,6.75751 3.4895,10.34631 -0.7187,1.40885 -2.1531,2.82923 -3.6278,3.59229 -1.4793,0.76547 -4.7248,0.96522 -6.2798,0.38652 z m 5.5599,-2.25595 c 3.6879,-1.83482 4.4895,-6.42241 1.623,-9.28889 -1.7441,-1.74414 -3.8632,-2.23141 -6.1678,-1.41828 -1.7183,0.60625 -2.7685,1.48867 -3.6086,3.03216 -0.9671,1.77692 -0.9771,3.44327 -0.032,5.326 1.5333,3.05436 4.853,4.00704 8.1855,2.34901 z m -221.475,2.16319 c -0.095,-0.0952 -0.1731,-0.44859 -0.1731,-0.78533 0,-0.43911 0.2843,-0.71503 1.005,-0.97566 2.2998,-0.83162 3.6763,-2.72648 2.8721,-3.95382 -0.6276,-0.95774 -1.6339,-0.86236 -3.618,0.34292 -2.9253,1.77703 -4.6832,1.577 -5.6087,-0.63823 -0.7706,-1.84427 0.5196,-4.12451 3.0629,-5.4133 1.183,-0.5995 1.3943,-0.63369 1.5417,-0.24952 0.3351,0.87328 0.1553,1.17933 -0.9985,1.69962 -0.6431,0.29 -1.4183,0.84385 -1.7227,1.23077 -0.7382,0.93858 -0.7227,2.23789 0.032,2.64163 0.7245,0.38776 1.3462,0.1974 3.4002,-1.04121 2.5586,-1.54288 4.6563,-1.26278 5.4827,0.73208 0.9215,2.22489 -1.0435,5.03996 -4.4121,6.32071 -0.3796,0.14433 -0.7681,0.18453 -0.8633,0.0893 z m 5.5351,-10.06696 c -2.1196,-1.1073 -3.1924,-2.68309 -3.3548,-4.92776 -0.1057,-1.4616 -0.014,-1.90086 0.6251,-2.99117 1.5586,-2.65964 4.6007,-3.37592 7.2863,-1.71559 0.7498,0.46357 1.3633,0.99167 1.3633,1.17356 0,0.18189 -1.2533,1.7486 -2.785,3.48158 -3.104,3.5118 -3.1393,3.754 -0.5791,3.97421 1.0196,0.0877 1.589,-0.0308 2.3041,-0.47966 0.9804,-0.61532 2.0473,-2.51784 2.0585,-3.67073 0,-0.49598 0.1731,-0.646 0.7241,-0.646 0.6197,0 0.717,0.12752 0.7115,0.93311 -0.014,2.03961 -1.6867,4.34649 -3.7887,5.22456 -1.555,0.64958 -2.8307,0.55007 -4.5653,-0.35611 z m 1.7736,-5.28075 2.3674,-2.63742 -1.1555,-0.55963 c -1.4921,-0.72264 -2.8509,-0.48731 -3.9778,0.68889 -0.6861,0.71616 -0.8391,1.12278 -0.8356,2.22154 0,0.82676 0.2088,1.64912 0.5354,2.13448 0.2922,0.43426 0.569,0.78956 0.615,0.78956 0.046,0 1.149,-1.18684 2.4511,-2.63742 z m -113.1388,-19.1216 c -12.3025,-11.07778 -28.2122,-18.44012 -44.933,-20.79296 -3.3835,-0.4761 -13.6023,-0.46538 -17.0832,0.0179 -11.348,1.5756 -24.6705,6.03362 -34.8666,11.66713 l -2.8423,1.57042 -19.0597,-1.25406 c -10.4829,-0.68974 -19.1168,-1.3111 -19.1865,-1.38082 -0.07,-0.0697 0.3359,-7.7394 0.9013,-17.04374 l 1.0281,-16.91698 0.765,-0.66507 c 0.4208,-0.3658 2.3801,-1.73879 4.354,-3.05111 15.6694,-10.41762 36.2931,-18.26076 56.6509,-21.54412 29.3739,-4.73753 54.2613,-1.34117 79.0093,10.78234 12.1608,5.95733 25.1891,14.94383 34.0227,23.46795 3.1274,3.01779 3.2563,3.18692 2.4405,3.202 -0.4738,0.009 -8.521,-0.51917 -17.8828,-1.17317 -9.3617,-0.654 -17.0679,-1.13978 -17.1247,-1.0795 -0.057,0.0603 -0.7833,8.2492 -1.6143,18.19762 -0.831,9.94842 -1.5875,18.16997 -1.6811,18.27012 -0.093,0.10015 -1.3975,-0.92314 -2.8976,-2.27396 z m -78.7566,-36.67815 c 0.9203,-0.45859 1.7373,-1.14617 2.2092,-1.85916 l 0.7487,-1.13144 -0.8426,-0.43573 c -0.8181,-0.42304 -0.8605,-0.41057 -1.4576,0.42794 -0.8893,1.24889 -2.1364,1.80859 -3.6499,1.63801 -2.2369,-0.25213 -3.6823,-2.18707 -3.4487,-4.61698 0.1161,-1.20895 0.3106,-1.59972 1.2036,-2.41812 0.9781,-0.89635 1.1865,-0.96666 2.5492,-0.86015 0.8162,0.0638 1.7014,0.21482 1.9671,0.33561 0.3633,0.16516 0.5977,-0.002 0.9454,-0.67452 l 0.4624,-0.89411 -1.008,-0.42116 c -1.3307,-0.556 -3.6987,-0.53564 -4.8449,0.0417 -2.3911,1.20439 -3.9014,3.85657 -3.5275,6.19479 0.7005,4.3804 4.8285,6.59946 8.6936,4.67336 z m 11.7363,-2.68684 c 3.1258,-1.4197 4.3424,-5.16371 2.7112,-8.34366 -2.1489,-4.18925 -8.4897,-4.20302 -10.6221,-0.0231 -1.6495,3.2332 -0.5207,6.7301 2.7226,8.43453 1.18,0.62012 3.7476,0.58656 5.1883,-0.0678 z m -4.6371,-2.00773 c -1.0778,-0.65728 -1.8436,-2.18078 -1.8422,-3.66511 0,-3.21247 3.7711,-5.04069 6.1265,-2.9726 1.2869,1.12987 1.7345,2.27185 1.546,3.944 -0.1215,1.07838 -0.3585,1.53842 -1.181,2.29214 -0.8626,0.79053 -1.2501,0.9428 -2.397,0.9419 -0.8314,-5.8e-4 -1.7148,-0.21257 -2.2523,-0.54033 z m 33.4681,1.33096 c 1.4451,-0.73696 1.5893,-0.99537 0.995,-1.78245 -0.3966,-0.52521 -0.4763,-0.5325 -1.2105,-0.1108 -1.2159,0.69836 -2.2838,0.8606 -3.5033,0.53221 -1.3301,-0.35814 -2.5942,-1.73953 -2.5942,-2.83479 v -0.7782 l 4.2332,0.48836 c 3.1942,0.3685 4.2901,0.40636 4.4647,0.15424 0.4316,-0.6229 -0.026,-3.3425 -0.779,-4.62677 -1.3152,-2.24434 -4.5911,-3.1389 -6.9973,-1.91082 -1.3431,0.6855 -1.8893,1.29095 -2.6222,2.90683 -1.0803,2.38168 -0.6096,5.14958 1.1801,6.93933 1.7564,1.75636 4.5695,2.17744 6.8335,1.02286 z m -3.8726,-6.31002 c -1.2633,-0.15167 -2.3387,-0.31621 -2.3898,-0.36564 -0.051,-0.0494 0.1166,-0.4952 0.3728,-0.99059 0.5308,-1.02655 1.9884,-2.02111 2.9644,-2.0227 1.5684,-0.003 3.2157,1.6075 3.2157,3.1429 0,0.67341 -0.3532,0.69344 -4.1631,0.23603 z m -11.2945,5.63138 c 0.4203,-0.21261 1.034,-0.72956 1.3638,-1.14879 l 0.5996,-0.76224 v 1.04361 c 0,1.00129 0.041,1.04361 1.0049,1.04361 h 1.0049 v -1.96349 c 0,-1.07991 -0.086,-4.70961 -0.1901,-8.06598 -0.2041,-6.55282 -0.213,-6.58521 -1.7197,-6.20705 l -0.7601,0.19076 0.1824,3.1882 0.1824,3.1882 -0.6458,-0.60674 c -0.8065,-0.75763 -2.5378,-1.49548 -3.5092,-1.49548 -0.9815,0 -2.7033,0.73957 -3.5411,1.52104 -1.8582,1.73335 -2.4001,4.87782 -1.277,7.41057 1.2599,2.84101 4.569,4.04772 7.305,2.66378 z m -3.4713,-1.75218 c -1.5635,-0.81324 -2.1651,-1.86014 -2.1587,-3.75673 0.01,-1.85379 0.5921,-2.99496 1.8795,-3.6607 2.6137,-1.35161 5.4256,0.59102 5.4238,3.74713 0,3.02332 -2.6948,4.94459 -5.1446,3.6703 z m 320.2526,12.59696 c -1.3354,-0.81646 -1.6747,-1.33137 -1.1592,-1.75916 0.3449,-0.28628 0.6766,-0.23346 1.7269,0.275 1.2872,0.62311 1.3093,0.62397 2.2324,0.0861 l 0.9323,-0.54324 0.1776,-3.28697 c 0.098,-1.80783 0.1946,-4.61127 0.2153,-6.22986 0.021,-1.6186 0.096,-2.9429 0.1678,-2.9429 0.072,0 0.4736,0.15649 0.8933,0.34775 l 0.7633,0.34775 -0.1948,4.46137 c -0.107,2.45375 -0.2593,4.68747 -0.3383,4.96382 -0.2811,0.98274 0.4573,0.46271 3.771,-2.65579 1.8457,-1.73702 3.5128,-3.15822 3.7046,-3.15822 0.1918,0 0.585,0.17273 0.8737,0.38386 0.4805,0.35135 0.1145,0.75567 -4.3236,4.77529 -2.6667,2.41529 -5.2361,4.63227 -5.7099,4.92663 -1.095,0.68044 -2.6278,0.68396 -3.7324,0.009 z m -7.752,-6.48287 c -1.081,-0.4839 -2.5967,-2.0657 -2.9971,-3.12774 -0.1676,-0.44454 -0.3047,-1.43743 -0.3047,-2.20642 0,-1.7838 0.3807,-2.77537 1.5249,-3.97229 1.3242,-1.38505 2.3519,-1.82737 4.2456,-1.82737 2.1063,0 3.77,0.86612 4.9834,2.59438 0.7506,1.06906 0.8723,1.49501 0.8611,3.01467 -0.026,3.57352 -2.313,5.94359 -5.7137,5.9216 -0.956,-0.006 -2.1258,-0.18475 -2.5995,-0.39683 z m 4.464,-1.67447 c 1.3194,-0.88915 2.0439,-2.23719 2.0439,-3.80325 0,-4.35678 -5.5094,-5.72089 -7.5554,-1.8707 -1.9836,3.73268 2.1213,7.95858 5.5115,5.67395 z m -28.1458,8.6e-4 c 0,-0.3553 0.3234,-3.4238 0.7129,-6.8189 0.3894,-3.39509 0.7102,-6.399 0.7128,-6.67534 0,-0.36579 0.2392,-0.50245 0.8663,-0.50245 0.7919,0 0.8613,0.0805 0.8613,0.99857 v 0.99857 l 1.3482,-0.85501 c 1.6362,-1.03761 3.1085,-1.11159 4.8966,-0.24601 3.313,1.60381 3.9506,6.70942 1.1834,9.47658 -2.0757,2.07571 -4.8946,2.15822 -7.0133,0.20528 l -1.2249,-1.12914 -0.1541,0.80248 c -0.085,0.44137 -0.2382,1.60998 -0.341,2.59693 -0.1818,1.746 -0.2093,1.79445 -1.02,1.79445 -0.674,0 -0.8322,-0.12337 -0.8282,-0.64601 z m 8.5227,-4.22327 c 3.1096,-1.89606 2.2956,-7.26917 -1.2006,-7.92507 -2.9835,-0.55971 -5.5683,2.82692 -4.4368,5.8132 0.369,0.97396 1.3484,2.0755 2.1342,2.40056 1.0075,0.41673 2.5555,0.28917 3.5032,-0.28869 z m 5.95,3.05054 c -0.081,-0.21075 0.5692,-3.70026 1.4446,-7.75447 0.8754,-4.0542 1.5916,-7.4124 1.5916,-7.46266 0,-0.0503 0.3876,-0.0345 0.8613,0.035 0.4738,0.0695 0.8614,0.20799 0.8614,0.30768 0,0.0997 -0.7332,3.57343 -1.6293,7.71942 -1.5704,7.26639 -1.6536,7.53818 -2.3059,7.53818 -0.3722,0 -0.7428,-0.17243 -0.8237,-0.38318 z m -38.8821,-0.99291 c -2.9961,-1.63811 -3.8986,-6.58128 -1.6659,-9.12418 1.2136,-1.38224 2.224,-1.84542 4.0254,-1.84542 1.1612,0 1.7833,0.17433 2.5983,0.72813 l 1.0715,0.72813 v -0.65635 c 0,-0.59607 -0.3505,-3.14532 -0.7103,-5.19629 -0.1335,-0.76034 -0.088,-0.80224 0.7811,-0.71777 l 0.9228,0.0897 1.0744,7.4649 c 0.591,4.1057 1.0179,7.6264 0.9489,7.82379 -0.069,0.19739 -0.4383,0.35889 -0.8205,0.35889 -0.5633,0 -0.7296,-0.18535 -0.8785,-0.97946 l -0.1838,-0.97945 -1.2496,1.32256 c -1.195,1.26479 -1.3295,1.32715 -3.0782,1.42741 -1.4045,0.0805 -2.0617,-0.0226 -2.8335,-0.44459 z m 4.5993,-1.49773 c 3.7,-1.88761 2.2331,-8.03927 -1.9161,-8.03524 -2.179,0.002 -3.8317,1.76701 -3.8317,4.09199 0,1.42601 1.1235,3.3847 2.2924,3.9966 1.2846,0.6724 2.0561,0.66049 3.4554,-0.0533 z m 10.1536,0.31487 c -3.1082,-1.41147 -4.1176,-5.61611 -2.1261,-8.85625 1.5167,-2.46783 5.2309,-3.04128 7.6046,-1.17411 0.9279,0.72987 1.7394,2.31851 1.9775,3.8713 0.2305,1.50308 0.1406,1.53121 -4.9104,1.53641 -3.4306,0.004 -3.8042,0.0533 -3.8032,0.50637 0,1.51196 2.0643,3.23 3.8749,3.23 0.7476,0 2.1931,-0.56538 3.0624,-1.1978 0.3786,-0.27539 0.5756,-0.26732 0.9443,0.0386 0.4227,0.35083 0.3932,0.46251 -0.3185,1.20539 -1.3726,1.43269 -4.1776,1.80638 -6.3055,0.84004 z m 4.2999,-5.94976 c 0.9598,-0.13155 1.3318,-0.31209 1.331,-0.646 0,-0.89842 -1.1659,-2.36673 -2.2303,-2.81366 -0.931,-0.39092 -1.2188,-0.39801 -2.2095,-0.0545 -1.2559,0.43548 -2.4498,1.9079 -2.4498,3.02142 0,0.64786 0.086,0.67532 2.1133,0.67532 1.1623,0 2.7127,-0.0822 3.4453,-0.18258 z"
         id="path1094"
         inkscape:connector-curvature="0" />
    </g>
    <g
       transform="translate(-8.9648437e-6)"
       aria-label="By Example"
       style="font-style:normal;font-variant:normal;font-weight:normal;font-stretch:normal;font-size:13.33333302px;line-height:1.25;font-family:Georgia;-inkscape-font-specification:Georgia;letter-spacing:0px;word-spacing:0px;fill:#d6dbdf;fill-opacity:0.94117647;stroke:none"
       id="text1325-4">
      <path
         inkscape:connector-curvature="0"
         d="m 362.03543,650.98193 v -4.01041 l 4.14063,-0.78125 v -28.30729 l -4.14063,-0.78125 v -4.03646 h 4.14063 12.5 q 6.3802,0 9.94791,2.60416 3.59375,2.57813 3.59375,7.73438 0,2.57812 -1.48437,4.63542 -1.48438,2.03125 -4.11459,3.02083 2.29167,0.49479 3.85417,1.79687 1.5625,1.30209 2.36979,3.17709 0.83334,1.84896 0.83334,4.0625 0,5.33854 -3.51563,8.125 -3.48958,2.76041 -9.73958,2.76041 z m 10.70313,-5.05208 h 7.68229 q 3.22916,0 4.94791,-1.48437 1.7448,-1.51042 1.7448,-4.34896 0,-2.00521 -0.65105,-3.41146 -0.65104,-1.40625 -1.97916,-2.16146 -1.32813,-0.75521 -3.41146,-0.75521 h -8.33333 z m 0,-16.875 h 6.66666 q 2.91667,0 4.58334,-1.40625 1.66666,-1.40625 1.66666,-3.93229 0,-2.83854 -1.77083,-4.19271 -1.77083,-1.38021 -5.20833,-1.38021 h -5.9375 z"
         style="font-style:normal;font-variant:normal;font-weight:500;font-stretch:normal;font-size:53.33333206px;font-family:'Roboto Slab';-inkscape-font-specification:'Roboto Slab Medium';fill:#d6dbdf;fill-opacity:0.94117647"
         id="path1313" />
      <path
         inkscape:connector-curvature="0"
         d="m 403.93647,662.36214 q -0.80729,0 -1.875,-0.15625 -1.04166,-0.15625 -1.82291,-0.39062 l 0.72916,-4.92188 q 0.46875,0.0781 1.11979,0.13021 0.67709,0.0521 1.06771,0.0521 1.64063,0 2.76042,-1.04166 1.11979,-1.01563 1.82292,-2.83854 l 0.85937,-2.26563 -9.63542,-23.61979 -3.28125,-0.46875 v -4.03646 h 13.64584 v 4.03646 l -3.46354,0.52083 4.89583,13.125 0.85937,2.44792 h 0.15625 l 5.78125,-15.59896 -3.46354,-0.49479 v -4.03646 h 12.94271 v 4.03646 l -3.04687,0.44271 -10.91146,27.94271 q -0.78125,1.97916 -1.95313,3.59375 -1.14583,1.64062 -2.91666,2.57812 -1.7448,0.96354 -4.27084,0.96354 z"
         style="font-style:normal;font-variant:normal;font-weight:500;font-stretch:normal;font-size:53.33333206px;font-family:'Roboto Slab';-inkscape-font-specification:'Roboto Slab Medium';fill:#d6dbdf;fill-opacity:0.94117647"
         id="path1315" />
      <path
         inkscape:connector-curvature="0"
         d="m 442.40001,650.98193 v -4.01041 l 4.14062,-0.78125 v -28.30729 l -4.14062,-0.78125 v -4.03646 h 28.88021 v 9.76562 h -5.10417 l -0.44271,-4.71354 h -12.63021 v 10.72917 h 13.3073 v 5.07812 h -13.3073 v 12.05729 h 13.33334 l 0.44271,-4.8177 h 5.05208 v 9.8177 z"
         style="font-style:normal;font-variant:normal;font-weight:500;font-stretch:normal;font-size:53.33333206px;font-family:'Roboto Slab';-inkscape-font-specification:'Roboto Slab Medium';fill:#d6dbdf;fill-opacity:0.94117647"
         id="path1317" />
      <path
         inkscape:connector-curvature="0"
         d="m 475.62918,650.98193 v -4.01041 l 3.41146,-0.52084 8.20312,-9.63541 -7.86458,-9.45313 -3.15104,-0.52083 v -4.03646 h 12.73437 v 3.93229 l -2.44792,0.3125 4.79167,6.14584 4.73958,-6.14584 -2.68229,-0.3125 v -3.93229 h 12.36979 v 4.03646 l -3.02083,0.52083 -7.39583,9.24479 8.35937,9.84375 3.22917,0.52084 v 4.01041 h -13.41146 v -3.90625 l 2.83854,-0.3125 -5.10416,-6.27604 -4.97396,6.30209 2.65625,0.28645 v 3.90625 z"
         style="font-style:normal;font-variant:normal;font-weight:500;font-stretch:normal;font-size:53.33333206px;font-family:'Roboto Slab';-inkscape-font-specification:'Roboto Slab Medium';fill:#d6dbdf;fill-opacity:0.94117647"
         id="path1319" />
      <path
         inkscape:connector-curvature="0"
         d="m 518.85834,651.52881 q -4.29687,0 -6.69271,-2.21354 -2.39583,-2.21354 -2.39583,-6.09375 0,-2.65625 1.45833,-4.66146 1.45834,-2.00521 4.27084,-3.125 2.8125,-1.14583 6.82291,-1.14583 h 4.29688 v -2.3698 q 0,-2.23958 -1.35417,-3.5677 -1.32812,-1.32813 -3.88021,-1.32813 -1.45833,0 -2.57812,0.36458 -1.11979,0.33855 -2.00521,0.98959 l -0.59896,3.80208 h -4.81771 l -0.0521,-6.95312 q 2.08333,-1.35417 4.63542,-2.13542 2.55208,-0.80729 5.67708,-0.80729 5.36458,0 8.4375,2.52604 3.09896,2.5 3.09896,7.1875 v 12.42187 q 0,0.57292 0,1.1198 0.026,0.54687 0.0781,1.0677 l 2.86459,0.36459 v 4.01041 h -8.56771 q -0.26042,-0.91145 -0.49479,-1.77083 -0.20834,-0.85937 -0.3125,-1.71875 -1.40625,1.77083 -3.41146,2.91667 -1.97917,1.11979 -4.47917,1.11979 z m 1.48438,-5.07813 q 1.97916,0 3.69791,-0.91145 1.71875,-0.9375 2.57813,-2.34375 v -4.71355 h -4.375 q -2.94271,0 -4.45313,1.38021 -1.48437,1.35417 -1.48437,3.17709 0,1.64062 1.04167,2.52604 1.04166,0.88541 2.99479,0.88541 z"
         style="font-style:normal;font-variant:normal;font-weight:500;font-stretch:normal;font-size:53.33333206px;font-family:'Roboto Slab';-inkscape-font-specification:'Roboto Slab Medium';fill:#d6dbdf;fill-opacity:0.94117647"
         id="path1321" />
      <path
         inkscape:connector-curvature="0"
         d="m 539.17085,650.98193 v -4.01041 l 3.93229,-0.78125 v -18.56771 l -4.14063,-0.78125 v -4.03646 h 10.15625 l 0.3125,3.69792 q 1.38021,-2.00521 3.4375,-3.09896 2.08334,-1.11979 4.81771,-1.11979 2.76042,0 4.71354,1.25 1.97917,1.22396 2.9948,3.72396 1.30208,-2.31771 3.41145,-3.64584 2.13542,-1.32812 5,-1.32812 4.24479,0 6.66667,2.89062 2.44792,2.89063 2.44792,8.75 v 12.26563 l 3.93229,0.78125 v 4.01041 h -14.19271 v -4.01041 l 3.69792,-0.78125 V 633.8986 q 0,-3.56771 -1.19792,-5 -1.19792,-1.43229 -3.51562,-1.43229 -2.16146,0 -3.56771,1.38021 -1.38021,1.38021 -1.79688,3.51562 v 13.82813 l 3.56771,0.78125 v 4.01041 h -13.67187 v -4.01041 l 3.5677,-0.78125 V 633.8986 q 0,-3.4375 -1.22395,-4.92187 -1.22396,-1.51042 -3.54167,-1.51042 -1.92708,0 -3.25521,0.78125 -1.30208,0.78125 -2.08333,2.21354 v 15.72917 l 3.67187,0.78125 v 4.01041 z"
         style="font-style:normal;font-variant:normal;font-weight:500;font-stretch:normal;font-size:53.33333206px;font-family:'Roboto Slab';-inkscape-font-specification:'Roboto Slab Medium';fill:#d6dbdf;fill-opacity:0.94117647"
         id="path1323" />
      <path
         inkscape:connector-curvature="0"
         d="m 589.48334,661.81527 v -4.03646 l 3.80208,-0.78125 v -29.375 l -4.14062,-0.78125 v -4.03646 h 10.02604 l 0.41666,3.33333 q 1.30209,-1.84895 3.17709,-2.83854 1.875,-1.01562 4.42708,-1.01562 3.4375,0 5.88542,1.875 2.44791,1.875 3.72396,5.23437 1.30208,3.35938 1.30208,7.86459 v 0.54687 q 0,4.11458 -1.30208,7.21354 -1.30209,3.07292 -3.75,4.79167 -2.42188,1.71875 -5.85938,1.71875 -2.42187,0 -4.24479,-0.83333 -1.82292,-0.85938 -3.125,-2.5 v 8.80208 l 4.01042,0.78125 v 4.03646 z m 15.72916,-15.33854 q 3.22917,0 4.76563,-2.3698 1.5625,-2.39583 1.5625,-6.30208 v -0.54687 q 0,-2.91667 -0.70313,-5.10417 -0.67708,-2.21354 -2.10937,-3.4375 -1.40625,-1.25 -3.56771,-1.25 -1.82292,0 -3.17708,0.83333 -1.32813,0.80729 -2.16146,2.29167 v 12.91667 q 0.83333,1.43229 2.16146,2.21354 1.32812,0.75521 3.22916,0.75521 z"
         style="font-style:normal;font-variant:normal;font-weight:500;font-stretch:normal;font-size:53.33333206px;font-family:'Roboto Slab';-inkscape-font-specification:'Roboto Slab Medium';fill:#d6dbdf;fill-opacity:0.94117647"
         id="path1325" />
      <path
         inkscape:connector-curvature="0"
         d="m 620.97513,650.98193 v -4.01041 l 3.93229,-0.78125 v -31.01563 l -4.16667,-0.78125 v -4.03646 h 10.70313 v 35.83334 l 3.93229,0.78125 v 4.01041 z"
         style="font-style:normal;font-variant:normal;font-weight:500;font-stretch:normal;font-size:53.33333206px;font-family:'Roboto Slab';-inkscape-font-specification:'Roboto Slab Medium';fill:#d6dbdf;fill-opacity:0.94117647"
         id="path1327" />
      <path
         inkscape:connector-curvature="0"
         d="m 651.02721,651.52881 q -3.98437,0 -6.95312,-1.77083 -2.94271,-1.79688 -4.58334,-4.94792 -1.61458,-3.15104 -1.61458,-7.21354 v -1.09375 q 0,-4.11459 1.58854,-7.31771 1.61458,-3.22917 4.42708,-5.05208 2.8125,-1.84896 6.40625,-1.84896 3.82813,0 6.40625,1.53646 2.60417,1.53645 3.9323,4.375 1.32812,2.8125 1.32812,6.77083 v 3.75 h -17.29167 l -0.0521,0.13021 q 0.10417,2.21354 0.91146,3.93229 0.83333,1.71875 2.34375,2.70833 1.53646,0.98959 3.72396,0.98959 2.29166,0 4.16666,-0.625 1.875,-0.625 3.46355,-1.77084 l 2.05729,4.11459 q -1.66667,1.40625 -4.24479,2.36979 -2.57813,0.96354 -6.01563,0.96354 z m -6.25,-17.42188 h 10.91146 v -0.67708 q 0,-1.84896 -0.57292,-3.22917 -0.54687,-1.40625 -1.74479,-2.1875 -1.17187,-0.78125 -2.99479,-0.78125 -1.58854,0 -2.78646,0.88542 -1.19792,0.88542 -1.92708,2.42188 -0.70313,1.51041 -0.96354,3.4375 z"
         style="font-style:normal;font-variant:normal;font-weight:500;font-stretch:normal;font-size:53.33333206px;font-family:'Roboto Slab';-inkscape-font-specification:'Roboto Slab Medium';fill:#d6dbdf;fill-opacity:0.94117647"
         id="path1329" />
    </g>
  </g>
</svg>
