<?xml version="1.0" encoding="UTF-8" standalone="no"?>
<svg
   xmlns:dc="http://purl.org/dc/elements/1.1/"
   xmlns:cc="http://creativecommons.org/ns#"
   xmlns:rdf="http://www.w3.org/1999/02/22-rdf-syntax-ns#"
   xmlns:svg="http://www.w3.org/2000/svg"
   xmlns="http://www.w3.org/2000/svg"
   xmlns:xlink="http://www.w3.org/1999/xlink"
   xmlns:sodipodi="http://sodipodi.sourceforge.net/DTD/sodipodi-0.dtd"
   xmlns:inkscape="http://www.inkscape.org/namespaces/inkscape"
   width="1024"
   height="512"
   viewBox="0 0 1024.0001 512.00002"
   id="svg2"
   version="1.1"
   inkscape:version="0.92.5 (2060ec1f9f, 2020-04-08)"
   sodipodi:docname="devops.svg"
   inkscape:export-filename="/Users/marcelo.felix/default/projects/bandonga/posts/images/sip.png"
   inkscape:export-xdpi="96"
   inkscape:export-ydpi="96">
  <defs
     id="defs4">
    <linearGradient
       inkscape:collect="always"
       id="linearGradient4542">
      <stop
         style="stop-color:#ebedef;stop-opacity:1;"
         offset="0"
         id="stop4538" />
      <stop
         style="stop-color:#ebedef;stop-opacity:0;"
         offset="1"
         id="stop4540" />
    </linearGradient>
    <rect
       x="-53.125"
       y="1432.5497"
       width="862.5"
       height="918.75"
       id="rect1298" />
    <linearGradient
       inkscape:collect="always"
       id="linearGradient5741">
      <stop
         style="stop-color:#212f3c;stop-opacity:1"
         offset="0"
         id="stop5743" />
      <stop
         style="stop-color:#17202a;stop-opacity:1"
         offset="1"
         id="stop5745" />
    </linearGradient>
    <linearGradient
       inkscape:collect="always"
       xlink:href="#linearGradient5741"
       id="linearGradient5747"
       x1="553.625"
       y1="989.86218"
       x2="491.68762"
       y2="591.42468"
       gradientUnits="userSpaceOnUse"
       gradientTransform="translate(1.0625571,-1.3123785)" />
    <linearGradient
       inkscape:collect="always"
       xlink:href="#linearGradient4542"
       id="linearGradient4544"
       x1="315.5401"
       y1="637.81217"
       x2="707.31489"
       y2="637.81217"
       gradientUnits="userSpaceOnUse" />
    <clipPath
       clipPathUnits="userSpaceOnUse"
       id="clipPath844">
      <g
         inkscape:label="Clip"
         id="use846">
        <text
           inkscape:export-ydpi="90"
           inkscape:export-xdpi="90"
           transform="scale(1.0015244,0.99847792)"
           id="text943"
           y="908.02124"
           x="341.66965"
           style="font-style:normal;font-weight:normal;font-size:96px;line-height:0%;font-family:sans-serif;letter-spacing:0px;word-spacing:0px;fill:#d6dbdf;fill-opacity:0.94117647;stroke:none;stroke-width:1px;stroke-linecap:butt;stroke-linejoin:miter;stroke-opacity:1"
           xml:space="preserve"><tspan
             style="font-style:normal;font-variant:normal;font-weight:bold;font-stretch:normal;font-size:229.33332825px;line-height:1.25;font-family:Impact;-inkscape-font-specification:'Impact Bold';fill:#d6dbdf;fill-opacity:0.94117647"
             y="908.02124"
             x="341.66965"
             id="tspan941"
             sodipodi:role="line">DevOps</tspan></text>
        <g
           aria-label="DevOps"
           transform="scale(1.0015244,0.99847792)"
           style="font-style:normal;font-weight:normal;font-size:96px;line-height:0%;font-family:sans-serif;letter-spacing:0px;word-spacing:0px;fill:#d6dbdf;fill-opacity:0.94117647;stroke:none;stroke-width:1px;stroke-linecap:butt;stroke-linejoin:miter;stroke-opacity:1"
           id="g951">
          <path
             d="m 450.96131,781.59676 h -43.78385 v -13.4375 q 0,-9.40625 -1.67969,-11.98177 -1.67969,-2.57552 -5.59896,-2.57552 -4.25521,0 -6.49479,3.47136 -2.1276,3.47135 -2.1276,10.52604 0,9.07031 2.46354,13.66146 2.35156,4.59114 13.32552,11.08593 31.46614,18.70052 39.64062,30.68229 8.17448,11.98178 8.17448,38.63282 0,19.37239 -4.59114,28.55468 -4.47917,9.18229 -17.46875,15.45313 -12.98959,6.15885 -30.23438,6.15885 -18.92448,0 -32.36198,-7.16666 -13.32552,-7.16667 -17.46875,-18.25261 -4.14322,-11.08594 -4.14322,-31.46614 v -11.86979 h 43.78385 v 22.05989 q 0,10.1901 1.79167,13.10156 1.90364,2.91146 6.60677,2.91146 4.70312,0 6.9427,-3.69531 2.35157,-3.69531 2.35157,-10.97396 0,-16.01302 -4.36719,-20.9401 -4.47917,-4.92709 -22.0599,-16.46094 -17.58072,-11.64583 -23.29166,-16.90885 -5.71094,-5.26303 -9.51823,-14.5573 -3.69531,-9.29427 -3.69531,-23.73958 0,-20.82812 5.26302,-30.45833 5.375,-9.63021 17.24479,-15.00521 11.86979,-5.48698 28.66666,-5.48698 18.36459,0 31.24219,5.9349 12.98958,5.93489 17.13281,15.00521 4.25521,8.95833 4.25521,30.57031 z"
             style="font-style:normal;font-variant:normal;font-weight:bold;font-stretch:normal;font-size:229.33332825px;line-height:1.25;font-family:Impact;-inkscape-font-specification:'Impact Bold';fill:#d6dbdf;fill-opacity:0.94117647"
             id="path945"
             inkscape:connector-curvature="0" />
          <path
             d="m 469.66183,726.72697 h 33.3698 q 33.36979,0 45.1276,2.57552 11.86979,2.57552 19.26041,13.21355 7.50261,10.52604 7.50261,33.70572 0,21.16407 -5.26302,28.44271 -5.26302,7.27865 -20.71615,8.73438 13.9974,3.47135 18.8125,9.29427 4.81511,5.82291 5.9349,10.75 1.23177,4.8151 1.23177,26.76302 v 47.8151 H 531.1384 v -60.24479 q 0,-14.55729 -2.35157,-18.02865 -2.23958,-3.47135 -11.98177,-3.47135 v 81.74479 h -47.14323 z m 47.14323,31.01823 v 40.3125 q 7.95052,0 11.08594,-2.1276 3.2474,-2.23959 3.2474,-14.22136 v -9.96614 q 0,-8.6224 -3.13542,-11.3099 -3.02344,-2.6875 -11.19792,-2.6875 z"
             style="font-style:normal;font-variant:normal;font-weight:bold;font-stretch:normal;font-size:229.33332825px;line-height:1.25;font-family:Impact;-inkscape-font-specification:'Impact Bold';fill:#d6dbdf;fill-opacity:0.94117647"
             id="path947"
             inkscape:connector-curvature="0" />
          <path
             d="m 593.17485,726.72697 h 78.60937 v 36.28125 h -31.46614 v 34.37761 h 29.45052 v 34.48958 h -29.45052 v 39.86458 h 34.60156 v 36.28125 h -81.74479 z"
             style="font-style:normal;font-variant:normal;font-weight:bold;font-stretch:normal;font-size:229.33332825px;line-height:1.25;font-family:Impact;-inkscape-font-specification:'Impact Bold';fill:#d6dbdf;fill-opacity:0.94117647"
             id="path949"
             inkscape:connector-curvature="0" />
        </g>
        <text
           inkscape:export-ydpi="90"
           inkscape:export-xdpi="90"
           transform="scale(1.0015244,0.99847792)"
           id="text955"
           y="1310.491"
           x="329.87048"
           style="font-style:normal;font-weight:normal;font-size:96px;line-height:0%;font-family:sans-serif;letter-spacing:0px;word-spacing:0px;display:inline;opacity:0.98000004;fill:#11dbdf;fill-opacity:0.94117647;stroke:none;stroke-width:1px;stroke-linecap:butt;stroke-linejoin:miter;stroke-opacity:1"
           xml:space="preserve"><tspan
             style="font-style:normal;font-variant:normal;font-weight:bold;font-stretch:normal;font-size:229.33332825px;line-height:1.25;font-family:Impact;-inkscape-font-specification:'Impact Bold';fill:#11dbdf;fill-opacity:0.94117647"
             y="1310.491"
             x="329.87048"
             id="tspan953"
             sodipodi:role="line">DevOps</tspan></text>
      </g>
    </clipPath>
  </defs>
  <sodipodi:namedview
     id="base"
     pagecolor="#ffffff"
     bordercolor="#666666"
     borderopacity="1.0"
     inkscape:pageopacity="0.0"
     inkscape:pageshadow="2"
     inkscape:zoom="0.64"
     inkscape:cx="757.95423"
     inkscape:cy="-153.17552"
     inkscape:document-units="px"
     inkscape:current-layer="layer1"
     showgrid="false"
     units="px"
     inkscape:window-width="1878"
     inkscape:window-height="1023"
     inkscape:window-x="42"
     inkscape:window-y="387"
     inkscape:window-maximized="1"
     showguides="true"
     inkscape:document-rotation="0" />
  <metadata
     id="metadata7">
    <rdf:RDF>
      <cc:Work
         rdf:about="">
        <dc:format>image/svg+xml</dc:format>
        <dc:type
           rdf:resource="http://purl.org/dc/dcmitype/StillImage" />
        <dc:title />
      </cc:Work>
    </rdf:RDF>
  </metadata>
  <g
     style="display:inline"
     inkscape:label="Layer 1"
     inkscape:groupmode="layer"
     id="layer1"
     transform="translate(0,-540.36216)">
    <rect
       style="opacity:1;fill:url(#linearGradient5747);fill-opacity:1;stroke:none;stroke-width:5;stroke-linecap:round;stroke-linejoin:round;stroke-miterlimit:4;stroke-dasharray:none;stroke-opacity:1"
       id="rect4164-4"
       width="1024.0001"
       height="512.00006"
       x="0"
       y="540.36218" />
    <rect
       style="opacity:1;fill:#22995f;fill-opacity:0.94117599;stroke:none;stroke-width:5;stroke-linecap:round;stroke-linejoin:round;stroke-miterlimit:4;stroke-dasharray:none;stroke-opacity:1"
       id="rect4164"
       width="1024.0001"
       height="512.00006"
       x="4.2261887"
       y="1112.8101" />
    <flowRoot
       xml:space="preserve"
       id="flowRoot4235"
       style="font-style:normal;font-weight:normal;line-height:0.01%;font-family:sans-serif;letter-spacing:0px;word-spacing:0px;fill:#000000;fill-opacity:1;stroke:none;stroke-width:1px;stroke-linecap:butt;stroke-linejoin:miter;stroke-opacity:1"
       transform="matrix(0.99896342,0,0,0.9974429,1.0614558,1.381783)"><flowRegion
         id="flowRegion4237"><rect
           id="rect4239"
           width="218.75"
           height="14.0625"
           x="150.78125"
           y="642.96875" /></flowRegion><flowPara
         id="flowPara4241"
         style="font-size:10px;line-height:1.25"> </flowPara></flowRoot>    <g
       id="g939"
       style="stroke:#f39c12;stroke-opacity:1"
       transform="matrix(0.16316486,0,0,0.1631657,894.04426,776.11777)"
       inkscape:export-xdpi="96"
       inkscape:export-ydpi="96">
      <path
         transform="matrix(-0.75451103,0,0,-0.54952197,1101.4103,1279.4667)"
         d="m 818.15623,151.40733 c 16.6645,7.97257 6.7161,31.18806 -4.31737,38.90375 -24.4319,17.0852 -56.67701,0.42955 -68.52922,-23.72688 -18.85616,-38.43145 5.72937,-82.950654 43.13639,-98.154695 C 840.46905,47.284808 897.92914,80.282292 916.2262,130.97542 939.86599,196.4709 898.27346,267.1046 834.27078,288.38106 755.35114,314.61636 671.43491,264.34242 647.23966,187.01612 618.35294,94.696166 677.35547,-2.5627125 768.01412,-29.640471 873.721,-61.212808 984.35938,6.5468433 1014.2962,110.5435 1048.5765,229.6291 972.04122,353.67126 854.70269,386.45103 722.24376,423.45485 584.78094,338.13115 549.16969,207.44803 509.4313,61.619488 603.55249,-89.276217 747.5822,-127.71045 c 9.03621,-2.4113 18.19014,-4.38086 27.41802,-5.90175"
         sodipodi:t0="0.042052984"
         sodipodi:argument="-19.817743"
         sodipodi:radius="289.19339"
         sodipodi:revolution="2.8868599"
         sodipodi:expansion="1"
         sodipodi:cy="153.88779"
         sodipodi:cx="806.25043"
         id="path881-7"
         style="fill:none;fill-opacity:1;fill-rule:evenodd;stroke:#f39c12;stroke-width:46.5903;stroke-miterlimit:4;stroke-dasharray:none;stroke-opacity:1"
         sodipodi:type="spiral" />
      <text
         transform="scale(1.0067661,0.99327937)"
         id="text3340-3"
         y="1527.2913"
         x="689.02264"
         style="font-style:normal;font-weight:normal;font-size:12.0903px;line-height:0%;font-family:sans-serif;letter-spacing:0px;word-spacing:0px;fill:#000000;fill-opacity:1;stroke:#f39c12;stroke-width:30;stroke-linecap:butt;stroke-linejoin:miter;stroke-miterlimit:4;stroke-dasharray:none;stroke-opacity:1"
         xml:space="preserve"><tspan
           style="font-size:39.9579px;line-height:1.25;stroke:#f39c12;stroke-width:30;stroke-miterlimit:4;stroke-dasharray:none;stroke-opacity:1"
           y="1527.2913"
           x="689.02264"
           id="tspan3342-6"
           sodipodi:role="line"> </tspan></text>
      <path
         transform="matrix(0.75451103,0,0,0.54952197,1094.7544,1224.2565)"
         d="m -729.37901,420.178 c 15.13108,11.98047 1.37745,33.94081 -11.81227,40.29637 -27.87814,13.43328 -58.40934,-8.38434 -66.9121,-35.17893 -13.30648,-41.93247 18.1631,-83.59679 58.54559,-93.52784 55.69793,-13.69748 109.02445,27.94081 120.14356,81.91225 14.29412,69.3827 -37.71125,134.56094 -105.2789,146.7593 -83.03614,14.99097 -160.1564,-47.47646 -173.37503,-128.64556 -15.74378,-96.67473 57.23825,-185.78748 152.01222,-199.99077 110.30527,-16.53088 211.44174,66.99781 226.6065,175.37888 17.34051,123.93103 -76.75584,237.11196 -198.74554,253.22223 -137.55374,18.1657 -262.7936,-86.51281 -279.83792,-222.11219 -18.395,-146.34425 89.31287,-280.99238 233.03269,-304.67954"
         sodipodi:t0="0.04979825"
         sodipodi:argument="-19.817743"
         sodipodi:radius="289.19339"
         sodipodi:revolution="2.8868599"
         sodipodi:expansion="1"
         sodipodi:cy="421.11218"
         sodipodi:cx="-743.75"
         id="path881"
         style="fill:none;fill-opacity:1;fill-rule:evenodd;stroke:#f39c12;stroke-width:46.5903;stroke-miterlimit:4;stroke-dasharray:none;stroke-opacity:1"
         sodipodi:type="spiral" />
      <path
         sodipodi:nodetypes="cc"
         inkscape:connector-curvature="0"
         id="path941"
         d="m 479.46207,1186.0292 68.02455,279.0628"
         style="fill:none;stroke:#f39c12;stroke-width:30;stroke-linecap:butt;stroke-linejoin:miter;stroke-miterlimit:4;stroke-dasharray:none;stroke-opacity:1" />
    </g>
    <text
       xml:space="preserve"
       id="text1296"
       style="font-size:26.66669999999999874px;line-height:1.25;font-family:Verdana;-inkscape-font-specification:Verdana;white-space:pre;shape-inside:url(#rect1298);" />
    <g
       inkscape:groupmode="layer"
       id="layer2"
       inkscape:label="draft" />
    <g
       aria-label="Learn more about"
       transform="matrix(1.0007619,0,0,0.99923868,0,15.090008)"
       style="font-style:normal;font-variant:normal;font-weight:normal;font-stretch:normal;line-height:0%;font-family:Georgia;-inkscape-font-specification:Georgia;letter-spacing:0px;word-spacing:0px;display:inline;fill:#d6dbdf;fill-opacity:0.94117647;stroke:none;stroke-width:1px;stroke-linecap:butt;stroke-linejoin:miter;stroke-opacity:1"
       id="text4440-8-2">
      <path
         d="m 291.38892,637.21082 v -3.28125 l 4.24479,-0.72917 v -29.86979 l -4.24479,-0.72917 v -3.30729 h 4.24479 5.13021 4.24479 v 3.30729 l -4.24479,0.72917 v 29.94791 h 13.41145 l 0.59896,-5.98958 h 3.93229 v 9.92188 z"
         style="font-style:normal;font-variant:normal;font-weight:normal;font-stretch:normal;font-size:53.33333206px;line-height:1.25;font-family:'Roboto Slab';-inkscape-font-specification:'Roboto Slab';fill:#d6dbdf;fill-opacity:0.94117647"
         id="path942"
         inkscape:connector-curvature="0" />
      <path
         d="m 336.07642,637.75769 q -3.90625,0 -6.79688,-1.77083 -2.89062,-1.79688 -4.47917,-4.97396 -1.5625,-3.17708 -1.5625,-7.34375 v -1.14583 q 0,-4.01042 1.64063,-7.16146 1.66667,-3.17709 4.40104,-5 2.76042,-1.84896 6.01563,-1.84896 3.80208,0 6.35416,1.5625 2.57813,1.5625 3.88021,4.40104 1.30208,2.8125 1.30208,6.64063 v 3.20312 h -18.28125 l -0.0781,0.13021 q 0.0521,2.70833 0.9375,4.81771 0.91146,2.08333 2.60417,3.28125 1.6927,1.19791 4.0625,1.19791 2.60416,0 4.55729,-0.72916 1.97916,-0.75521 3.41146,-2.05729 l 2.0052,3.33333 q -1.51041,1.45833 -4.01041,2.47396 -2.47396,0.98958 -5.96354,0.98958 z m -7.3698,-17.44792 h 12.9948 v -0.67708 q 0,-2.03125 -0.72917,-3.61979 -0.70313,-1.61458 -2.13542,-2.52604 -1.40625,-0.9375 -3.54166,-0.9375 -1.71875,0 -3.125,1.01562 -1.40625,0.98959 -2.31771,2.70834 -0.91146,1.71875 -1.19792,3.90625 z"
         style="font-style:normal;font-variant:normal;font-weight:normal;font-stretch:normal;font-size:53.33333206px;line-height:1.25;font-family:'Roboto Slab';-inkscape-font-specification:'Roboto Slab';fill:#d6dbdf;fill-opacity:0.94117647"
         id="path944"
         inkscape:connector-curvature="0" />
      <path
         d="m 360.32121,637.75769 q -4.40104,0 -6.69271,-2.13542 -2.29167,-2.16145 -2.29167,-6.0677 0,-2.6823 1.45834,-4.66146 1.48437,-2.00521 4.27083,-3.09896 2.78646,-1.11979 6.66667,-1.11979 h 5.02604 v -2.76042 q 0,-2.55208 -1.5625,-3.95833 -1.53646,-1.40625 -4.34896,-1.40625 -1.77083,0 -3.07292,0.44271 -1.30208,0.41666 -2.36979,1.17187 l -0.54687,3.93229 h -3.95834 v -6.45833 q 1.90104,-1.53646 4.42709,-2.31771 2.52604,-0.80729 5.59895,-0.80729 5.13021,0 8.04688,2.44792 2.91667,2.44791 2.91667,7.0052 v 13.56771 q 0,0.54688 0,1.06771 0.026,0.52083 0.0781,1.04167 l 2.73438,0.28646 v 3.28125 h -7.3698 q -0.23437,-1.14584 -0.36458,-2.0573 -0.13021,-0.91145 -0.18229,-1.82291 -1.48438,1.90104 -3.72396,3.17708 -2.21354,1.25 -4.73958,1.25 z m 0.75521,-4.29687 q 2.55208,0 4.66145,-1.22396 2.10938,-1.22396 3.02084,-2.94271 v -5.10417 h -5.20834 q -3.54166,0 -5.3125,1.69271 -1.77083,1.69271 -1.77083,3.77604 0,1.84896 1.14583,2.83854 1.14584,0.96355 3.46355,0.96355 z"
         style="font-style:normal;font-variant:normal;font-weight:normal;font-stretch:normal;font-size:53.33333206px;line-height:1.25;font-family:'Roboto Slab';-inkscape-font-specification:'Roboto Slab';fill:#d6dbdf;fill-opacity:0.94117647"
         id="path946"
         inkscape:connector-curvature="0" />
      <path
         d="m 380.63371,637.21082 v -3.28125 l 4.24479,-0.72917 v -20.13021 l -4.24479,-0.72917 v -3.30729 h 8.82812 l 0.44271,3.59375 0.0521,0.49479 q 1.19792,-2.16145 2.94271,-3.38541 1.77083,-1.22396 4.03646,-1.22396 0.80729,0 1.64062,0.15625 0.85938,0.13021 1.22396,0.26042 l -0.67708,4.76562 -3.56771,-0.20833 q -2.03125,-0.13021 -3.41146,0.9375 -1.38021,1.04166 -2.13542,2.8125 v 15.96354 l 4.2448,0.72917 v 3.28125 z"
         style="font-style:normal;font-variant:normal;font-weight:normal;font-stretch:normal;font-size:53.33333206px;line-height:1.25;font-family:'Roboto Slab';-inkscape-font-specification:'Roboto Slab';fill:#d6dbdf;fill-opacity:0.94117647"
         id="path948"
         inkscape:connector-curvature="0" />
      <path
         d="m 402.92537,637.21082 v -3.28125 l 4.2448,-0.72917 v -20.13021 l -4.2448,-0.72917 v -3.30729 h 8.82813 l 0.36458,4.19271 q 1.40625,-2.23958 3.51563,-3.46354 2.13541,-1.25 4.84375,-1.25 4.55729,0 7.05729,2.68229 2.5,2.65625 2.5,8.22917 v 13.77604 l 4.24479,0.72917 v 3.28125 h -13.61979 v -3.28125 l 4.24479,-0.72917 v -13.67188 q 0,-3.72395 -1.48437,-5.28645 -1.45834,-1.5625 -4.47917,-1.5625 -2.21354,0 -3.93229,1.0677 -1.69271,1.06771 -2.70834,2.91667 v 16.53646 l 4.2448,0.72917 v 3.28125 z"
         style="font-style:normal;font-variant:normal;font-weight:normal;font-stretch:normal;font-size:53.33333206px;line-height:1.25;font-family:'Roboto Slab';-inkscape-font-specification:'Roboto Slab';fill:#d6dbdf;fill-opacity:0.94117647"
         id="path950"
         inkscape:connector-curvature="0" />
      <path
         d="m 451.15453,637.21082 v -3.28125 l 4.24479,-0.72917 v -20.13021 l -4.24479,-0.72917 v -3.30729 h 8.85417 l 0.33854,3.67188 q 1.35417,-2.00521 3.48958,-3.09896 2.13542,-1.09375 4.94792,-1.09375 2.8125,0 4.81771,1.30208 2.03125,1.30209 3.04687,3.90625 1.32813,-2.39583 3.51563,-3.80208 2.1875,-1.40625 5.10416,-1.40625 4.32292,0 6.82292,2.96875 2.5,2.94271 2.5,8.88021 v 12.83854 l 4.24479,0.72917 v 3.28125 h -13.64583 v -3.28125 l 4.24479,-0.72917 v -12.89063 q 0,-4.16666 -1.43229,-5.88541 -1.43229,-1.74479 -4.24479,-1.74479 -2.68229,0 -4.32292,1.90104 -1.61458,1.875 -1.875,4.73958 v 13.88021 l 4.24479,0.72917 v 3.28125 h -13.61979 v -3.28125 l 4.24479,-0.72917 v -12.89063 q 0,-3.95833 -1.48437,-5.78125 -1.45834,-1.84895 -4.24479,-1.84895 -2.34375,0 -3.85417,0.96354 -1.51042,0.96354 -2.31771,2.70833 v 16.84896 l 4.24479,0.72917 v 3.28125 z"
         style="font-style:normal;font-variant:normal;font-weight:normal;font-stretch:normal;font-size:53.33333206px;line-height:1.25;font-family:'Roboto Slab';-inkscape-font-specification:'Roboto Slab';fill:#d6dbdf;fill-opacity:0.94117647"
         id="path952"
         inkscape:connector-curvature="0" />
      <path
         d="m 514.98266,637.75769 q -3.90625,0 -6.7448,-1.82292 -2.8125,-1.84895 -4.34895,-5.07812 -1.53646,-3.25521 -1.53646,-7.42188 v -0.57291 q 0,-4.16667 1.53646,-7.39584 1.53645,-3.2552 4.34895,-5.10416 2.83855,-1.84896 6.69271,-1.84896 3.90625,0 6.71875,1.84896 2.83854,1.84896 4.375,5.07812 1.53646,3.22917 1.53646,7.42188 v 0.57291 q 0,4.19271 -1.53646,7.44792 -1.53646,3.22917 -4.34896,5.05208 -2.8125,1.82292 -6.6927,1.82292 z m 0,-4.01042 q 2.44791,0 4.08854,-1.32812 1.66666,-1.35417 2.5,-3.67188 0.85937,-2.34375 0.85937,-5.3125 v -0.57291 q 0,-2.96875 -0.85937,-5.28646 -0.83334,-2.34375 -2.5,-3.67188 -1.66667,-1.35416 -4.14063,-1.35416 -2.44791,0 -4.11458,1.35416 -1.66667,1.32813 -2.5,3.67188 -0.83333,2.31771 -0.83333,5.28646 v 0.57291 q 0,2.96875 0.83333,5.3125 0.83333,2.31771 2.5,3.67188 1.69271,1.32812 4.16667,1.32812 z"
         style="font-style:normal;font-variant:normal;font-weight:normal;font-stretch:normal;font-size:53.33333206px;line-height:1.25;font-family:'Roboto Slab';-inkscape-font-specification:'Roboto Slab';fill:#d6dbdf;fill-opacity:0.94117647"
         id="path954"
         inkscape:connector-curvature="0" />
      <path
         d="m 531.46704,637.21082 v -3.28125 l 4.24479,-0.72917 v -20.13021 l -4.24479,-0.72917 v -3.30729 h 8.82813 l 0.4427,3.59375 0.0521,0.49479 q 1.19791,-2.16145 2.94271,-3.38541 1.77083,-1.22396 4.03645,-1.22396 0.8073,0 1.64063,0.15625 0.85937,0.13021 1.22396,0.26042 l -0.67709,4.76562 -3.5677,-0.20833 q -2.03125,-0.13021 -3.41146,0.9375 -1.38021,1.04166 -2.13542,2.8125 v 15.96354 l 4.24479,0.72917 v 3.28125 z"
         style="font-style:normal;font-variant:normal;font-weight:normal;font-stretch:normal;font-size:53.33333206px;line-height:1.25;font-family:'Roboto Slab';-inkscape-font-specification:'Roboto Slab';fill:#d6dbdf;fill-opacity:0.94117647"
         id="path956"
         inkscape:connector-curvature="0" />
      <path
         d="m 566.07642,637.75769 q -3.90625,0 -6.79688,-1.77083 -2.89062,-1.79688 -4.47917,-4.97396 -1.5625,-3.17708 -1.5625,-7.34375 v -1.14583 q 0,-4.01042 1.64063,-7.16146 1.66667,-3.17709 4.40104,-5 2.76042,-1.84896 6.01563,-1.84896 3.80208,0 6.35416,1.5625 2.57813,1.5625 3.88021,4.40104 1.30208,2.8125 1.30208,6.64063 v 3.20312 h -18.28125 l -0.0781,0.13021 q 0.0521,2.70833 0.9375,4.81771 0.91146,2.08333 2.60417,3.28125 1.6927,1.19791 4.0625,1.19791 2.60416,0 4.55729,-0.72916 1.97916,-0.75521 3.41146,-2.05729 l 2.0052,3.33333 q -1.51041,1.45833 -4.01041,2.47396 -2.47396,0.98958 -5.96354,0.98958 z m -7.3698,-17.44792 h 12.9948 v -0.67708 q 0,-2.03125 -0.72917,-3.61979 -0.70313,-1.61458 -2.13542,-2.52604 -1.40625,-0.9375 -3.54166,-0.9375 -1.71875,0 -3.125,1.01562 -1.40625,0.98959 -2.31771,2.70834 -0.91146,1.71875 -1.19792,3.90625 z"
         style="font-style:normal;font-variant:normal;font-weight:normal;font-stretch:normal;font-size:53.33333206px;line-height:1.25;font-family:'Roboto Slab';-inkscape-font-specification:'Roboto Slab';fill:#d6dbdf;fill-opacity:0.94117647"
         id="path958"
         inkscape:connector-curvature="0" />
      <path
         d="m 603.18577,637.75769 q -4.40104,0 -6.69271,-2.13542 -2.29166,-2.16145 -2.29166,-6.0677 0,-2.6823 1.45833,-4.66146 1.48437,-2.00521 4.27083,-3.09896 2.78646,-1.11979 6.66667,-1.11979 h 5.02604 v -2.76042 q 0,-2.55208 -1.5625,-3.95833 -1.53646,-1.40625 -4.34896,-1.40625 -1.77083,0 -3.07291,0.44271 -1.30209,0.41666 -2.3698,1.17187 l -0.54687,3.93229 h -3.95833 v -6.45833 q 1.90104,-1.53646 4.42708,-2.31771 2.52604,-0.80729 5.59896,-0.80729 5.13021,0 8.04687,2.44792 2.91667,2.44791 2.91667,7.0052 v 13.56771 q 0,0.54688 0,1.06771 0.026,0.52083 0.0781,1.04167 l 2.73438,0.28646 v 3.28125 h -7.36979 q -0.23438,-1.14584 -0.36459,-2.0573 -0.1302,-0.91145 -0.18229,-1.82291 -1.48437,1.90104 -3.72396,3.17708 -2.21354,1.25 -4.73958,1.25 z m 0.75521,-4.29687 q 2.55208,0 4.66146,-1.22396 2.10937,-1.22396 3.02083,-2.94271 v -5.10417 h -5.20833 q -3.54167,0 -5.3125,1.69271 -1.77084,1.69271 -1.77084,3.77604 0,1.84896 1.14584,2.83854 1.14583,0.96355 3.46354,0.96355 z"
         style="font-style:normal;font-variant:normal;font-weight:normal;font-stretch:normal;font-size:53.33333206px;line-height:1.25;font-family:'Roboto Slab';-inkscape-font-specification:'Roboto Slab';fill:#d6dbdf;fill-opacity:0.94117647"
         id="path960"
         inkscape:connector-curvature="0" />
      <path
         d="m 638.52433,637.75769 q -2.76041,0 -4.79166,-1.04167 -2.03125,-1.0677 -3.38542,-3.125 l -0.46875,3.6198 h -4.42708 v -36.58855 l -4.2448,-0.72916 v -3.30729 h 9.375 v 15.78125 q 1.32813,-1.875 3.28125,-2.86459 1.97917,-0.98958 4.60938,-0.98958 3.48958,0 5.9375,1.90104 2.47396,1.875 3.77604,5.28646 1.32813,3.41146 1.32813,7.94271 v 0.54687 q 0,4.0625 -1.32813,7.10938 -1.30208,3.04687 -3.77604,4.76562 -2.44792,1.69271 -5.88542,1.69271 z m -1.30208,-4.16667 q 3.61979,0 5.36458,-2.57812 1.77084,-2.57813 1.77084,-6.82292 v -0.54687 q 0,-3.25521 -0.78125,-5.70313 -0.78125,-2.47396 -2.3698,-3.85416 -1.58854,-1.40625 -4.03645,-1.40625 -2.3698,0 -4.01042,1.14583 -1.61458,1.14583 -2.57813,3.07292 v 12.44791 q 0.96355,1.95313 2.60417,3.09896 1.66667,1.14583 4.03646,1.14583 z"
         style="font-style:normal;font-variant:normal;font-weight:normal;font-stretch:normal;font-size:53.33333206px;line-height:1.25;font-family:'Roboto Slab';-inkscape-font-specification:'Roboto Slab';fill:#d6dbdf;fill-opacity:0.94117647"
         id="path962"
         inkscape:connector-curvature="0" />
      <path
         d="m 667.14412,637.75769 q -3.90625,0 -6.74479,-1.82292 -2.8125,-1.84895 -4.34896,-5.07812 -1.53645,-3.25521 -1.53645,-7.42188 v -0.57291 q 0,-4.16667 1.53645,-7.39584 1.53646,-3.2552 4.34896,-5.10416 2.83854,-1.84896 6.69271,-1.84896 3.90625,0 6.71875,1.84896 2.83854,1.84896 4.375,5.07812 1.53646,3.22917 1.53646,7.42188 v 0.57291 q 0,4.19271 -1.53646,7.44792 -1.53646,3.22917 -4.34896,5.05208 -2.8125,1.82292 -6.69271,1.82292 z m 0,-4.01042 q 2.44792,0 4.08855,-1.32812 1.66666,-1.35417 2.5,-3.67188 0.85937,-2.34375 0.85937,-5.3125 v -0.57291 q 0,-2.96875 -0.85937,-5.28646 -0.83334,-2.34375 -2.5,-3.67188 -1.66667,-1.35416 -4.14063,-1.35416 -2.44792,0 -4.11458,1.35416 -1.66667,1.32813 -2.5,3.67188 -0.83334,2.31771 -0.83334,5.28646 v 0.57291 q 0,2.96875 0.83334,5.3125 0.83333,2.31771 2.5,3.67188 1.69271,1.32812 4.16666,1.32812 z"
         style="font-style:normal;font-variant:normal;font-weight:normal;font-stretch:normal;font-size:53.33333206px;line-height:1.25;font-family:'Roboto Slab';-inkscape-font-specification:'Roboto Slab';fill:#d6dbdf;fill-opacity:0.94117647"
         id="path964"
         inkscape:connector-curvature="0" />
      <path
         d="m 696.0764,637.75769 q -4.58334,0 -7.16146,-2.94271 -2.57813,-2.94271 -2.57813,-9.16666 v -12.57813 l -3.22916,-0.72917 v -3.30729 h 3.22916 5.13021 v 16.66667 q 0,4.50521 1.32813,6.19792 1.32812,1.6927 4.14062,1.6927 2.73438,0 4.50521,-1.09375 1.79687,-1.11979 2.70833,-3.15104 v -16.27604 l -3.77604,-0.72917 v -3.30729 h 3.77604 5.13021 v 24.16667 l 3.22917,0.72917 v 3.28125 h -7.83854 l -0.33855,-4.16667 q -1.32812,2.26562 -3.4375,3.48958 -2.08333,1.22396 -4.8177,1.22396 z"
         style="font-style:normal;font-variant:normal;font-weight:normal;font-stretch:normal;font-size:53.33333206px;line-height:1.25;font-family:'Roboto Slab';-inkscape-font-specification:'Roboto Slab';fill:#d6dbdf;fill-opacity:0.94117647"
         id="path966"
         inkscape:connector-curvature="0" />
      <path
         d="m 726.05035,637.65352 q -3.125,0 -4.97395,-1.82291 -1.82292,-1.84896 -1.82292,-5.88542 v -17.10937 h -4.45313 v -3.80209 h 4.45313 v -6.79687 h 5.13021 v 6.79687 h 6.11979 v 3.80209 h -6.11979 v 17.10937 q 0,2.03125 0.80729,2.99479 0.80729,0.96354 2.16146,0.96354 0.91146,0 2.03125,-0.15625 1.11979,-0.18229 1.74479,-0.3125 l 0.70312,3.35938 q -1.11979,0.33854 -2.76041,0.59896 -1.61459,0.26041 -3.02084,0.26041 z"
         style="font-style:normal;font-variant:normal;font-weight:normal;font-stretch:normal;font-size:53.33333206px;line-height:1.25;font-family:'Roboto Slab';-inkscape-font-specification:'Roboto Slab';fill:#d6dbdf;fill-opacity:0.94117647"
         id="path968"
         inkscape:connector-curvature="0" />
    </g>
    <g
       aria-label="DevOps"
       transform="scale(1.0015244,0.99847792)"
       style="font-style:normal;font-variant:normal;font-weight:bold;font-stretch:normal;font-size:96px;line-height:0%;font-family:Roboto;-inkscape-font-specification:'Roboto Bold';letter-spacing:0px;word-spacing:0px;display:inline;opacity:0.98000004;fill:#d6dbdf;fill-opacity:0.94117647;stroke:none;stroke-width:1px;stroke-linecap:butt;stroke-linejoin:miter;stroke-opacity:1"
       id="text4160-3-3-9-0">
      <path
         d="m 408.56451,851.57406 q 0,-8.85417 -6.25,-13.54167 -6.25,-4.79167 -22.5,-10 -16.25,-5.3125 -25.72916,-10.41667 -25.83334,-13.95833 -25.83334,-37.60416 0,-12.29167 6.875,-21.875 6.97917,-9.6875 19.89584,-15.10417 13.02083,-5.41666 29.16666,-5.41666 16.25,0 28.95834,5.9375 12.70833,5.83333 19.68749,16.5625 7.08334,10.72916 7.08334,24.375 h -31.25 q 0,-10.41667 -6.5625,-16.14584 -6.5625,-5.83333 -18.4375,-5.83333 -11.45833,0 -17.8125,4.89583 -6.35417,4.79167 -6.35417,12.70834 0,7.39583 7.39584,12.39583 7.5,5 21.97916,9.375 26.66667,8.02083 38.85417,19.89583 12.1875,11.875 12.1875,29.58333 0,19.6875 -14.89584,30.9375 -14.89583,11.14584 -40.10416,11.14584 -17.5,0 -31.875,-6.35417 -14.375,-6.45833 -21.97917,-17.60417 -7.5,-11.14583 -7.5,-25.83333 h 31.35417 q 0,25.10417 30,25.10417 11.14583,0 17.39583,-4.47917 6.25,-4.58333 6.25,-12.70833 z"
         style="font-style:normal;font-variant:normal;font-weight:bold;font-stretch:normal;font-size:213.33332825px;line-height:1.25;font-family:Roboto;-inkscape-font-specification:'Roboto Bold';fill:#d6dbdf;fill-opacity:0.94117647"
         id="path971" />
      <path
         d="m 517.21034,835.84489 h -24.89583 v 55.52083 h -31.25 V 739.69906 h 56.35416 q 26.875,0 41.45834,11.97917 14.58333,11.97916 14.58333,33.85416 0,15.52083 -6.77083,25.9375 -6.66667,10.3125 -20.3125,16.45833 l 32.8125,61.97917 v 1.45833 h -33.54167 z m -24.89583,-25.3125 h 25.20833 q 11.77083,0 18.22917,-5.9375 6.45833,-6.04167 6.45833,-16.5625 0,-10.72916 -6.14583,-16.875 -6.04167,-6.14583 -18.64584,-6.14583 h -25.10416 z"
         style="font-style:normal;font-variant:normal;font-weight:bold;font-stretch:normal;font-size:213.33332825px;line-height:1.25;font-family:Roboto;-inkscape-font-specification:'Roboto Bold';fill:#d6dbdf;fill-opacity:0.94117647"
         id="path973" />
      <path
         d="m 688.46033,825.63656 h -59.99999 v 40.625 H 698.877 v 25.10416 H 597.21034 V 739.69906 h 101.45833 v 25.3125 h -70.20833 v 36.14583 h 59.99999 z"
         style="font-style:normal;font-variant:normal;font-weight:bold;font-stretch:normal;font-size:213.33332825px;line-height:1.25;font-family:Roboto;-inkscape-font-specification:'Roboto Bold';fill:#d6dbdf;fill-opacity:0.94117647"
         id="path975" />
    </g>
    <text
       xml:space="preserve"
       style="font-style:normal;font-variant:normal;font-weight:normal;font-stretch:normal;line-height:0%;font-family:Georgia;-inkscape-font-specification:Georgia;letter-spacing:0px;word-spacing:0px;display:inline;fill:#d6dbdf;fill-opacity:0.94117647;stroke:none;stroke-width:1px;stroke-linecap:butt;stroke-linejoin:miter;stroke-opacity:1"
       x="316.32138"
       y="1170.8689"
       id="text4440-8-2-2"
       transform="scale(1.0007619,0.99923868)"><tspan
         sodipodi:role="line"
         id="tspan4442-1-4-9"
         x="316.32138"
         y="1170.8689"
         style="font-style:normal;font-variant:normal;font-weight:normal;font-stretch:normal;font-size:53.33333206px;line-height:1.25;font-family:'Roboto Slab';-inkscape-font-specification:'Roboto Slab';fill:#d6dbdf;fill-opacity:0.94117647">Learn more about</tspan></text>
    <text
       inkscape:export-ydpi="90"
       inkscape:export-xdpi="90"
       transform="scale(1.0015244,0.99847792)"
       id="text4160-3-3-9-0-9"
       y="1425.4304"
       x="343.39825"
       style="font-style:normal;font-variant:normal;font-weight:bold;font-stretch:normal;font-size:96px;line-height:0%;font-family:Roboto;-inkscape-font-specification:'Roboto Bold';letter-spacing:0px;word-spacing:0px;display:inline;opacity:0.98000004;fill:#d6dbdf;fill-opacity:0.94117647;stroke:none;stroke-width:1px;stroke-linecap:butt;stroke-linejoin:miter;stroke-opacity:1"
       xml:space="preserve"><tspan
         style="font-style:normal;font-variant:normal;font-weight:bold;font-stretch:normal;font-size:213.33332825px;line-height:1.25;font-family:Roboto;-inkscape-font-specification:'Roboto Bold';fill:#d6dbdf;fill-opacity:0.94117647"
         y="1425.4304"
         x="343.39825"
         id="tspan4162-6-6-0-6-0"
         sodipodi:role="line">DevOps</tspan></text>
    <flowRoot
       xml:space="preserve"
       id="flowRoot869"
       style="fill:black;fill-opacity:1;stroke:none;font-family:sans-serif;font-style:normal;font-weight:normal;font-size:40px;line-height:1.25;letter-spacing:0px;word-spacing:0px"><flowRegion
         id="flowRegion871"><rect
           id="rect873"
           width="61.871841"
           height="1179.9845"
           x="-662.9126"
           y="-142.07378" /></flowRegion><flowPara
         id="flowPara875"></flowPara></flowRoot>  </g>
</svg>
