<?xml version="1.0" encoding="UTF-8" standalone="no"?>
<svg
   xmlns:dc="http://purl.org/dc/elements/1.1/"
   xmlns:cc="http://creativecommons.org/ns#"
   xmlns:rdf="http://www.w3.org/1999/02/22-rdf-syntax-ns#"
   xmlns:svg="http://www.w3.org/2000/svg"
   xmlns="http://www.w3.org/2000/svg"
   xmlns:xlink="http://www.w3.org/1999/xlink"
   xmlns:sodipodi="http://sodipodi.sourceforge.net/DTD/sodipodi-0.dtd"
   xmlns:inkscape="http://www.inkscape.org/namespaces/inkscape"
   width="1024"
   height="512"
   viewBox="0 0 1024.0001 512.00002"
   id="svg2"
   version="1.1"
   inkscape:version="0.92.5 (2060ec1f9f, 2020-04-08)"
   sodipodi:docname="docker.svg"
   inkscape:export-filename="/Users/marcelo.felix/default/projects/bandonga/posts/images/sip.png"
   inkscape:export-xdpi="96"
   inkscape:export-ydpi="96">
  <defs
     id="defs4">
    <linearGradient
       inkscape:collect="always"
       id="linearGradient4542">
      <stop
         style="stop-color:#ebedef;stop-opacity:1;"
         offset="0"
         id="stop4538" />
      <stop
         style="stop-color:#ebedef;stop-opacity:0;"
         offset="1"
         id="stop4540" />
    </linearGradient>
    <rect
       x="-53.125"
       y="1432.5497"
       width="862.5"
       height="918.75"
       id="rect1298" />
    <linearGradient
       inkscape:collect="always"
       id="linearGradient5741">
      <stop
         style="stop-color:#212f3c;stop-opacity:0.94117647"
         offset="0"
         id="stop5743" />
      <stop
         style="stop-color:#17202a;stop-opacity:0.94117647"
         offset="1"
         id="stop5745" />
    </linearGradient>
    <linearGradient
       inkscape:collect="always"
       xlink:href="#linearGradient5741"
       id="linearGradient5747"
       x1="553.625"
       y1="989.86218"
       x2="491.68762"
       y2="591.42468"
       gradientUnits="userSpaceOnUse"
       gradientTransform="translate(1.0625571,-1.3123785)" />
    <linearGradient
       inkscape:collect="always"
       xlink:href="#linearGradient4542"
       id="linearGradient4544"
       x1="315.5401"
       y1="637.81217"
       x2="707.31489"
       y2="637.81217"
       gradientUnits="userSpaceOnUse" />
  </defs>
  <sodipodi:namedview
     id="base"
     pagecolor="#ffffff"
     bordercolor="#666666"
     borderopacity="1.0"
     inkscape:pageopacity="0.0"
     inkscape:pageshadow="2"
     inkscape:zoom="0.90509668"
     inkscape:cx="417.72711"
     inkscape:cy="276.66521"
     inkscape:document-units="px"
     inkscape:current-layer="layer1"
     showgrid="false"
     units="px"
     inkscape:window-width="1878"
     inkscape:window-height="1023"
     inkscape:window-x="42"
     inkscape:window-y="387"
     inkscape:window-maximized="1"
     showguides="true"
     inkscape:document-rotation="0" />
  <metadata
     id="metadata7">
    <rdf:RDF>
      <cc:Work
         rdf:about="">
        <dc:format>image/svg+xml</dc:format>
        <dc:type
           rdf:resource="http://purl.org/dc/dcmitype/StillImage" />
        <dc:title />
      </cc:Work>
    </rdf:RDF>
  </metadata>
  <g
     style="display:inline"
     inkscape:label="Layer 1"
     inkscape:groupmode="layer"
     id="layer1"
     transform="translate(0,-540.36216)">
    <rect
       style="opacity:1;fill:#22995f;fill-opacity:0.941176;stroke:none;stroke-width:5;stroke-linecap:round;stroke-linejoin:round;stroke-miterlimit:4;stroke-dasharray:none;stroke-opacity:1"
       id="rect4164"
       width="1024.0001"
       height="512.00006"
       x="0"
       y="540.36212" />
    <rect
       style="opacity:1;fill:url(#linearGradient5747);fill-opacity:1;stroke:none;stroke-width:5;stroke-linecap:round;stroke-linejoin:round;stroke-miterlimit:4;stroke-dasharray:none;stroke-opacity:1"
       id="rect4164-4"
       width="1024.0001"
       height="512.00006"
       x="0"
       y="540.36218" />
    <flowRoot
       xml:space="preserve"
       id="flowRoot4235"
       style="font-style:normal;font-weight:normal;line-height:0.01%;font-family:sans-serif;letter-spacing:0px;word-spacing:0px;fill:#000000;fill-opacity:1;stroke:none;stroke-width:1px;stroke-linecap:butt;stroke-linejoin:miter;stroke-opacity:1"
       transform="matrix(0.99896342,0,0,0.9974429,1.0614558,1.381783)"><flowRegion
         id="flowRegion4237"><rect
           id="rect4239"
           width="218.75"
           height="14.0625"
           x="150.78125"
           y="642.96875" /></flowRegion><flowPara
         id="flowPara4241"
         style="font-size:10px;line-height:1.25"> </flowPara></flowRoot>    <text
       xml:space="preserve"
       style="font-style:normal;font-variant:normal;font-weight:normal;font-stretch:normal;line-height:0%;font-family:Georgia;-inkscape-font-specification:Georgia;letter-spacing:0px;word-spacing:0px;fill:#d6dbdf;fill-opacity:1;stroke:none;stroke-width:1px;stroke-linecap:butt;stroke-linejoin:miter;stroke-opacity:1"
       x="313.33459"
       y="656.02887"
       id="text4440"
       transform="scale(1.0007619,0.99923868)"><tspan
         sodipodi:role="line"
         id="tspan4442"
         x="313.33459"
         y="656.02887"
         style="font-style:normal;font-variant:normal;font-weight:normal;font-stretch:normal;font-size:49.91009903px;line-height:1.25;font-family:Georgia;-inkscape-font-specification:Georgia;fill:#d6dbdf;fill-opacity:1">Learn more about</tspan></text>
    <g
       id="g939"
       style="stroke:#f39c12;stroke-opacity:1"
       transform="matrix(0.16316486,0,0,0.1631657,894.04426,776.11777)"
       inkscape:export-xdpi="96"
       inkscape:export-ydpi="96">
      <path
         transform="matrix(-0.75451103,0,0,-0.54952197,1101.4103,1279.4667)"
         d="m 818.15623,151.40733 c 16.6645,7.97257 6.7161,31.18806 -4.31737,38.90375 -24.4319,17.0852 -56.67701,0.42955 -68.52922,-23.72688 -18.85616,-38.43145 5.72937,-82.950654 43.13639,-98.154695 C 840.46905,47.284808 897.92914,80.282292 916.2262,130.97542 939.86599,196.4709 898.27346,267.1046 834.27078,288.38106 755.35114,314.61636 671.43491,264.34242 647.23966,187.01612 618.35294,94.696166 677.35547,-2.5627125 768.01412,-29.640471 873.721,-61.212808 984.35938,6.5468433 1014.2962,110.5435 1048.5765,229.6291 972.04122,353.67126 854.70269,386.45103 722.24376,423.45485 584.78094,338.13115 549.16969,207.44803 509.4313,61.619488 603.55249,-89.276217 747.5822,-127.71045 c 9.03621,-2.4113 18.19014,-4.38086 27.41802,-5.90175"
         sodipodi:t0="0.042052984"
         sodipodi:argument="-19.817743"
         sodipodi:radius="289.19339"
         sodipodi:revolution="2.8868599"
         sodipodi:expansion="1"
         sodipodi:cy="153.88779"
         sodipodi:cx="806.25043"
         id="path881-7"
         style="fill:none;fill-opacity:1;fill-rule:evenodd;stroke:#f39c12;stroke-width:46.5903;stroke-miterlimit:4;stroke-dasharray:none;stroke-opacity:1"
         sodipodi:type="spiral" />
      <text
         transform="scale(1.0067661,0.99327937)"
         id="text3340-3"
         y="1527.2913"
         x="689.02264"
         style="font-style:normal;font-weight:normal;font-size:12.0903px;line-height:0%;font-family:sans-serif;letter-spacing:0px;word-spacing:0px;fill:#000000;fill-opacity:1;stroke:#f39c12;stroke-width:30;stroke-linecap:butt;stroke-linejoin:miter;stroke-miterlimit:4;stroke-dasharray:none;stroke-opacity:1"
         xml:space="preserve"><tspan
           style="font-size:39.9579px;line-height:1.25;stroke:#f39c12;stroke-width:30;stroke-miterlimit:4;stroke-dasharray:none;stroke-opacity:1"
           y="1527.2913"
           x="689.02264"
           id="tspan3342-6"
           sodipodi:role="line"> </tspan></text>
      <path
         transform="matrix(0.75451103,0,0,0.54952197,1094.7544,1224.2565)"
         d="m -729.37901,420.178 c 15.13108,11.98047 1.37745,33.94081 -11.81227,40.29637 -27.87814,13.43328 -58.40934,-8.38434 -66.9121,-35.17893 -13.30648,-41.93247 18.1631,-83.59679 58.54559,-93.52784 55.69793,-13.69748 109.02445,27.94081 120.14356,81.91225 14.29412,69.3827 -37.71125,134.56094 -105.2789,146.7593 -83.03614,14.99097 -160.1564,-47.47646 -173.37503,-128.64556 -15.74378,-96.67473 57.23825,-185.78748 152.01222,-199.99077 110.30527,-16.53088 211.44174,66.99781 226.6065,175.37888 17.34051,123.93103 -76.75584,237.11196 -198.74554,253.22223 -137.55374,18.1657 -262.7936,-86.51281 -279.83792,-222.11219 -18.395,-146.34425 89.31287,-280.99238 233.03269,-304.67954"
         sodipodi:t0="0.04979825"
         sodipodi:argument="-19.817743"
         sodipodi:radius="289.19339"
         sodipodi:revolution="2.8868599"
         sodipodi:expansion="1"
         sodipodi:cy="421.11218"
         sodipodi:cx="-743.75"
         id="path881"
         style="fill:none;fill-opacity:1;fill-rule:evenodd;stroke:#f39c12;stroke-width:46.5903;stroke-miterlimit:4;stroke-dasharray:none;stroke-opacity:1"
         sodipodi:type="spiral" />
      <path
         sodipodi:nodetypes="cc"
         inkscape:connector-curvature="0"
         id="path941"
         d="m 479.46207,1186.0292 68.02455,279.0628"
         style="fill:none;stroke:#f39c12;stroke-width:30;stroke-linecap:butt;stroke-linejoin:miter;stroke-miterlimit:4;stroke-dasharray:none;stroke-opacity:1" />
    </g>
    <text
       xml:space="preserve"
       id="text1296"
       style="font-size:26.66669999999999874px;line-height:1.25;font-family:Verdana;-inkscape-font-specification:Verdana;white-space:pre;shape-inside:url(#rect1298);" />
    <g
       id="g842"
       transform="matrix(2.1520247,0,0,2.1520247,379.83022,805.15716)">
      <path
         id="path840"
         d="m 121.68,33.34 c -0.34,-0.28 -3.42,-2.62 -10.03,-2.62 -1.71,0 -3.48,0.17 -5.19,0.46 -1.25,-8.72 -8.49,-12.94 -8.78,-13.16 l -1.77,-1.03 -1.14,1.65 c -1.42,2.22 -2.51,4.73 -3.13,7.29 -1.2,4.96 -0.46,9.63 2.05,13.62 -3.02,1.71 -7.92,2.11 -8.95,2.17 H 3.81 c -2.11,0 -3.82,1.71 -3.82,3.82 -0.11,7.07 1.08,14.13 3.53,20.8 2.79,7.29 6.95,12.71 12.31,16.01 6.04,3.7 15.9,5.81 27.01,5.81 5.01,0 10.03,-0.46 14.99,-1.37 6.9,-1.25 13.51,-3.65 19.6,-7.12 5.02,-2.91 9.52,-6.61 13.34,-10.94 6.44,-7.24 10.26,-15.33 13.05,-22.51 0.4,0 0.74,0 1.14,0 7.01,0 11.34,-2.79 13.73,-5.19 1.6,-1.48 2.79,-3.31 3.65,-5.36 l 0.51,-1.48 z m -50.09,6.04 h 10.83 c 0.51,0 0.97,-0.4 0.97,-0.97 v -9.69 c 0,-0.51 -0.4,-0.97 -0.97,-0.97 v 0 H 71.59 c -0.51,0 -0.97,0.4 -0.97,0.97 v 0 9.69 c 0.06,0.57 0.46,0.97 0.97,0.97 z M 56.49,11.63 h 10.83 c 0.51,0 0.97,-0.4 0.97,-0.97 V 0.97 C 68.29,0.46 67.83,0 67.32,0 H 56.49 c -0.51,0 -0.97,0.4 -0.97,0.97 v 0 9.69 c 0,0.51 0.45,0.97 0.97,0.97 z m 0,13.9 h 10.83 c 0.51,0 0.97,-0.46 0.97,-0.97 v -9.69 c 0,-0.51 -0.46,-0.97 -0.97,-0.97 H 56.49 c -0.51,0 -0.97,0.4 -0.97,0.97 v 0 9.69 c 0,0.52 0.45,0.97 0.97,0.97 z m -14.99,0 h 10.83 c 0.51,0 0.97,-0.46 0.97,-0.97 v -9.69 c 0,-0.51 -0.4,-0.97 -0.97,-0.97 v 0 H 41.5 c -0.51,0 -0.97,0.4 -0.97,0.97 v 0 9.69 c 0,0.52 0.4,0.97 0.97,0.97 z m -15.22,0 h 10.83 c 0.51,0 0.97,-0.46 0.97,-0.97 v -9.69 c 0,-0.51 -0.4,-0.97 -0.97,-0.97 v 0 H 26.28 c -0.51,0 -0.97,0.4 -0.97,0.97 v 9.69 c 0.06,0.52 0.46,0.97 0.97,0.97 z m 30.21,13.85 h 10.83 c 0.51,0 0.97,-0.4 0.97,-0.97 v -9.69 c 0,-0.51 -0.4,-0.97 -0.97,-0.97 v 0 H 56.49 c -0.51,0 -0.97,0.4 -0.97,0.97 v 0 9.69 c 0,0.57 0.45,0.97 0.97,0.97 z m -14.99,0 h 10.83 c 0.51,0 0.97,-0.4 0.97,-0.97 v 0 -9.69 c 0,-0.51 -0.4,-0.97 -0.97,-0.97 v 0 H 41.5 c -0.51,0 -0.97,0.4 -0.97,0.97 v 0 9.69 c 0,0.57 0.4,0.97 0.97,0.97 z m -15.22,0 h 10.83 c 0.51,0 0.97,-0.4 0.97,-0.97 v 0 -9.69 c 0,-0.51 -0.4,-0.97 -0.97,-0.97 v 0 H 26.28 c -0.51,0 -0.97,0.4 -0.97,0.97 v 9.69 c 0.06,0.57 0.46,0.97 0.97,0.97 z m -14.93,0 h 10.83 c 0.51,0 0.97,-0.4 0.97,-0.97 v 0 -9.69 c 0,-0.51 -0.4,-0.97 -0.97,-0.97 v 0 H 11.35 c -0.51,0 -0.97,0.4 -0.97,0.97 v 0 9.69 c 0.06,0.57 0.46,0.97 0.97,0.97 z"
         class="st0"
         inkscape:connector-curvature="0"
         style="fill:#0091e2" />
    </g>
    <path
       id="path2"
       style="display:inline;fill:#d6dbdf;fill-opacity:0.94117647;stroke-width:0.83942789"
       d="m 402.78659,688.11607 c -2.68617,-0.0839 -4.86722,2.01495 -4.95117,4.61718 v 24.17579 c -11.50016,-9.2337 -28.37372,-7.38688 -37.60742,4.11328 -3.77743,4.78474 -5.875,10.66123 -5.875,16.78906 -0.25183,14.77393 11.4995,26.94543 26.27343,27.19726 14.77393,0.25183 26.94544,-11.50146 27.19727,-26.27539 v -45.66406 c 0,-1.34308 -0.50241,-2.60202 -1.42578,-3.52539 -1.00731,-0.92337 -2.26825,-1.42773 -3.61133,-1.42773 z m 125.16016,0 c -2.77011,0 -4.95316,2.18301 -5.03711,4.95312 v 66.39844 c 0,1.34308 0.50436,2.60202 1.42773,3.52539 0.92337,1.00732 2.1823,1.51172 3.52539,1.51172 1.34308,0 2.60202,-0.5044 3.52539,-1.51172 0.92338,-0.92337 1.50972,-2.18231 1.42578,-3.52539 V 742.2606 l 5.79297,-3.7793 22.07617,24.76367 c 0.92337,0.83943 2.10024,1.34372 3.35938,1.25977 0.67154,0 1.34209,-0.0841 1.92969,-0.41992 0.5876,-0.25183 1.09204,-0.58814 1.5957,-1.0918 0.41971,-0.50365 0.83801,-1.00615 1.08984,-1.59375 0.25183,-0.5876 0.41992,-1.2601 0.41992,-1.93164 0,-1.25915 -0.50236,-2.51804 -1.34179,-3.44141 l -20.48242,-23.08398 19.97851,-13.01172 c 1.34308,-0.83943 2.01363,-2.3504 1.92969,-3.94531 0,-0.67154 -0.1681,-1.34209 -0.41992,-1.92969 -0.25183,-0.5876 -0.67014,-1.09204 -1.08985,-1.5957 -0.41971,-0.41971 -1.0081,-0.83997 -1.5957,-1.0918 -0.5876,-0.25183 -1.25815,-0.41992 -1.92969,-0.41992 -0.92337,0 -1.84807,0.2522 -2.6875,0.75586 l -28.54101,18.55273 v -37.10351 c 0,-1.34308 -0.50241,-2.60203 -1.42578,-3.5254 -0.92337,-0.92336 -2.18231,-1.51171 -3.52539,-1.51171 z m -28.50782,22.74609 c -0.40172,-0.009 -0.80501,-0.007 -1.20898,0.004 -14.77393,0 -26.77732,12.00341 -26.77735,26.77734 0,14.77393 11.91939,26.6934 26.60938,26.77734 6.46359,0 12.67624,-2.26575 17.54492,-6.46289 1.00731,-0.92337 1.59375,-2.26828 1.59375,-3.69531 0.084,-2.68617 -2.013,-4.86723 -4.61523,-4.95117 h -0.33594 c -1.1752,0 -2.26804,0.33432 -3.19141,1.00586 -1.51097,1.34309 -3.18841,2.35193 -5.03515,3.10742 -1.84675,0.67154 -3.86228,1.00586 -5.79297,1.00586 -2.26645,0 -4.44831,-0.41843 -6.54688,-1.3418 -2.01463,-0.83942 -3.77813,-2.0984 -5.37304,-3.60937 -6.54754,-6.54753 -6.5476,-17.12434 -0.084,-23.67188 0.0839,0.16788 0.084,0.16794 0.084,0.084 1.51097,-1.51097 3.35841,-2.76995 5.37304,-3.60938 2.09857,-0.83943 4.28043,-1.34375 6.54688,-1.34375 2.01463,0 3.94622,0.33627 5.79297,1.00781 1.84674,0.75548 3.60817,1.76239 5.11914,3.10547 0.92337,0.75549 2.1002,1.0918 3.27539,1.0918 1.34309,0.0839 2.686,-0.42041 3.60937,-1.42773 0.92337,-0.92337 1.42578,-2.26629 1.42578,-3.60938 0,-1.42703 -0.58651,-2.85397 -1.76171,-3.77734 -4.4857,-4.01352 -10.22615,-6.33123 -16.25196,-6.4668 z m -59.71679,0.25391 c -6.84134,0 -13.68227,2.60218 -18.88672,7.80664 -5.03657,5.03657 -7.80664,11.83747 -7.80664,18.88867 -0.25183,14.77393 11.4995,26.94543 26.27343,27.19726 14.77393,0.25183 26.94544,-11.50146 27.19727,-26.27539 v -0.92187 c 0,-3.5256 -0.67058,-6.96842 -2.01367,-10.24219 -1.34308,-3.27377 -3.3587,-6.21214 -5.87695,-8.64648 -5.20446,-5.20446 -12.04539,-7.80664 -18.88672,-7.80664 z m 157.47656,0 c -14.77393,0 -26.69344,11.92138 -26.77734,26.69531 0,14.77393 12.00341,26.77734 26.77734,26.77734 6.37965,0 12.59226,-2.26575 17.46094,-6.46289 l 0.16796,-0.16797 c 0.41972,-0.33578 0.83803,-0.7561 1.08985,-1.25976 1.59492,-2.35039 1.00865,-5.45587 -1.25781,-7.05078 -1.93068,-1.25914 -4.45006,-1.00702 -6.12891,0.58789 -0.16789,0.16788 -0.67191,0.58598 -0.67187,0.66992 l -0.084,0.084 c -1.42703,1.1752 -3.0204,2.18389 -4.7832,2.77149 -1.84674,0.67154 -3.77835,1.00581 -5.79297,0.92187 -1.84675,0 -3.6083,-0.25029 -5.3711,-0.83789 -1.67885,-0.5876 -3.27414,-1.34429 -4.70117,-2.43554 -1.42703,-1.00733 -2.68605,-2.26634 -3.69336,-3.69336 -1.09126,-1.42703 -1.8479,-3.10631 -2.35156,-4.78516 h 37.77539 c 1.34309,0 2.60202,-0.50241 3.52539,-1.42578 1.00732,-0.92337 1.50972,-2.1823 1.42578,-3.52539 0.0839,-3.60954 -0.58656,-7.13639 -1.8457,-10.41016 -4.28109,-9.90525 -14.01899,-16.36918 -24.76367,-16.45312 z m 58.75976,0 c -3.02194,0 -6.12837,0.50445 -8.98242,1.5957 -2.85406,1.00732 -5.45624,2.51849 -7.80664,4.36523 v -1.00781 c -0.0839,-2.77011 -2.43301,-4.86914 -5.20312,-4.78515 a 4.9526245,4.9526245 0 0 0 -4.78516,4.78515 v 43.56641 c 0.0839,2.77011 2.43497,4.86909 5.20508,4.78515 a 4.9526245,4.9526245 0 0 0 4.7832,-4.78515 v -21.74024 c 0,-2.26646 0.42038,-4.45026 1.34375,-6.54882 0.83943,-2.01464 2.01447,-3.77614 3.60938,-5.28711 1.51097,-1.51097 3.35838,-2.76996 5.28906,-3.60938 2.09857,-0.83943 4.28041,-1.34375 6.54687,-1.34375 2.26645,0 4.45026,0.4203 6.54883,1.17578 0.67155,0.33577 1.34218,0.50196 2.09766,0.50196 0.67155,0 1.34404,-0.0822 1.93164,-0.41797 0.5876,-0.25182 1.09009,-0.58815 1.59375,-1.0918 0.41972,-0.41972 0.83997,-1.0081 1.0918,-1.5957 0.25183,-0.5876 0.41992,-1.25815 0.41992,-1.92969 0.0839,-1.25914 -0.42038,-2.43405 -1.34375,-3.35742 -1.00732,-0.92337 -2.09828,-1.59591 -3.35742,-2.01563 -1.42703,-0.50365 -2.93825,-0.83993 -4.44922,-1.00781 -1.51097,-0.16789 -3.02224,-0.25195 -4.53321,-0.25195 z m -216.23632,9.84375 c 2.22448,0 4.4483,0.44086 6.54687,1.32226 2.01462,0.83943 3.77809,2.09841 5.28906,3.60938 1.51097,1.51097 2.76996,3.35642 3.60938,5.28711 1.7628,4.28108 1.7628,8.98245 0,13.01171 -0.83942,2.01465 -2.09841,3.7781 -3.60938,5.28907 -1.51097,1.51097 -3.35838,2.76995 -5.28906,3.60937 -4.19714,1.7628 -8.89662,1.7628 -13.09375,0 -4.02926,-1.67885 -7.21958,-4.95313 -8.89844,-8.89844 -1.7628,-4.1132 -1.7628,-8.81457 0,-13.01171 1.67886,-4.02926 4.86918,-7.13369 8.89844,-8.89649 2.09857,-0.8814 4.32239,-1.32226 6.54688,-1.32226 z m -58.67578,0.16796 c 2.22446,0 4.4483,0.44087 6.54687,1.32227 4.02926,1.7628 7.21958,4.95122 8.89844,8.98047 1.7628,4.02926 1.7628,8.73055 0,12.84375 -1.67886,4.02926 -4.86918,7.21962 -8.89844,8.98242 -4.19714,1.7628 -8.89661,1.7628 -13.09375,0 -4.02925,-1.67886 -7.1356,-4.95312 -8.81445,-8.89844 -1.7628,-4.11319 -1.7628,-8.81458 0,-13.01171 1.67885,-4.02926 4.86914,-7.21764 8.81445,-8.89649 2.09857,-0.8814 4.32236,-1.32227 6.54688,-1.32227 z m 216.06835,0.0625 c 1.7628,0 3.61021,0.25225 5.28907,0.83985 3.35771,1.09126 6.29596,3.27289 8.39453,6.12695 1.09125,1.42702 1.84599,3.10631 2.43359,4.78516 h -32.15039 c 0.50366,-1.76279 1.2603,-3.35814 2.35156,-4.78516 1.00731,-1.42703 2.26633,-2.68604 3.69336,-3.69336 1.42703,-1.00731 3.02234,-1.84599 4.70117,-2.43359 1.67886,-0.5876 3.52431,-0.83983 5.28711,-0.83985 z"
       inkscape:connector-curvature="0" />
  </g>
  <style
     id="style838"
     type="text/css">.st0{fill:#0091E2;}</style>
</svg>
