<?xml version="1.0" encoding="UTF-8" standalone="no"?>
<svg
   xmlns:dc="http://purl.org/dc/elements/1.1/"
   xmlns:cc="http://creativecommons.org/ns#"
   xmlns:rdf="http://www.w3.org/1999/02/22-rdf-syntax-ns#"
   xmlns:svg="http://www.w3.org/2000/svg"
   xmlns="http://www.w3.org/2000/svg"
   xmlns:xlink="http://www.w3.org/1999/xlink"
   xmlns:sodipodi="http://sodipodi.sourceforge.net/DTD/sodipodi-0.dtd"
   xmlns:inkscape="http://www.inkscape.org/namespaces/inkscape"
   width="1024"
   height="512"
   viewBox="0 0 1024.0001 512.00002"
   id="svg2"
   version="1.1"
   inkscape:version="0.92.5 (2060ec1f9f, 2020-04-08)"
   sodipodi:docname="kamailio.svg"
   inkscape:export-filename="/Users/marcelo.felix/default/projects/bandonga/posts/images/sip.png"
   inkscape:export-xdpi="96"
   inkscape:export-ydpi="96">
  <defs
     id="defs4">
    <linearGradient
       inkscape:collect="always"
       id="linearGradient4542">
      <stop
         style="stop-color:#ebedef;stop-opacity:1;"
         offset="0"
         id="stop4538" />
      <stop
         style="stop-color:#ebedef;stop-opacity:0;"
         offset="1"
         id="stop4540" />
    </linearGradient>
    <rect
       x="-53.125"
       y="1432.5497"
       width="862.5"
       height="918.75"
       id="rect1298" />
    <linearGradient
       inkscape:collect="always"
       id="linearGradient5741">
      <stop
         style="stop-color:#212f3c;stop-opacity:1"
         offset="0"
         id="stop5743" />
      <stop
         style="stop-color:#17202a;stop-opacity:0.9964413"
         offset="1"
         id="stop5745" />
    </linearGradient>
    <linearGradient
       inkscape:collect="always"
       xlink:href="#linearGradient5741"
       id="linearGradient5747"
       x1="553.625"
       y1="989.86218"
       x2="491.68762"
       y2="591.42468"
       gradientUnits="userSpaceOnUse"
       gradientTransform="translate(1.0625571,-1.3123785)" />
    <linearGradient
       inkscape:collect="always"
       xlink:href="#linearGradient4542"
       id="linearGradient4544"
       x1="315.5401"
       y1="637.81217"
       x2="707.31489"
       y2="637.81217"
       gradientUnits="userSpaceOnUse" />
  </defs>
  <sodipodi:namedview
     id="base"
     pagecolor="#ffffff"
     bordercolor="#666666"
     borderopacity="1.0"
     inkscape:pageopacity="0.0"
     inkscape:pageshadow="2"
     inkscape:zoom="0.64"
     inkscape:cx="122.24058"
     inkscape:cy="86.296758"
     inkscape:document-units="px"
     inkscape:current-layer="text1325-4"
     showgrid="false"
     units="px"
     inkscape:window-width="2560"
     inkscape:window-height="1410"
     inkscape:window-x="1920"
     inkscape:window-y="0"
     inkscape:window-maximized="1"
     showguides="true"
     inkscape:document-rotation="0" />
  <metadata
     id="metadata7">
    <rdf:RDF>
      <cc:Work
         rdf:about="">
        <dc:format>image/svg+xml</dc:format>
        <dc:type
           rdf:resource="http://purl.org/dc/dcmitype/StillImage" />
        <dc:title />
      </cc:Work>
    </rdf:RDF>
  </metadata>
  <g
     style="display:inline"
     inkscape:label="Layer 1"
     inkscape:groupmode="layer"
     id="layer1"
     transform="translate(0,-540.36216)">
    <rect
       style="opacity:1;fill:url(#linearGradient5747);fill-opacity:1;stroke:none;stroke-width:5;stroke-linecap:round;stroke-linejoin:round;stroke-miterlimit:4;stroke-dasharray:none;stroke-opacity:1"
       id="rect4164-4"
       width="1024.0001"
       height="512.00006"
       x="0"
       y="540.36218" />
    <flowRoot
       xml:space="preserve"
       id="flowRoot4235"
       style="font-style:normal;font-weight:normal;line-height:0.01%;font-family:sans-serif;letter-spacing:0px;word-spacing:0px;fill:#000000;fill-opacity:1;stroke:none;stroke-width:1px;stroke-linecap:butt;stroke-linejoin:miter;stroke-opacity:1"
       transform="matrix(0.99896342,0,0,0.9974429,361.37511,1.381783)"><flowRegion
         id="flowRegion4237"><rect
           id="rect4239"
           width="218.75"
           height="14.0625"
           x="150.78125"
           y="642.96875" /></flowRegion><flowPara
         id="flowPara4241"
         style="font-size:10px;line-height:1.25"> </flowPara></flowRoot>    <g
       id="g939"
       style="stroke:#fab387;stroke-opacity:1"
       transform="matrix(0.16316486,0,0,0.1631657,894.04426,776.11777)"
       inkscape:export-xdpi="96"
       inkscape:export-ydpi="96">
      <path
         transform="matrix(-0.75451103,0,0,-0.54952197,1101.4103,1279.4667)"
         d="m 818.15623,151.40733 c 16.6645,7.97257 6.7161,31.18806 -4.31737,38.90375 -24.4319,17.0852 -56.67701,0.42955 -68.52922,-23.72688 -18.85616,-38.43145 5.72937,-82.950654 43.13639,-98.154695 C 840.46905,47.284808 897.92914,80.282292 916.2262,130.97542 939.86599,196.4709 898.27346,267.1046 834.27078,288.38106 755.35114,314.61636 671.43491,264.34242 647.23966,187.01612 618.35294,94.696166 677.35547,-2.5627125 768.01412,-29.640471 873.721,-61.212808 984.35938,6.5468433 1014.2962,110.5435 1048.5765,229.6291 972.04122,353.67126 854.70269,386.45103 722.24376,423.45485 584.78094,338.13115 549.16969,207.44803 509.4313,61.619488 603.55249,-89.276217 747.5822,-127.71045 c 9.03621,-2.4113 18.19014,-4.38086 27.41802,-5.90175"
         sodipodi:t0="0.042052984"
         sodipodi:argument="-19.817743"
         sodipodi:radius="289.19339"
         sodipodi:revolution="2.8868599"
         sodipodi:expansion="1"
         sodipodi:cy="153.88779"
         sodipodi:cx="806.25043"
         id="path881-7"
         style="fill:none;fill-opacity:1;fill-rule:evenodd;stroke:#fab387;stroke-width:46.5903;stroke-miterlimit:4;stroke-dasharray:none;stroke-opacity:1"
         sodipodi:type="spiral" />
      <text
         transform="scale(1.0067661,0.99327937)"
         id="text3340-3"
         y="1527.2913"
         x="689.02264"
         style="font-style:normal;font-weight:normal;font-size:12.0903px;line-height:0%;font-family:sans-serif;letter-spacing:0px;word-spacing:0px;fill:#000000;fill-opacity:1;stroke:#fab387;stroke-width:30;stroke-linecap:butt;stroke-linejoin:miter;stroke-miterlimit:4;stroke-dasharray:none;stroke-opacity:1"
         xml:space="preserve"><tspan
           style="font-size:39.9579px;line-height:1.25;stroke:#fab387;stroke-width:30;stroke-miterlimit:4;stroke-dasharray:none;stroke-opacity:1"
           y="1527.2913"
           x="689.02264"
           id="tspan3342-6"
           sodipodi:role="line"> </tspan></text>
      <path
         transform="matrix(0.75451103,0,0,0.54952197,1094.7544,1224.2565)"
         d="m -729.37901,420.178 c 15.13108,11.98047 1.37745,33.94081 -11.81227,40.29637 -27.87814,13.43328 -58.40934,-8.38434 -66.9121,-35.17893 -13.30648,-41.93247 18.1631,-83.59679 58.54559,-93.52784 55.69793,-13.69748 109.02445,27.94081 120.14356,81.91225 14.29412,69.3827 -37.71125,134.56094 -105.2789,146.7593 -83.03614,14.99097 -160.1564,-47.47646 -173.37503,-128.64556 -15.74378,-96.67473 57.23825,-185.78748 152.01222,-199.99077 110.30527,-16.53088 211.44174,66.99781 226.6065,175.37888 17.34051,123.93103 -76.75584,237.11196 -198.74554,253.22223 -137.55374,18.1657 -262.7936,-86.51281 -279.83792,-222.11219 -18.395,-146.34425 89.31287,-280.99238 233.03269,-304.67954"
         sodipodi:t0="0.04979825"
         sodipodi:argument="-19.817743"
         sodipodi:radius="289.19339"
         sodipodi:revolution="2.8868599"
         sodipodi:expansion="1"
         sodipodi:cy="421.11218"
         sodipodi:cx="-743.75"
         id="path881"
         style="fill:none;fill-opacity:1;fill-rule:evenodd;stroke:#fab387;stroke-width:46.5903;stroke-miterlimit:4;stroke-dasharray:none;stroke-opacity:1"
         sodipodi:type="spiral" />
      <path
         sodipodi:nodetypes="cc"
         inkscape:connector-curvature="0"
         id="path941"
         d="m 479.46207,1186.0292 68.02455,279.0628"
         style="fill:none;stroke:#fab387;stroke-width:30;stroke-linecap:butt;stroke-linejoin:miter;stroke-miterlimit:4;stroke-dasharray:none;stroke-opacity:1" />
    </g>
    <text
       xml:space="preserve"
       id="text1296"
       style="font-size:26.66669999999999874px;line-height:1.25;font-family:Verdana;-inkscape-font-specification:Verdana;white-space:pre;shape-inside:url(#rect1298);" />
    <g
       id="g862"
       transform="translate(304.34609,-1172.2144)">
      <g
         id="g860"
         transform="matrix(1.13,0,0,1.06,-373,1690)">
        <g
           id="g858"
           transform="matrix(0.264,0,0,0.261,-293,-481)">
          <path
             id="path854"
             style="fill:#7cd803;stroke:#7cd803"
             d="m 2418,3461 c -43.5,-1.89 -91.9,-7.93 -125,-15.7 -47.4,-10.9 -81.8,-29.9 -99.8,-55 -13.4,-18.8 -18.9,-44.6 -15,-71 1.41,-9.57 5.01,-26.1 5.88,-26.9 0.15,-0.15 4.86,4.17 10.5,9.59 40.2,39 110,61.9 218,71.4 41.9,3.71 53.9,4.09 129,4.09 74.1,-0.01 91.9,-0.516 142,-4.06 154,-10.8 322,-40.4 500,-87.9 13.5,-3.6 25,-6.53 25.5,-6.5 1.73,0.071 -9.76,4.6 -50.5,19.9 -257,96.7 -467,149 -640,160 -29.3,1.91 -76.5,2.65 -101,1.58 z"
             inkscape:connector-curvature="0" />
          <path
             id="path856"
             style="fill:#d6dbdf;fill-opacity:0.94117647;stroke:#445053"
             d="m 3834,3148 c -29.9,-3.16 -55.9,-14.9 -76.4,-34.5 -38.3,-36.6 -50.3,-94.6 -29.8,-145 16.3,-39.9 53.4,-69.6 96.8,-77.3 13,-2.31 36.3,-2.29 49.5,0.027 54.1,9.53 94.6,50.3 104,105 2.48,14.3 1.55,40.9 -1.91,54.5 -12.7,49.6 -51,86 -101,95.5 -11.6,2.22 -30.7,3.13 -41.5,1.98 z m 33.3,-39.6 c 31.8,-6.53 55.5,-29.8 65.4,-64.1 3.09,-10.7 3.3,-37.9 0.365,-48.8 -7.39,-27.4 -23.5,-47.6 -46.9,-59 -14.2,-6.84 -19.6,-8 -37.7,-8.02 -13.2,-0.016 -16.7,0.323 -23.3,2.24 -24.3,7.02 -43.7,23.7 -54.3,46.7 -17.7,38.4 -7.86,86.7 23,113 10.8,9.08 27.4,16.7 41.6,19.1 6.44,1.08 24.7,0.571 31.8,-0.892 z m -1734,34.3 c -0.262,-0.688 -0.36,-56.8 -0.219,-125 l 0.257,-124 41.5,-0.541 v 61.9 c 0,53.2 0.206,62.1 1.47,63.1 1.2,0.996 1.98,0.674 4.25,-1.77 1.53,-1.64 28.4,-30 59.7,-63.1 l 56.9,-60.1 h 51.1 l -7.05,7.25 c -68.5,70.4 -95.6,99 -95.1,101 0.257,0.982 24.4,33.2 53.6,71.5 29.2,38.3 53.1,69.9 53.1,70.2 0,0.3 -11.3,0.342 -25.2,0.195 l -25.2,-0.267 -41.5,-54.7 c -22.9,-30.1 -42.3,-55.5 -43.3,-56.5 -1.67,-1.67 -2.49,-1.02 -17.3,13.7 -8.57,8.51 -17.8,18.1 -20.5,21.3 l -4.9,5.8 v 70.9 h -20.5 c -15.5,0 -20.6,-0.306 -21,-1.25 z m 237,0.987 c 0,-0.144 24.7,-56.7 54.8,-126 l 54.8,-125 39.9,-0.54 54.7,125 c 30.1,68.9 54.7,126 54.7,126 0,0.412 -9.81,0.75 -21.8,0.75 h -21.8 l -12.4,-29.5 c -6.81,-16.2 -12.9,-30 -13.6,-30.5 -0.708,-0.588 -19.2,-1.07 -46.8,-1.23 l -45.6,-0.26 15.4,-36 30.2,-0.265 c 27.9,-0.244 30.3,-0.397 30.3,-2 0.02,-2.2 -40.9,-97.2 -42.7,-99.2 -1.18,-1.29 -1.51,-1.29 -2.69,0 -0.739,0.805 -20.2,45.9 -43.2,100 l -41.9,98.8 h -21.3 c -11.7,0 -21.3,-0.118 -21.3,-0.263 z m 306,-0.966 c -0.266,-0.699 -0.368,-56.8 -0.227,-125 l 0.257,-124 h 45.9 l 37.6,58.5 c 27.8,43.3 38.1,58.5 39.5,58.5 1.39,0 11.7,-15.2 39.6,-58.5 l 37.7,-58.5 46.2,-0.537 v 250 h -42 v -89.5 c 0,-85.2 -0.085,-89.5 -1.78,-89.5 -1.24,0 -13.5,17.5 -40.7,58 -21.4,31.9 -39.3,58 -39.7,58 -0.4,0 -18.2,-26.1 -39.5,-58 -21.3,-31.9 -39.2,-57.9 -39.8,-57.7 -0.745,0.248 -1.22,27.4 -1.57,89.3 l -0.5,88.9 -20.3,0.271 c -15.7,0.209 -20.4,-0.017 -20.8,-1 z m 294,0.729 c 0,-0.639 107,-245 109,-249 l 1.41,-2.75 h 38.9 l 1.41,2.75 c 1.89,3.67 109,248 109,249 0,0.28 -9.84,0.509 -21.9,0.509 h -21.9 l -2.02,-4.75 c -1.11,-2.61 -6.63,-15.8 -12.3,-29.2 -5.64,-13.5 -10.7,-25.1 -11.2,-25.8 -0.754,-0.968 -11.4,-1.25 -47,-1.25 -36.4,0 -45.9,-0.261 -45.5,-1.25 2.92,-7.51 14.2,-33.5 15,-34.5 0.753,-0.949 8.07,-1.25 30.4,-1.25 24.3,0 29.5,-0.243 29.9,-1.4 0.824,-2.15 -41.8,-100 -43.7,-100 -1.23,-0.237 -10.8,21.5 -42.9,97 -22.7,53.5 -41.9,98.5 -42.7,100 l -1.4,2.75 h -21 c -11.5,0 -21,-0.225 -21,-0.501 z m 309,-124 v -125 h 42 v 250 h -42 z m 112,0 v -125 h 42 l 0.254,106 0.255,106 132,1 0.272,18.8 0.272,18.8 h -175 z m 226,124 c -0.262,-0.688 -0.36,-56.8 -0.219,-125 l 0.257,-124 41.5,-0.541 v 250 h -20.5 c -15.5,0 -20.6,-0.306 -21,-1.25 z m -738,-328 c 10.6,-5.08 56.3,-24.1 95.6,-39.9 226,-90.5 417,-144 577,-162 42.6,-4.75 57.1,-5.51 106,-5.54 48.3,-0.03 57.2,0.399 94.2,4.53 78,8.71 125,28.9 148,63.4 10.1,15.5 14.4,31 14.3,52.5 -0.026,13.1 -2.56,32.7 -5.1,39.4 l -1.06,2.8 -8.96,-8.52 c -36.9,-35.2 -97.5,-55.5 -191,-64.1 -67.2,-6.18 -171,-5.03 -267,2.95 -164,13.7 -346,50.3 -539,109 -30.6,9.25 -30.6,9.25 -22.7,5.5 z"
             inkscape:connector-curvature="0" />
        </g>
      </g>
    </g>
    <g
       transform="translate(-8.9648438e-6)"
       aria-label="By Example"
       style="font-style:normal;font-variant:normal;font-weight:normal;font-stretch:normal;font-size:13.33333302px;line-height:1.25;font-family:Georgia;-inkscape-font-specification:Georgia;letter-spacing:0px;word-spacing:0px;fill:#d6dbdf;fill-opacity:0.94117647;stroke:none"
       id="text1325-4">
      <path
         inkscape:connector-curvature="0"
         d="m 362.03543,650.98193 v -4.01041 l 4.14063,-0.78125 v -28.30729 l -4.14063,-0.78125 v -4.03646 h 4.14063 12.5 q 6.3802,0 9.94791,2.60416 3.59375,2.57813 3.59375,7.73438 0,2.57812 -1.48437,4.63542 -1.48438,2.03125 -4.11459,3.02083 2.29167,0.49479 3.85417,1.79687 1.5625,1.30209 2.36979,3.17709 0.83334,1.84896 0.83334,4.0625 0,5.33854 -3.51563,8.125 -3.48958,2.76041 -9.73958,2.76041 z m 10.70313,-5.05208 h 7.68229 q 3.22916,0 4.94791,-1.48437 1.7448,-1.51042 1.7448,-4.34896 0,-2.00521 -0.65105,-3.41146 -0.65104,-1.40625 -1.97916,-2.16146 -1.32813,-0.75521 -3.41146,-0.75521 h -8.33333 z m 0,-16.875 h 6.66666 q 2.91667,0 4.58334,-1.40625 1.66666,-1.40625 1.66666,-3.93229 0,-2.83854 -1.77083,-4.19271 -1.77083,-1.38021 -5.20833,-1.38021 h -5.9375 z"
         style="font-style:normal;font-variant:normal;font-weight:500;font-stretch:normal;font-size:53.33333206px;font-family:'Roboto Slab';-inkscape-font-specification:'Roboto Slab Medium';fill:#d6dbdf;fill-opacity:0.94117647"
         id="path1313" />
      <path
         inkscape:connector-curvature="0"
         d="m 403.93647,662.36214 q -0.80729,0 -1.875,-0.15625 -1.04166,-0.15625 -1.82291,-0.39062 l 0.72916,-4.92188 q 0.46875,0.0781 1.11979,0.13021 0.67709,0.0521 1.06771,0.0521 1.64063,0 2.76042,-1.04166 1.11979,-1.01563 1.82292,-2.83854 l 0.85937,-2.26563 -9.63542,-23.61979 -3.28125,-0.46875 v -4.03646 h 13.64584 v 4.03646 l -3.46354,0.52083 4.89583,13.125 0.85937,2.44792 h 0.15625 l 5.78125,-15.59896 -3.46354,-0.49479 v -4.03646 h 12.94271 v 4.03646 l -3.04687,0.44271 -10.91146,27.94271 q -0.78125,1.97916 -1.95313,3.59375 -1.14583,1.64062 -2.91666,2.57812 -1.7448,0.96354 -4.27084,0.96354 z"
         style="font-style:normal;font-variant:normal;font-weight:500;font-stretch:normal;font-size:53.33333206px;font-family:'Roboto Slab';-inkscape-font-specification:'Roboto Slab Medium';fill:#d6dbdf;fill-opacity:0.94117647"
         id="path1315" />
      <path
         inkscape:connector-curvature="0"
         d="m 442.40001,650.98193 v -4.01041 l 4.14062,-0.78125 v -28.30729 l -4.14062,-0.78125 v -4.03646 h 28.88021 v 9.76562 h -5.10417 l -0.44271,-4.71354 h -12.63021 v 10.72917 h 13.3073 v 5.07812 h -13.3073 v 12.05729 h 13.33334 l 0.44271,-4.8177 h 5.05208 v 9.8177 z"
         style="font-style:normal;font-variant:normal;font-weight:500;font-stretch:normal;font-size:53.33333206px;font-family:'Roboto Slab';-inkscape-font-specification:'Roboto Slab Medium';fill:#d6dbdf;fill-opacity:0.94117647"
         id="path1317" />
      <path
         inkscape:connector-curvature="0"
         d="m 475.62918,650.98193 v -4.01041 l 3.41146,-0.52084 8.20312,-9.63541 -7.86458,-9.45313 -3.15104,-0.52083 v -4.03646 h 12.73437 v 3.93229 l -2.44792,0.3125 4.79167,6.14584 4.73958,-6.14584 -2.68229,-0.3125 v -3.93229 h 12.36979 v 4.03646 l -3.02083,0.52083 -7.39583,9.24479 8.35937,9.84375 3.22917,0.52084 v 4.01041 h -13.41146 v -3.90625 l 2.83854,-0.3125 -5.10416,-6.27604 -4.97396,6.30209 2.65625,0.28645 v 3.90625 z"
         style="font-style:normal;font-variant:normal;font-weight:500;font-stretch:normal;font-size:53.33333206px;font-family:'Roboto Slab';-inkscape-font-specification:'Roboto Slab Medium';fill:#d6dbdf;fill-opacity:0.94117647"
         id="path1319" />
      <path
         inkscape:connector-curvature="0"
         d="m 518.85834,651.52881 q -4.29687,0 -6.69271,-2.21354 -2.39583,-2.21354 -2.39583,-6.09375 0,-2.65625 1.45833,-4.66146 1.45834,-2.00521 4.27084,-3.125 2.8125,-1.14583 6.82291,-1.14583 h 4.29688 v -2.3698 q 0,-2.23958 -1.35417,-3.5677 -1.32812,-1.32813 -3.88021,-1.32813 -1.45833,0 -2.57812,0.36458 -1.11979,0.33855 -2.00521,0.98959 l -0.59896,3.80208 h -4.81771 l -0.0521,-6.95312 q 2.08333,-1.35417 4.63542,-2.13542 2.55208,-0.80729 5.67708,-0.80729 5.36458,0 8.4375,2.52604 3.09896,2.5 3.09896,7.1875 v 12.42187 q 0,0.57292 0,1.1198 0.026,0.54687 0.0781,1.0677 l 2.86459,0.36459 v 4.01041 h -8.56771 q -0.26042,-0.91145 -0.49479,-1.77083 -0.20834,-0.85937 -0.3125,-1.71875 -1.40625,1.77083 -3.41146,2.91667 -1.97917,1.11979 -4.47917,1.11979 z m 1.48438,-5.07813 q 1.97916,0 3.69791,-0.91145 1.71875,-0.9375 2.57813,-2.34375 v -4.71355 h -4.375 q -2.94271,0 -4.45313,1.38021 -1.48437,1.35417 -1.48437,3.17709 0,1.64062 1.04167,2.52604 1.04166,0.88541 2.99479,0.88541 z"
         style="font-style:normal;font-variant:normal;font-weight:500;font-stretch:normal;font-size:53.33333206px;font-family:'Roboto Slab';-inkscape-font-specification:'Roboto Slab Medium';fill:#d6dbdf;fill-opacity:0.94117647"
         id="path1321" />
      <path
         inkscape:connector-curvature="0"
         d="m 539.17085,650.98193 v -4.01041 l 3.93229,-0.78125 v -18.56771 l -4.14063,-0.78125 v -4.03646 h 10.15625 l 0.3125,3.69792 q 1.38021,-2.00521 3.4375,-3.09896 2.08334,-1.11979 4.81771,-1.11979 2.76042,0 4.71354,1.25 1.97917,1.22396 2.9948,3.72396 1.30208,-2.31771 3.41145,-3.64584 2.13542,-1.32812 5,-1.32812 4.24479,0 6.66667,2.89062 2.44792,2.89063 2.44792,8.75 v 12.26563 l 3.93229,0.78125 v 4.01041 h -14.19271 v -4.01041 l 3.69792,-0.78125 V 633.8986 q 0,-3.56771 -1.19792,-5 -1.19792,-1.43229 -3.51562,-1.43229 -2.16146,0 -3.56771,1.38021 -1.38021,1.38021 -1.79688,3.51562 v 13.82813 l 3.56771,0.78125 v 4.01041 h -13.67187 v -4.01041 l 3.5677,-0.78125 V 633.8986 q 0,-3.4375 -1.22395,-4.92187 -1.22396,-1.51042 -3.54167,-1.51042 -1.92708,0 -3.25521,0.78125 -1.30208,0.78125 -2.08333,2.21354 v 15.72917 l 3.67187,0.78125 v 4.01041 z"
         style="font-style:normal;font-variant:normal;font-weight:500;font-stretch:normal;font-size:53.33333206px;font-family:'Roboto Slab';-inkscape-font-specification:'Roboto Slab Medium';fill:#d6dbdf;fill-opacity:0.94117647"
         id="path1323" />
      <path
         inkscape:connector-curvature="0"
         d="m 589.48334,661.81527 v -4.03646 l 3.80208,-0.78125 v -29.375 l -4.14062,-0.78125 v -4.03646 h 10.02604 l 0.41666,3.33333 q 1.30209,-1.84895 3.17709,-2.83854 1.875,-1.01562 4.42708,-1.01562 3.4375,0 5.88542,1.875 2.44791,1.875 3.72396,5.23437 1.30208,3.35938 1.30208,7.86459 v 0.54687 q 0,4.11458 -1.30208,7.21354 -1.30209,3.07292 -3.75,4.79167 -2.42188,1.71875 -5.85938,1.71875 -2.42187,0 -4.24479,-0.83333 -1.82292,-0.85938 -3.125,-2.5 v 8.80208 l 4.01042,0.78125 v 4.03646 z m 15.72916,-15.33854 q 3.22917,0 4.76563,-2.3698 1.5625,-2.39583 1.5625,-6.30208 v -0.54687 q 0,-2.91667 -0.70313,-5.10417 -0.67708,-2.21354 -2.10937,-3.4375 -1.40625,-1.25 -3.56771,-1.25 -1.82292,0 -3.17708,0.83333 -1.32813,0.80729 -2.16146,2.29167 v 12.91667 q 0.83333,1.43229 2.16146,2.21354 1.32812,0.75521 3.22916,0.75521 z"
         style="font-style:normal;font-variant:normal;font-weight:500;font-stretch:normal;font-size:53.33333206px;font-family:'Roboto Slab';-inkscape-font-specification:'Roboto Slab Medium';fill:#d6dbdf;fill-opacity:0.94117647"
         id="path1325" />
      <path
         inkscape:connector-curvature="0"
         d="m 620.97513,650.98193 v -4.01041 l 3.93229,-0.78125 v -31.01563 l -4.16667,-0.78125 v -4.03646 h 10.70313 v 35.83334 l 3.93229,0.78125 v 4.01041 z"
         style="font-style:normal;font-variant:normal;font-weight:500;font-stretch:normal;font-size:53.33333206px;font-family:'Roboto Slab';-inkscape-font-specification:'Roboto Slab Medium';fill:#d6dbdf;fill-opacity:0.94117647"
         id="path1327" />
      <path
         inkscape:connector-curvature="0"
         d="m 651.02721,651.52881 q -3.98437,0 -6.95312,-1.77083 -2.94271,-1.79688 -4.58334,-4.94792 -1.61458,-3.15104 -1.61458,-7.21354 v -1.09375 q 0,-4.11459 1.58854,-7.31771 1.61458,-3.22917 4.42708,-5.05208 2.8125,-1.84896 6.40625,-1.84896 3.82813,0 6.40625,1.53646 2.60417,1.53645 3.9323,4.375 1.32812,2.8125 1.32812,6.77083 v 3.75 h -17.29167 l -0.0521,0.13021 q 0.10417,2.21354 0.91146,3.93229 0.83333,1.71875 2.34375,2.70833 1.53646,0.98959 3.72396,0.98959 2.29166,0 4.16666,-0.625 1.875,-0.625 3.46355,-1.77084 l 2.05729,4.11459 q -1.66667,1.40625 -4.24479,2.36979 -2.57813,0.96354 -6.01563,0.96354 z m -6.25,-17.42188 h 10.91146 v -0.67708 q 0,-1.84896 -0.57292,-3.22917 -0.54687,-1.40625 -1.74479,-2.1875 -1.17187,-0.78125 -2.99479,-0.78125 -1.58854,0 -2.78646,0.88542 -1.19792,0.88542 -1.92708,2.42188 -0.70313,1.51041 -0.96354,3.4375 z"
         style="font-style:normal;font-variant:normal;font-weight:500;font-stretch:normal;font-size:53.33333206px;font-family:'Roboto Slab';-inkscape-font-specification:'Roboto Slab Medium';fill:#d6dbdf;fill-opacity:0.94117647"
         id="path1329" />
    </g>
  </g>
  <style
     id="style838"
     type="text/css">.st0{fill:#0091E2;}</style>
</svg>
