<?xml version="1.0" encoding="UTF-8" standalone="no"?>
<svg
   xmlns:dc="http://purl.org/dc/elements/1.1/"
   xmlns:cc="http://creativecommons.org/ns#"
   xmlns:rdf="http://www.w3.org/1999/02/22-rdf-syntax-ns#"
   xmlns:svg="http://www.w3.org/2000/svg"
   xmlns="http://www.w3.org/2000/svg"
   xmlns:xlink="http://www.w3.org/1999/xlink"
   xmlns:sodipodi="http://sodipodi.sourceforge.net/DTD/sodipodi-0.dtd"
   xmlns:inkscape="http://www.inkscape.org/namespaces/inkscape"
   width="1024"
   height="512"
   viewBox="0 0 1024.0001 512.00002"
   id="svg2"
   version="1.1"
   inkscape:version="0.92.5 (2060ec1f9f, 2020-04-08)"
   sodipodi:docname="kamailio.svg"
   inkscape:export-filename="/Users/marcelo.felix/default/projects/bandonga/posts/images/sip.png"
   inkscape:export-xdpi="96"
   inkscape:export-ydpi="96">
  <defs
     id="defs4">
    <linearGradient
       inkscape:collect="always"
       id="linearGradient4542">
      <stop
         style="stop-color:#ebedef;stop-opacity:1;"
         offset="0"
         id="stop4538" />
      <stop
         style="stop-color:#ebedef;stop-opacity:0;"
         offset="1"
         id="stop4540" />
    </linearGradient>
    <rect
       x="-53.125"
       y="1432.5497"
       width="862.5"
       height="918.75"
       id="rect1298" />
    <linearGradient
       inkscape:collect="always"
       id="linearGradient5741">
      <stop
         style="stop-color:#212f3c;stop-opacity:1"
         offset="0"
         id="stop5743" />
      <stop
         style="stop-color:#17202a;stop-opacity:0.9964413"
         offset="1"
         id="stop5745" />
    </linearGradient>
    <linearGradient
       inkscape:collect="always"
       xlink:href="#linearGradient5741"
       id="linearGradient5747"
       x1="553.625"
       y1="989.86218"
       x2="491.68762"
       y2="591.42468"
       gradientUnits="userSpaceOnUse"
       gradientTransform="translate(1.0625571,-1.3123785)" />
    <linearGradient
       inkscape:collect="always"
       xlink:href="#linearGradient4542"
       id="linearGradient4544"
       x1="315.5401"
       y1="637.81217"
       x2="707.31489"
       y2="637.81217"
       gradientUnits="userSpaceOnUse" />
  </defs>
  <sodipodi:namedview
     id="base"
     pagecolor="#ffffff"
     bordercolor="#666666"
     borderopacity="1.0"
     inkscape:pageopacity="0.0"
     inkscape:pageshadow="2"
     inkscape:zoom="0.64"
     inkscape:cx="448.80308"
     inkscape:cy="92.546758"
     inkscape:document-units="px"
     inkscape:current-layer="layer1"
     showgrid="false"
     units="px"
     inkscape:window-width="1878"
     inkscape:window-height="1023"
     inkscape:window-x="42"
     inkscape:window-y="27"
     inkscape:window-maximized="1"
     showguides="true"
     inkscape:document-rotation="0" />
  <metadata
     id="metadata7">
    <rdf:RDF>
      <cc:Work
         rdf:about="">
        <dc:format>image/svg+xml</dc:format>
        <dc:type
           rdf:resource="http://purl.org/dc/dcmitype/StillImage" />
        <dc:title />
      </cc:Work>
    </rdf:RDF>
  </metadata>
  <g
     style="display:inline"
     inkscape:label="Layer 1"
     inkscape:groupmode="layer"
     id="layer1"
     transform="translate(0,-540.36216)">
    <rect
       style="opacity:1;fill:url(#linearGradient5747);fill-opacity:1;stroke:none;stroke-width:5;stroke-linecap:round;stroke-linejoin:round;stroke-miterlimit:4;stroke-dasharray:none;stroke-opacity:1"
       id="rect4164-4"
       width="1024.0001"
       height="512.00006"
       x="0"
       y="540.36218" />
    <flowRoot
       xml:space="preserve"
       id="flowRoot4235"
       style="font-style:normal;font-weight:normal;line-height:0.01%;font-family:sans-serif;letter-spacing:0px;word-spacing:0px;fill:#000000;fill-opacity:1;stroke:none;stroke-width:1px;stroke-linecap:butt;stroke-linejoin:miter;stroke-opacity:1"
       transform="matrix(0.99896342,0,0,0.9974429,361.37511,1.381783)"><flowRegion
         id="flowRegion4237"><rect
           id="rect4239"
           width="218.75"
           height="14.0625"
           x="150.78125"
           y="642.96875" /></flowRegion><flowPara
         id="flowPara4241"
         style="font-size:10px;line-height:1.25"> </flowPara></flowRoot>    <g
       aria-label="Learn more about"
       transform="matrix(1.0007619,0,0,0.99923868,-9.8333662e-6,-4.4578988)"
       style="font-style:normal;font-variant:normal;font-weight:normal;font-stretch:normal;line-height:0%;font-family:Georgia;-inkscape-font-specification:Georgia;letter-spacing:0px;word-spacing:0px;fill:#d6dbdf;fill-opacity:1;stroke:none;stroke-width:1px;stroke-linecap:butt;stroke-linejoin:miter;stroke-opacity:1"
       id="text4440">
      <path
         d="m 343.48049,645.74466 -0.73111,10.28421 h -27.02651 v -1.73028 q 0.58488,-0.0487 1.68154,-0.17059 1.12103,-0.12185 1.55969,-0.31682 0.73111,-0.31681 1.04792,-0.92606 0.34118,-0.60926 0.34118,-1.55969 v -24.76009 q 0,-0.82859 -0.29244,-1.46221 -0.26807,-0.63362 -1.09666,-1.02355 -0.56051,-0.29244 -1.58406,-0.56051 -0.99917,-0.29244 -1.65717,-0.34118 v -1.73029 h 14.59773 v 1.73029 q -0.68236,0.0244 -1.77902,0.2437 -1.07229,0.21933 -1.55969,0.38992 -0.82859,0.29244 -1.1454,0.99918 -0.29244,0.70673 -0.29244,1.51095 v 23.22477 q 0,1.60843 0.14622,2.51012 0.17059,0.87733 0.75547,1.36473 0.56052,0.43866 1.65718,0.58489 1.12102,0.12185 3.11938,0.12185 0.90169,0 1.8765,-0.0487 0.97481,-0.0487 1.85213,-0.19496 0.85296,-0.14623 1.55969,-0.38993 0.73111,-0.26807 1.07229,-0.65799 0.99918,-1.12103 2.31517,-3.38746 1.34035,-2.29079 1.85213,-3.70426 z"
         style="font-style:normal;font-variant:normal;font-weight:normal;font-stretch:normal;font-size:49.91009903px;line-height:1.25;font-family:Georgia;-inkscape-font-specification:Georgia;fill:#d6dbdf;fill-opacity:1"
         id="path843"
         inkscape:connector-curvature="0" />
      <path
         d="m 366.55904,650.37499 q -1.51095,2.87568 -4.04545,4.58159 -2.5345,1.70591 -5.82447,1.70591 -2.90005,0 -5.09337,-1.02354 -2.16894,-1.02355 -3.58241,-2.7782 -1.41347,-1.75465 -2.1202,-4.09419 -0.68237,-2.33954 -0.68237,-4.94714 0,-2.33954 0.73111,-4.58159 0.75547,-2.26643 2.19331,-4.06982 1.3891,-1.73028 3.43619,-2.7782 2.07147,-1.07229 4.63034,-1.07229 2.63197,0 4.50848,0.82859 1.8765,0.82858 3.04627,2.26642 1.12103,1.36473 1.65717,3.21686 0.56051,1.85214 0.56051,4.02108 v 1.60843 h -15.91372 q 0,2.36391 0.43867,4.28915 0.46303,1.92525 1.43784,3.38746 0.95043,1.41346 2.48575,2.24205 1.53532,0.80422 3.65553,0.80422 2.16894,0 3.72863,-0.99918 1.58406,-1.02355 3.04627,-3.65553 z m -5.38581,-9.16318 q 0,-1.36473 -0.2437,-2.92442 -0.21933,-1.55969 -0.73111,-2.60761 -0.56051,-1.12103 -1.53532,-1.82776 -0.9748,-0.70674 -2.51012,-0.70674 -2.55887,0 -4.26478,2.14458 -1.68154,2.1202 -1.82777,5.92195 z"
         style="font-style:normal;font-variant:normal;font-weight:normal;font-stretch:normal;font-size:49.91009903px;line-height:1.25;font-family:Georgia;-inkscape-font-specification:Georgia;fill:#d6dbdf;fill-opacity:1"
         id="path845"
         inkscape:connector-curvature="0" />
      <path
         d="m 392.09897,655.59021 q -1.1454,0.41429 -2.02273,0.65799 -0.85295,0.26807 -1.94961,0.26807 -1.90087,0 -3.04627,-0.87732 -1.12103,-0.9017 -1.43784,-2.60761 h -0.14622 q -1.58406,1.75465 -3.41182,2.68072 -1.8034,0.92606 -4.36226,0.92606 -2.70509,0 -4.45974,-1.65717 -1.73029,-1.65717 -1.73029,-4.33789 0,-1.3891 0.38993,-2.48575 0.38992,-1.09666 1.16976,-1.97399 0.60926,-0.7311 1.60844,-1.29162 0.99917,-0.58488 1.8765,-0.92606 1.09666,-0.4143 4.43537,-1.53532 3.36308,-1.12103 4.53285,-1.75465 v -2.41265 q 0,-0.31681 -0.14622,-1.21851 -0.12185,-0.9017 -0.56052,-1.70591 -0.4874,-0.9017 -1.3891,-1.55969 -0.87732,-0.68237 -2.51012,-0.68237 -1.12103,0 -2.09584,0.38993 -0.95043,0.36555 -1.34036,0.77984 0,0.48741 0.21934,1.43784 0.2437,0.95044 0.2437,1.75465 0,0.85296 -0.77985,1.55969 -0.75547,0.70674 -2.1202,0.70674 -1.21851,0 -1.80339,-0.85296 -0.56052,-0.87732 -0.56052,-1.94961 0,-1.12103 0.77985,-2.14457 0.80421,-1.02355 2.07146,-1.82777 1.09666,-0.68236 2.65635,-1.14539 1.55969,-0.48741 3.04627,-0.48741 2.04709,0 3.55804,0.29244 1.53532,0.26808 2.7782,1.19414 1.24288,0.9017 1.87651,2.46139 0.65799,1.53532 0.65799,3.97234 0,3.48493 -0.0731,6.19002 -0.0731,2.68072 -0.0731,5.87321 0,0.95043 0.31681,1.51095 0.34118,0.56051 1.02355,0.95043 0.36555,0.21934 1.1454,0.24371 0.80421,0.0244 1.6328,0.0244 z m -8.50519,-12.86745 q -2.07146,0.60925 -3.63116,1.19414 -1.55969,0.58488 -2.90005,1.46221 -1.2185,0.82858 -1.92524,1.97398 -0.70673,1.12103 -0.70673,2.68072 0,2.02272 1.04791,2.97316 1.07229,0.95044 2.70509,0.95044 1.73028,0 3.04627,-0.82859 1.31599,-0.85296 2.21769,-1.99835 z"
         style="font-style:normal;font-variant:normal;font-weight:normal;font-stretch:normal;font-size:49.91009903px;line-height:1.25;font-family:Georgia;-inkscape-font-specification:Georgia;fill:#d6dbdf;fill-opacity:1"
         id="path847"
         inkscape:connector-curvature="0" />
      <path
         d="m 412.88672,635.0949 q 0,1.24288 -0.60926,2.21768 -0.60925,0.95044 -1.8765,0.95044 -1.36473,0 -2.09583,-0.70674 -0.70674,-0.70673 -0.70674,-1.55969 0,-0.53614 0.0731,-0.9748 0.0975,-0.43867 0.17059,-0.87733 -1.1454,0 -2.68072,0.92607 -1.53532,0.92606 -2.6076,2.63198 v 13.98847 q 0,0.85296 0.31681,1.3891 0.34118,0.53614 1.04792,0.80422 0.60925,0.2437 1.55969,0.36555 0.9748,0.12185 1.68154,0.17059 v 1.60843 h -12.67249 v -1.60843 q 0.56052,-0.0487 1.1454,-0.0975 0.60925,-0.0487 1.04792,-0.19496 0.68236,-0.21933 0.99917,-0.75548 0.34119,-0.56051 0.34119,-1.43784 v -14.84143 q 0,-0.75547 -0.36556,-1.48658 -0.34118,-0.7311 -0.9748,-1.16977 -0.46304,-0.29244 -1.09666,-0.41429 -0.63363,-0.14622 -1.36473,-0.19496 v -1.58406 l 7.99341,-0.53615 0.34119,0.34119 v 3.38745 h 0.12185 q 1.51095,-1.97398 3.36308,-2.99753 1.85213,-1.02355 3.38745,-1.02355 1.53532,0 2.48576,0.99918 0.97481,0.99918 0.97481,2.68072 z"
         style="font-style:normal;font-variant:normal;font-weight:normal;font-stretch:normal;font-size:49.91009903px;line-height:1.25;font-family:Georgia;-inkscape-font-specification:Georgia;fill:#d6dbdf;fill-opacity:1"
         id="path849"
         inkscape:connector-curvature="0" />
      <path
         d="m 441.47292,656.02887 h -11.77079 v -1.60843 q 0.56052,-0.0487 1.21851,-0.0975 0.68237,-0.0487 1.12103,-0.19496 0.68236,-0.21933 0.99918,-0.75548 0.34118,-0.56051 0.34118,-1.43784 v -12.35567 q 0,-2.55887 -1.21851,-3.94797 -1.19414,-1.3891 -2.92442,-1.3891 -1.29162,0 -2.36391,0.41429 -1.07228,0.38993 -1.90087,0.97481 -0.80421,0.56051 -1.29162,1.21851 -0.46303,0.63362 -0.68236,1.02355 v 13.81788 q 0,0.82859 0.34118,1.36473 0.34118,0.53614 1.02355,0.82859 0.51177,0.2437 1.09665,0.36555 0.60926,0.12185 1.24288,0.17059 v 1.60843 h -11.77079 v -1.60843 q 0.56052,-0.0487 1.1454,-0.0975 0.60925,-0.0487 1.04792,-0.19496 0.68236,-0.21933 0.99917,-0.75548 0.34119,-0.56051 0.34119,-1.43784 v -14.84143 q 0,-0.82858 -0.36556,-1.51095 -0.34118,-0.70673 -0.9748,-1.1454 -0.46304,-0.29244 -1.09666,-0.41429 -0.63362,-0.14622 -1.36473,-0.19496 v -1.58406 l 7.99342,-0.53615 0.34118,0.34119 v 3.38745 h 0.12185 q 0.58488,-0.58488 1.46221,-1.3891 0.87732,-0.82859 1.65717,-1.34036 0.9017,-0.58488 2.14457,-0.97481 1.24288,-0.38992 2.80257,-0.38992 3.46057,0 5.11774,2.16895 1.68154,2.14457 1.68154,5.72699 v 12.50189 q 0,0.85296 0.29244,1.3891 0.29244,0.51177 0.99918,0.80422 0.58488,0.2437 0.99918,0.34118 0.43866,0.0975 1.19413,0.14622 z"
         style="font-style:normal;font-variant:normal;font-weight:normal;font-stretch:normal;font-size:49.91009903px;line-height:1.25;font-family:Georgia;-inkscape-font-specification:Georgia;fill:#d6dbdf;fill-opacity:1"
         id="path851"
         inkscape:connector-curvature="0" />
      <path
         d="m 497.62179,656.02887 h -11.72205 v -1.60843 q 0.56052,-0.0487 1.12103,-0.0975 0.58489,-0.0487 1.02355,-0.19496 0.68236,-0.21933 0.99918,-0.75548 0.34118,-0.56051 0.34118,-1.43784 v -12.40441 q 0,-2.5345 -1.16977,-3.89923 -1.1454,-1.3891 -2.87568,-1.3891 -1.19414,0 -2.24205,0.36555 -1.04792,0.36556 -1.92525,1.02355 -0.70673,0.53614 -1.19414,1.16977 -0.46303,0.60925 -0.70673,1.02355 v 13.86662 q 0,0.85296 0.29244,1.41347 0.29244,0.53614 0.99918,0.82859 0.56051,0.21933 0.99918,0.34118 0.46303,0.0975 1.19413,0.14622 v 1.60843 h -11.47834 v -1.60843 q 0.56051,-0.0487 1.07228,-0.0975 0.53615,-0.0487 0.97481,-0.19496 0.68236,-0.21933 0.99918,-0.75548 0.34118,-0.56051 0.34118,-1.43784 v -12.40441 q 0,-2.5345 -1.16977,-3.89923 -1.1454,-1.3891 -2.87568,-1.3891 -1.19414,0 -2.24205,0.38992 -1.04792,0.36556 -1.92525,1.02355 -0.70673,0.53614 -1.19414,1.21851 -0.4874,0.65799 -0.7311,0.99918 v 13.76914 q 0,0.82859 0.34118,1.3891 0.34118,0.56051 1.02355,0.85296 0.51177,0.2437 1.04792,0.36555 0.53614,0.12185 1.19413,0.17059 v 1.60843 h -11.67331 v -1.60843 q 0.56052,-0.0487 1.1454,-0.0975 0.60926,-0.0487 1.04792,-0.19496 0.68236,-0.21933 0.99918,-0.75548 0.34118,-0.56051 0.34118,-1.43784 v -14.93891 q 0,-0.77984 -0.36555,-1.3891 -0.34119,-0.63362 -0.97481,-1.07229 -0.46303,-0.29244 -1.1454,-0.46303 -0.68236,-0.19496 -1.41347,-0.2437 v -1.58406 l 8.04216,-0.53615 0.34118,0.34119 v 3.43619 h 0.17059 q 0.60925,-0.60925 1.48658,-1.43784 0.87733,-0.82859 1.6328,-1.34036 0.85296,-0.58488 2.12021,-0.97481 1.29161,-0.38992 2.77819,-0.38992 2.33954,0 4.02108,1.26725 1.68154,1.24288 2.41265,3.0219 0.87732,-0.85295 1.53532,-1.48658 0.68236,-0.65799 1.77902,-1.3891 0.92607,-0.63362 2.16895,-1.02355 1.26724,-0.38992 2.80256,-0.38992 3.04628,0 4.8253,1.99836 1.77902,1.99835 1.77902,6.14128 v 12.20945 q 0,0.85296 0.29244,1.41347 0.29244,0.53614 0.99918,0.82859 0.56051,0.21933 1.09666,0.34118 0.56051,0.0975 1.24287,0.14622 z"
         style="font-style:normal;font-variant:normal;font-weight:normal;font-stretch:normal;font-size:49.91009903px;line-height:1.25;font-family:Georgia;-inkscape-font-specification:Georgia;fill:#d6dbdf;fill-opacity:1"
         id="path853"
         inkscape:connector-curvature="0" />
      <path
         d="m 523.84409,643.77068 q 0,2.53449 -0.80422,4.99588 -0.80421,2.43702 -2.29079,4.14293 -1.68154,1.94961 -3.89923,2.90005 -2.21768,0.95043 -4.97151,0.95043 -2.2908,0 -4.36226,-0.85295 -2.07147,-0.87733 -3.6799,-2.5345 -1.58406,-1.6328 -2.53449,-3.97234 -0.92607,-2.3639 -0.92607,-5.28832 0,-5.62951 3.2656,-9.21192 3.28997,-3.58242 8.60267,-3.58242 5.04462,0 8.31023,3.41182 3.28997,3.38746 3.28997,9.04134 z m -5.04463,0.0487 q 0,-1.82777 -0.36555,-3.85049 -0.36555,-2.04709 -1.09665,-3.46056 -0.77985,-1.51095 -2.0471,-2.41265 -1.26725,-0.92607 -3.09501,-0.92607 -1.8765,0 -3.21686,0.92607 -1.31599,0.92607 -2.14458,2.5345 -0.77984,1.48658 -1.09665,3.38745 -0.31682,1.90087 -0.31682,3.6799 0,2.33953 0.36556,4.33789 0.38992,1.97398 1.2185,3.53367 0.82859,1.55969 2.07147,2.46139 1.26725,0.87732 3.11938,0.87732 3.04627,0 4.82529,-2.94879 1.77902,-2.94879 1.77902,-8.13963 z"
         style="font-style:normal;font-variant:normal;font-weight:normal;font-stretch:normal;font-size:49.91009903px;line-height:1.25;font-family:Georgia;-inkscape-font-specification:Georgia;fill:#d6dbdf;fill-opacity:1"
         id="path855"
         inkscape:connector-curvature="0" />
      <path
         d="m 545.7285,635.0949 q 0,1.24288 -0.60926,2.21768 -0.60925,0.95044 -1.8765,0.95044 -1.36473,0 -2.09583,-0.70674 -0.70674,-0.70673 -0.70674,-1.55969 0,-0.53614 0.0731,-0.9748 0.0975,-0.43867 0.17059,-0.87733 -1.14539,0 -2.68071,0.92607 -1.53532,0.92606 -2.60761,2.63198 v 13.98847 q 0,0.85296 0.31681,1.3891 0.34118,0.53614 1.04792,0.80422 0.60925,0.2437 1.55969,0.36555 0.9748,0.12185 1.68154,0.17059 v 1.60843 h -12.67249 v -1.60843 q 0.56052,-0.0487 1.1454,-0.0975 0.60926,-0.0487 1.04792,-0.19496 0.68236,-0.21933 0.99917,-0.75548 0.34119,-0.56051 0.34119,-1.43784 v -14.84143 q 0,-0.75547 -0.36556,-1.48658 -0.34118,-0.7311 -0.9748,-1.16977 -0.46303,-0.29244 -1.09666,-0.41429 -0.63362,-0.14622 -1.36473,-0.19496 v -1.58406 l 7.99342,-0.53615 0.34118,0.34119 v 3.38745 h 0.12185 q 1.51095,-1.97398 3.36308,-2.99753 1.85213,-1.02355 3.38745,-1.02355 1.53533,0 2.48576,0.99918 0.97481,0.99918 0.97481,2.68072 z"
         style="font-style:normal;font-variant:normal;font-weight:normal;font-stretch:normal;font-size:49.91009903px;line-height:1.25;font-family:Georgia;-inkscape-font-specification:Georgia;fill:#d6dbdf;fill-opacity:1"
         id="path857"
         inkscape:connector-curvature="0" />
      <path
         d="m 569.12385,650.37499 q -1.51095,2.87568 -4.04545,4.58159 -2.53449,1.70591 -5.82447,1.70591 -2.90004,0 -5.09336,-1.02354 -2.16894,-1.02355 -3.58241,-2.7782 -1.41347,-1.75465 -2.12021,-4.09419 -0.68236,-2.33954 -0.68236,-4.94714 0,-2.33954 0.7311,-4.58159 0.75548,-2.26643 2.19332,-4.06982 1.3891,-1.73028 3.43619,-2.7782 2.07146,-1.07229 4.63033,-1.07229 2.63198,0 4.50848,0.82859 1.87651,0.82858 3.04627,2.26642 1.12103,1.36473 1.65717,3.21686 0.56052,1.85214 0.56052,4.02108 v 1.60843 h -15.91372 q 0,2.36391 0.43866,4.28915 0.46304,1.92525 1.43784,3.38746 0.95044,1.41346 2.48576,2.24205 1.53532,0.80422 3.65552,0.80422 2.16895,0 3.72864,-0.99918 1.58406,-1.02355 3.04627,-3.65553 z m -5.3858,-9.16318 q 0,-1.36473 -0.24371,-2.92442 -0.21933,-1.55969 -0.7311,-2.60761 -0.56052,-1.12103 -1.53532,-1.82776 -0.97481,-0.70674 -2.51013,-0.70674 -2.55887,0 -4.26478,2.14458 -1.68154,2.1202 -1.82776,5.92195 z"
         style="font-style:normal;font-variant:normal;font-weight:normal;font-stretch:normal;font-size:49.91009903px;line-height:1.25;font-family:Georgia;-inkscape-font-specification:Georgia;fill:#d6dbdf;fill-opacity:1"
         id="path859"
         inkscape:connector-curvature="0" />
      <path
         d="m 606.70264,655.59021 q -1.1454,0.41429 -2.02273,0.65799 -0.85295,0.26807 -1.94961,0.26807 -1.90087,0 -3.04627,-0.87732 -1.12103,-0.9017 -1.43784,-2.60761 h -0.14622 q -1.58406,1.75465 -3.41183,2.68072 -1.80339,0.92606 -4.36226,0.92606 -2.70508,0 -4.45974,-1.65717 -1.73028,-1.65717 -1.73028,-4.33789 0,-1.3891 0.38992,-2.48575 0.38993,-1.09666 1.16977,-1.97399 0.60926,-0.7311 1.60843,-1.29162 0.99918,-0.58488 1.87651,-0.92606 1.09665,-0.4143 4.43537,-1.53532 3.36308,-1.12103 4.53285,-1.75465 v -2.41265 q 0,-0.31681 -0.14622,-1.21851 -0.12185,-0.9017 -0.56052,-1.70591 -0.4874,-0.9017 -1.3891,-1.55969 -0.87732,-0.68237 -2.51012,-0.68237 -1.12103,0 -2.09584,0.38993 -0.95043,0.36555 -1.34036,0.77984 0,0.48741 0.21933,1.43784 0.24371,0.95044 0.24371,1.75465 0,0.85296 -0.77985,1.55969 -0.75547,0.70674 -2.1202,0.70674 -1.21851,0 -1.8034,-0.85296 -0.56051,-0.87732 -0.56051,-1.94961 0,-1.12103 0.77985,-2.14457 0.80421,-1.02355 2.07146,-1.82777 1.09666,-0.68236 2.65635,-1.14539 1.55969,-0.48741 3.04627,-0.48741 2.04709,0 3.55804,0.29244 1.53532,0.26808 2.7782,1.19414 1.24288,0.9017 1.8765,2.46139 0.658,1.53532 0.658,3.97234 0,3.48493 -0.0731,6.19002 -0.0731,2.68072 -0.0731,5.87321 0,0.95043 0.31681,1.51095 0.34118,0.56051 1.02355,0.95043 0.36555,0.21934 1.14539,0.24371 0.80422,0.0244 1.63281,0.0244 z m -8.50519,-12.86745 q -2.07147,0.60925 -3.63116,1.19414 -1.55969,0.58488 -2.90005,1.46221 -1.21851,0.82858 -1.92524,1.97398 -0.70673,1.12103 -0.70673,2.68072 0,2.02272 1.04791,2.97316 1.07229,0.95044 2.70509,0.95044 1.73028,0 3.04627,-0.82859 1.31599,-0.85296 2.21769,-1.99835 z"
         style="font-style:normal;font-variant:normal;font-weight:normal;font-stretch:normal;font-size:49.91009903px;line-height:1.25;font-family:Georgia;-inkscape-font-specification:Georgia;fill:#d6dbdf;fill-opacity:1"
         id="path861"
         inkscape:connector-curvature="0" />
      <path
         d="m 633.48546,643.99001 q 0,5.41017 -3.41182,9.09007 -3.41183,3.67989 -7.92031,3.67989 -1.97398,0 -3.89922,-0.60925 -1.90088,-0.60925 -3.58242,-1.6328 l -1.80339,2.80257 -1.51095,-0.34118 q 0.12185,-1.8034 0.17059,-4.33789 0.0487,-2.5345 0.0487,-4.89841 v -23.78528 q 0,-0.82858 -0.38992,-1.65717 -0.36555,-0.82859 -0.95044,-1.19414 -0.46303,-0.31681 -1.55969,-0.46303 -1.07228,-0.17059 -1.73028,-0.21933 v -1.55969 l 8.822,-0.56052 0.34118,0.36556 v 15.8406 l 0.17059,0.0487 q 1.51095,-1.60843 3.28998,-2.41264 1.80339,-0.80422 3.53367,-0.80422 4.43537,0 7.40853,3.50931 2.97316,3.5093 2.97316,9.13881 z m -5.09336,0.17059 q 0,-1.80339 -0.38993,-3.6799 -0.38992,-1.8765 -1.2185,-3.2656 -0.82859,-1.41347 -2.16895,-2.29079 -1.34036,-0.87733 -3.21686,-0.87733 -1.70591,0 -2.99753,0.68236 -1.26725,0.658 -2.2908,1.8034 v 13.98847 q 0.14622,0.58489 0.56052,1.36473 0.43866,0.77985 1.16976,1.48658 0.73111,0.68237 1.65718,1.12103 0.92606,0.41429 2.26642,0.41429 2.97316,0 4.80092,-2.87568 1.82777,-2.87568 1.82777,-7.87156 z"
         style="font-style:normal;font-variant:normal;font-weight:normal;font-stretch:normal;font-size:49.91009903px;line-height:1.25;font-family:Georgia;-inkscape-font-specification:Georgia;fill:#d6dbdf;fill-opacity:1"
         id="path863"
         inkscape:connector-curvature="0" />
      <path
         d="m 660.46323,643.77068 q 0,2.53449 -0.80422,4.99588 -0.80421,2.43702 -2.29079,4.14293 -1.68154,1.94961 -3.89923,2.90005 -2.21768,0.95043 -4.97151,0.95043 -2.2908,0 -4.36226,-0.85295 -2.07147,-0.87733 -3.6799,-2.5345 -1.58406,-1.6328 -2.53449,-3.97234 -0.92607,-2.3639 -0.92607,-5.28832 0,-5.62951 3.2656,-9.21192 3.28997,-3.58242 8.60267,-3.58242 5.04463,0 8.31023,3.41182 3.28997,3.38746 3.28997,9.04134 z m -5.04462,0.0487 q 0,-1.82777 -0.36556,-3.85049 -0.36555,-2.04709 -1.09665,-3.46056 -0.77985,-1.51095 -2.0471,-2.41265 -1.26725,-0.92607 -3.09501,-0.92607 -1.8765,0 -3.21686,0.92607 -1.31599,0.92607 -2.14458,2.5345 -0.77984,1.48658 -1.09665,3.38745 -0.31682,1.90087 -0.31682,3.6799 0,2.33953 0.36556,4.33789 0.38992,1.97398 1.21851,3.53367 0.82858,1.55969 2.07146,2.46139 1.26725,0.87732 3.11938,0.87732 3.04627,0 4.82529,-2.94879 1.77903,-2.94879 1.77903,-8.13963 z"
         style="font-style:normal;font-variant:normal;font-weight:normal;font-stretch:normal;font-size:49.91009903px;line-height:1.25;font-family:Georgia;-inkscape-font-specification:Georgia;fill:#d6dbdf;fill-opacity:1"
         id="path865"
         inkscape:connector-curvature="0" />
      <path
         d="m 689.70743,655.59021 -7.82282,0.53614 -0.36556,-0.34118 v -3.04627 h -0.14622 q -0.58488,0.60925 -1.31599,1.31599 -0.7311,0.68236 -1.68154,1.24287 -1.09666,0.658 -2.1202,0.99918 -1.02355,0.34118 -2.90005,0.34118 -3.19249,0 -4.87404,-2.07146 -1.65717,-2.09583 -1.65717,-6.06817 v -11.50272 q 0,-0.87733 -0.34118,-1.46221 -0.31681,-0.60925 -0.95044,-1.04792 -0.43866,-0.29244 -1.09665,-0.41429 -0.658,-0.14622 -1.3891,-0.19496 v -1.58406 l 8.01778,-0.58489 0.36555,0.34119 v 16.69356 q 0,2.60761 1.16977,3.9236 1.16977,1.31599 2.80257,1.31599 1.34036,0 2.38828,-0.4143 1.04792,-0.41429 1.75465,-0.9748 0.65799,-0.51178 1.1454,-1.07229 0.51177,-0.58488 0.77984,-1.07229 v -13.62292 q 0,-0.80422 -0.34118,-1.41347 -0.34118,-0.63362 -0.95044,-1.07229 -0.43866,-0.29244 -1.31598,-0.34118 -0.85296,-0.0731 -1.92525,-0.12185 v -1.58406 l 8.72452,-0.58489 0.36555,0.34119 v 19.08184 q 0,0.82858 0.34119,1.41347 0.34118,0.58488 0.95043,0.99917 0.43867,0.26807 1.04792,0.36556 0.60925,0.0731 1.34036,0.0975 z"
         style="font-style:normal;font-variant:normal;font-weight:normal;font-stretch:normal;font-size:49.91009903px;line-height:1.25;font-family:Georgia;-inkscape-font-specification:Georgia;fill:#d6dbdf;fill-opacity:1"
         id="path867"
         inkscape:connector-curvature="0" />
      <path
         d="m 707.49766,654.98095 q -1.58406,0.658 -2.99753,1.09666 -1.41347,0.46303 -3.46056,0.46303 -3.0219,0 -4.26478,-1.51095 -1.21851,-1.53532 -1.21851,-4.31352 V 634.4369 h -4.33789 v -2.33953 h 4.43537 v -7.48164 h 4.43537 v 7.48164 h 6.89676 v 2.33953 h -6.84802 v 13.42796 q 0,1.51095 0.0975,2.5345 0.12186,0.99918 0.53615,1.75465 0.38992,0.70674 1.16977,1.07229 0.77984,0.36555 2.09583,0.36555 0.60925,0 1.77902,-0.0975 1.19414,-0.12185 1.68154,-0.29244 z"
         style="font-style:normal;font-variant:normal;font-weight:normal;font-stretch:normal;font-size:49.91009903px;line-height:1.25;font-family:Georgia;-inkscape-font-specification:Georgia;fill:#d6dbdf;fill-opacity:1"
         id="path869"
         inkscape:connector-curvature="0" />
    </g>
    <g
       id="g939"
       style="stroke:#f39c12;stroke-opacity:1"
       transform="matrix(0.16316486,0,0,0.1631657,894.04426,776.11777)"
       inkscape:export-xdpi="96"
       inkscape:export-ydpi="96">
      <path
         transform="matrix(-0.75451103,0,0,-0.54952197,1101.4103,1279.4667)"
         d="m 818.15623,151.40733 c 16.6645,7.97257 6.7161,31.18806 -4.31737,38.90375 -24.4319,17.0852 -56.67701,0.42955 -68.52922,-23.72688 -18.85616,-38.43145 5.72937,-82.950654 43.13639,-98.154695 C 840.46905,47.284808 897.92914,80.282292 916.2262,130.97542 939.86599,196.4709 898.27346,267.1046 834.27078,288.38106 755.35114,314.61636 671.43491,264.34242 647.23966,187.01612 618.35294,94.696166 677.35547,-2.5627125 768.01412,-29.640471 873.721,-61.212808 984.35938,6.5468433 1014.2962,110.5435 1048.5765,229.6291 972.04122,353.67126 854.70269,386.45103 722.24376,423.45485 584.78094,338.13115 549.16969,207.44803 509.4313,61.619488 603.55249,-89.276217 747.5822,-127.71045 c 9.03621,-2.4113 18.19014,-4.38086 27.41802,-5.90175"
         sodipodi:t0="0.042052984"
         sodipodi:argument="-19.817743"
         sodipodi:radius="289.19339"
         sodipodi:revolution="2.8868599"
         sodipodi:expansion="1"
         sodipodi:cy="153.88779"
         sodipodi:cx="806.25043"
         id="path881-7"
         style="fill:none;fill-opacity:1;fill-rule:evenodd;stroke:#f39c12;stroke-width:46.5903;stroke-miterlimit:4;stroke-dasharray:none;stroke-opacity:1"
         sodipodi:type="spiral" />
      <text
         transform="scale(1.0067661,0.99327937)"
         id="text3340-3"
         y="1527.2913"
         x="689.02264"
         style="font-style:normal;font-weight:normal;font-size:12.0903px;line-height:0%;font-family:sans-serif;letter-spacing:0px;word-spacing:0px;fill:#000000;fill-opacity:1;stroke:#f39c12;stroke-width:30;stroke-linecap:butt;stroke-linejoin:miter;stroke-miterlimit:4;stroke-dasharray:none;stroke-opacity:1"
         xml:space="preserve"><tspan
           style="font-size:39.9579px;line-height:1.25;stroke:#f39c12;stroke-width:30;stroke-miterlimit:4;stroke-dasharray:none;stroke-opacity:1"
           y="1527.2913"
           x="689.02264"
           id="tspan3342-6"
           sodipodi:role="line"> </tspan></text>
      <path
         transform="matrix(0.75451103,0,0,0.54952197,1094.7544,1224.2565)"
         d="m -729.37901,420.178 c 15.13108,11.98047 1.37745,33.94081 -11.81227,40.29637 -27.87814,13.43328 -58.40934,-8.38434 -66.9121,-35.17893 -13.30648,-41.93247 18.1631,-83.59679 58.54559,-93.52784 55.69793,-13.69748 109.02445,27.94081 120.14356,81.91225 14.29412,69.3827 -37.71125,134.56094 -105.2789,146.7593 -83.03614,14.99097 -160.1564,-47.47646 -173.37503,-128.64556 -15.74378,-96.67473 57.23825,-185.78748 152.01222,-199.99077 110.30527,-16.53088 211.44174,66.99781 226.6065,175.37888 17.34051,123.93103 -76.75584,237.11196 -198.74554,253.22223 -137.55374,18.1657 -262.7936,-86.51281 -279.83792,-222.11219 -18.395,-146.34425 89.31287,-280.99238 233.03269,-304.67954"
         sodipodi:t0="0.04979825"
         sodipodi:argument="-19.817743"
         sodipodi:radius="289.19339"
         sodipodi:revolution="2.8868599"
         sodipodi:expansion="1"
         sodipodi:cy="421.11218"
         sodipodi:cx="-743.75"
         id="path881"
         style="fill:none;fill-opacity:1;fill-rule:evenodd;stroke:#f39c12;stroke-width:46.5903;stroke-miterlimit:4;stroke-dasharray:none;stroke-opacity:1"
         sodipodi:type="spiral" />
      <path
         sodipodi:nodetypes="cc"
         inkscape:connector-curvature="0"
         id="path941"
         d="m 479.46207,1186.0292 68.02455,279.0628"
         style="fill:none;stroke:#f39c12;stroke-width:30;stroke-linecap:butt;stroke-linejoin:miter;stroke-miterlimit:4;stroke-dasharray:none;stroke-opacity:1" />
    </g>
    <text
       xml:space="preserve"
       id="text1296"
       style="font-size:26.66669999999999874px;line-height:1.25;font-family:Verdana;-inkscape-font-specification:Verdana;white-space:pre;shape-inside:url(#rect1298);" />
    <g
       id="g862"
       transform="translate(304.34609,-1172.2144)">
      <g
         id="g860"
         transform="matrix(1.13,0,0,1.06,-373,1690)">
        <g
           id="g858"
           transform="matrix(0.264,0,0,0.261,-293,-481)">
          <path
             id="path854"
             style="fill:#7cd803;stroke:#7cd803"
             d="m 2418,3461 c -43.5,-1.89 -91.9,-7.93 -125,-15.7 -47.4,-10.9 -81.8,-29.9 -99.8,-55 -13.4,-18.8 -18.9,-44.6 -15,-71 1.41,-9.57 5.01,-26.1 5.88,-26.9 0.15,-0.15 4.86,4.17 10.5,9.59 40.2,39 110,61.9 218,71.4 41.9,3.71 53.9,4.09 129,4.09 74.1,-0.01 91.9,-0.516 142,-4.06 154,-10.8 322,-40.4 500,-87.9 13.5,-3.6 25,-6.53 25.5,-6.5 1.73,0.071 -9.76,4.6 -50.5,19.9 -257,96.7 -467,149 -640,160 -29.3,1.91 -76.5,2.65 -101,1.58 z"
             inkscape:connector-curvature="0" />
          <path
             id="path856"
             style="fill:#d6dbdf;fill-opacity:0.94117647;stroke:#445053"
             d="m 3834,3148 c -29.9,-3.16 -55.9,-14.9 -76.4,-34.5 -38.3,-36.6 -50.3,-94.6 -29.8,-145 16.3,-39.9 53.4,-69.6 96.8,-77.3 13,-2.31 36.3,-2.29 49.5,0.027 54.1,9.53 94.6,50.3 104,105 2.48,14.3 1.55,40.9 -1.91,54.5 -12.7,49.6 -51,86 -101,95.5 -11.6,2.22 -30.7,3.13 -41.5,1.98 z m 33.3,-39.6 c 31.8,-6.53 55.5,-29.8 65.4,-64.1 3.09,-10.7 3.3,-37.9 0.365,-48.8 -7.39,-27.4 -23.5,-47.6 -46.9,-59 -14.2,-6.84 -19.6,-8 -37.7,-8.02 -13.2,-0.016 -16.7,0.323 -23.3,2.24 -24.3,7.02 -43.7,23.7 -54.3,46.7 -17.7,38.4 -7.86,86.7 23,113 10.8,9.08 27.4,16.7 41.6,19.1 6.44,1.08 24.7,0.571 31.8,-0.892 z m -1734,34.3 c -0.262,-0.688 -0.36,-56.8 -0.219,-125 l 0.257,-124 41.5,-0.541 v 61.9 c 0,53.2 0.206,62.1 1.47,63.1 1.2,0.996 1.98,0.674 4.25,-1.77 1.53,-1.64 28.4,-30 59.7,-63.1 l 56.9,-60.1 h 51.1 l -7.05,7.25 c -68.5,70.4 -95.6,99 -95.1,101 0.257,0.982 24.4,33.2 53.6,71.5 29.2,38.3 53.1,69.9 53.1,70.2 0,0.3 -11.3,0.342 -25.2,0.195 l -25.2,-0.267 -41.5,-54.7 c -22.9,-30.1 -42.3,-55.5 -43.3,-56.5 -1.67,-1.67 -2.49,-1.02 -17.3,13.7 -8.57,8.51 -17.8,18.1 -20.5,21.3 l -4.9,5.8 v 70.9 h -20.5 c -15.5,0 -20.6,-0.306 -21,-1.25 z m 237,0.987 c 0,-0.144 24.7,-56.7 54.8,-126 l 54.8,-125 39.9,-0.54 54.7,125 c 30.1,68.9 54.7,126 54.7,126 0,0.412 -9.81,0.75 -21.8,0.75 h -21.8 l -12.4,-29.5 c -6.81,-16.2 -12.9,-30 -13.6,-30.5 -0.708,-0.588 -19.2,-1.07 -46.8,-1.23 l -45.6,-0.26 15.4,-36 30.2,-0.265 c 27.9,-0.244 30.3,-0.397 30.3,-2 0.02,-2.2 -40.9,-97.2 -42.7,-99.2 -1.18,-1.29 -1.51,-1.29 -2.69,0 -0.739,0.805 -20.2,45.9 -43.2,100 l -41.9,98.8 h -21.3 c -11.7,0 -21.3,-0.118 -21.3,-0.263 z m 306,-0.966 c -0.266,-0.699 -0.368,-56.8 -0.227,-125 l 0.257,-124 h 45.9 l 37.6,58.5 c 27.8,43.3 38.1,58.5 39.5,58.5 1.39,0 11.7,-15.2 39.6,-58.5 l 37.7,-58.5 46.2,-0.537 v 250 h -42 v -89.5 c 0,-85.2 -0.085,-89.5 -1.78,-89.5 -1.24,0 -13.5,17.5 -40.7,58 -21.4,31.9 -39.3,58 -39.7,58 -0.4,0 -18.2,-26.1 -39.5,-58 -21.3,-31.9 -39.2,-57.9 -39.8,-57.7 -0.745,0.248 -1.22,27.4 -1.57,89.3 l -0.5,88.9 -20.3,0.271 c -15.7,0.209 -20.4,-0.017 -20.8,-1 z m 294,0.729 c 0,-0.639 107,-245 109,-249 l 1.41,-2.75 h 38.9 l 1.41,2.75 c 1.89,3.67 109,248 109,249 0,0.28 -9.84,0.509 -21.9,0.509 h -21.9 l -2.02,-4.75 c -1.11,-2.61 -6.63,-15.8 -12.3,-29.2 -5.64,-13.5 -10.7,-25.1 -11.2,-25.8 -0.754,-0.968 -11.4,-1.25 -47,-1.25 -36.4,0 -45.9,-0.261 -45.5,-1.25 2.92,-7.51 14.2,-33.5 15,-34.5 0.753,-0.949 8.07,-1.25 30.4,-1.25 24.3,0 29.5,-0.243 29.9,-1.4 0.824,-2.15 -41.8,-100 -43.7,-100 -1.23,-0.237 -10.8,21.5 -42.9,97 -22.7,53.5 -41.9,98.5 -42.7,100 l -1.4,2.75 h -21 c -11.5,0 -21,-0.225 -21,-0.501 z m 309,-124 v -125 h 42 v 250 h -42 z m 112,0 v -125 h 42 l 0.254,106 0.255,106 132,1 0.272,18.8 0.272,18.8 h -175 z m 226,124 c -0.262,-0.688 -0.36,-56.8 -0.219,-125 l 0.257,-124 41.5,-0.541 v 250 h -20.5 c -15.5,0 -20.6,-0.306 -21,-1.25 z m -738,-328 c 10.6,-5.08 56.3,-24.1 95.6,-39.9 226,-90.5 417,-144 577,-162 42.6,-4.75 57.1,-5.51 106,-5.54 48.3,-0.03 57.2,0.399 94.2,4.53 78,8.71 125,28.9 148,63.4 10.1,15.5 14.4,31 14.3,52.5 -0.026,13.1 -2.56,32.7 -5.1,39.4 l -1.06,2.8 -8.96,-8.52 c -36.9,-35.2 -97.5,-55.5 -191,-64.1 -67.2,-6.18 -171,-5.03 -267,2.95 -164,13.7 -346,50.3 -539,109 -30.6,9.25 -30.6,9.25 -22.7,5.5 z"
             inkscape:connector-curvature="0" />
        </g>
      </g>
    </g>
  </g>
  <style
     id="style838"
     type="text/css">.st0{fill:#0091E2;}</style>
</svg>
