<?xml version="1.0" encoding="UTF-8" standalone="no"?>
<svg
   xmlns:dc="http://purl.org/dc/elements/1.1/"
   xmlns:cc="http://creativecommons.org/ns#"
   xmlns:rdf="http://www.w3.org/1999/02/22-rdf-syntax-ns#"
   xmlns:svg="http://www.w3.org/2000/svg"
   xmlns="http://www.w3.org/2000/svg"
   xmlns:xlink="http://www.w3.org/1999/xlink"
   xmlns:sodipodi="http://sodipodi.sourceforge.net/DTD/sodipodi-0.dtd"
   xmlns:inkscape="http://www.inkscape.org/namespaces/inkscape"
   width="1024"
   height="512"
   viewBox="0 0 1024.0001 512.00002"
   id="svg2"
   version="1.1"
   inkscape:version="0.92.5 (2060ec1f9f, 2020-04-08)"
   sodipodi:docname="kubernetes.svg"
   inkscape:export-filename="/Users/marcelo.felix/default/projects/bandonga/posts/images/sip.png"
   inkscape:export-xdpi="96"
   inkscape:export-ydpi="96">
  <defs
     id="defs4">
    <linearGradient
       inkscape:collect="always"
       id="linearGradient4542">
      <stop
         style="stop-color:#ebedef;stop-opacity:1;"
         offset="0"
         id="stop4538" />
      <stop
         style="stop-color:#ebedef;stop-opacity:0;"
         offset="1"
         id="stop4540" />
    </linearGradient>
    <rect
       x="-53.125"
       y="1432.5497"
       width="862.5"
       height="918.75"
       id="rect1298" />
    <linearGradient
       inkscape:collect="always"
       id="linearGradient5741">
      <stop
         style="stop-color:#212f3c;stop-opacity:0.94117647"
         offset="0"
         id="stop5743" />
      <stop
         style="stop-color:#17202a;stop-opacity:0.94117647"
         offset="1"
         id="stop5745" />
    </linearGradient>
    <linearGradient
       inkscape:collect="always"
       xlink:href="#linearGradient5741"
       id="linearGradient5747"
       x1="553.625"
       y1="989.86218"
       x2="491.68762"
       y2="591.42468"
       gradientUnits="userSpaceOnUse"
       gradientTransform="translate(1.0625571,-1.3123785)" />
    <linearGradient
       inkscape:collect="always"
       xlink:href="#linearGradient4542"
       id="linearGradient4544"
       x1="315.5401"
       y1="637.81217"
       x2="707.31489"
       y2="637.81217"
       gradientUnits="userSpaceOnUse" />
  </defs>
  <sodipodi:namedview
     id="base"
     pagecolor="#ffffff"
     bordercolor="#666666"
     borderopacity="1.0"
     inkscape:pageopacity="0.0"
     inkscape:pageshadow="2"
     inkscape:zoom="0.64"
     inkscape:cx="427.8533"
     inkscape:cy="97.45308"
     inkscape:document-units="px"
     inkscape:current-layer="layer1"
     showgrid="false"
     units="px"
     inkscape:window-width="1878"
     inkscape:window-height="1023"
     inkscape:window-x="42"
     inkscape:window-y="387"
     inkscape:window-maximized="1"
     showguides="true"
     inkscape:document-rotation="0" />
  <metadata
     id="metadata7">
    <rdf:RDF>
      <cc:Work
         rdf:about="">
        <dc:format>image/svg+xml</dc:format>
        <dc:type
           rdf:resource="http://purl.org/dc/dcmitype/StillImage" />
        <dc:title />
      </cc:Work>
    </rdf:RDF>
  </metadata>
  <g
     style="display:inline"
     inkscape:label="Layer 1"
     inkscape:groupmode="layer"
     id="layer1"
     transform="translate(0,-540.36216)">
    <rect
       style="opacity:1;fill:#22995f;fill-opacity:0.941176;stroke:none;stroke-width:5;stroke-linecap:round;stroke-linejoin:round;stroke-miterlimit:4;stroke-dasharray:none;stroke-opacity:1"
       id="rect4164"
       width="1024.0001"
       height="512.00006"
       x="0"
       y="540.36212" />
    <rect
       style="opacity:1;fill:url(#linearGradient5747);fill-opacity:1;stroke:none;stroke-width:5;stroke-linecap:round;stroke-linejoin:round;stroke-miterlimit:4;stroke-dasharray:none;stroke-opacity:1"
       id="rect4164-4"
       width="1024.0001"
       height="512.00006"
       x="0"
       y="540.36218" />
    <flowRoot
       xml:space="preserve"
       id="flowRoot4235"
       style="font-style:normal;font-weight:normal;line-height:0.01%;font-family:sans-serif;letter-spacing:0px;word-spacing:0px;fill:#000000;fill-opacity:1;stroke:none;stroke-width:1px;stroke-linecap:butt;stroke-linejoin:miter;stroke-opacity:1"
       transform="matrix(0.99896342,0,0,0.9974429,361.37511,1.381783)"><flowRegion
         id="flowRegion4237"><rect
           id="rect4239"
           width="218.75"
           height="14.0625"
           x="150.78125"
           y="642.96875" /></flowRegion><flowPara
         id="flowPara4241"
         style="font-size:10px;line-height:1.25"> </flowPara></flowRoot>    <text
       xml:space="preserve"
       style="font-style:normal;font-variant:normal;font-weight:normal;font-stretch:normal;line-height:0%;font-family:Georgia;-inkscape-font-specification:Georgia;letter-spacing:0px;word-spacing:0px;fill:#d6dbdf;fill-opacity:1;stroke:none;stroke-width:1px;stroke-linecap:butt;stroke-linejoin:miter;stroke-opacity:1"
       x="313.33459"
       y="656.02887"
       id="text4440"
       transform="scale(1.0007619,0.99923868)"><tspan
         sodipodi:role="line"
         id="tspan4442"
         x="313.33459"
         y="656.02887"
         style="font-style:normal;font-variant:normal;font-weight:normal;font-stretch:normal;font-size:49.91009903px;line-height:1.25;font-family:Georgia;-inkscape-font-specification:Georgia;fill:#d6dbdf;fill-opacity:1">Learn more about</tspan></text>
    <g
       id="g939"
       style="stroke:#f39c12;stroke-opacity:1"
       transform="matrix(0.16316486,0,0,0.1631657,894.04426,776.11777)"
       inkscape:export-xdpi="96"
       inkscape:export-ydpi="96">
      <path
         transform="matrix(-0.75451103,0,0,-0.54952197,1101.4103,1279.4667)"
         d="m 818.15623,151.40733 c 16.6645,7.97257 6.7161,31.18806 -4.31737,38.90375 -24.4319,17.0852 -56.67701,0.42955 -68.52922,-23.72688 -18.85616,-38.43145 5.72937,-82.950654 43.13639,-98.154695 C 840.46905,47.284808 897.92914,80.282292 916.2262,130.97542 939.86599,196.4709 898.27346,267.1046 834.27078,288.38106 755.35114,314.61636 671.43491,264.34242 647.23966,187.01612 618.35294,94.696166 677.35547,-2.5627125 768.01412,-29.640471 873.721,-61.212808 984.35938,6.5468433 1014.2962,110.5435 1048.5765,229.6291 972.04122,353.67126 854.70269,386.45103 722.24376,423.45485 584.78094,338.13115 549.16969,207.44803 509.4313,61.619488 603.55249,-89.276217 747.5822,-127.71045 c 9.03621,-2.4113 18.19014,-4.38086 27.41802,-5.90175"
         sodipodi:t0="0.042052984"
         sodipodi:argument="-19.817743"
         sodipodi:radius="289.19339"
         sodipodi:revolution="2.8868599"
         sodipodi:expansion="1"
         sodipodi:cy="153.88779"
         sodipodi:cx="806.25043"
         id="path881-7"
         style="fill:none;fill-opacity:1;fill-rule:evenodd;stroke:#f39c12;stroke-width:46.5903;stroke-miterlimit:4;stroke-dasharray:none;stroke-opacity:1"
         sodipodi:type="spiral" />
      <text
         transform="scale(1.0067661,0.99327937)"
         id="text3340-3"
         y="1527.2913"
         x="689.02264"
         style="font-style:normal;font-weight:normal;font-size:12.0903px;line-height:0%;font-family:sans-serif;letter-spacing:0px;word-spacing:0px;fill:#000000;fill-opacity:1;stroke:#f39c12;stroke-width:30;stroke-linecap:butt;stroke-linejoin:miter;stroke-miterlimit:4;stroke-dasharray:none;stroke-opacity:1"
         xml:space="preserve"><tspan
           style="font-size:39.9579px;line-height:1.25;stroke:#f39c12;stroke-width:30;stroke-miterlimit:4;stroke-dasharray:none;stroke-opacity:1"
           y="1527.2913"
           x="689.02264"
           id="tspan3342-6"
           sodipodi:role="line"> </tspan></text>
      <path
         transform="matrix(0.75451103,0,0,0.54952197,1094.7544,1224.2565)"
         d="m -729.37901,420.178 c 15.13108,11.98047 1.37745,33.94081 -11.81227,40.29637 -27.87814,13.43328 -58.40934,-8.38434 -66.9121,-35.17893 -13.30648,-41.93247 18.1631,-83.59679 58.54559,-93.52784 55.69793,-13.69748 109.02445,27.94081 120.14356,81.91225 14.29412,69.3827 -37.71125,134.56094 -105.2789,146.7593 -83.03614,14.99097 -160.1564,-47.47646 -173.37503,-128.64556 -15.74378,-96.67473 57.23825,-185.78748 152.01222,-199.99077 110.30527,-16.53088 211.44174,66.99781 226.6065,175.37888 17.34051,123.93103 -76.75584,237.11196 -198.74554,253.22223 -137.55374,18.1657 -262.7936,-86.51281 -279.83792,-222.11219 -18.395,-146.34425 89.31287,-280.99238 233.03269,-304.67954"
         sodipodi:t0="0.04979825"
         sodipodi:argument="-19.817743"
         sodipodi:radius="289.19339"
         sodipodi:revolution="2.8868599"
         sodipodi:expansion="1"
         sodipodi:cy="421.11218"
         sodipodi:cx="-743.75"
         id="path881"
         style="fill:none;fill-opacity:1;fill-rule:evenodd;stroke:#f39c12;stroke-width:46.5903;stroke-miterlimit:4;stroke-dasharray:none;stroke-opacity:1"
         sodipodi:type="spiral" />
      <path
         sodipodi:nodetypes="cc"
         inkscape:connector-curvature="0"
         id="path941"
         d="m 479.46207,1186.0292 68.02455,279.0628"
         style="fill:none;stroke:#f39c12;stroke-width:30;stroke-linecap:butt;stroke-linejoin:miter;stroke-miterlimit:4;stroke-dasharray:none;stroke-opacity:1" />
    </g>
    <text
       xml:space="preserve"
       id="text1296"
       style="font-size:26.66669999999999874px;line-height:1.25;font-family:Verdana;-inkscape-font-specification:Verdana;white-space:pre;shape-inside:url(#rect1298);" />
    <path
       inkscape:connector-curvature="0"
       d="m 584.87046,871.72359 c -1.01002,-3.2321 -3.43407,-5.8581 -6.46413,-7.4742 l -61.61126,-29.4926 c -1.61604,-0.808 -3.43407,-1.01 -5.05011,-1.01 -1.61603,0 -3.43407,0 -5.0501,0.404 l -61.61126,29.6946 c -3.03006,1.414 -5.25211,4.0401 -6.06013,7.4742 l -15.15031,66.4593 c -0.60601,3.4341 0.20201,6.8682 2.22205,9.6962 l 42.62287,52.72311 c 2.42405,2.4241 5.85812,4.0401 9.29219,4.2421 h 67.8734 c 3.63607,0.404 7.07014,-1.212 9.29219,-4.2421 l 42.62287,-52.72311 c 2.02004,-2.828 2.82806,-6.2621 2.42405,-9.6962 z"
       id="path10349"
       style="fill:#326de6;stroke-width:2.02004147" />
    <path
       inkscape:connector-curvature="0"
       d="m 575.46376,935.15289 v 0 c -0.202,0 -0.40401,0 -0.40401,-0.202 0,-0.202 -0.40401,-0.202 -0.80802,-0.202 -0.80801,-0.202 -1.61603,-0.202 -2.42404,-0.202 -0.40401,0 -0.80802,0 -1.21203,-0.202 h -0.202 c -2.22205,-0.202 -4.6461,-0.6061 -6.86814,-1.2121 -0.60602,-0.202 -1.21203,-0.808 -1.41403,-1.414 0.202,0 0,0 0,0 v 0 l -1.61604,-0.404 c 0.80802,-5.8581 0.40401,-11.9182 -0.80801,-17.7764 -1.41403,-5.8581 -3.83808,-11.5142 -7.07015,-16.5643 l 1.21203,-1.212 v 0 -0.202 c 0,-0.6061 0.202,-1.4141 0.60601,-1.8181 1.81804,-1.616 3.63607,-2.828 5.65612,-4.0401 v 0 c 0.404,-0.202 0.80801,-0.404 1.21202,-0.606 0.80802,-0.404 1.41403,-0.808 2.22205,-1.212 0.202,-0.202 0.404,-0.202 0.60601,-0.404 0.202,-0.202 0,-0.202 0,-0.404 v 0 c 1.81804,-1.414 2.22204,-3.8381 0.80801,-5.6561 -0.60601,-0.808 -1.81803,-1.4141 -2.82805,-1.4141 -1.01002,0 -2.02004,0.4041 -2.82806,1.0101 v 0 l -0.20201,0.202 c -0.202,0.202 -0.404,0.404 -0.60601,0.404 -0.60601,0.606 -1.21202,1.212 -1.61603,1.818 -0.20201,0.404 -0.60601,0.606 -0.80802,0.808 v 0 c -1.41403,1.6161 -3.23206,3.2321 -5.0501,4.4441 -0.40401,0.202 -0.80802,0.404 -1.21203,0.404 -0.202,0 -0.60601,0 -0.80801,-0.202 h -0.20201 l -1.61603,1.01 c -1.61603,-1.616 -3.43407,-3.232 -5.0501,-4.8481 -7.47416,-5.8581 -16.76635,-9.4941 -26.26054,-10.5042 l -0.20201,-1.616 v 0 0.202 c -0.60601,-0.404 -0.80801,-1.01 -1.01002,-1.616 0,-2.2221 0,-4.4441 0.40401,-6.8682 v -0.202 c 0,-0.404 0.202,-0.808 0.202,-1.212 0.20201,-0.808 0.20201,-1.616 0.40401,-2.424 v -1.2121 0 c 0.20201,-2.02 -1.41403,-4.0401 -3.43407,-4.2421 -1.21202,-0.202 -2.42405,0.404 -3.43407,1.4141 -0.80801,0.808 -1.21202,1.818 -1.21202,2.828 v 0 1.01 c 0,0.8081 0.202,1.6161 0.40401,2.4241 0.202,0.404 0.202,0.808 0.202,1.212 v 0.202 c 0.40401,2.2221 0.40401,4.4441 0.40401,6.8682 -0.20201,0.606 -0.40401,1.212 -1.01002,1.616 v 0.404 0 l -0.20201,1.616 c -2.22204,0.202 -4.44409,0.6061 -6.86814,1.0101 -9.49419,2.02 -18.18037,7.0701 -24.84651,14.1403 l -1.21202,-0.8081 h -0.202 c -0.20201,0 -0.40401,0.202 -0.80802,0.202 -0.40401,0 -0.80802,-0.202 -1.21203,-0.404 -1.81803,-1.414 -3.63607,-3.03 -5.0501,-4.6461 v 0 c -0.202,-0.404 -0.60601,-0.606 -0.80802,-0.808 -0.60601,-0.606 -1.01002,-1.212 -1.61603,-1.818 -0.202,-0.202 -0.40401,-0.202 -0.60601,-0.404 -0.20201,-0.202 -0.20201,-0.202 -0.20201,-0.202 v 0 c -0.80801,-0.606 -1.81803,-1.0101 -2.82805,-1.0101 -1.21203,0 -2.22205,0.4041 -2.82806,1.4141 -1.21203,1.818 -0.80802,4.2421 0.80801,5.6561 v 0 c 0.20201,0 0.20201,0.202 0.20201,0.202 0,0 0.40401,0.404 0.60601,0.404 0.60601,0.404 1.41403,0.808 2.22205,1.212 0.40401,0.202 0.80801,0.404 1.21202,0.606 v 0 c 2.02004,1.2121 4.04008,2.4241 5.65612,4.0401 0.40401,0.404 0.80801,1.212 0.60601,1.8181 v -0.202 0 l 1.21202,1.212 c -0.202,0.404 -0.404,0.606 -0.60601,1.01 -6.26213,9.8982 -8.88818,21.6144 -7.07014,33.1287 l -1.61604,0.404 v 0 c 0,0.202 -0.202,0.202 -0.202,0.202 -0.202,0.606 -0.80802,1.01 -1.41403,1.414 -2.22204,0.606 -4.44409,1.01 -6.86814,1.212 v 0 c -0.40401,0 -0.80802,0 -1.21202,0.2021 -0.80802,0 -1.61604,0.202 -2.42405,0.202 -0.20201,0 -0.40401,0.202 -0.80802,0.202 -0.202,0 -0.202,0 -0.40401,0.202 v 0 c -2.22204,0.404 -3.63607,2.424 -3.23207,4.6461 0,0 0,0 0,0 0.40401,1.818 2.22205,3.03 4.04009,2.828 0.40401,0 0.60601,0 1.01002,-0.202 v 0 c 0.202,0 0.202,0 0.202,-0.202 0,-0.202 0.60601,0 0.80802,0 0.80802,-0.202 1.61603,-0.606 2.22204,-0.808 0.40401,-0.202 0.80802,-0.404 1.21203,-0.404 h 0.202 c 2.22205,-0.808 4.24209,-1.414 6.66614,-1.8181 h 0.202 c 0.60602,0 1.21203,0.2021 1.61604,0.6061 0.202,0 0.202,0.202 0.202,0.202 v 0 l 1.81804,-0.202 c 3.03006,9.2922 8.68618,17.5743 16.56434,23.6344 1.81804,1.4141 3.43407,2.6261 5.45411,3.6361 l -1.01002,1.414 v 0 c 0,0.2021 0.202,0.2021 0.202,0.2021 0.40401,0.606 0.40401,1.414 0.20201,2.02 -0.80802,2.02 -2.02004,4.0401 -3.23207,5.8581 v 0.202 c -0.202,0.404 -0.40401,0.606 -0.80802,1.01 -0.404,0.404 -0.80801,1.2121 -1.41402,2.0201 -0.20201,0.202 -0.20201,0.404 -0.40401,0.606 0,0 0,0.202 -0.20201,0.202 v 0 c -1.01002,2.02 -0.202,4.4441 1.61604,5.4541 0.404,0.202 1.01002,0.404 1.41403,0.404 1.61603,0 3.03006,-1.01 3.83807,-2.424 v 0 c 0,0 0,-0.202 0.20201,-0.202 0,-0.202 0.202,-0.404 0.40401,-0.606 0.202,-0.8081 0.60601,-1.4141 0.80801,-2.2221 l 0.40401,-1.212 v 0 c 0.60601,-2.2221 1.61603,-4.2421 2.62606,-6.2621 0.404,-0.6061 1.01002,-1.0101 1.61603,-1.2121 0.202,0 0.202,0 0.202,-0.202 v 0 l 0.80802,-1.616 c 5.65612,2.222 11.51424,3.2321 17.57436,3.2321 3.63607,0 7.27215,-0.4041 10.90822,-1.4141 2.22205,-0.404 4.44409,-1.212 6.46414,-1.818 l 0.80801,1.414 v 0 c 0.20201,0 0.20201,0 0.20201,0.202 0.60601,0.202 1.21202,0.606 1.61603,1.212 1.01002,2.0201 2.02004,4.0401 2.62605,6.2622 v 0.202 l 0.40401,1.212 c 0.20201,0.808 0.40401,1.616 0.80802,2.2221 0.202,0.202 0.202,0.404 0.40401,0.606 0,0 0,0.202 0.202,0.202 v 0 c 0.80802,1.414 2.22205,2.424 3.83808,2.424 0.60601,0 1.01002,-0.202 1.61603,-0.404 0.80802,-0.404 1.61604,-1.212 1.81804,-2.222 0.202,-1.0101 0.202,-2.0201 -0.202,-3.0301 v 0 c 0,-0.202 -0.20201,-0.202 -0.20201,-0.202 0,-0.202 -0.202,-0.404 -0.40401,-0.606 -0.40401,-0.808 -0.80801,-1.414 -1.41403,-2.0201 -0.202,-0.404 -0.404,-0.606 -0.80801,-1.01 v -0.404 c -1.41403,-1.818 -2.42405,-3.8381 -3.23207,-5.8581 -0.202,-0.606 -0.202,-1.414 0.20201,-2.02 0,-0.2021 0.202,-0.2021 0.202,-0.2021 v 0 l -0.60601,-1.616 c 10.30221,-6.2621 18.18037,-15.9583 21.81644,-27.4725 l 1.61604,0.202 v 0 c 0.202,0 0.202,-0.202 0.202,-0.202 0.40401,-0.4041 1.01002,-0.6061 1.61603,-0.6061 h 0.20201 c 2.22204,0.404 4.44409,1.0101 6.46413,1.8181 h 0.20201 c 0.404,0.202 0.80801,0.404 1.21202,0.404 0.80802,0.404 1.41403,0.808 2.22205,1.01 0.202,0 0.404,0.202 0.80801,0.202 0.20201,0 0.20201,0 0.40401,0.202 v 0 c 0.40401,0.202 0.60601,0.202 1.01002,0.202 1.81804,0 3.43407,-1.212 4.04008,-2.828 -0.202,-2.2221 -1.81803,-3.8381 -3.63607,-4.2421 z m -58.3792,-6.2622 -5.45411,2.6261 -5.45411,-2.6261 -1.41403,-5.8581 3.83808,-4.8481 h 6.06012 l 3.83808,4.8481 z m 32.92668,-13.1302 c 1.01002,4.2421 1.21202,8.4842 0.80801,12.7262 l -19.19039,-5.4541 v 0 c -1.81804,-0.404 -2.82806,-2.222 -2.42405,-4.0401 0.20201,-0.606 0.40401,-1.01 0.80802,-1.414 l 15.15031,-13.7363 c 2.22204,3.6361 3.83808,7.6762 4.8481,11.9183 z m -10.90823,-19.3924 -16.56434,11.7162 c -1.41403,0.808 -3.43407,0.606 -4.44409,-0.808 -0.40401,-0.404 -0.60601,-0.808 -0.60601,-1.414 l -1.21202,-20.4024 c 8.88818,1.01 16.76634,4.8481 22.82646,10.9082 z m -36.56275,-10.3022 4.04009,-0.808 -1.01002,20.2004 v 0 c 0,1.818 -1.61604,3.232 -3.43407,3.232 -0.60602,0 -1.01002,-0.202 -1.61604,-0.404 l -16.76634,-11.9182 c 5.25211,-5.0501 11.71624,-8.6862 18.78638,-10.3022 z m -24.6445,17.7763 14.94831,13.3323 v 0 c 1.41402,1.212 1.61603,3.2321 0.404,4.6461 -0.404,0.606 -0.80801,0.808 -1.61603,1.01 l -19.5944,5.6561 c -0.60601,-8.4841 1.41403,-17.1703 5.85812,-24.6445 z m -3.43407,34.1387 19.99841,-3.434 c 1.61603,0 3.23207,1.01 3.43407,2.626 0.202,0.606 0.202,1.414 -0.202,2.0201 v 0 l -7.67616,18.5843 c -7.07015,-4.6461 -12.72626,-11.7162 -15.55432,-19.7964 z m 45.85494,25.0485 c -2.82806,0.6061 -5.65612,1.0101 -8.68618,1.0101 -4.24209,0 -8.68618,-0.8081 -12.72626,-2.0201 l 9.8982,-17.9783 c 1.01002,-1.2121 2.62606,-1.6161 4.04008,-0.8081 0.60602,0.404 1.01003,0.8081 1.61604,1.4141 v 0 l 9.6962,17.5743 c -1.21203,0.202 -2.42405,0.404 -3.83808,0.808 z m 24.6445,-17.5743 c -3.03006,4.8481 -7.27214,9.0902 -12.12024,12.1202 l -7.87817,-18.9884 c -0.404,-1.616 0.40401,-3.232 1.81804,-3.838 0.60601,-0.202 1.21203,-0.404 1.81804,-0.404 l 20.20041,3.434 c -1.01002,2.8281 -2.22204,5.4541 -3.83808,7.6762 z"
       id="path10351"
       style="fill:#ffffff;stroke-width:2.02004147" />
    <path
       inkscape:connector-curvature="0"
       d="m 747.94617,769.01249 c 1.86843,0.13345 3.87034,-0.13346 5.60531,-0.80075 1.06768,-0.53389 1.73498,-1.73501 1.60152,-2.93612 -0.13345,-1.33464 -0.93422,-2.53576 -2.13536,-2.93613 -2.0019,-1.20118 -4.27072,-2.26884 -6.53954,-2.93613 -2.26882,-0.80074 -4.27072,-1.73501 -6.13916,-2.66921 -1.73497,-0.80074 -3.20304,-1.86847 -4.67109,-3.20304 -1.33461,-1.33457 -2.26882,-2.80267 -2.93612,-4.53761 -0.80077,-2.00193 -1.06769,-4.13731 -1.06769,-6.27263 -0.13346,-4.40422 1.86844,-8.67492 5.3384,-11.34413 3.60342,-2.80267 8.40799,-4.13724 14.54715,-4.13724 2.93611,0 6.0057,0.26691 8.94182,0.9342 2.26878,0.40037 4.53762,0.9342 6.80646,1.73501 l -2.53575,11.34407 c -1.8684,-0.66729 -3.60341,-1.06766 -5.47185,-1.60149 -2.13537,-0.53383 -4.40419,-0.66729 -6.53954,-0.66729 -4.53764,0 -6.80647,1.20112 -6.80647,3.73687 0,0.53383 0.13346,1.06766 0.26692,1.60149 0.26692,0.53383 0.6673,0.9342 1.20114,1.33464 0.53385,0.40037 1.3346,0.80074 2.26882,1.33457 0.93422,0.53383 2.26882,1.06766 3.87034,1.60149 2.6692,0.93427 5.33841,2.13538 7.74068,3.47002 1.86847,0.9342 3.46996,2.13532 4.8046,3.73687 1.20111,1.20112 2.00186,2.66921 2.53569,4.40416 0.53383,1.86846 0.80081,3.73687 0.80081,5.60533 0.26691,4.53762 -1.86847,8.94184 -5.7388,11.47753 -3.73689,2.53575 -9.0753,3.87039 -16.01521,3.87039 -3.87035,0.13346 -7.60723,-0.26691 -11.3441,-1.20118 -2.13537,-0.53383 -4.13727,-1.20112 -6.13916,-1.8684 l 2.40227,-11.74451 c 2.40229,0.9342 4.93802,1.73501 7.47376,2.26884 2.66921,0.13346 5.20494,0.40038 7.87415,0.40038 M 674.4097,754.33185 c -0.13346,-4.00378 0.6673,-8.00756 2.0019,-11.74443 1.20114,-3.20304 3.06958,-6.00571 5.47186,-8.54147 2.26882,-2.26884 4.80456,-4.00378 7.74068,-5.07151 2.93612,-1.20111 6.0057,-1.73494 9.07528,-1.73494 7.20684,0 12.94562,2.26884 17.08288,6.67299 4.13726,4.40416 6.27262,10.9437 6.27262,19.48516 0,0.80075 0,1.73501 -0.13346,2.80267 0,1.06766 -0.13346,1.8684 -0.13346,2.66921 h -32.56424 c 0.26692,2.80267 1.73498,5.47182 4.13726,7.07337 2.93612,1.8684 6.40608,2.80267 9.87604,2.66921 2.53574,0 5.20494,-0.26691 7.74068,-0.66735 2.13536,-0.40037 4.27072,-1.06766 6.27262,-2.00186 l 2.0019,11.74451 c -0.93422,0.53383 -2.0019,0.80074 -3.06958,1.20111 -1.46806,0.40037 -2.93612,0.80075 -4.40418,0.9342 -1.60152,0.26692 -3.20304,0.53383 -5.07148,0.80075 -1.73498,0.13345 -3.60342,0.26698 -5.47186,0.26698 -4.13726,0.13345 -8.14106,-0.5339 -12.0114,-2.00193 -3.20304,-1.20111 -6.0057,-3.06958 -8.40798,-5.47188 -2.26882,-2.4023 -3.87035,-5.33836 -4.93802,-8.40794 -0.93422,-3.60348 -1.46806,-7.20689 -1.46806,-10.67685 m 33.76538,-5.47181 c 0,-1.20118 -0.26692,-2.4023 -0.6673,-3.60348 -0.26692,-1.20111 -0.93422,-2.13531 -1.60152,-3.06952 -0.80076,-0.93426 -1.73498,-1.73501 -2.80266,-2.26884 -1.3346,-0.66728 -2.6692,-0.9342 -4.13726,-0.9342 -1.46806,0 -2.80266,0.26692 -4.13726,0.9342 -1.06768,0.53383 -2.13536,1.20112 -2.93612,2.13532 -0.80076,0.93427 -1.46806,2.00193 -1.86844,3.20304 -0.40038,1.20118 -0.6673,2.4023 -0.80076,3.60348 h 18.95132 m -72.86917,-33.09813 14.41369,-2.26877 v 14.94747 h 17.3498 v 12.01142 h -17.3498 v 17.88367 c -0.13346,2.53569 0.40037,5.07145 1.60152,7.20683 1.06767,1.73494 3.20304,2.66921 6.53953,2.66921 1.60153,0 3.20305,-0.13346 4.67111,-0.40044 1.60152,-0.26691 3.06958,-0.66728 4.53764,-1.20111 l 2.0019,11.21067 c -1.86844,0.80075 -3.87034,1.33458 -5.87224,1.86841 -2.53574,0.53382 -5.20494,0.80074 -7.87415,0.80074 -3.33649,0.13346 -6.67299,-0.40037 -9.74258,-1.60149 -2.40227,-0.9342 -4.53764,-2.53575 -6.13916,-4.40415 -1.60152,-2.00193 -2.66919,-4.40423 -3.33649,-6.93998 -0.6673,-2.93613 -0.93422,-6.00564 -0.80077,-8.94177 v -42.84071 m -58.32202,38.56994 c -0.13346,-4.00378 0.6673,-8.00756 2.0019,-11.74443 1.20114,-3.20304 3.06958,-6.00571 5.47186,-8.54147 2.26882,-2.26884 4.80456,-4.00378 7.74068,-5.07151 2.93612,-1.20111 6.0057,-1.73494 9.07528,-1.73494 7.20684,0 12.94562,2.26884 17.08288,6.67299 4.13727,4.40416 6.27262,10.9437 6.27262,19.48516 0,0.80075 0,1.73501 -0.13345,2.80267 -0.13347,1.06766 -0.13347,1.8684 -0.13347,2.66921 h -32.6977 c 0.26692,2.80267 1.73498,5.47182 4.13726,7.07337 2.93612,1.8684 6.40608,2.80267 9.87604,2.66921 2.53574,0 5.20495,-0.26691 7.74068,-0.66735 2.13536,-0.40037 4.27073,-1.06766 6.40608,-2.00186 l 2.0019,11.74451 c -0.93421,0.53383 -2.0019,0.80074 -3.06958,1.20111 -1.46806,0.40037 -2.93612,0.80075 -4.40418,0.9342 -1.60152,0.26692 -3.20304,0.53383 -5.07148,0.80075 -1.73498,0.13345 -3.60342,0.26698 -5.47186,0.26698 -4.13726,0.13345 -8.14106,-0.5339 -12.0114,-2.00193 -3.20304,-1.20111 -6.0057,-3.06958 -8.40798,-5.47188 -2.26882,-2.4023 -3.87034,-5.33836 -4.93802,-8.40794 -1.06768,-3.60348 -1.60152,-7.20689 -1.46806,-10.67685 m 33.76538,-5.47181 c 0,-1.20118 -0.26692,-2.4023 -0.6673,-3.60348 -0.26692,-1.20111 -0.93422,-2.13531 -1.60152,-3.06952 -0.80076,-0.93426 -1.73498,-1.73501 -2.80266,-2.26884 -1.3346,-0.66728 -2.6692,-0.9342 -4.13726,-0.9342 -1.46806,0 -2.80266,0.26692 -4.13726,0.9342 -1.06768,0.53383 -2.0019,1.20112 -2.80266,2.13532 -0.80076,0.93427 -1.46806,2.00193 -1.86844,3.20304 -0.40038,1.20118 -0.6673,2.4023 -0.80076,3.60348 h 18.81786 m -88.48398,-18.68442 c 3.06957,-0.80074 6.27261,-1.46809 9.47566,-2.00192 4.00379,-0.66729 8.14105,-0.9342 12.14486,-0.9342 3.60342,-0.13346 7.20684,0.53383 10.6768,1.73494 2.6692,0.93427 5.07148,2.53576 6.80646,4.67114 1.73498,2.13538 2.93612,4.67107 3.60342,7.34028 0.80076,3.06959 1.06768,6.27263 1.06768,9.47567 v 28.69391 H 551.75995 V 752.33 c 0,-4.67114 -0.6673,-7.87418 -1.86845,-9.87604 -1.20113,-1.86847 -3.46995,-2.93613 -6.80646,-2.93613 -1.06767,0 -2.13535,0 -3.33649,0.13346 -1.20115,0 -2.13537,0.13346 -3.06959,0.26691 v 39.23724 h -14.41367 v -48.97982 m -10.14297,11.07716 c -1.3346,-0.26692 -2.80266,-0.66729 -4.53764,-0.9342 -1.86844,-0.40038 -3.73688,-0.53383 -5.60532,-0.53383 -1.06768,0 -2.13536,0.13345 -3.3365,0.26691 -0.93422,0.13346 -1.86843,0.26692 -2.80266,0.53383 v 38.83686 h -14.41368 v -48.31252 c 2.93612,-1.06766 6.0057,-1.86847 9.07528,-2.53576 3.87034,-0.9342 7.87415,-1.33457 11.74449,-1.20111 0.93421,0 1.86843,0.13345 2.80265,0.13345 1.06769,0 2.13536,0.13346 3.33651,0.40038 1.06767,0.13345 2.13535,0.26691 3.33649,0.53382 0.93422,0.13346 1.86845,0.40038 2.80267,0.80075 l -2.40229,12.01142 m -89.55167,13.07907 c -0.13345,-4.00378 0.6673,-8.00756 2.00191,-11.74443 1.20113,-3.20304 3.06958,-6.00571 5.47186,-8.54147 2.26882,-2.26884 4.80455,-4.00378 7.74068,-5.07151 2.93612,-1.20111 6.0057,-1.73494 9.07528,-1.73494 7.20684,0 12.94562,2.26884 17.08288,6.67299 4.13726,4.40416 6.27262,10.9437 6.27262,19.35171 0,0.80074 0,1.73494 -0.13346,2.80267 -0.13346,1.06765 -0.13346,1.8684 -0.13346,2.66921 h -32.6977 c 0.26692,2.80267 1.73498,5.47181 4.13726,7.07336 2.93612,1.86841 6.40608,2.80267 9.87604,2.66922 2.53574,0 5.20494,-0.26692 7.74068,-0.66736 2.13536,-0.40037 4.27072,-1.06765 6.27262,-1.8684 l 2.0019,11.74451 c -0.93422,0.53383 -2.0019,0.80074 -3.06958,1.20111 -1.46806,0.40037 -2.93612,0.80075 -4.40418,0.9342 -1.60152,0.26692 -3.20304,0.53383 -5.07148,0.80075 -1.73498,0.13345 -3.60342,0.26698 -5.47186,0.26698 -4.13726,0.13345 -8.14106,-0.5339 -12.0114,-2.00193 -3.20304,-1.20111 -6.00571,-3.06958 -8.40798,-5.47188 -2.26882,-2.4023 -3.87034,-5.33836 -4.93802,-8.40794 -0.80076,-3.60348 -1.33461,-7.07343 -1.33461,-10.67685 m 33.89885,-5.47181 c 0,-1.20118 -0.26692,-2.4023 -0.6673,-3.60348 -0.26692,-1.20111 -0.93422,-2.13531 -1.60152,-3.06952 -0.80076,-0.93426 -1.73498,-1.73501 -2.80266,-2.26884 -1.3346,-0.66728 -2.6692,-0.9342 -4.13726,-0.9342 -1.46806,0 -2.80266,0.26692 -4.13726,0.9342 -1.06768,0.53383 -2.13536,1.20112 -2.93612,2.13532 -0.80076,0.93427 -1.46807,2.00193 -1.86844,3.20304 -0.40038,1.20118 -0.6673,2.4023 -0.80076,3.60348 h 18.95132 m -57.25435,4.67107 c 0,-9.34221 -3.46996,-13.87982 -10.27642,-13.87982 -1.46806,0 -2.93612,0.13346 -4.40418,0.53383 -1.20114,0.26691 -2.40228,0.80074 -3.46996,1.46803 v 26.15815 c 0.6673,0.13346 1.60152,0.26698 2.6692,0.40044 1.06768,0.13346 2.26882,0.13346 3.60342,0.13346 3.46996,0.26691 6.80646,-1.20118 8.94182,-4.00385 2.0019,-3.20304 3.06958,-6.93991 2.93612,-10.81024 m 14.6806,0.53383 c 0,3.73687 -0.53383,7.47381 -1.86843,11.07722 -1.06769,3.20304 -2.80267,6.00564 -5.07149,8.40794 -2.40228,2.4023 -5.20493,4.27076 -8.27452,5.47188 -3.60342,1.33457 -7.3403,1.86847 -11.21064,1.86847 -1.73498,0 -3.60342,-0.13353 -5.47185,-0.26698 -1.86845,-0.13346 -3.73689,-0.40038 -5.60533,-0.53383 -1.73498,-0.26692 -3.46996,-0.53383 -5.20494,-0.9342 -1.73498,-0.26692 -3.20304,-0.66729 -4.40418,-1.20112 v -71.40116 l 14.41368,-2.26878 v 25.35742 c 1.60152,-0.66736 3.3365,-1.20119 5.07148,-1.60156 1.86845,-0.40037 3.73688,-0.53383 5.60532,-0.53383 3.3365,0 6.53954,0.53383 9.60912,2.00193 2.6692,1.20111 5.07149,3.06958 6.93992,5.33836 2.00191,2.53575 3.46996,5.33842 4.27073,8.408 0.80075,3.3365 1.20113,7.07337 1.20113,10.81024 m -60.85776,23.48894 c -3.06958,0.80081 -6.27262,1.4681 -9.47566,1.86847 -4.0038,0.66729 -8.14106,0.9342 -12.14486,0.9342 -3.73688,0.13346 -7.3403,-0.53383 -10.81026,-1.73494 -2.6692,-1.06773 -4.93802,-2.66921 -6.80646,-4.8046 -1.73498,-2.26877 -2.93612,-4.80452 -3.60342,-7.60719 -0.80077,-3.06959 -1.06769,-6.40609 -1.06769,-9.60913 v -28.16008 h 14.41369 v 26.55853 c 0,4.67114 0.6673,8.00764 1.86844,10.00956 1.20114,2.00186 3.46996,3.06958 6.80646,3.06958 1.06768,0 2.13536,0 3.3365,-0.13352 1.20114,-0.13346 2.13536,-0.13346 3.06958,-0.40037 v -39.10378 h 14.41368 v 49.11327 m -84.07981,-30.69577 c 1.46806,-1.60155 2.80267,-3.20304 4.40419,-4.80459 1.46805,-1.73494 2.93612,-3.3365 4.40417,-4.93798 1.46806,-1.73502 2.80266,-3.20305 4.00381,-4.67114 1.20113,-1.46803 2.40227,-2.8026 3.33649,-3.87033 h 17.08289 c -3.46997,3.87033 -6.80646,7.74072 -10.00951,11.34413 -3.33649,3.60342 -6.80645,7.34029 -10.6768,11.07716 2.13536,2.00192 4.13727,4.00378 6.0057,6.27262 2.00191,2.4023 4.00381,4.80459 6.0057,7.47381 1.86845,2.53568 3.73689,5.2049 5.33841,7.74065 1.60152,2.53575 2.93612,4.93799 4.0038,7.07337 h -16.54904 c -1.06769,-1.73495 -2.26882,-3.46996 -3.60343,-5.47188 -1.3346,-2.00186 -2.80266,-4.00379 -4.13725,-6.13917 -1.46807,-2.00186 -3.06959,-4.00378 -4.80457,-5.87219 -1.46806,-1.73501 -3.06958,-3.33649 -4.80456,-4.67113 v 22.28783 H 254.5445 v -73.13611 l 14.41368,-2.26878 v 42.57373"
       id="path3003"
       style="fill:#d6dbdf;fill-opacity:0.94117647;stroke-width:1.33460021" />
  </g>
  <style
     id="style838"
     type="text/css">.st0{fill:#0091E2;}</style>
</svg>
