<?xml version="1.0" encoding="UTF-8" standalone="no"?>
<svg
   xmlns:dc="http://purl.org/dc/elements/1.1/"
   xmlns:cc="http://creativecommons.org/ns#"
   xmlns:rdf="http://www.w3.org/1999/02/22-rdf-syntax-ns#"
   xmlns:svg="http://www.w3.org/2000/svg"
   xmlns="http://www.w3.org/2000/svg"
   xmlns:xlink="http://www.w3.org/1999/xlink"
   xmlns:sodipodi="http://sodipodi.sourceforge.net/DTD/sodipodi-0.dtd"
   xmlns:inkscape="http://www.inkscape.org/namespaces/inkscape"
   width="1024"
   height="512"
   viewBox="0 0 1024.0001 512.00002"
   id="svg2"
   version="1.1"
   inkscape:version="0.92.5 (2060ec1f9f, 2020-04-08)"
   sodipodi:docname="kubernetes.svg"
   inkscape:export-filename="/Users/marcelo.felix/default/projects/bandonga/posts/images/sip.png"
   inkscape:export-xdpi="96"
   inkscape:export-ydpi="96">
  <defs
     id="defs4">
    <linearGradient
       inkscape:collect="always"
       id="linearGradient4542">
      <stop
         style="stop-color:#ebedef;stop-opacity:1;"
         offset="0"
         id="stop4538" />
      <stop
         style="stop-color:#ebedef;stop-opacity:0;"
         offset="1"
         id="stop4540" />
    </linearGradient>
    <rect
       x="-53.125"
       y="1432.5497"
       width="862.5"
       height="918.75"
       id="rect1298" />
    <linearGradient
       inkscape:collect="always"
       id="linearGradient5741">
      <stop
         style="stop-color:#212f3c;stop-opacity:1"
         offset="0"
         id="stop5743" />
      <stop
         style="stop-color:#17202a;stop-opacity:0.9964413"
         offset="1"
         id="stop5745" />
    </linearGradient>
    <linearGradient
       inkscape:collect="always"
       xlink:href="#linearGradient5741"
       id="linearGradient5747"
       x1="553.625"
       y1="989.86218"
       x2="491.68762"
       y2="591.42468"
       gradientUnits="userSpaceOnUse"
       gradientTransform="translate(1.0625571,-1.3123785)" />
    <linearGradient
       inkscape:collect="always"
       xlink:href="#linearGradient4542"
       id="linearGradient4544"
       x1="315.5401"
       y1="637.81217"
       x2="707.31489"
       y2="637.81217"
       gradientUnits="userSpaceOnUse" />
  </defs>
  <sodipodi:namedview
     id="base"
     pagecolor="#ffffff"
     bordercolor="#666666"
     borderopacity="1.0"
     inkscape:pageopacity="0.0"
     inkscape:pageshadow="2"
     inkscape:zoom="0.64"
     inkscape:cx="535.83528"
     inkscape:cy="121.51969"
     inkscape:document-units="px"
     inkscape:current-layer="layer1"
     showgrid="false"
     units="px"
     inkscape:window-width="1878"
     inkscape:window-height="1023"
     inkscape:window-x="42"
     inkscape:window-y="387"
     inkscape:window-maximized="1"
     showguides="true"
     inkscape:document-rotation="0" />
  <metadata
     id="metadata7">
    <rdf:RDF>
      <cc:Work
         rdf:about="">
        <dc:format>image/svg+xml</dc:format>
        <dc:type
           rdf:resource="http://purl.org/dc/dcmitype/StillImage" />
        <dc:title />
      </cc:Work>
    </rdf:RDF>
  </metadata>
  <g
     style="display:inline"
     inkscape:label="Layer 1"
     inkscape:groupmode="layer"
     id="layer1"
     transform="translate(0,-540.36216)">
    <rect
       style="opacity:1;fill:url(#linearGradient5747);fill-opacity:1;stroke:none;stroke-width:5;stroke-linecap:round;stroke-linejoin:round;stroke-miterlimit:4;stroke-dasharray:none;stroke-opacity:1"
       id="rect4164-4"
       width="1024.0001"
       height="512.00006"
       x="0"
       y="540.36218" />
    <flowRoot
       xml:space="preserve"
       id="flowRoot4235"
       style="font-style:normal;font-weight:normal;line-height:0.01%;font-family:sans-serif;letter-spacing:0px;word-spacing:0px;fill:#000000;fill-opacity:1;stroke:none;stroke-width:1px;stroke-linecap:butt;stroke-linejoin:miter;stroke-opacity:1"
       transform="matrix(0.99896342,0,0,0.9974429,361.37511,1.381783)"><flowRegion
         id="flowRegion4237"><rect
           id="rect4239"
           width="218.75"
           height="14.0625"
           x="150.78125"
           y="642.96875" /></flowRegion><flowPara
         id="flowPara4241"
         style="font-size:10px;line-height:1.25"> </flowPara></flowRoot>    <g
       aria-label="Learn more about"
       transform="matrix(1.0007619,0,0,0.99923868,-9.8333662e-6,-4.4578988)"
       style="font-style:normal;font-variant:normal;font-weight:normal;font-stretch:normal;line-height:0%;font-family:Georgia;-inkscape-font-specification:Georgia;letter-spacing:0px;word-spacing:0px;fill:#d6dbdf;fill-opacity:1;stroke:none;stroke-width:1px;stroke-linecap:butt;stroke-linejoin:miter;stroke-opacity:1"
       id="text4440">
      <path
         d="m 343.48049,645.74466 -0.73111,10.28421 h -27.02651 v -1.73028 q 0.58488,-0.0487 1.68154,-0.17059 1.12103,-0.12185 1.55969,-0.31682 0.73111,-0.31681 1.04792,-0.92606 0.34118,-0.60926 0.34118,-1.55969 v -24.76009 q 0,-0.82859 -0.29244,-1.46221 -0.26807,-0.63362 -1.09666,-1.02355 -0.56051,-0.29244 -1.58406,-0.56051 -0.99917,-0.29244 -1.65717,-0.34118 v -1.73029 h 14.59773 v 1.73029 q -0.68236,0.0244 -1.77902,0.2437 -1.07229,0.21933 -1.55969,0.38992 -0.82859,0.29244 -1.1454,0.99918 -0.29244,0.70673 -0.29244,1.51095 v 23.22477 q 0,1.60843 0.14622,2.51012 0.17059,0.87733 0.75547,1.36473 0.56052,0.43866 1.65718,0.58489 1.12102,0.12185 3.11938,0.12185 0.90169,0 1.8765,-0.0487 0.97481,-0.0487 1.85213,-0.19496 0.85296,-0.14623 1.55969,-0.38993 0.73111,-0.26807 1.07229,-0.65799 0.99918,-1.12103 2.31517,-3.38746 1.34035,-2.29079 1.85213,-3.70426 z"
         style="font-style:normal;font-variant:normal;font-weight:normal;font-stretch:normal;font-size:49.91009903px;line-height:1.25;font-family:Georgia;-inkscape-font-specification:Georgia;fill:#d6dbdf;fill-opacity:1"
         id="path843"
         inkscape:connector-curvature="0" />
      <path
         d="m 366.55904,650.37499 q -1.51095,2.87568 -4.04545,4.58159 -2.5345,1.70591 -5.82447,1.70591 -2.90005,0 -5.09337,-1.02354 -2.16894,-1.02355 -3.58241,-2.7782 -1.41347,-1.75465 -2.1202,-4.09419 -0.68237,-2.33954 -0.68237,-4.94714 0,-2.33954 0.73111,-4.58159 0.75547,-2.26643 2.19331,-4.06982 1.3891,-1.73028 3.43619,-2.7782 2.07147,-1.07229 4.63034,-1.07229 2.63197,0 4.50848,0.82859 1.8765,0.82858 3.04627,2.26642 1.12103,1.36473 1.65717,3.21686 0.56051,1.85214 0.56051,4.02108 v 1.60843 h -15.91372 q 0,2.36391 0.43867,4.28915 0.46303,1.92525 1.43784,3.38746 0.95043,1.41346 2.48575,2.24205 1.53532,0.80422 3.65553,0.80422 2.16894,0 3.72863,-0.99918 1.58406,-1.02355 3.04627,-3.65553 z m -5.38581,-9.16318 q 0,-1.36473 -0.2437,-2.92442 -0.21933,-1.55969 -0.73111,-2.60761 -0.56051,-1.12103 -1.53532,-1.82776 -0.9748,-0.70674 -2.51012,-0.70674 -2.55887,0 -4.26478,2.14458 -1.68154,2.1202 -1.82777,5.92195 z"
         style="font-style:normal;font-variant:normal;font-weight:normal;font-stretch:normal;font-size:49.91009903px;line-height:1.25;font-family:Georgia;-inkscape-font-specification:Georgia;fill:#d6dbdf;fill-opacity:1"
         id="path845"
         inkscape:connector-curvature="0" />
      <path
         d="m 392.09897,655.59021 q -1.1454,0.41429 -2.02273,0.65799 -0.85295,0.26807 -1.94961,0.26807 -1.90087,0 -3.04627,-0.87732 -1.12103,-0.9017 -1.43784,-2.60761 h -0.14622 q -1.58406,1.75465 -3.41182,2.68072 -1.8034,0.92606 -4.36226,0.92606 -2.70509,0 -4.45974,-1.65717 -1.73029,-1.65717 -1.73029,-4.33789 0,-1.3891 0.38993,-2.48575 0.38992,-1.09666 1.16976,-1.97399 0.60926,-0.7311 1.60844,-1.29162 0.99917,-0.58488 1.8765,-0.92606 1.09666,-0.4143 4.43537,-1.53532 3.36308,-1.12103 4.53285,-1.75465 v -2.41265 q 0,-0.31681 -0.14622,-1.21851 -0.12185,-0.9017 -0.56052,-1.70591 -0.4874,-0.9017 -1.3891,-1.55969 -0.87732,-0.68237 -2.51012,-0.68237 -1.12103,0 -2.09584,0.38993 -0.95043,0.36555 -1.34036,0.77984 0,0.48741 0.21934,1.43784 0.2437,0.95044 0.2437,1.75465 0,0.85296 -0.77985,1.55969 -0.75547,0.70674 -2.1202,0.70674 -1.21851,0 -1.80339,-0.85296 -0.56052,-0.87732 -0.56052,-1.94961 0,-1.12103 0.77985,-2.14457 0.80421,-1.02355 2.07146,-1.82777 1.09666,-0.68236 2.65635,-1.14539 1.55969,-0.48741 3.04627,-0.48741 2.04709,0 3.55804,0.29244 1.53532,0.26808 2.7782,1.19414 1.24288,0.9017 1.87651,2.46139 0.65799,1.53532 0.65799,3.97234 0,3.48493 -0.0731,6.19002 -0.0731,2.68072 -0.0731,5.87321 0,0.95043 0.31681,1.51095 0.34118,0.56051 1.02355,0.95043 0.36555,0.21934 1.1454,0.24371 0.80421,0.0244 1.6328,0.0244 z m -8.50519,-12.86745 q -2.07146,0.60925 -3.63116,1.19414 -1.55969,0.58488 -2.90005,1.46221 -1.2185,0.82858 -1.92524,1.97398 -0.70673,1.12103 -0.70673,2.68072 0,2.02272 1.04791,2.97316 1.07229,0.95044 2.70509,0.95044 1.73028,0 3.04627,-0.82859 1.31599,-0.85296 2.21769,-1.99835 z"
         style="font-style:normal;font-variant:normal;font-weight:normal;font-stretch:normal;font-size:49.91009903px;line-height:1.25;font-family:Georgia;-inkscape-font-specification:Georgia;fill:#d6dbdf;fill-opacity:1"
         id="path847"
         inkscape:connector-curvature="0" />
      <path
         d="m 412.88672,635.0949 q 0,1.24288 -0.60926,2.21768 -0.60925,0.95044 -1.8765,0.95044 -1.36473,0 -2.09583,-0.70674 -0.70674,-0.70673 -0.70674,-1.55969 0,-0.53614 0.0731,-0.9748 0.0975,-0.43867 0.17059,-0.87733 -1.1454,0 -2.68072,0.92607 -1.53532,0.92606 -2.6076,2.63198 v 13.98847 q 0,0.85296 0.31681,1.3891 0.34118,0.53614 1.04792,0.80422 0.60925,0.2437 1.55969,0.36555 0.9748,0.12185 1.68154,0.17059 v 1.60843 h -12.67249 v -1.60843 q 0.56052,-0.0487 1.1454,-0.0975 0.60925,-0.0487 1.04792,-0.19496 0.68236,-0.21933 0.99917,-0.75548 0.34119,-0.56051 0.34119,-1.43784 v -14.84143 q 0,-0.75547 -0.36556,-1.48658 -0.34118,-0.7311 -0.9748,-1.16977 -0.46304,-0.29244 -1.09666,-0.41429 -0.63363,-0.14622 -1.36473,-0.19496 v -1.58406 l 7.99341,-0.53615 0.34119,0.34119 v 3.38745 h 0.12185 q 1.51095,-1.97398 3.36308,-2.99753 1.85213,-1.02355 3.38745,-1.02355 1.53532,0 2.48576,0.99918 0.97481,0.99918 0.97481,2.68072 z"
         style="font-style:normal;font-variant:normal;font-weight:normal;font-stretch:normal;font-size:49.91009903px;line-height:1.25;font-family:Georgia;-inkscape-font-specification:Georgia;fill:#d6dbdf;fill-opacity:1"
         id="path849"
         inkscape:connector-curvature="0" />
      <path
         d="m 441.47292,656.02887 h -11.77079 v -1.60843 q 0.56052,-0.0487 1.21851,-0.0975 0.68237,-0.0487 1.12103,-0.19496 0.68236,-0.21933 0.99918,-0.75548 0.34118,-0.56051 0.34118,-1.43784 v -12.35567 q 0,-2.55887 -1.21851,-3.94797 -1.19414,-1.3891 -2.92442,-1.3891 -1.29162,0 -2.36391,0.41429 -1.07228,0.38993 -1.90087,0.97481 -0.80421,0.56051 -1.29162,1.21851 -0.46303,0.63362 -0.68236,1.02355 v 13.81788 q 0,0.82859 0.34118,1.36473 0.34118,0.53614 1.02355,0.82859 0.51177,0.2437 1.09665,0.36555 0.60926,0.12185 1.24288,0.17059 v 1.60843 h -11.77079 v -1.60843 q 0.56052,-0.0487 1.1454,-0.0975 0.60925,-0.0487 1.04792,-0.19496 0.68236,-0.21933 0.99917,-0.75548 0.34119,-0.56051 0.34119,-1.43784 v -14.84143 q 0,-0.82858 -0.36556,-1.51095 -0.34118,-0.70673 -0.9748,-1.1454 -0.46304,-0.29244 -1.09666,-0.41429 -0.63362,-0.14622 -1.36473,-0.19496 v -1.58406 l 7.99342,-0.53615 0.34118,0.34119 v 3.38745 h 0.12185 q 0.58488,-0.58488 1.46221,-1.3891 0.87732,-0.82859 1.65717,-1.34036 0.9017,-0.58488 2.14457,-0.97481 1.24288,-0.38992 2.80257,-0.38992 3.46057,0 5.11774,2.16895 1.68154,2.14457 1.68154,5.72699 v 12.50189 q 0,0.85296 0.29244,1.3891 0.29244,0.51177 0.99918,0.80422 0.58488,0.2437 0.99918,0.34118 0.43866,0.0975 1.19413,0.14622 z"
         style="font-style:normal;font-variant:normal;font-weight:normal;font-stretch:normal;font-size:49.91009903px;line-height:1.25;font-family:Georgia;-inkscape-font-specification:Georgia;fill:#d6dbdf;fill-opacity:1"
         id="path851"
         inkscape:connector-curvature="0" />
      <path
         d="m 497.62179,656.02887 h -11.72205 v -1.60843 q 0.56052,-0.0487 1.12103,-0.0975 0.58489,-0.0487 1.02355,-0.19496 0.68236,-0.21933 0.99918,-0.75548 0.34118,-0.56051 0.34118,-1.43784 v -12.40441 q 0,-2.5345 -1.16977,-3.89923 -1.1454,-1.3891 -2.87568,-1.3891 -1.19414,0 -2.24205,0.36555 -1.04792,0.36556 -1.92525,1.02355 -0.70673,0.53614 -1.19414,1.16977 -0.46303,0.60925 -0.70673,1.02355 v 13.86662 q 0,0.85296 0.29244,1.41347 0.29244,0.53614 0.99918,0.82859 0.56051,0.21933 0.99918,0.34118 0.46303,0.0975 1.19413,0.14622 v 1.60843 h -11.47834 v -1.60843 q 0.56051,-0.0487 1.07228,-0.0975 0.53615,-0.0487 0.97481,-0.19496 0.68236,-0.21933 0.99918,-0.75548 0.34118,-0.56051 0.34118,-1.43784 v -12.40441 q 0,-2.5345 -1.16977,-3.89923 -1.1454,-1.3891 -2.87568,-1.3891 -1.19414,0 -2.24205,0.38992 -1.04792,0.36556 -1.92525,1.02355 -0.70673,0.53614 -1.19414,1.21851 -0.4874,0.65799 -0.7311,0.99918 v 13.76914 q 0,0.82859 0.34118,1.3891 0.34118,0.56051 1.02355,0.85296 0.51177,0.2437 1.04792,0.36555 0.53614,0.12185 1.19413,0.17059 v 1.60843 h -11.67331 v -1.60843 q 0.56052,-0.0487 1.1454,-0.0975 0.60926,-0.0487 1.04792,-0.19496 0.68236,-0.21933 0.99918,-0.75548 0.34118,-0.56051 0.34118,-1.43784 v -14.93891 q 0,-0.77984 -0.36555,-1.3891 -0.34119,-0.63362 -0.97481,-1.07229 -0.46303,-0.29244 -1.1454,-0.46303 -0.68236,-0.19496 -1.41347,-0.2437 v -1.58406 l 8.04216,-0.53615 0.34118,0.34119 v 3.43619 h 0.17059 q 0.60925,-0.60925 1.48658,-1.43784 0.87733,-0.82859 1.6328,-1.34036 0.85296,-0.58488 2.12021,-0.97481 1.29161,-0.38992 2.77819,-0.38992 2.33954,0 4.02108,1.26725 1.68154,1.24288 2.41265,3.0219 0.87732,-0.85295 1.53532,-1.48658 0.68236,-0.65799 1.77902,-1.3891 0.92607,-0.63362 2.16895,-1.02355 1.26724,-0.38992 2.80256,-0.38992 3.04628,0 4.8253,1.99836 1.77902,1.99835 1.77902,6.14128 v 12.20945 q 0,0.85296 0.29244,1.41347 0.29244,0.53614 0.99918,0.82859 0.56051,0.21933 1.09666,0.34118 0.56051,0.0975 1.24287,0.14622 z"
         style="font-style:normal;font-variant:normal;font-weight:normal;font-stretch:normal;font-size:49.91009903px;line-height:1.25;font-family:Georgia;-inkscape-font-specification:Georgia;fill:#d6dbdf;fill-opacity:1"
         id="path853"
         inkscape:connector-curvature="0" />
      <path
         d="m 523.84409,643.77068 q 0,2.53449 -0.80422,4.99588 -0.80421,2.43702 -2.29079,4.14293 -1.68154,1.94961 -3.89923,2.90005 -2.21768,0.95043 -4.97151,0.95043 -2.2908,0 -4.36226,-0.85295 -2.07147,-0.87733 -3.6799,-2.5345 -1.58406,-1.6328 -2.53449,-3.97234 -0.92607,-2.3639 -0.92607,-5.28832 0,-5.62951 3.2656,-9.21192 3.28997,-3.58242 8.60267,-3.58242 5.04462,0 8.31023,3.41182 3.28997,3.38746 3.28997,9.04134 z m -5.04463,0.0487 q 0,-1.82777 -0.36555,-3.85049 -0.36555,-2.04709 -1.09665,-3.46056 -0.77985,-1.51095 -2.0471,-2.41265 -1.26725,-0.92607 -3.09501,-0.92607 -1.8765,0 -3.21686,0.92607 -1.31599,0.92607 -2.14458,2.5345 -0.77984,1.48658 -1.09665,3.38745 -0.31682,1.90087 -0.31682,3.6799 0,2.33953 0.36556,4.33789 0.38992,1.97398 1.2185,3.53367 0.82859,1.55969 2.07147,2.46139 1.26725,0.87732 3.11938,0.87732 3.04627,0 4.82529,-2.94879 1.77902,-2.94879 1.77902,-8.13963 z"
         style="font-style:normal;font-variant:normal;font-weight:normal;font-stretch:normal;font-size:49.91009903px;line-height:1.25;font-family:Georgia;-inkscape-font-specification:Georgia;fill:#d6dbdf;fill-opacity:1"
         id="path855"
         inkscape:connector-curvature="0" />
      <path
         d="m 545.7285,635.0949 q 0,1.24288 -0.60926,2.21768 -0.60925,0.95044 -1.8765,0.95044 -1.36473,0 -2.09583,-0.70674 -0.70674,-0.70673 -0.70674,-1.55969 0,-0.53614 0.0731,-0.9748 0.0975,-0.43867 0.17059,-0.87733 -1.14539,0 -2.68071,0.92607 -1.53532,0.92606 -2.60761,2.63198 v 13.98847 q 0,0.85296 0.31681,1.3891 0.34118,0.53614 1.04792,0.80422 0.60925,0.2437 1.55969,0.36555 0.9748,0.12185 1.68154,0.17059 v 1.60843 h -12.67249 v -1.60843 q 0.56052,-0.0487 1.1454,-0.0975 0.60926,-0.0487 1.04792,-0.19496 0.68236,-0.21933 0.99917,-0.75548 0.34119,-0.56051 0.34119,-1.43784 v -14.84143 q 0,-0.75547 -0.36556,-1.48658 -0.34118,-0.7311 -0.9748,-1.16977 -0.46303,-0.29244 -1.09666,-0.41429 -0.63362,-0.14622 -1.36473,-0.19496 v -1.58406 l 7.99342,-0.53615 0.34118,0.34119 v 3.38745 h 0.12185 q 1.51095,-1.97398 3.36308,-2.99753 1.85213,-1.02355 3.38745,-1.02355 1.53533,0 2.48576,0.99918 0.97481,0.99918 0.97481,2.68072 z"
         style="font-style:normal;font-variant:normal;font-weight:normal;font-stretch:normal;font-size:49.91009903px;line-height:1.25;font-family:Georgia;-inkscape-font-specification:Georgia;fill:#d6dbdf;fill-opacity:1"
         id="path857"
         inkscape:connector-curvature="0" />
      <path
         d="m 569.12385,650.37499 q -1.51095,2.87568 -4.04545,4.58159 -2.53449,1.70591 -5.82447,1.70591 -2.90004,0 -5.09336,-1.02354 -2.16894,-1.02355 -3.58241,-2.7782 -1.41347,-1.75465 -2.12021,-4.09419 -0.68236,-2.33954 -0.68236,-4.94714 0,-2.33954 0.7311,-4.58159 0.75548,-2.26643 2.19332,-4.06982 1.3891,-1.73028 3.43619,-2.7782 2.07146,-1.07229 4.63033,-1.07229 2.63198,0 4.50848,0.82859 1.87651,0.82858 3.04627,2.26642 1.12103,1.36473 1.65717,3.21686 0.56052,1.85214 0.56052,4.02108 v 1.60843 h -15.91372 q 0,2.36391 0.43866,4.28915 0.46304,1.92525 1.43784,3.38746 0.95044,1.41346 2.48576,2.24205 1.53532,0.80422 3.65552,0.80422 2.16895,0 3.72864,-0.99918 1.58406,-1.02355 3.04627,-3.65553 z m -5.3858,-9.16318 q 0,-1.36473 -0.24371,-2.92442 -0.21933,-1.55969 -0.7311,-2.60761 -0.56052,-1.12103 -1.53532,-1.82776 -0.97481,-0.70674 -2.51013,-0.70674 -2.55887,0 -4.26478,2.14458 -1.68154,2.1202 -1.82776,5.92195 z"
         style="font-style:normal;font-variant:normal;font-weight:normal;font-stretch:normal;font-size:49.91009903px;line-height:1.25;font-family:Georgia;-inkscape-font-specification:Georgia;fill:#d6dbdf;fill-opacity:1"
         id="path859"
         inkscape:connector-curvature="0" />
      <path
         d="m 606.70264,655.59021 q -1.1454,0.41429 -2.02273,0.65799 -0.85295,0.26807 -1.94961,0.26807 -1.90087,0 -3.04627,-0.87732 -1.12103,-0.9017 -1.43784,-2.60761 h -0.14622 q -1.58406,1.75465 -3.41183,2.68072 -1.80339,0.92606 -4.36226,0.92606 -2.70508,0 -4.45974,-1.65717 -1.73028,-1.65717 -1.73028,-4.33789 0,-1.3891 0.38992,-2.48575 0.38993,-1.09666 1.16977,-1.97399 0.60926,-0.7311 1.60843,-1.29162 0.99918,-0.58488 1.87651,-0.92606 1.09665,-0.4143 4.43537,-1.53532 3.36308,-1.12103 4.53285,-1.75465 v -2.41265 q 0,-0.31681 -0.14622,-1.21851 -0.12185,-0.9017 -0.56052,-1.70591 -0.4874,-0.9017 -1.3891,-1.55969 -0.87732,-0.68237 -2.51012,-0.68237 -1.12103,0 -2.09584,0.38993 -0.95043,0.36555 -1.34036,0.77984 0,0.48741 0.21933,1.43784 0.24371,0.95044 0.24371,1.75465 0,0.85296 -0.77985,1.55969 -0.75547,0.70674 -2.1202,0.70674 -1.21851,0 -1.8034,-0.85296 -0.56051,-0.87732 -0.56051,-1.94961 0,-1.12103 0.77985,-2.14457 0.80421,-1.02355 2.07146,-1.82777 1.09666,-0.68236 2.65635,-1.14539 1.55969,-0.48741 3.04627,-0.48741 2.04709,0 3.55804,0.29244 1.53532,0.26808 2.7782,1.19414 1.24288,0.9017 1.8765,2.46139 0.658,1.53532 0.658,3.97234 0,3.48493 -0.0731,6.19002 -0.0731,2.68072 -0.0731,5.87321 0,0.95043 0.31681,1.51095 0.34118,0.56051 1.02355,0.95043 0.36555,0.21934 1.14539,0.24371 0.80422,0.0244 1.63281,0.0244 z m -8.50519,-12.86745 q -2.07147,0.60925 -3.63116,1.19414 -1.55969,0.58488 -2.90005,1.46221 -1.21851,0.82858 -1.92524,1.97398 -0.70673,1.12103 -0.70673,2.68072 0,2.02272 1.04791,2.97316 1.07229,0.95044 2.70509,0.95044 1.73028,0 3.04627,-0.82859 1.31599,-0.85296 2.21769,-1.99835 z"
         style="font-style:normal;font-variant:normal;font-weight:normal;font-stretch:normal;font-size:49.91009903px;line-height:1.25;font-family:Georgia;-inkscape-font-specification:Georgia;fill:#d6dbdf;fill-opacity:1"
         id="path861"
         inkscape:connector-curvature="0" />
      <path
         d="m 633.48546,643.99001 q 0,5.41017 -3.41182,9.09007 -3.41183,3.67989 -7.92031,3.67989 -1.97398,0 -3.89922,-0.60925 -1.90088,-0.60925 -3.58242,-1.6328 l -1.80339,2.80257 -1.51095,-0.34118 q 0.12185,-1.8034 0.17059,-4.33789 0.0487,-2.5345 0.0487,-4.89841 v -23.78528 q 0,-0.82858 -0.38992,-1.65717 -0.36555,-0.82859 -0.95044,-1.19414 -0.46303,-0.31681 -1.55969,-0.46303 -1.07228,-0.17059 -1.73028,-0.21933 v -1.55969 l 8.822,-0.56052 0.34118,0.36556 v 15.8406 l 0.17059,0.0487 q 1.51095,-1.60843 3.28998,-2.41264 1.80339,-0.80422 3.53367,-0.80422 4.43537,0 7.40853,3.50931 2.97316,3.5093 2.97316,9.13881 z m -5.09336,0.17059 q 0,-1.80339 -0.38993,-3.6799 -0.38992,-1.8765 -1.2185,-3.2656 -0.82859,-1.41347 -2.16895,-2.29079 -1.34036,-0.87733 -3.21686,-0.87733 -1.70591,0 -2.99753,0.68236 -1.26725,0.658 -2.2908,1.8034 v 13.98847 q 0.14622,0.58489 0.56052,1.36473 0.43866,0.77985 1.16976,1.48658 0.73111,0.68237 1.65718,1.12103 0.92606,0.41429 2.26642,0.41429 2.97316,0 4.80092,-2.87568 1.82777,-2.87568 1.82777,-7.87156 z"
         style="font-style:normal;font-variant:normal;font-weight:normal;font-stretch:normal;font-size:49.91009903px;line-height:1.25;font-family:Georgia;-inkscape-font-specification:Georgia;fill:#d6dbdf;fill-opacity:1"
         id="path863"
         inkscape:connector-curvature="0" />
      <path
         d="m 660.46323,643.77068 q 0,2.53449 -0.80422,4.99588 -0.80421,2.43702 -2.29079,4.14293 -1.68154,1.94961 -3.89923,2.90005 -2.21768,0.95043 -4.97151,0.95043 -2.2908,0 -4.36226,-0.85295 -2.07147,-0.87733 -3.6799,-2.5345 -1.58406,-1.6328 -2.53449,-3.97234 -0.92607,-2.3639 -0.92607,-5.28832 0,-5.62951 3.2656,-9.21192 3.28997,-3.58242 8.60267,-3.58242 5.04463,0 8.31023,3.41182 3.28997,3.38746 3.28997,9.04134 z m -5.04462,0.0487 q 0,-1.82777 -0.36556,-3.85049 -0.36555,-2.04709 -1.09665,-3.46056 -0.77985,-1.51095 -2.0471,-2.41265 -1.26725,-0.92607 -3.09501,-0.92607 -1.8765,0 -3.21686,0.92607 -1.31599,0.92607 -2.14458,2.5345 -0.77984,1.48658 -1.09665,3.38745 -0.31682,1.90087 -0.31682,3.6799 0,2.33953 0.36556,4.33789 0.38992,1.97398 1.21851,3.53367 0.82858,1.55969 2.07146,2.46139 1.26725,0.87732 3.11938,0.87732 3.04627,0 4.82529,-2.94879 1.77903,-2.94879 1.77903,-8.13963 z"
         style="font-style:normal;font-variant:normal;font-weight:normal;font-stretch:normal;font-size:49.91009903px;line-height:1.25;font-family:Georgia;-inkscape-font-specification:Georgia;fill:#d6dbdf;fill-opacity:1"
         id="path865"
         inkscape:connector-curvature="0" />
      <path
         d="m 689.70743,655.59021 -7.82282,0.53614 -0.36556,-0.34118 v -3.04627 h -0.14622 q -0.58488,0.60925 -1.31599,1.31599 -0.7311,0.68236 -1.68154,1.24287 -1.09666,0.658 -2.1202,0.99918 -1.02355,0.34118 -2.90005,0.34118 -3.19249,0 -4.87404,-2.07146 -1.65717,-2.09583 -1.65717,-6.06817 v -11.50272 q 0,-0.87733 -0.34118,-1.46221 -0.31681,-0.60925 -0.95044,-1.04792 -0.43866,-0.29244 -1.09665,-0.41429 -0.658,-0.14622 -1.3891,-0.19496 v -1.58406 l 8.01778,-0.58489 0.36555,0.34119 v 16.69356 q 0,2.60761 1.16977,3.9236 1.16977,1.31599 2.80257,1.31599 1.34036,0 2.38828,-0.4143 1.04792,-0.41429 1.75465,-0.9748 0.65799,-0.51178 1.1454,-1.07229 0.51177,-0.58488 0.77984,-1.07229 v -13.62292 q 0,-0.80422 -0.34118,-1.41347 -0.34118,-0.63362 -0.95044,-1.07229 -0.43866,-0.29244 -1.31598,-0.34118 -0.85296,-0.0731 -1.92525,-0.12185 v -1.58406 l 8.72452,-0.58489 0.36555,0.34119 v 19.08184 q 0,0.82858 0.34119,1.41347 0.34118,0.58488 0.95043,0.99917 0.43867,0.26807 1.04792,0.36556 0.60925,0.0731 1.34036,0.0975 z"
         style="font-style:normal;font-variant:normal;font-weight:normal;font-stretch:normal;font-size:49.91009903px;line-height:1.25;font-family:Georgia;-inkscape-font-specification:Georgia;fill:#d6dbdf;fill-opacity:1"
         id="path867"
         inkscape:connector-curvature="0" />
      <path
         d="m 707.49766,654.98095 q -1.58406,0.658 -2.99753,1.09666 -1.41347,0.46303 -3.46056,0.46303 -3.0219,0 -4.26478,-1.51095 -1.21851,-1.53532 -1.21851,-4.31352 V 634.4369 h -4.33789 v -2.33953 h 4.43537 v -7.48164 h 4.43537 v 7.48164 h 6.89676 v 2.33953 h -6.84802 v 13.42796 q 0,1.51095 0.0975,2.5345 0.12186,0.99918 0.53615,1.75465 0.38992,0.70674 1.16977,1.07229 0.77984,0.36555 2.09583,0.36555 0.60925,0 1.77902,-0.0975 1.19414,-0.12185 1.68154,-0.29244 z"
         style="font-style:normal;font-variant:normal;font-weight:normal;font-stretch:normal;font-size:49.91009903px;line-height:1.25;font-family:Georgia;-inkscape-font-specification:Georgia;fill:#d6dbdf;fill-opacity:1"
         id="path869"
         inkscape:connector-curvature="0" />
    </g>
    <g
       id="g939"
       style="stroke:#f39c12;stroke-opacity:1"
       transform="matrix(0.16316486,0,0,0.1631657,894.04426,776.11777)"
       inkscape:export-xdpi="96"
       inkscape:export-ydpi="96">
      <path
         transform="matrix(-0.75451103,0,0,-0.54952197,1101.4103,1279.4667)"
         d="m 818.15623,151.40733 c 16.6645,7.97257 6.7161,31.18806 -4.31737,38.90375 -24.4319,17.0852 -56.67701,0.42955 -68.52922,-23.72688 -18.85616,-38.43145 5.72937,-82.950654 43.13639,-98.154695 C 840.46905,47.284808 897.92914,80.282292 916.2262,130.97542 939.86599,196.4709 898.27346,267.1046 834.27078,288.38106 755.35114,314.61636 671.43491,264.34242 647.23966,187.01612 618.35294,94.696166 677.35547,-2.5627125 768.01412,-29.640471 873.721,-61.212808 984.35938,6.5468433 1014.2962,110.5435 1048.5765,229.6291 972.04122,353.67126 854.70269,386.45103 722.24376,423.45485 584.78094,338.13115 549.16969,207.44803 509.4313,61.619488 603.55249,-89.276217 747.5822,-127.71045 c 9.03621,-2.4113 18.19014,-4.38086 27.41802,-5.90175"
         sodipodi:t0="0.042052984"
         sodipodi:argument="-19.817743"
         sodipodi:radius="289.19339"
         sodipodi:revolution="2.8868599"
         sodipodi:expansion="1"
         sodipodi:cy="153.88779"
         sodipodi:cx="806.25043"
         id="path881-7"
         style="fill:none;fill-opacity:1;fill-rule:evenodd;stroke:#f39c12;stroke-width:46.5903;stroke-miterlimit:4;stroke-dasharray:none;stroke-opacity:1"
         sodipodi:type="spiral" />
      <text
         transform="scale(1.0067661,0.99327937)"
         id="text3340-3"
         y="1527.2913"
         x="689.02264"
         style="font-style:normal;font-weight:normal;font-size:12.0903px;line-height:0%;font-family:sans-serif;letter-spacing:0px;word-spacing:0px;fill:#000000;fill-opacity:1;stroke:#f39c12;stroke-width:30;stroke-linecap:butt;stroke-linejoin:miter;stroke-miterlimit:4;stroke-dasharray:none;stroke-opacity:1"
         xml:space="preserve"><tspan
           style="font-size:39.9579px;line-height:1.25;stroke:#f39c12;stroke-width:30;stroke-miterlimit:4;stroke-dasharray:none;stroke-opacity:1"
           y="1527.2913"
           x="689.02264"
           id="tspan3342-6"
           sodipodi:role="line"> </tspan></text>
      <path
         transform="matrix(0.75451103,0,0,0.54952197,1094.7544,1224.2565)"
         d="m -729.37901,420.178 c 15.13108,11.98047 1.37745,33.94081 -11.81227,40.29637 -27.87814,13.43328 -58.40934,-8.38434 -66.9121,-35.17893 -13.30648,-41.93247 18.1631,-83.59679 58.54559,-93.52784 55.69793,-13.69748 109.02445,27.94081 120.14356,81.91225 14.29412,69.3827 -37.71125,134.56094 -105.2789,146.7593 -83.03614,14.99097 -160.1564,-47.47646 -173.37503,-128.64556 -15.74378,-96.67473 57.23825,-185.78748 152.01222,-199.99077 110.30527,-16.53088 211.44174,66.99781 226.6065,175.37888 17.34051,123.93103 -76.75584,237.11196 -198.74554,253.22223 -137.55374,18.1657 -262.7936,-86.51281 -279.83792,-222.11219 -18.395,-146.34425 89.31287,-280.99238 233.03269,-304.67954"
         sodipodi:t0="0.04979825"
         sodipodi:argument="-19.817743"
         sodipodi:radius="289.19339"
         sodipodi:revolution="2.8868599"
         sodipodi:expansion="1"
         sodipodi:cy="421.11218"
         sodipodi:cx="-743.75"
         id="path881"
         style="fill:none;fill-opacity:1;fill-rule:evenodd;stroke:#f39c12;stroke-width:46.5903;stroke-miterlimit:4;stroke-dasharray:none;stroke-opacity:1"
         sodipodi:type="spiral" />
      <path
         sodipodi:nodetypes="cc"
         inkscape:connector-curvature="0"
         id="path941"
         d="m 479.46207,1186.0292 68.02455,279.0628"
         style="fill:none;stroke:#f39c12;stroke-width:30;stroke-linecap:butt;stroke-linejoin:miter;stroke-miterlimit:4;stroke-dasharray:none;stroke-opacity:1" />
    </g>
    <text
       xml:space="preserve"
       id="text1296"
       style="font-size:26.66669999999999874px;line-height:1.25;font-family:Verdana;-inkscape-font-specification:Verdana;white-space:pre;shape-inside:url(#rect1298);" />
    <path
       inkscape:connector-curvature="0"
       d="m 584.87046,871.72359 c -1.01002,-3.2321 -3.43407,-5.8581 -6.46413,-7.4742 l -61.61126,-29.4926 c -1.61604,-0.808 -3.43407,-1.01 -5.05011,-1.01 -1.61603,0 -3.43407,0 -5.0501,0.404 l -61.61126,29.6946 c -3.03006,1.414 -5.25211,4.0401 -6.06013,7.4742 l -15.15031,66.4593 c -0.60601,3.4341 0.20201,6.8682 2.22205,9.6962 l 42.62287,52.72311 c 2.42405,2.4241 5.85812,4.0401 9.29219,4.2421 h 67.8734 c 3.63607,0.404 7.07014,-1.212 9.29219,-4.2421 l 42.62287,-52.72311 c 2.02004,-2.828 2.82806,-6.2621 2.42405,-9.6962 z"
       id="path10349"
       style="fill:#326de6;stroke-width:2.02004147" />
    <path
       inkscape:connector-curvature="0"
       d="m 575.46376,935.15289 v 0 c -0.202,0 -0.40401,0 -0.40401,-0.202 0,-0.202 -0.40401,-0.202 -0.80802,-0.202 -0.80801,-0.202 -1.61603,-0.202 -2.42404,-0.202 -0.40401,0 -0.80802,0 -1.21203,-0.202 h -0.202 c -2.22205,-0.202 -4.6461,-0.6061 -6.86814,-1.2121 -0.60602,-0.202 -1.21203,-0.808 -1.41403,-1.414 0.202,0 0,0 0,0 v 0 l -1.61604,-0.404 c 0.80802,-5.8581 0.40401,-11.9182 -0.80801,-17.7764 -1.41403,-5.8581 -3.83808,-11.5142 -7.07015,-16.5643 l 1.21203,-1.212 v 0 -0.202 c 0,-0.6061 0.202,-1.4141 0.60601,-1.8181 1.81804,-1.616 3.63607,-2.828 5.65612,-4.0401 v 0 c 0.404,-0.202 0.80801,-0.404 1.21202,-0.606 0.80802,-0.404 1.41403,-0.808 2.22205,-1.212 0.202,-0.202 0.404,-0.202 0.60601,-0.404 0.202,-0.202 0,-0.202 0,-0.404 v 0 c 1.81804,-1.414 2.22204,-3.8381 0.80801,-5.6561 -0.60601,-0.808 -1.81803,-1.4141 -2.82805,-1.4141 -1.01002,0 -2.02004,0.4041 -2.82806,1.0101 v 0 l -0.20201,0.202 c -0.202,0.202 -0.404,0.404 -0.60601,0.404 -0.60601,0.606 -1.21202,1.212 -1.61603,1.818 -0.20201,0.404 -0.60601,0.606 -0.80802,0.808 v 0 c -1.41403,1.6161 -3.23206,3.2321 -5.0501,4.4441 -0.40401,0.202 -0.80802,0.404 -1.21203,0.404 -0.202,0 -0.60601,0 -0.80801,-0.202 h -0.20201 l -1.61603,1.01 c -1.61603,-1.616 -3.43407,-3.232 -5.0501,-4.8481 -7.47416,-5.8581 -16.76635,-9.4941 -26.26054,-10.5042 l -0.20201,-1.616 v 0 0.202 c -0.60601,-0.404 -0.80801,-1.01 -1.01002,-1.616 0,-2.2221 0,-4.4441 0.40401,-6.8682 v -0.202 c 0,-0.404 0.202,-0.808 0.202,-1.212 0.20201,-0.808 0.20201,-1.616 0.40401,-2.424 v -1.2121 0 c 0.20201,-2.02 -1.41403,-4.0401 -3.43407,-4.2421 -1.21202,-0.202 -2.42405,0.404 -3.43407,1.4141 -0.80801,0.808 -1.21202,1.818 -1.21202,2.828 v 0 1.01 c 0,0.8081 0.202,1.6161 0.40401,2.4241 0.202,0.404 0.202,0.808 0.202,1.212 v 0.202 c 0.40401,2.2221 0.40401,4.4441 0.40401,6.8682 -0.20201,0.606 -0.40401,1.212 -1.01002,1.616 v 0.404 0 l -0.20201,1.616 c -2.22204,0.202 -4.44409,0.6061 -6.86814,1.0101 -9.49419,2.02 -18.18037,7.0701 -24.84651,14.1403 l -1.21202,-0.8081 h -0.202 c -0.20201,0 -0.40401,0.202 -0.80802,0.202 -0.40401,0 -0.80802,-0.202 -1.21203,-0.404 -1.81803,-1.414 -3.63607,-3.03 -5.0501,-4.6461 v 0 c -0.202,-0.404 -0.60601,-0.606 -0.80802,-0.808 -0.60601,-0.606 -1.01002,-1.212 -1.61603,-1.818 -0.202,-0.202 -0.40401,-0.202 -0.60601,-0.404 -0.20201,-0.202 -0.20201,-0.202 -0.20201,-0.202 v 0 c -0.80801,-0.606 -1.81803,-1.0101 -2.82805,-1.0101 -1.21203,0 -2.22205,0.4041 -2.82806,1.4141 -1.21203,1.818 -0.80802,4.2421 0.80801,5.6561 v 0 c 0.20201,0 0.20201,0.202 0.20201,0.202 0,0 0.40401,0.404 0.60601,0.404 0.60601,0.404 1.41403,0.808 2.22205,1.212 0.40401,0.202 0.80801,0.404 1.21202,0.606 v 0 c 2.02004,1.2121 4.04008,2.4241 5.65612,4.0401 0.40401,0.404 0.80801,1.212 0.60601,1.8181 v -0.202 0 l 1.21202,1.212 c -0.202,0.404 -0.404,0.606 -0.60601,1.01 -6.26213,9.8982 -8.88818,21.6144 -7.07014,33.1287 l -1.61604,0.404 v 0 c 0,0.202 -0.202,0.202 -0.202,0.202 -0.202,0.606 -0.80802,1.01 -1.41403,1.414 -2.22204,0.606 -4.44409,1.01 -6.86814,1.212 v 0 c -0.40401,0 -0.80802,0 -1.21202,0.2021 -0.80802,0 -1.61604,0.202 -2.42405,0.202 -0.20201,0 -0.40401,0.202 -0.80802,0.202 -0.202,0 -0.202,0 -0.40401,0.202 v 0 c -2.22204,0.404 -3.63607,2.424 -3.23207,4.6461 0,0 0,0 0,0 0.40401,1.818 2.22205,3.03 4.04009,2.828 0.40401,0 0.60601,0 1.01002,-0.202 v 0 c 0.202,0 0.202,0 0.202,-0.202 0,-0.202 0.60601,0 0.80802,0 0.80802,-0.202 1.61603,-0.606 2.22204,-0.808 0.40401,-0.202 0.80802,-0.404 1.21203,-0.404 h 0.202 c 2.22205,-0.808 4.24209,-1.414 6.66614,-1.8181 h 0.202 c 0.60602,0 1.21203,0.2021 1.61604,0.6061 0.202,0 0.202,0.202 0.202,0.202 v 0 l 1.81804,-0.202 c 3.03006,9.2922 8.68618,17.5743 16.56434,23.6344 1.81804,1.4141 3.43407,2.6261 5.45411,3.6361 l -1.01002,1.414 v 0 c 0,0.2021 0.202,0.2021 0.202,0.2021 0.40401,0.606 0.40401,1.414 0.20201,2.02 -0.80802,2.02 -2.02004,4.0401 -3.23207,5.8581 v 0.202 c -0.202,0.404 -0.40401,0.606 -0.80802,1.01 -0.404,0.404 -0.80801,1.2121 -1.41402,2.0201 -0.20201,0.202 -0.20201,0.404 -0.40401,0.606 0,0 0,0.202 -0.20201,0.202 v 0 c -1.01002,2.02 -0.202,4.4441 1.61604,5.4541 0.404,0.202 1.01002,0.404 1.41403,0.404 1.61603,0 3.03006,-1.01 3.83807,-2.424 v 0 c 0,0 0,-0.202 0.20201,-0.202 0,-0.202 0.202,-0.404 0.40401,-0.606 0.202,-0.8081 0.60601,-1.4141 0.80801,-2.2221 l 0.40401,-1.212 v 0 c 0.60601,-2.2221 1.61603,-4.2421 2.62606,-6.2621 0.404,-0.6061 1.01002,-1.0101 1.61603,-1.2121 0.202,0 0.202,0 0.202,-0.202 v 0 l 0.80802,-1.616 c 5.65612,2.222 11.51424,3.2321 17.57436,3.2321 3.63607,0 7.27215,-0.4041 10.90822,-1.4141 2.22205,-0.404 4.44409,-1.212 6.46414,-1.818 l 0.80801,1.414 v 0 c 0.20201,0 0.20201,0 0.20201,0.202 0.60601,0.202 1.21202,0.606 1.61603,1.212 1.01002,2.0201 2.02004,4.0401 2.62605,6.2622 v 0.202 l 0.40401,1.212 c 0.20201,0.808 0.40401,1.616 0.80802,2.2221 0.202,0.202 0.202,0.404 0.40401,0.606 0,0 0,0.202 0.202,0.202 v 0 c 0.80802,1.414 2.22205,2.424 3.83808,2.424 0.60601,0 1.01002,-0.202 1.61603,-0.404 0.80802,-0.404 1.61604,-1.212 1.81804,-2.222 0.202,-1.0101 0.202,-2.0201 -0.202,-3.0301 v 0 c 0,-0.202 -0.20201,-0.202 -0.20201,-0.202 0,-0.202 -0.202,-0.404 -0.40401,-0.606 -0.40401,-0.808 -0.80801,-1.414 -1.41403,-2.0201 -0.202,-0.404 -0.404,-0.606 -0.80801,-1.01 v -0.404 c -1.41403,-1.818 -2.42405,-3.8381 -3.23207,-5.8581 -0.202,-0.606 -0.202,-1.414 0.20201,-2.02 0,-0.2021 0.202,-0.2021 0.202,-0.2021 v 0 l -0.60601,-1.616 c 10.30221,-6.2621 18.18037,-15.9583 21.81644,-27.4725 l 1.61604,0.202 v 0 c 0.202,0 0.202,-0.202 0.202,-0.202 0.40401,-0.4041 1.01002,-0.6061 1.61603,-0.6061 h 0.20201 c 2.22204,0.404 4.44409,1.0101 6.46413,1.8181 h 0.20201 c 0.404,0.202 0.80801,0.404 1.21202,0.404 0.80802,0.404 1.41403,0.808 2.22205,1.01 0.202,0 0.404,0.202 0.80801,0.202 0.20201,0 0.20201,0 0.40401,0.202 v 0 c 0.40401,0.202 0.60601,0.202 1.01002,0.202 1.81804,0 3.43407,-1.212 4.04008,-2.828 -0.202,-2.2221 -1.81803,-3.8381 -3.63607,-4.2421 z m -58.3792,-6.2622 -5.45411,2.6261 -5.45411,-2.6261 -1.41403,-5.8581 3.83808,-4.8481 h 6.06012 l 3.83808,4.8481 z m 32.92668,-13.1302 c 1.01002,4.2421 1.21202,8.4842 0.80801,12.7262 l -19.19039,-5.4541 v 0 c -1.81804,-0.404 -2.82806,-2.222 -2.42405,-4.0401 0.20201,-0.606 0.40401,-1.01 0.80802,-1.414 l 15.15031,-13.7363 c 2.22204,3.6361 3.83808,7.6762 4.8481,11.9183 z m -10.90823,-19.3924 -16.56434,11.7162 c -1.41403,0.808 -3.43407,0.606 -4.44409,-0.808 -0.40401,-0.404 -0.60601,-0.808 -0.60601,-1.414 l -1.21202,-20.4024 c 8.88818,1.01 16.76634,4.8481 22.82646,10.9082 z m -36.56275,-10.3022 4.04009,-0.808 -1.01002,20.2004 v 0 c 0,1.818 -1.61604,3.232 -3.43407,3.232 -0.60602,0 -1.01002,-0.202 -1.61604,-0.404 l -16.76634,-11.9182 c 5.25211,-5.0501 11.71624,-8.6862 18.78638,-10.3022 z m -24.6445,17.7763 14.94831,13.3323 v 0 c 1.41402,1.212 1.61603,3.2321 0.404,4.6461 -0.404,0.606 -0.80801,0.808 -1.61603,1.01 l -19.5944,5.6561 c -0.60601,-8.4841 1.41403,-17.1703 5.85812,-24.6445 z m -3.43407,34.1387 19.99841,-3.434 c 1.61603,0 3.23207,1.01 3.43407,2.626 0.202,0.606 0.202,1.414 -0.202,2.0201 v 0 l -7.67616,18.5843 c -7.07015,-4.6461 -12.72626,-11.7162 -15.55432,-19.7964 z m 45.85494,25.0485 c -2.82806,0.6061 -5.65612,1.0101 -8.68618,1.0101 -4.24209,0 -8.68618,-0.8081 -12.72626,-2.0201 l 9.8982,-17.9783 c 1.01002,-1.2121 2.62606,-1.6161 4.04008,-0.8081 0.60602,0.404 1.01003,0.8081 1.61604,1.4141 v 0 l 9.6962,17.5743 c -1.21203,0.202 -2.42405,0.404 -3.83808,0.808 z m 24.6445,-17.5743 c -3.03006,4.8481 -7.27214,9.0902 -12.12024,12.1202 l -7.87817,-18.9884 c -0.404,-1.616 0.40401,-3.232 1.81804,-3.838 0.60601,-0.202 1.21203,-0.404 1.81804,-0.404 l 20.20041,3.434 c -1.01002,2.8281 -2.22204,5.4541 -3.83808,7.6762 z"
       id="path10351"
       style="fill:#ffffff;stroke-width:2.02004147" />
    <path
       inkscape:connector-curvature="0"
       d="m 747.94617,769.01249 c 1.86843,0.13345 3.87034,-0.13346 5.60531,-0.80075 1.06768,-0.53389 1.73498,-1.73501 1.60152,-2.93612 -0.13345,-1.33464 -0.93422,-2.53576 -2.13536,-2.93613 -2.0019,-1.20118 -4.27072,-2.26884 -6.53954,-2.93613 -2.26882,-0.80074 -4.27072,-1.73501 -6.13916,-2.66921 -1.73497,-0.80074 -3.20304,-1.86847 -4.67109,-3.20304 -1.33461,-1.33457 -2.26882,-2.80267 -2.93612,-4.53761 -0.80077,-2.00193 -1.06769,-4.13731 -1.06769,-6.27263 -0.13346,-4.40422 1.86844,-8.67492 5.3384,-11.34413 3.60342,-2.80267 8.40799,-4.13724 14.54715,-4.13724 2.93611,0 6.0057,0.26691 8.94182,0.9342 2.26878,0.40037 4.53762,0.9342 6.80646,1.73501 l -2.53575,11.34407 c -1.8684,-0.66729 -3.60341,-1.06766 -5.47185,-1.60149 -2.13537,-0.53383 -4.40419,-0.66729 -6.53954,-0.66729 -4.53764,0 -6.80647,1.20112 -6.80647,3.73687 0,0.53383 0.13346,1.06766 0.26692,1.60149 0.26692,0.53383 0.6673,0.9342 1.20114,1.33464 0.53385,0.40037 1.3346,0.80074 2.26882,1.33457 0.93422,0.53383 2.26882,1.06766 3.87034,1.60149 2.6692,0.93427 5.33841,2.13538 7.74068,3.47002 1.86847,0.9342 3.46996,2.13532 4.8046,3.73687 1.20111,1.20112 2.00186,2.66921 2.53569,4.40416 0.53383,1.86846 0.80081,3.73687 0.80081,5.60533 0.26691,4.53762 -1.86847,8.94184 -5.7388,11.47753 -3.73689,2.53575 -9.0753,3.87039 -16.01521,3.87039 -3.87035,0.13346 -7.60723,-0.26691 -11.3441,-1.20118 -2.13537,-0.53383 -4.13727,-1.20112 -6.13916,-1.8684 l 2.40227,-11.74451 c 2.40229,0.9342 4.93802,1.73501 7.47376,2.26884 2.66921,0.13346 5.20494,0.40038 7.87415,0.40038 M 674.4097,754.33185 c -0.13346,-4.00378 0.6673,-8.00756 2.0019,-11.74443 1.20114,-3.20304 3.06958,-6.00571 5.47186,-8.54147 2.26882,-2.26884 4.80456,-4.00378 7.74068,-5.07151 2.93612,-1.20111 6.0057,-1.73494 9.07528,-1.73494 7.20684,0 12.94562,2.26884 17.08288,6.67299 4.13726,4.40416 6.27262,10.9437 6.27262,19.48516 0,0.80075 0,1.73501 -0.13346,2.80267 0,1.06766 -0.13346,1.8684 -0.13346,2.66921 h -32.56424 c 0.26692,2.80267 1.73498,5.47182 4.13726,7.07337 2.93612,1.8684 6.40608,2.80267 9.87604,2.66921 2.53574,0 5.20494,-0.26691 7.74068,-0.66735 2.13536,-0.40037 4.27072,-1.06766 6.27262,-2.00186 l 2.0019,11.74451 c -0.93422,0.53383 -2.0019,0.80074 -3.06958,1.20111 -1.46806,0.40037 -2.93612,0.80075 -4.40418,0.9342 -1.60152,0.26692 -3.20304,0.53383 -5.07148,0.80075 -1.73498,0.13345 -3.60342,0.26698 -5.47186,0.26698 -4.13726,0.13345 -8.14106,-0.5339 -12.0114,-2.00193 -3.20304,-1.20111 -6.0057,-3.06958 -8.40798,-5.47188 -2.26882,-2.4023 -3.87035,-5.33836 -4.93802,-8.40794 -0.93422,-3.60348 -1.46806,-7.20689 -1.46806,-10.67685 m 33.76538,-5.47181 c 0,-1.20118 -0.26692,-2.4023 -0.6673,-3.60348 -0.26692,-1.20111 -0.93422,-2.13531 -1.60152,-3.06952 -0.80076,-0.93426 -1.73498,-1.73501 -2.80266,-2.26884 -1.3346,-0.66728 -2.6692,-0.9342 -4.13726,-0.9342 -1.46806,0 -2.80266,0.26692 -4.13726,0.9342 -1.06768,0.53383 -2.13536,1.20112 -2.93612,2.13532 -0.80076,0.93427 -1.46806,2.00193 -1.86844,3.20304 -0.40038,1.20118 -0.6673,2.4023 -0.80076,3.60348 h 18.95132 m -72.86917,-33.09813 14.41369,-2.26877 v 14.94747 h 17.3498 v 12.01142 h -17.3498 v 17.88367 c -0.13346,2.53569 0.40037,5.07145 1.60152,7.20683 1.06767,1.73494 3.20304,2.66921 6.53953,2.66921 1.60153,0 3.20305,-0.13346 4.67111,-0.40044 1.60152,-0.26691 3.06958,-0.66728 4.53764,-1.20111 l 2.0019,11.21067 c -1.86844,0.80075 -3.87034,1.33458 -5.87224,1.86841 -2.53574,0.53382 -5.20494,0.80074 -7.87415,0.80074 -3.33649,0.13346 -6.67299,-0.40037 -9.74258,-1.60149 -2.40227,-0.9342 -4.53764,-2.53575 -6.13916,-4.40415 -1.60152,-2.00193 -2.66919,-4.40423 -3.33649,-6.93998 -0.6673,-2.93613 -0.93422,-6.00564 -0.80077,-8.94177 v -42.84071 m -58.32202,38.56994 c -0.13346,-4.00378 0.6673,-8.00756 2.0019,-11.74443 1.20114,-3.20304 3.06958,-6.00571 5.47186,-8.54147 2.26882,-2.26884 4.80456,-4.00378 7.74068,-5.07151 2.93612,-1.20111 6.0057,-1.73494 9.07528,-1.73494 7.20684,0 12.94562,2.26884 17.08288,6.67299 4.13727,4.40416 6.27262,10.9437 6.27262,19.48516 0,0.80075 0,1.73501 -0.13345,2.80267 -0.13347,1.06766 -0.13347,1.8684 -0.13347,2.66921 h -32.6977 c 0.26692,2.80267 1.73498,5.47182 4.13726,7.07337 2.93612,1.8684 6.40608,2.80267 9.87604,2.66921 2.53574,0 5.20495,-0.26691 7.74068,-0.66735 2.13536,-0.40037 4.27073,-1.06766 6.40608,-2.00186 l 2.0019,11.74451 c -0.93421,0.53383 -2.0019,0.80074 -3.06958,1.20111 -1.46806,0.40037 -2.93612,0.80075 -4.40418,0.9342 -1.60152,0.26692 -3.20304,0.53383 -5.07148,0.80075 -1.73498,0.13345 -3.60342,0.26698 -5.47186,0.26698 -4.13726,0.13345 -8.14106,-0.5339 -12.0114,-2.00193 -3.20304,-1.20111 -6.0057,-3.06958 -8.40798,-5.47188 -2.26882,-2.4023 -3.87034,-5.33836 -4.93802,-8.40794 -1.06768,-3.60348 -1.60152,-7.20689 -1.46806,-10.67685 m 33.76538,-5.47181 c 0,-1.20118 -0.26692,-2.4023 -0.6673,-3.60348 -0.26692,-1.20111 -0.93422,-2.13531 -1.60152,-3.06952 -0.80076,-0.93426 -1.73498,-1.73501 -2.80266,-2.26884 -1.3346,-0.66728 -2.6692,-0.9342 -4.13726,-0.9342 -1.46806,0 -2.80266,0.26692 -4.13726,0.9342 -1.06768,0.53383 -2.0019,1.20112 -2.80266,2.13532 -0.80076,0.93427 -1.46806,2.00193 -1.86844,3.20304 -0.40038,1.20118 -0.6673,2.4023 -0.80076,3.60348 h 18.81786 m -88.48398,-18.68442 c 3.06957,-0.80074 6.27261,-1.46809 9.47566,-2.00192 4.00379,-0.66729 8.14105,-0.9342 12.14486,-0.9342 3.60342,-0.13346 7.20684,0.53383 10.6768,1.73494 2.6692,0.93427 5.07148,2.53576 6.80646,4.67114 1.73498,2.13538 2.93612,4.67107 3.60342,7.34028 0.80076,3.06959 1.06768,6.27263 1.06768,9.47567 v 28.69391 H 551.75995 V 752.33 c 0,-4.67114 -0.6673,-7.87418 -1.86845,-9.87604 -1.20113,-1.86847 -3.46995,-2.93613 -6.80646,-2.93613 -1.06767,0 -2.13535,0 -3.33649,0.13346 -1.20115,0 -2.13537,0.13346 -3.06959,0.26691 v 39.23724 h -14.41367 v -48.97982 m -10.14297,11.07716 c -1.3346,-0.26692 -2.80266,-0.66729 -4.53764,-0.9342 -1.86844,-0.40038 -3.73688,-0.53383 -5.60532,-0.53383 -1.06768,0 -2.13536,0.13345 -3.3365,0.26691 -0.93422,0.13346 -1.86843,0.26692 -2.80266,0.53383 v 38.83686 h -14.41368 v -48.31252 c 2.93612,-1.06766 6.0057,-1.86847 9.07528,-2.53576 3.87034,-0.9342 7.87415,-1.33457 11.74449,-1.20111 0.93421,0 1.86843,0.13345 2.80265,0.13345 1.06769,0 2.13536,0.13346 3.33651,0.40038 1.06767,0.13345 2.13535,0.26691 3.33649,0.53382 0.93422,0.13346 1.86845,0.40038 2.80267,0.80075 l -2.40229,12.01142 m -89.55167,13.07907 c -0.13345,-4.00378 0.6673,-8.00756 2.00191,-11.74443 1.20113,-3.20304 3.06958,-6.00571 5.47186,-8.54147 2.26882,-2.26884 4.80455,-4.00378 7.74068,-5.07151 2.93612,-1.20111 6.0057,-1.73494 9.07528,-1.73494 7.20684,0 12.94562,2.26884 17.08288,6.67299 4.13726,4.40416 6.27262,10.9437 6.27262,19.35171 0,0.80074 0,1.73494 -0.13346,2.80267 -0.13346,1.06765 -0.13346,1.8684 -0.13346,2.66921 h -32.6977 c 0.26692,2.80267 1.73498,5.47181 4.13726,7.07336 2.93612,1.86841 6.40608,2.80267 9.87604,2.66922 2.53574,0 5.20494,-0.26692 7.74068,-0.66736 2.13536,-0.40037 4.27072,-1.06765 6.27262,-1.8684 l 2.0019,11.74451 c -0.93422,0.53383 -2.0019,0.80074 -3.06958,1.20111 -1.46806,0.40037 -2.93612,0.80075 -4.40418,0.9342 -1.60152,0.26692 -3.20304,0.53383 -5.07148,0.80075 -1.73498,0.13345 -3.60342,0.26698 -5.47186,0.26698 -4.13726,0.13345 -8.14106,-0.5339 -12.0114,-2.00193 -3.20304,-1.20111 -6.00571,-3.06958 -8.40798,-5.47188 -2.26882,-2.4023 -3.87034,-5.33836 -4.93802,-8.40794 -0.80076,-3.60348 -1.33461,-7.07343 -1.33461,-10.67685 m 33.89885,-5.47181 c 0,-1.20118 -0.26692,-2.4023 -0.6673,-3.60348 -0.26692,-1.20111 -0.93422,-2.13531 -1.60152,-3.06952 -0.80076,-0.93426 -1.73498,-1.73501 -2.80266,-2.26884 -1.3346,-0.66728 -2.6692,-0.9342 -4.13726,-0.9342 -1.46806,0 -2.80266,0.26692 -4.13726,0.9342 -1.06768,0.53383 -2.13536,1.20112 -2.93612,2.13532 -0.80076,0.93427 -1.46807,2.00193 -1.86844,3.20304 -0.40038,1.20118 -0.6673,2.4023 -0.80076,3.60348 h 18.95132 m -57.25435,4.67107 c 0,-9.34221 -3.46996,-13.87982 -10.27642,-13.87982 -1.46806,0 -2.93612,0.13346 -4.40418,0.53383 -1.20114,0.26691 -2.40228,0.80074 -3.46996,1.46803 v 26.15815 c 0.6673,0.13346 1.60152,0.26698 2.6692,0.40044 1.06768,0.13346 2.26882,0.13346 3.60342,0.13346 3.46996,0.26691 6.80646,-1.20118 8.94182,-4.00385 2.0019,-3.20304 3.06958,-6.93991 2.93612,-10.81024 m 14.6806,0.53383 c 0,3.73687 -0.53383,7.47381 -1.86843,11.07722 -1.06769,3.20304 -2.80267,6.00564 -5.07149,8.40794 -2.40228,2.4023 -5.20493,4.27076 -8.27452,5.47188 -3.60342,1.33457 -7.3403,1.86847 -11.21064,1.86847 -1.73498,0 -3.60342,-0.13353 -5.47185,-0.26698 -1.86845,-0.13346 -3.73689,-0.40038 -5.60533,-0.53383 -1.73498,-0.26692 -3.46996,-0.53383 -5.20494,-0.9342 -1.73498,-0.26692 -3.20304,-0.66729 -4.40418,-1.20112 v -71.40116 l 14.41368,-2.26878 v 25.35742 c 1.60152,-0.66736 3.3365,-1.20119 5.07148,-1.60156 1.86845,-0.40037 3.73688,-0.53383 5.60532,-0.53383 3.3365,0 6.53954,0.53383 9.60912,2.00193 2.6692,1.20111 5.07149,3.06958 6.93992,5.33836 2.00191,2.53575 3.46996,5.33842 4.27073,8.408 0.80075,3.3365 1.20113,7.07337 1.20113,10.81024 m -60.85776,23.48894 c -3.06958,0.80081 -6.27262,1.4681 -9.47566,1.86847 -4.0038,0.66729 -8.14106,0.9342 -12.14486,0.9342 -3.73688,0.13346 -7.3403,-0.53383 -10.81026,-1.73494 -2.6692,-1.06773 -4.93802,-2.66921 -6.80646,-4.8046 -1.73498,-2.26877 -2.93612,-4.80452 -3.60342,-7.60719 -0.80077,-3.06959 -1.06769,-6.40609 -1.06769,-9.60913 v -28.16008 h 14.41369 v 26.55853 c 0,4.67114 0.6673,8.00764 1.86844,10.00956 1.20114,2.00186 3.46996,3.06958 6.80646,3.06958 1.06768,0 2.13536,0 3.3365,-0.13352 1.20114,-0.13346 2.13536,-0.13346 3.06958,-0.40037 v -39.10378 h 14.41368 v 49.11327 m -84.07981,-30.69577 c 1.46806,-1.60155 2.80267,-3.20304 4.40419,-4.80459 1.46805,-1.73494 2.93612,-3.3365 4.40417,-4.93798 1.46806,-1.73502 2.80266,-3.20305 4.00381,-4.67114 1.20113,-1.46803 2.40227,-2.8026 3.33649,-3.87033 h 17.08289 c -3.46997,3.87033 -6.80646,7.74072 -10.00951,11.34413 -3.33649,3.60342 -6.80645,7.34029 -10.6768,11.07716 2.13536,2.00192 4.13727,4.00378 6.0057,6.27262 2.00191,2.4023 4.00381,4.80459 6.0057,7.47381 1.86845,2.53568 3.73689,5.2049 5.33841,7.74065 1.60152,2.53575 2.93612,4.93799 4.0038,7.07337 h -16.54904 c -1.06769,-1.73495 -2.26882,-3.46996 -3.60343,-5.47188 -1.3346,-2.00186 -2.80266,-4.00379 -4.13725,-6.13917 -1.46807,-2.00186 -3.06959,-4.00378 -4.80457,-5.87219 -1.46806,-1.73501 -3.06958,-3.33649 -4.80456,-4.67113 v 22.28783 H 254.5445 v -73.13611 l 14.41368,-2.26878 v 42.57373"
       id="path3003"
       style="fill:#d6dbdf;fill-opacity:0.94117647;stroke-width:1.33460021" />
  </g>
  <style
     id="style838"
     type="text/css">.st0{fill:#0091E2;}</style>
</svg>
