<?xml version="1.0" standalone="no"?>
<!DOCTYPE svg PUBLIC "-//W3C//DTD SVG 20010904//EN"
 "http://www.w3.org/TR/2001/REC-SVG-20010904/DTD/svg10.dtd">
<svg version="1.0" xmlns="http://www.w3.org/2000/svg"
 width="600.000000pt" height="600.000000pt" viewBox="0 0 600.000000 600.000000"
 preserveAspectRatio="xMidYMid meet">
<metadata>
Created by potrace 1.11, written by Peter Selinger 2001-2013
</metadata>
<g transform="translate(0.000000,600.000000) scale(0.100000,-0.100000)"
fill="#000000" stroke="none">
<path d="M4187 4884 c-1 -2 -34 -6 -72 -9 -276 -25 -607 -155 -795 -312 -12
-10 -31 -26 -42 -35 -12 -10 -24 -18 -27 -18 -4 0 -23 21 -42 48 -60 79 -163
151 -276 191 -77 27 -89 30 -189 39 -273 25 -461 -28 -607 -173 -40 -38 -85
-90 -101 -115 -16 -25 -37 -56 -46 -70 -9 -14 -19 -33 -23 -42 -8 -22 -27 -24
-27 -3 0 48 -74 162 -150 232 -278 255 -705 234 -966 -50 -32 -35 -75 -94 -94
-131 -19 -36 -38 -66 -41 -66 -4 0 -7 71 -7 158 0 86 0 162 -1 169 -1 9 -86
12 -341 12 l-340 0 0 -1798 0 -1797 382 0 383 1 2 30 c2 17 4 595 6 1285 3
690 7 1271 10 1290 4 19 9 57 13 85 23 183 97 273 232 280 162 9 253 -76 282
-260 6 -38 14 -83 17 -100 3 -16 7 -608 8 -1315 2 -707 3 -1288 4 -1291 2 -9
755 -6 762 3 3 4 6 557 8 1227 2 1110 5 1387 14 1431 2 8 9 42 16 75 36 165
114 234 261 230 83 -3 120 -17 161 -62 90 -96 107 -227 114 -898 4 -363 6
-403 26 -530 6 -38 13 -83 15 -100 28 -191 140 -490 247 -660 83 -133 240
-312 337 -383 19 -15 37 -30 40 -33 22 -28 311 -189 339 -189 6 0 19 -4 29
-10 24 -14 183 -58 267 -75 235 -45 555 -39 790 15 388 90 694 302 915 637
117 176 211 395 256 598 10 47 37 192 39 215 2 14 7 59 11 100 11 94 11 458 1
565 -33 352 -129 652 -290 905 -23 36 -44 67 -47 70 -3 3 -30 37 -61 75 -93
116 -201 216 -318 296 -135 92 -292 163 -461 208 -75 20 -96 24 -175 35 -22 3
-60 8 -85 12 -44 6 -358 13 -363 8z"/>
</g>
</svg>
