<?xml version="1.0" standalone="no"?>
<!DOCTYPE svg PUBLIC "-//W3C//DTD SVG 20010904//EN"
 "http://www.w3.org/TR/2001/REC-SVG-20010904/DTD/svg10.dtd">
<svg version="1.0" xmlns="http://www.w3.org/2000/svg"
 width="563.000000pt" height="563.000000pt" viewBox="0 0 563.000000 563.000000"
 preserveAspectRatio="xMidYMid meet">
<metadata>
Created by potrace 1.11, written by Peter Selinger 2001-2013
</metadata>
<g transform="translate(0.000000,563.000000) scale(0.100000,-0.100000)"
fill="#000000" stroke="none">
<path d="M2529 5396 c-2 -2 -31 -6 -64 -9 -456 -45 -888 -231 -1170 -504 -225
-217 -345 -454 -362 -714 -31 -485 340 -930 943 -1131 l131 -44 -121 -62
c-378 -191 -652 -447 -801 -747 -190 -383 -172 -756 53 -1120 89 -144 310
-367 447 -452 11 -7 57 -35 101 -63 513 -316 1252 -409 1861 -234 856 246
1326 896 1096 1514 -104 280 -373 541 -722 699 -81 37 -265 101 -290 101 -8 0
41 28 109 63 315 159 557 363 719 607 203 305 261 616 178 941 -106 410 -476
778 -987 984 -115 46 -313 108 -381 119 -20 3 -42 8 -50 10 -8 3 -31 8 -51 11
-45 6 -90 13 -138 21 -40 6 -495 16 -501 10z m426 -246 c28 -4 73 -11 100 -14
259 -34 575 -160 797 -319 592 -424 657 -1092 155 -1600 -162 -164 -327 -275
-557 -374 -141 -61 -313 -116 -432 -137 -31 -5 -25 -20 -71 166 l-25 98 42 10
c73 19 210 61 246 77 118 51 212 99 274 140 477 312 616 791 345 1190 -45 66
-170 189 -249 245 -331 233 -807 314 -1222 208 -506 -129 -814 -519 -698 -881
23 -70 82 -171 132 -225 150 -162 436 -283 683 -288 33 -1 41 -5 47 -26 12
-37 58 -229 58 -240 0 -11 -217 -5 -296 9 -33 6 -70 12 -84 15 -129 21 -317
93 -455 173 -101 59 -151 98 -242 188 -149 149 -228 315 -239 505 -23 362 233
715 667 919 168 79 395 143 559 157 41 4 77 8 79 10 8 7 337 2 386 -6z m-55
-515 c384 -69 661 -283 725 -560 13 -57 13 -161 0 -220 -20 -96 -39 -140 -99
-229 -36 -56 -181 -206 -197 -206 -4 0 -14 -6 -21 -13 -58 -56 -277 -156 -405
-185 l-40 -9 -27 116 c-15 64 -28 124 -29 134 -2 13 18 26 81 51 301 122 447
372 344 588 -16 35 -47 82 -69 105 -225 236 -699 226 -823 -18 -40 -77 -30
-147 30 -216 17 -19 33 -53 39 -85 7 -29 20 -86 31 -127 l19 -73 -47 7 c-116
16 -244 77 -323 156 -168 164 -163 381 13 560 120 122 301 206 483 225 33 4
61 8 63 9 6 5 216 -3 252 -10z m-71 -521 c116 -58 140 -176 55 -280 -39 -48
-131 -111 -143 -98 -7 7 -61 224 -61 244 0 3 -7 27 -15 54 -8 27 -15 58 -15
68 0 43 102 50 179 12z m-151 -1324 c17 -68 29 -127 26 -131 -2 -4 -19 -10
-38 -13 -132 -25 -381 -126 -511 -209 -307 -194 -487 -470 -489 -751 -1 -144
20 -234 86 -356 160 -301 520 -520 948 -577 108 -14 441 -6 471 12 4 3 24 7
45 11 59 8 234 69 306 105 247 124 428 329 465 527 12 64 6 185 -11 247 -47
164 -196 325 -391 422 -70 35 -170 71 -223 79 -20 3 -40 8 -43 10 -6 3 -37 7
-162 18 -21 2 -40 6 -42 7 -2 3 -43 168 -60 247 l-5 22 112 -4 c137 -5 223
-18 349 -50 427 -108 752 -388 838 -722 30 -117 24 -289 -14 -399 -86 -249
-303 -478 -589 -622 -127 -64 -344 -139 -456 -158 -19 -3 -60 -10 -90 -15
-146 -25 -456 -28 -570 -6 -8 1 -37 6 -65 10 -287 45 -597 173 -810 335 -735
561 -586 1448 320 1906 180 91 542 210 566 186 3 -3 20 -62 37 -131z m121
-506 c18 -74 32 -136 30 -137 -2 -2 -22 -9 -44 -16 -326 -110 -498 -379 -386
-605 101 -205 381 -321 634 -262 80 19 114 35 184 87 65 48 108 128 99 186 -3
21 -5 41 -6 45 0 3 -16 28 -37 54 -30 40 -42 71 -68 176 -37 149 -42 142 85
107 126 -34 238 -107 303 -196 198 -274 -25 -613 -473 -718 -84 -19 -290 -28
-360 -15 -25 5 -64 11 -88 15 -99 14 -253 78 -366 150 -130 83 -247 226 -287
353 -37 118 -31 263 17 378 70 167 246 335 459 437 51 25 248 96 266 97 3 0
20 -61 38 -136z m141 -569 c50 -205 50 -208 -17 -223 -73 -17 -176 37 -212
111 -36 75 -11 161 66 225 40 34 100 72 113 72 3 0 25 -83 50 -185z"/>
</g>
</svg>
