<?xml version="1.0" encoding="UTF-8" standalone="no"?>
<svg
   xmlns:dc="http://purl.org/dc/elements/1.1/"
   xmlns:cc="http://creativecommons.org/ns#"
   xmlns:rdf="http://www.w3.org/1999/02/22-rdf-syntax-ns#"
   xmlns:svg="http://www.w3.org/2000/svg"
   xmlns="http://www.w3.org/2000/svg"
   xmlns:xlink="http://www.w3.org/1999/xlink"
   xmlns:sodipodi="http://sodipodi.sourceforge.net/DTD/sodipodi-0.dtd"
   xmlns:inkscape="http://www.inkscape.org/namespaces/inkscape"
   width="1024"
   height="512"
   viewBox="0 0 1024.0001 512.00002"
   id="svg2"
   version="1.1"
   inkscape:version="0.92.5 (2060ec1f9f, 2020-04-08)"
   sodipodi:docname="docker.svg"
   inkscape:export-filename="/Users/marcelo.felix/default/projects/bandonga/posts/images/sip.png"
   inkscape:export-xdpi="96"
   inkscape:export-ydpi="96">
  <defs
     id="defs4">
    <linearGradient
       inkscape:collect="always"
       id="linearGradient4542">
      <stop
         style="stop-color:#ebedef;stop-opacity:1;"
         offset="0"
         id="stop4538" />
      <stop
         style="stop-color:#ebedef;stop-opacity:0;"
         offset="1"
         id="stop4540" />
    </linearGradient>
    <rect
       x="-53.125"
       y="1432.5497"
       width="862.5"
       height="918.75"
       id="rect1298" />
    <linearGradient
       inkscape:collect="always"
       id="linearGradient5741">
      <stop
         style="stop-color:#313244;stop-opacity:1"
         offset="0"
         id="stop5743" />
      <stop
         style="stop-color:#181825;stop-opacity:0.9964413"
         offset="1"
         id="stop5745" />
    </linearGradient>
    <linearGradient
       inkscape:collect="always"
       xlink:href="#linearGradient5741"
       id="linearGradient5747"
       x1="553.625"
       y1="989.86218"
       x2="491.68762"
       y2="591.42468"
       gradientUnits="userSpaceOnUse"
       gradientTransform="translate(1.0625571,-1.3123785)" />
    <linearGradient
       inkscape:collect="always"
       xlink:href="#linearGradient4542"
       id="linearGradient4544"
       x1="315.5401"
       y1="637.81217"
       x2="707.31489"
       y2="637.81217"
       gradientUnits="userSpaceOnUse" />
  </defs>
  <sodipodi:namedview
     id="base"
     pagecolor="#ffffff"
     bordercolor="#666666"
     borderopacity="1.0"
     inkscape:pageopacity="0.0"
     inkscape:pageshadow="2"
     inkscape:zoom="0.64"
     inkscape:cx="66.09326"
     inkscape:cy="159.78371"
     inkscape:document-units="px"
     inkscape:current-layer="layer1"
     showgrid="false"
     units="px"
     inkscape:window-width="1878"
     inkscape:window-height="1023"
     inkscape:window-x="42"
     inkscape:window-y="387"
     inkscape:window-maximized="1"
     showguides="true"
     inkscape:document-rotation="0" />
  <metadata
     id="metadata7">
    <rdf:RDF>
      <cc:Work
         rdf:about="">
        <dc:format>image/svg+xml</dc:format>
        <dc:type
           rdf:resource="http://purl.org/dc/dcmitype/StillImage" />
        <dc:title />
      </cc:Work>
    </rdf:RDF>
  </metadata>
  <g
     style="display:inline"
     inkscape:label="Layer 1"
     inkscape:groupmode="layer"
     id="layer1"
     transform="translate(0,-540.36216)">
    <rect
       style="opacity:1;fill:url(#linearGradient5747);fill-opacity:1;stroke:none;stroke-width:5;stroke-linecap:round;stroke-linejoin:round;stroke-miterlimit:4;stroke-dasharray:none;stroke-opacity:1"
       id="rect4164-4"
       width="1024.0001"
       height="512.00006"
       x="0"
       y="540.36218" />
    <flowRoot
       xml:space="preserve"
       id="flowRoot4235"
       style="font-style:normal;font-weight:normal;line-height:0.01%;font-family:sans-serif;letter-spacing:0px;word-spacing:0px;fill:#000000;fill-opacity:1;stroke:none;stroke-width:1px;stroke-linecap:butt;stroke-linejoin:miter;stroke-opacity:1"
       transform="matrix(0.99896342,0,0,0.9974429,1.0614558,1.381783)"><flowRegion
         id="flowRegion4237"><rect
           id="rect4239"
           width="218.75"
           height="14.0625"
           x="150.78125"
           y="642.96875" /></flowRegion><flowPara
         id="flowPara4241"
         style="font-size:10px;line-height:1.25"> </flowPara></flowRoot>    <g
       id="g939"
       style="stroke:#fab387;stroke-opacity:1"
       transform="matrix(0.16316486,0,0,0.1631657,894.04426,776.11777)"
       inkscape:export-xdpi="96"
       inkscape:export-ydpi="96">
      <path
         transform="matrix(-0.75451103,0,0,-0.54952197,1101.4103,1279.4667)"
         d="m 818.15623,151.40733 c 16.6645,7.97257 6.7161,31.18806 -4.31737,38.90375 -24.4319,17.0852 -56.67701,0.42955 -68.52922,-23.72688 -18.85616,-38.43145 5.72937,-82.950654 43.13639,-98.154695 C 840.46905,47.284808 897.92914,80.282292 916.2262,130.97542 939.86599,196.4709 898.27346,267.1046 834.27078,288.38106 755.35114,314.61636 671.43491,264.34242 647.23966,187.01612 618.35294,94.696166 677.35547,-2.5627125 768.01412,-29.640471 873.721,-61.212808 984.35938,6.5468433 1014.2962,110.5435 1048.5765,229.6291 972.04122,353.67126 854.70269,386.45103 722.24376,423.45485 584.78094,338.13115 549.16969,207.44803 509.4313,61.619488 603.55249,-89.276217 747.5822,-127.71045 c 9.03621,-2.4113 18.19014,-4.38086 27.41802,-5.90175"
         sodipodi:t0="0.042052984"
         sodipodi:argument="-19.817743"
         sodipodi:radius="289.19339"
         sodipodi:revolution="2.8868599"
         sodipodi:expansion="1"
         sodipodi:cy="153.88779"
         sodipodi:cx="806.25043"
         id="path881-7"
         style="fill:none;fill-opacity:1;fill-rule:evenodd;stroke:#fab387;stroke-width:46.5903;stroke-miterlimit:4;stroke-dasharray:none;stroke-opacity:1"
         sodipodi:type="spiral" />
      <text
         transform="scale(1.0067661,0.99327937)"
         id="text3340-3"
         y="1527.2913"
         x="689.02264"
         style="font-style:normal;font-weight:normal;font-size:12.0903px;line-height:0%;font-family:sans-serif;letter-spacing:0px;word-spacing:0px;fill:#000000;fill-opacity:1;stroke:#fab387;stroke-width:30;stroke-linecap:butt;stroke-linejoin:miter;stroke-miterlimit:4;stroke-dasharray:none;stroke-opacity:1"
         xml:space="preserve"><tspan
           style="font-size:39.9579px;line-height:1.25;stroke:#fab387;stroke-width:30;stroke-miterlimit:4;stroke-dasharray:none;stroke-opacity:1"
           y="1527.2913"
           x="689.02264"
           id="tspan3342-6"
           sodipodi:role="line"> </tspan></text>
      <path
         transform="matrix(0.75451103,0,0,0.54952197,1094.7544,1224.2565)"
         d="m -729.37901,420.178 c 15.13108,11.98047 1.37745,33.94081 -11.81227,40.29637 -27.87814,13.43328 -58.40934,-8.38434 -66.9121,-35.17893 -13.30648,-41.93247 18.1631,-83.59679 58.54559,-93.52784 55.69793,-13.69748 109.02445,27.94081 120.14356,81.91225 14.29412,69.3827 -37.71125,134.56094 -105.2789,146.7593 -83.03614,14.99097 -160.1564,-47.47646 -173.37503,-128.64556 -15.74378,-96.67473 57.23825,-185.78748 152.01222,-199.99077 110.30527,-16.53088 211.44174,66.99781 226.6065,175.37888 17.34051,123.93103 -76.75584,237.11196 -198.74554,253.22223 -137.55374,18.1657 -262.7936,-86.51281 -279.83792,-222.11219 -18.395,-146.34425 89.31287,-280.99238 233.03269,-304.67954"
         sodipodi:t0="0.04979825"
         sodipodi:argument="-19.817743"
         sodipodi:radius="289.19339"
         sodipodi:revolution="2.8868599"
         sodipodi:expansion="1"
         sodipodi:cy="421.11218"
         sodipodi:cx="-743.75"
         id="path881"
         style="fill:none;fill-opacity:1;fill-rule:evenodd;stroke:#fab387;stroke-width:46.5903;stroke-miterlimit:4;stroke-dasharray:none;stroke-opacity:1"
         sodipodi:type="spiral" />
      <path
         sodipodi:nodetypes="cc"
         inkscape:connector-curvature="0"
         id="path941"
         d="m 479.46207,1186.0292 68.02455,279.0628"
         style="fill:none;stroke:#fab387;stroke-width:30;stroke-linecap:butt;stroke-linejoin:miter;stroke-miterlimit:4;stroke-dasharray:none;stroke-opacity:1" />
    </g>
    <text
       xml:space="preserve"
       id="text1296"
       style="font-size:26.66669999999999874px;line-height:1.25;font-family:Verdana;-inkscape-font-specification:Verdana;white-space:pre;shape-inside:url(#rect1298);" />
    <g
       id="g842"
       transform="matrix(2.2686025,0,0,2.2686025,90.038529,696.36221)">
      <path
         id="path840"
         d="m 121.68,33.34 c -0.34,-0.28 -3.42,-2.62 -10.03,-2.62 -1.71,0 -3.48,0.17 -5.19,0.46 -1.25,-8.72 -8.49,-12.94 -8.78,-13.16 l -1.77,-1.03 -1.14,1.65 c -1.42,2.22 -2.51,4.73 -3.13,7.29 -1.2,4.96 -0.46,9.63 2.05,13.62 -3.02,1.71 -7.92,2.11 -8.95,2.17 H 3.81 c -2.11,0 -3.82,1.71 -3.82,3.82 -0.11,7.07 1.08,14.13 3.53,20.8 2.79,7.29 6.95,12.71 12.31,16.01 6.04,3.7 15.9,5.81 27.01,5.81 5.01,0 10.03,-0.46 14.99,-1.37 6.9,-1.25 13.51,-3.65 19.6,-7.12 5.02,-2.91 9.52,-6.61 13.34,-10.94 6.44,-7.24 10.26,-15.33 13.05,-22.51 0.4,0 0.74,0 1.14,0 7.01,0 11.34,-2.79 13.73,-5.19 1.6,-1.48 2.79,-3.31 3.65,-5.36 l 0.51,-1.48 z m -50.09,6.04 h 10.83 c 0.51,0 0.97,-0.4 0.97,-0.97 v -9.69 c 0,-0.51 -0.4,-0.97 -0.97,-0.97 v 0 H 71.59 c -0.51,0 -0.97,0.4 -0.97,0.97 v 0 9.69 c 0.06,0.57 0.46,0.97 0.97,0.97 z M 56.49,11.63 h 10.83 c 0.51,0 0.97,-0.4 0.97,-0.97 V 0.97 C 68.29,0.46 67.83,0 67.32,0 H 56.49 c -0.51,0 -0.97,0.4 -0.97,0.97 v 0 9.69 c 0,0.51 0.45,0.97 0.97,0.97 z m 0,13.9 h 10.83 c 0.51,0 0.97,-0.46 0.97,-0.97 v -9.69 c 0,-0.51 -0.46,-0.97 -0.97,-0.97 H 56.49 c -0.51,0 -0.97,0.4 -0.97,0.97 v 0 9.69 c 0,0.52 0.45,0.97 0.97,0.97 z m -14.99,0 h 10.83 c 0.51,0 0.97,-0.46 0.97,-0.97 v -9.69 c 0,-0.51 -0.4,-0.97 -0.97,-0.97 v 0 H 41.5 c -0.51,0 -0.97,0.4 -0.97,0.97 v 0 9.69 c 0,0.52 0.4,0.97 0.97,0.97 z m -15.22,0 h 10.83 c 0.51,0 0.97,-0.46 0.97,-0.97 v -9.69 c 0,-0.51 -0.4,-0.97 -0.97,-0.97 v 0 H 26.28 c -0.51,0 -0.97,0.4 -0.97,0.97 v 9.69 c 0.06,0.52 0.46,0.97 0.97,0.97 z m 30.21,13.85 h 10.83 c 0.51,0 0.97,-0.4 0.97,-0.97 v -9.69 c 0,-0.51 -0.4,-0.97 -0.97,-0.97 v 0 H 56.49 c -0.51,0 -0.97,0.4 -0.97,0.97 v 0 9.69 c 0,0.57 0.45,0.97 0.97,0.97 z m -14.99,0 h 10.83 c 0.51,0 0.97,-0.4 0.97,-0.97 v 0 -9.69 c 0,-0.51 -0.4,-0.97 -0.97,-0.97 v 0 H 41.5 c -0.51,0 -0.97,0.4 -0.97,0.97 v 0 9.69 c 0,0.57 0.4,0.97 0.97,0.97 z m -15.22,0 h 10.83 c 0.51,0 0.97,-0.4 0.97,-0.97 v 0 -9.69 c 0,-0.51 -0.4,-0.97 -0.97,-0.97 v 0 H 26.28 c -0.51,0 -0.97,0.4 -0.97,0.97 v 9.69 c 0.06,0.57 0.46,0.97 0.97,0.97 z m -14.93,0 h 10.83 c 0.51,0 0.97,-0.4 0.97,-0.97 v 0 -9.69 c 0,-0.51 -0.4,-0.97 -0.97,-0.97 v 0 H 11.35 c -0.51,0 -0.97,0.4 -0.97,0.97 v 0 9.69 c 0.06,0.57 0.46,0.97 0.97,0.97 z"
         class="st0"
         inkscape:connector-curvature="0"
         style="fill:#0091e2" />
    </g>
    <path
       id="path2"
       style="display:inline;fill:#bac2de;fill-opacity:0.94117647;stroke-width:1.46065676"
       d="m 496.4459,729.46194 c -4.6741,-0.14599 -8.46926,3.50614 -8.61534,8.03418 v 42.06738 c -20.011,-16.06721 -49.37204,-12.85363 -65.43925,7.15737 -6.57297,8.32574 -10.22287,18.5512 -10.22287,29.214 -0.4382,25.70756 20.00985,46.88673 45.7174,47.32493 25.70756,0.4382 46.88675,-20.01326 47.32495,-45.72081 v -79.45831 c 0,-2.33704 -0.87423,-4.52768 -2.48095,-6.1344 -1.75278,-1.60672 -3.9469,-2.48434 -6.28394,-2.48434 z m 217.78647,0 c -4.82016,0 -8.61881,3.79858 -8.76488,8.61874 V 853.6181 c 0,2.33704 0.87761,4.52767 2.48434,6.1344 1.60672,1.7528 3.79733,2.63048 6.13439,2.63048 2.33705,0 4.52768,-0.87768 6.1344,-2.63048 1.60674,-1.60673 2.62701,-3.79736 2.48095,-6.1344 v -29.94131 l 10.08013,-6.57621 38.41391,43.09032 c 1.60672,1.46067 3.65454,2.33816 5.84553,2.19208 1.16852,0 2.33532,-0.14634 3.35778,-0.73068 1.02246,-0.4382 1.90021,-1.0234 2.77661,-1.8998 0.73033,-0.87639 1.45819,-1.75077 1.89639,-2.77323 0.4382,-1.02246 0.73069,-2.19265 0.73069,-3.36117 0,-2.191 -0.87414,-4.38155 -2.3348,-5.98827 l -35.64068,-40.16756 34.76385,-22.6412 c 2.33704,-1.46067 3.50384,-4.08985 3.35778,-6.86509 0,-1.16852 -0.29251,-2.33532 -0.73069,-3.35778 -0.4382,-1.02246 -1.16608,-1.90022 -1.89641,-2.77662 -0.73032,-0.73032 -1.75415,-1.4616 -2.77661,-1.8998 -1.02246,-0.4382 -2.18926,-0.73068 -3.35778,-0.73068 -1.60672,0 -3.21576,0.43884 -4.67642,1.31524 l -49.66313,32.2829 v -64.56241 c 0,-2.33705 -0.87423,-4.5277 -2.48095,-6.13442 -1.60672,-1.6067 -3.79736,-2.63047 -6.1344,-2.63047 z m -49.60538,39.57961 c -0.69902,-0.0157 -1.40077,-0.0122 -2.1037,0.007 -25.70756,0 -46.5942,20.88669 -46.59426,46.59424 0,25.70756 20.74048,46.44818 46.30198,46.59424 11.24705,0 22.05745,-3.94254 30.52925,-11.24583 1.75279,-1.60672 2.77323,-3.94695 2.77323,-6.43007 0.14616,-4.6741 -3.50275,-8.46928 -8.03079,-8.61534 h -0.58456 c -2.04492,0 -3.94653,0.58173 -5.55325,1.75026 -2.62918,2.33706 -5.54803,4.0925 -8.76147,5.4071 -3.21346,1.16852 -6.72061,1.75026 -10.08013,1.75026 -3.94376,0 -7.74034,-0.72809 -11.39198,-2.33482 -3.50558,-1.46064 -6.57418,-3.65134 -9.34942,-6.28052 -11.39313,-11.39311 -11.39324,-29.79742 -0.14617,-41.19055 0.14599,0.29212 0.14617,0.29223 0.14617,0.14617 2.62918,-2.62919 5.84384,-4.81989 9.34942,-6.28055 3.65164,-1.46066 7.44822,-2.33821 11.39198,-2.33821 3.50558,0 6.86667,0.58513 10.08013,1.75365 3.21344,1.31459 6.27844,3.06667 8.90762,5.40371 1.60672,1.3146 3.65448,1.8998 5.69938,1.8998 2.33706,0.146 4.67381,-0.73153 6.28053,-2.48433 1.60672,-1.60673 2.48095,-3.94349 2.48095,-6.28055 0,-2.48312 -1.02057,-4.96609 -3.06549,-6.57281 -7.8054,-6.98377 -17.79414,-11.01673 -28.27942,-11.25263 z m -103.91093,0.44182 c -11.90436,0 -23.808,4.52796 -32.86407,13.58404 -8.76395,8.76395 -13.58404,20.59794 -13.58404,32.86746 -0.4382,25.70756 20.00985,46.88673 45.7174,47.32493 25.70756,0.4382 46.88675,-20.01326 47.32495,-45.72081 v -1.60412 c 0,-6.13476 -1.16685,-12.12548 -3.50391,-17.82204 -2.33705,-5.69657 -5.84435,-10.80951 -10.22626,-15.04542 -9.05609,-9.05608 -20.95973,-13.58404 -32.86407,-13.58404 z m 274.01901,0 c -25.70755,0 -46.44824,20.74395 -46.59423,46.4515 0,25.70756 20.88668,46.59424 46.59423,46.59424 11.10099,0 21.91132,-3.94254 30.38313,-11.24583 l 0.29226,-0.29228 c 0.73034,-0.58427 1.45822,-1.31566 1.8964,-2.19206 2.77527,-4.08982 1.75512,-9.49355 -2.18866,-12.26879 -3.35951,-2.19098 -7.74338,-1.75228 -10.66469,1.02296 -0.29214,0.29212 -1.16916,1.01964 -1.16909,1.1657 l -0.14617,0.14617 c -2.48312,2.04492 -5.25568,3.8001 -8.32306,4.82257 -3.21345,1.16852 -6.57457,1.75017 -10.08013,1.60411 -3.21346,0 -6.27867,-0.43552 -9.34605,-1.45798 -2.9213,-1.02246 -5.69721,-2.33915 -8.18033,-4.238 -2.48312,-1.75281 -4.67389,-3.94357 -6.42668,-6.42667 -1.89886,-2.48312 -3.21546,-5.40517 -4.09186,-8.32648 h 65.73153 c 2.33706,0 4.52768,-0.87422 6.1344,-2.48094 1.7528,-1.60673 2.62701,-3.79734 2.48095,-6.1344 0.14599,-6.28083 -1.02065,-12.41776 -3.21164,-18.11433 -7.44936,-17.23575 -24.39391,-28.48339 -43.09032,-28.62945 z m 102.24564,0 c -5.25836,0 -10.66374,0.87778 -15.62997,2.77662 -4.96624,1.7528 -9.49419,4.38233 -13.58403,7.59577 v -1.75365 c -0.146,-4.82016 -4.23359,-8.47261 -9.05376,-8.32646 a 8.6178749,8.6178749 0 0 0 -8.32647,8.32646 v 75.80827 c 0.14599,4.82016 4.237,8.47252 9.05716,8.32645 a 8.6178749,8.6178749 0 0 0 8.32307,-8.32645 v -37.82937 c 0,-3.94379 0.73148,-7.74373 2.3382,-11.39536 1.46066,-3.5056 3.50531,-6.57072 6.28055,-9.1999 2.62918,-2.62918 5.84379,-4.8199 9.20329,-6.28055 3.65165,-1.46066 7.44818,-2.3382 11.39196,-2.3382 3.94377,0 7.74373,0.73134 11.39538,2.04593 1.16854,0.58426 2.33547,0.87344 3.65006,0.87344 1.16853,0 2.33871,-0.14304 3.36115,-0.7273 1.0225,-0.43818 1.8968,-1.02341 2.7732,-1.8998 0.7304,-0.73033 1.4616,-1.75415 1.8998,-2.77661 0.4382,-1.02246 0.7307,-2.18926 0.7307,-3.35778 0.146,-2.19099 -0.7315,-4.2354 -2.3382,-5.84212 -1.7528,-1.60673 -3.6511,-2.77699 -5.8421,-3.50733 -2.48312,-0.87638 -5.11274,-1.46153 -7.74192,-1.75365 -2.62918,-0.29214 -5.25888,-0.43841 -7.88807,-0.43841 z m -376.26465,17.12874 c 3.87073,0 7.74032,0.76713 11.39196,2.30082 3.50556,1.46066 6.57411,3.65136 9.20329,6.28054 2.62918,2.62918 4.81991,5.84038 6.28055,9.1999 3.06738,7.44935 3.06738,15.63002 0,22.64119 -1.46064,3.50561 -3.65137,6.57413 -6.28055,9.20331 -2.62918,2.62918 -5.84379,4.81988 -9.20329,6.28053 -7.30329,3.06738 -15.48067,3.06738 -22.78394,0 -7.01116,-2.92131 -12.56252,-8.61876 -15.48384,-15.48384 -3.06738,-7.15723 -3.06738,-15.3379 0,-22.64119 2.92132,-7.01116 8.47268,-12.41306 15.48384,-15.48044 3.65164,-1.53369 7.52123,-2.30082 11.39198,-2.30082 z m -102.09951,0.29226 c 3.8707,0 7.74032,0.76714 11.39196,2.30083 7.01116,3.06739 12.56252,8.61544 15.48384,15.62658 3.06738,7.01116 3.06738,15.1917 0,22.34893 -2.92132,7.01116 -8.47268,12.56258 -15.48384,15.62997 -7.30329,3.06738 -15.48066,3.06738 -22.78394,0 -7.01115,-2.92133 -12.41639,-8.61874 -15.33769,-15.48384 -3.06738,-7.15721 -3.06738,-15.33792 0,-22.64119 2.9213,-7.01116 8.4726,-12.55914 15.33769,-15.48045 3.65164,-1.53369 7.52118,-2.30083 11.39198,-2.30083 z m 375.97238,0.10876 c 3.06738,0 6.28199,0.43893 9.20331,1.46139 5.84262,1.89886 10.95536,5.69503 14.607,10.66127 1.89885,2.48311 3.21214,5.40517 4.2346,8.32648 h -55.94368 c 0.8764,-3.06737 2.193,-5.84337 4.09186,-8.32648 1.75278,-2.48312 3.94356,-4.67387 6.42668,-6.42667 2.48312,-1.75279 5.25906,-3.21214 8.18033,-4.2346 2.92132,-1.02246 6.13252,-1.46136 9.1999,-1.46139 z"
       inkscape:connector-curvature="0" />
    <g
       transform="translate(-8.9648437e-6)"
       aria-label="By Example"
       style="font-style:normal;font-variant:normal;font-weight:normal;font-stretch:normal;font-size:13.33333302px;line-height:1.25;font-family:Georgia;-inkscape-font-specification:Georgia;letter-spacing:0px;word-spacing:0px;fill:#bac2de;fill-opacity:0.94117647;stroke:none"
       id="text1325-4">
      <path
         inkscape:connector-curvature="0"
         d="m 362.03543,650.98193 v -4.01041 l 4.14063,-0.78125 v -28.30729 l -4.14063,-0.78125 v -4.03646 h 4.14063 12.5 q 6.3802,0 9.94791,2.60416 3.59375,2.57813 3.59375,7.73438 0,2.57812 -1.48437,4.63542 -1.48438,2.03125 -4.11459,3.02083 2.29167,0.49479 3.85417,1.79687 1.5625,1.30209 2.36979,3.17709 0.83334,1.84896 0.83334,4.0625 0,5.33854 -3.51563,8.125 -3.48958,2.76041 -9.73958,2.76041 z m 10.70313,-5.05208 h 7.68229 q 3.22916,0 4.94791,-1.48437 1.7448,-1.51042 1.7448,-4.34896 0,-2.00521 -0.65105,-3.41146 -0.65104,-1.40625 -1.97916,-2.16146 -1.32813,-0.75521 -3.41146,-0.75521 h -8.33333 z m 0,-16.875 h 6.66666 q 2.91667,0 4.58334,-1.40625 1.66666,-1.40625 1.66666,-3.93229 0,-2.83854 -1.77083,-4.19271 -1.77083,-1.38021 -5.20833,-1.38021 h -5.9375 z"
         style="font-style:normal;font-variant:normal;font-weight:500;font-stretch:normal;font-size:53.33333206px;font-family:'Roboto Slab';-inkscape-font-specification:'Roboto Slab Medium';fill:#bac2de;fill-opacity:0.94117647"
         id="path1313" />
      <path
         inkscape:connector-curvature="0"
         d="m 403.93647,662.36214 q -0.80729,0 -1.875,-0.15625 -1.04166,-0.15625 -1.82291,-0.39062 l 0.72916,-4.92188 q 0.46875,0.0781 1.11979,0.13021 0.67709,0.0521 1.06771,0.0521 1.64063,0 2.76042,-1.04166 1.11979,-1.01563 1.82292,-2.83854 l 0.85937,-2.26563 -9.63542,-23.61979 -3.28125,-0.46875 v -4.03646 h 13.64584 v 4.03646 l -3.46354,0.52083 4.89583,13.125 0.85937,2.44792 h 0.15625 l 5.78125,-15.59896 -3.46354,-0.49479 v -4.03646 h 12.94271 v 4.03646 l -3.04687,0.44271 -10.91146,27.94271 q -0.78125,1.97916 -1.95313,3.59375 -1.14583,1.64062 -2.91666,2.57812 -1.7448,0.96354 -4.27084,0.96354 z"
         style="font-style:normal;font-variant:normal;font-weight:500;font-stretch:normal;font-size:53.33333206px;font-family:'Roboto Slab';-inkscape-font-specification:'Roboto Slab Medium';fill:#bac2de;fill-opacity:0.94117647"
         id="path1315" />
      <path
         inkscape:connector-curvature="0"
         d="m 442.40001,650.98193 v -4.01041 l 4.14062,-0.78125 v -28.30729 l -4.14062,-0.78125 v -4.03646 h 28.88021 v 9.76562 h -5.10417 l -0.44271,-4.71354 h -12.63021 v 10.72917 h 13.3073 v 5.07812 h -13.3073 v 12.05729 h 13.33334 l 0.44271,-4.8177 h 5.05208 v 9.8177 z"
         style="font-style:normal;font-variant:normal;font-weight:500;font-stretch:normal;font-size:53.33333206px;font-family:'Roboto Slab';-inkscape-font-specification:'Roboto Slab Medium';fill:#bac2de;fill-opacity:0.94117647"
         id="path1317" />
      <path
         inkscape:connector-curvature="0"
         d="m 475.62918,650.98193 v -4.01041 l 3.41146,-0.52084 8.20312,-9.63541 -7.86458,-9.45313 -3.15104,-0.52083 v -4.03646 h 12.73437 v 3.93229 l -2.44792,0.3125 4.79167,6.14584 4.73958,-6.14584 -2.68229,-0.3125 v -3.93229 h 12.36979 v 4.03646 l -3.02083,0.52083 -7.39583,9.24479 8.35937,9.84375 3.22917,0.52084 v 4.01041 h -13.41146 v -3.90625 l 2.83854,-0.3125 -5.10416,-6.27604 -4.97396,6.30209 2.65625,0.28645 v 3.90625 z"
         style="font-style:normal;font-variant:normal;font-weight:500;font-stretch:normal;font-size:53.33333206px;font-family:'Roboto Slab';-inkscape-font-specification:'Roboto Slab Medium';fill:#bac2de;fill-opacity:0.94117647"
         id="path1319" />
      <path
         inkscape:connector-curvature="0"
         d="m 518.85834,651.52881 q -4.29687,0 -6.69271,-2.21354 -2.39583,-2.21354 -2.39583,-6.09375 0,-2.65625 1.45833,-4.66146 1.45834,-2.00521 4.27084,-3.125 2.8125,-1.14583 6.82291,-1.14583 h 4.29688 v -2.3698 q 0,-2.23958 -1.35417,-3.5677 -1.32812,-1.32813 -3.88021,-1.32813 -1.45833,0 -2.57812,0.36458 -1.11979,0.33855 -2.00521,0.98959 l -0.59896,3.80208 h -4.81771 l -0.0521,-6.95312 q 2.08333,-1.35417 4.63542,-2.13542 2.55208,-0.80729 5.67708,-0.80729 5.36458,0 8.4375,2.52604 3.09896,2.5 3.09896,7.1875 v 12.42187 q 0,0.57292 0,1.1198 0.026,0.54687 0.0781,1.0677 l 2.86459,0.36459 v 4.01041 h -8.56771 q -0.26042,-0.91145 -0.49479,-1.77083 -0.20834,-0.85937 -0.3125,-1.71875 -1.40625,1.77083 -3.41146,2.91667 -1.97917,1.11979 -4.47917,1.11979 z m 1.48438,-5.07813 q 1.97916,0 3.69791,-0.91145 1.71875,-0.9375 2.57813,-2.34375 v -4.71355 h -4.375 q -2.94271,0 -4.45313,1.38021 -1.48437,1.35417 -1.48437,3.17709 0,1.64062 1.04167,2.52604 1.04166,0.88541 2.99479,0.88541 z"
         style="font-style:normal;font-variant:normal;font-weight:500;font-stretch:normal;font-size:53.33333206px;font-family:'Roboto Slab';-inkscape-font-specification:'Roboto Slab Medium';fill:#bac2de;fill-opacity:0.94117647"
         id="path1321" />
      <path
         inkscape:connector-curvature="0"
         d="m 539.17085,650.98193 v -4.01041 l 3.93229,-0.78125 v -18.56771 l -4.14063,-0.78125 v -4.03646 h 10.15625 l 0.3125,3.69792 q 1.38021,-2.00521 3.4375,-3.09896 2.08334,-1.11979 4.81771,-1.11979 2.76042,0 4.71354,1.25 1.97917,1.22396 2.9948,3.72396 1.30208,-2.31771 3.41145,-3.64584 2.13542,-1.32812 5,-1.32812 4.24479,0 6.66667,2.89062 2.44792,2.89063 2.44792,8.75 v 12.26563 l 3.93229,0.78125 v 4.01041 h -14.19271 v -4.01041 l 3.69792,-0.78125 V 633.8986 q 0,-3.56771 -1.19792,-5 -1.19792,-1.43229 -3.51562,-1.43229 -2.16146,0 -3.56771,1.38021 -1.38021,1.38021 -1.79688,3.51562 v 13.82813 l 3.56771,0.78125 v 4.01041 h -13.67187 v -4.01041 l 3.5677,-0.78125 V 633.8986 q 0,-3.4375 -1.22395,-4.92187 -1.22396,-1.51042 -3.54167,-1.51042 -1.92708,0 -3.25521,0.78125 -1.30208,0.78125 -2.08333,2.21354 v 15.72917 l 3.67187,0.78125 v 4.01041 z"
         style="font-style:normal;font-variant:normal;font-weight:500;font-stretch:normal;font-size:53.33333206px;font-family:'Roboto Slab';-inkscape-font-specification:'Roboto Slab Medium';fill:#bac2de;fill-opacity:0.94117647"
         id="path1323" />
      <path
         inkscape:connector-curvature="0"
         d="m 589.48334,661.81527 v -4.03646 l 3.80208,-0.78125 v -29.375 l -4.14062,-0.78125 v -4.03646 h 10.02604 l 0.41666,3.33333 q 1.30209,-1.84895 3.17709,-2.83854 1.875,-1.01562 4.42708,-1.01562 3.4375,0 5.88542,1.875 2.44791,1.875 3.72396,5.23437 1.30208,3.35938 1.30208,7.86459 v 0.54687 q 0,4.11458 -1.30208,7.21354 -1.30209,3.07292 -3.75,4.79167 -2.42188,1.71875 -5.85938,1.71875 -2.42187,0 -4.24479,-0.83333 -1.82292,-0.85938 -3.125,-2.5 v 8.80208 l 4.01042,0.78125 v 4.03646 z m 15.72916,-15.33854 q 3.22917,0 4.76563,-2.3698 1.5625,-2.39583 1.5625,-6.30208 v -0.54687 q 0,-2.91667 -0.70313,-5.10417 -0.67708,-2.21354 -2.10937,-3.4375 -1.40625,-1.25 -3.56771,-1.25 -1.82292,0 -3.17708,0.83333 -1.32813,0.80729 -2.16146,2.29167 v 12.91667 q 0.83333,1.43229 2.16146,2.21354 1.32812,0.75521 3.22916,0.75521 z"
         style="font-style:normal;font-variant:normal;font-weight:500;font-stretch:normal;font-size:53.33333206px;font-family:'Roboto Slab';-inkscape-font-specification:'Roboto Slab Medium';fill:#bac2de;fill-opacity:0.94117647"
         id="path1325" />
      <path
         inkscape:connector-curvature="0"
         d="m 620.97513,650.98193 v -4.01041 l 3.93229,-0.78125 v -31.01563 l -4.16667,-0.78125 v -4.03646 h 10.70313 v 35.83334 l 3.93229,0.78125 v 4.01041 z"
         style="font-style:normal;font-variant:normal;font-weight:500;font-stretch:normal;font-size:53.33333206px;font-family:'Roboto Slab';-inkscape-font-specification:'Roboto Slab Medium';fill:#bac2de;fill-opacity:0.94117647"
         id="path1327" />
      <path
         inkscape:connector-curvature="0"
         d="m 651.02721,651.52881 q -3.98437,0 -6.95312,-1.77083 -2.94271,-1.79688 -4.58334,-4.94792 -1.61458,-3.15104 -1.61458,-7.21354 v -1.09375 q 0,-4.11459 1.58854,-7.31771 1.61458,-3.22917 4.42708,-5.05208 2.8125,-1.84896 6.40625,-1.84896 3.82813,0 6.40625,1.53646 2.60417,1.53645 3.9323,4.375 1.32812,2.8125 1.32812,6.77083 v 3.75 h -17.29167 l -0.0521,0.13021 q 0.10417,2.21354 0.91146,3.93229 0.83333,1.71875 2.34375,2.70833 1.53646,0.98959 3.72396,0.98959 2.29166,0 4.16666,-0.625 1.875,-0.625 3.46355,-1.77084 l 2.05729,4.11459 q -1.66667,1.40625 -4.24479,2.36979 -2.57813,0.96354 -6.01563,0.96354 z m -6.25,-17.42188 h 10.91146 v -0.67708 q 0,-1.84896 -0.57292,-3.22917 -0.54687,-1.40625 -1.74479,-2.1875 -1.17187,-0.78125 -2.99479,-0.78125 -1.58854,0 -2.78646,0.88542 -1.19792,0.88542 -1.92708,2.42188 -0.70313,1.51041 -0.96354,3.4375 z"
         style="font-style:normal;font-variant:normal;font-weight:500;font-stretch:normal;font-size:53.33333206px;font-family:'Roboto Slab';-inkscape-font-specification:'Roboto Slab Medium';fill:#bac2de;fill-opacity:0.94117647"
         id="path1329" />
    </g>
  </g>
  <style
     id="style838"
     type="text/css">.st0{fill:#0091E2;}</style>
</svg>
