<?xml version="1.0" encoding="UTF-8" standalone="no"?>
<svg
   xmlns:dc="http://purl.org/dc/elements/1.1/"
   xmlns:cc="http://creativecommons.org/ns#"
   xmlns:rdf="http://www.w3.org/1999/02/22-rdf-syntax-ns#"
   xmlns:svg="http://www.w3.org/2000/svg"
   xmlns="http://www.w3.org/2000/svg"
   xmlns:xlink="http://www.w3.org/1999/xlink"
   xmlns:sodipodi="http://sodipodi.sourceforge.net/DTD/sodipodi-0.dtd"
   xmlns:inkscape="http://www.inkscape.org/namespaces/inkscape"
   width="1024"
   height="512"
   viewBox="0 0 1024.0001 512.00002"
   id="svg2"
   version="1.1"
   inkscape:version="0.92.5 (2060ec1f9f, 2020-04-08)"
   sodipodi:docname="kubernetes.svg"
   inkscape:export-filename="/Users/marcelo.felix/default/projects/bandonga/posts/images/sip.png"
   inkscape:export-xdpi="96"
   inkscape:export-ydpi="96">
  <defs
     id="defs4">
    <linearGradient
       inkscape:collect="always"
       id="linearGradient4542">
      <stop
         style="stop-color:#ebedef;stop-opacity:1;"
         offset="0"
         id="stop4538" />
      <stop
         style="stop-color:#ebedef;stop-opacity:0;"
         offset="1"
         id="stop4540" />
    </linearGradient>
    <rect
       x="-53.125"
       y="1432.5497"
       width="862.5"
       height="918.75"
       id="rect1298" />
    <linearGradient
       inkscape:collect="always"
       id="linearGradient5741">
      <stop
         style="stop-color:#313244;stop-opacity:1"
         offset="0"
         id="stop5743" />
      <stop
         style="stop-color:#181825;stop-opacity:0.9964413"
         offset="1"
         id="stop5745" />
    </linearGradient>
    <linearGradient
       inkscape:collect="always"
       xlink:href="#linearGradient5741"
       id="linearGradient5747"
       x1="553.625"
       y1="989.86218"
       x2="491.68762"
       y2="591.42468"
       gradientUnits="userSpaceOnUse"
       gradientTransform="translate(1.0625571,-1.3123785)" />
    <linearGradient
       inkscape:collect="always"
       xlink:href="#linearGradient4542"
       id="linearGradient4544"
       x1="315.5401"
       y1="637.81217"
       x2="707.31489"
       y2="637.81217"
       gradientUnits="userSpaceOnUse" />
  </defs>
  <sodipodi:namedview
     id="base"
     pagecolor="#ffffff"
     bordercolor="#666666"
     borderopacity="1.0"
     inkscape:pageopacity="0.0"
     inkscape:pageshadow="2"
     inkscape:zoom="0.45254834"
     inkscape:cx="393.78041"
     inkscape:cy="315.19872"
     inkscape:document-units="px"
     inkscape:current-layer="layer1"
     showgrid="false"
     units="px"
     inkscape:window-width="1280"
     inkscape:window-height="1410"
     inkscape:window-x="3200"
     inkscape:window-y="0"
     inkscape:window-maximized="0"
     showguides="true"
     inkscape:document-rotation="0" />
  <metadata
     id="metadata7">
    <rdf:RDF>
      <cc:Work
         rdf:about="">
        <dc:format>image/svg+xml</dc:format>
        <dc:type
           rdf:resource="http://purl.org/dc/dcmitype/StillImage" />
        <dc:title />
      </cc:Work>
    </rdf:RDF>
  </metadata>
  <g
     style="display:inline"
     inkscape:label="Layer 1"
     inkscape:groupmode="layer"
     id="layer1"
     transform="translate(0,-540.36216)">
    <rect
       style="opacity:1;fill:url(#linearGradient5747);fill-opacity:1;stroke:none;stroke-width:5;stroke-linecap:round;stroke-linejoin:round;stroke-miterlimit:4;stroke-dasharray:none;stroke-opacity:1"
       id="rect4164-4"
       width="1024.0001"
       height="512.00006"
       x="0"
       y="540.36218" />
    <flowRoot
       xml:space="preserve"
       id="flowRoot4235"
       style="font-style:normal;font-weight:normal;line-height:0.01%;font-family:sans-serif;letter-spacing:0px;word-spacing:0px;fill:#000000;fill-opacity:1;stroke:none;stroke-width:1px;stroke-linecap:butt;stroke-linejoin:miter;stroke-opacity:1"
       transform="matrix(0.99896342,0,0,0.9974429,361.37511,1.381783)"><flowRegion
         id="flowRegion4237"><rect
           id="rect4239"
           width="218.75"
           height="14.0625"
           x="150.78125"
           y="642.96875" /></flowRegion><flowPara
         id="flowPara4241"
         style="font-size:10px;line-height:1.25"> </flowPara></flowRoot>    <g
       id="g939"
       style="stroke:#fab387;stroke-opacity:1"
       transform="matrix(0.16316486,0,0,0.1631657,894.04426,776.11777)"
       inkscape:export-xdpi="96"
       inkscape:export-ydpi="96">
      <path
         transform="matrix(-0.75451103,0,0,-0.54952197,1101.4103,1279.4667)"
         d="m 818.15623,151.40733 c 16.6645,7.97257 6.7161,31.18806 -4.31737,38.90375 -24.4319,17.0852 -56.67701,0.42955 -68.52922,-23.72688 -18.85616,-38.43145 5.72937,-82.950654 43.13639,-98.154695 C 840.46905,47.284808 897.92914,80.282292 916.2262,130.97542 939.86599,196.4709 898.27346,267.1046 834.27078,288.38106 755.35114,314.61636 671.43491,264.34242 647.23966,187.01612 618.35294,94.696166 677.35547,-2.5627125 768.01412,-29.640471 873.721,-61.212808 984.35938,6.5468433 1014.2962,110.5435 1048.5765,229.6291 972.04122,353.67126 854.70269,386.45103 722.24376,423.45485 584.78094,338.13115 549.16969,207.44803 509.4313,61.619488 603.55249,-89.276217 747.5822,-127.71045 c 9.03621,-2.4113 18.19014,-4.38086 27.41802,-5.90175"
         sodipodi:t0="0.042052984"
         sodipodi:argument="-19.817743"
         sodipodi:radius="289.19339"
         sodipodi:revolution="2.8868599"
         sodipodi:expansion="1"
         sodipodi:cy="153.88779"
         sodipodi:cx="806.25043"
         id="path881-7"
         style="fill:none;fill-opacity:1;fill-rule:evenodd;stroke:#fab387;stroke-width:46.5903;stroke-miterlimit:4;stroke-dasharray:none;stroke-opacity:1"
         sodipodi:type="spiral" />
      <text
         transform="scale(1.0067661,0.99327937)"
         id="text3340-3"
         y="1527.2913"
         x="689.02264"
         style="font-style:normal;font-weight:normal;font-size:12.0903px;line-height:0%;font-family:sans-serif;letter-spacing:0px;word-spacing:0px;fill:#000000;fill-opacity:1;stroke:#fab387;stroke-width:30;stroke-linecap:butt;stroke-linejoin:miter;stroke-miterlimit:4;stroke-dasharray:none;stroke-opacity:1"
         xml:space="preserve"><tspan
           style="font-size:39.9579px;line-height:1.25;stroke:#fab387;stroke-width:30;stroke-miterlimit:4;stroke-dasharray:none;stroke-opacity:1"
           y="1527.2913"
           x="689.02264"
           id="tspan3342-6"
           sodipodi:role="line"> </tspan></text>
      <path
         transform="matrix(0.75451103,0,0,0.54952197,1094.7544,1224.2565)"
         d="m -729.37901,420.178 c 15.13108,11.98047 1.37745,33.94081 -11.81227,40.29637 -27.87814,13.43328 -58.40934,-8.38434 -66.9121,-35.17893 -13.30648,-41.93247 18.1631,-83.59679 58.54559,-93.52784 55.69793,-13.69748 109.02445,27.94081 120.14356,81.91225 14.29412,69.3827 -37.71125,134.56094 -105.2789,146.7593 -83.03614,14.99097 -160.1564,-47.47646 -173.37503,-128.64556 -15.74378,-96.67473 57.23825,-185.78748 152.01222,-199.99077 110.30527,-16.53088 211.44174,66.99781 226.6065,175.37888 17.34051,123.93103 -76.75584,237.11196 -198.74554,253.22223 -137.55374,18.1657 -262.7936,-86.51281 -279.83792,-222.11219 -18.395,-146.34425 89.31287,-280.99238 233.03269,-304.67954"
         sodipodi:t0="0.04979825"
         sodipodi:argument="-19.817743"
         sodipodi:radius="289.19339"
         sodipodi:revolution="2.8868599"
         sodipodi:expansion="1"
         sodipodi:cy="421.11218"
         sodipodi:cx="-743.75"
         id="path881"
         style="fill:none;fill-opacity:1;fill-rule:evenodd;stroke:#fab387;stroke-width:46.5903;stroke-miterlimit:4;stroke-dasharray:none;stroke-opacity:1"
         sodipodi:type="spiral" />
      <path
         sodipodi:nodetypes="cc"
         inkscape:connector-curvature="0"
         id="path941"
         d="m 479.46207,1186.0292 68.02455,279.0628"
         style="fill:none;stroke:#fab387;stroke-width:30;stroke-linecap:butt;stroke-linejoin:miter;stroke-miterlimit:4;stroke-dasharray:none;stroke-opacity:1" />
    </g>
    <text
       xml:space="preserve"
       id="text1296"
       style="font-size:26.66669999999999874px;line-height:1.25;font-family:Verdana;-inkscape-font-specification:Verdana;white-space:pre;shape-inside:url(#rect1298);" />
    <path
       inkscape:connector-curvature="0"
       d="m 251.19412,748.96165 c -1.01002,-3.2321 -3.43407,-5.8581 -6.46413,-7.4742 l -61.61126,-29.4926 c -1.61604,-0.808 -3.43407,-1.01 -5.05011,-1.01 -1.61603,0 -3.43407,0 -5.0501,0.404 l -61.61126,29.6946 c -3.03006,1.414 -5.25211,4.0401 -6.06013,7.4742 l -15.150307,66.4593 c -0.60601,3.4341 0.20201,6.8682 2.22205,9.6962 l 42.622867,52.72311 c 2.42405,2.4241 5.85812,4.0401 9.29219,4.2421 h 67.8734 c 3.63607,0.404 7.07014,-1.212 9.29219,-4.2421 l 42.62287,-52.72311 c 2.02004,-2.828 2.82806,-6.2621 2.42405,-9.6962 z"
       id="path10349"
       style="fill:#326de6;stroke-width:2.02004147" />
    <path
       inkscape:connector-curvature="0"
       d="m 241.78742,810.82491 v 0 c -0.202,0 -0.40401,0 -0.40401,-0.202 0,-0.202 -0.40401,-0.202 -0.80802,-0.202 -0.80801,-0.202 -1.61603,-0.202 -2.42404,-0.202 -0.40401,0 -0.80802,0 -1.21203,-0.202 h -0.202 c -2.22205,-0.202 -4.6461,-0.6061 -6.86814,-1.2121 -0.60602,-0.202 -1.21203,-0.808 -1.41403,-1.414 0.202,0 0,0 0,0 v 0 l -1.61604,-0.404 c 0.80802,-5.8581 0.40401,-11.9182 -0.80801,-17.7764 -1.41403,-5.8581 -3.83808,-11.5142 -7.07015,-16.5643 l 1.21203,-1.212 v 0 -0.202 c 0,-0.6061 0.202,-1.4141 0.60601,-1.8181 1.81804,-1.616 3.63607,-2.828 5.65612,-4.0401 v 0 c 0.404,-0.202 0.80801,-0.404 1.21202,-0.606 0.80802,-0.404 1.41403,-0.808 2.22205,-1.212 0.202,-0.202 0.404,-0.202 0.60601,-0.404 0.202,-0.202 0,-0.202 0,-0.404 v 0 c 1.81804,-1.414 2.22204,-3.8381 0.80801,-5.6561 -0.60601,-0.808 -1.81803,-1.4141 -2.82805,-1.4141 -1.01002,0 -2.02004,0.4041 -2.82806,1.0101 v 0 l -0.20201,0.202 c -0.202,0.202 -0.404,0.404 -0.60601,0.404 -0.60601,0.606 -1.21202,1.212 -1.61603,1.818 -0.20201,0.404 -0.60601,0.606 -0.80802,0.808 v 0 c -1.41403,1.6161 -3.23206,3.2321 -5.0501,4.4441 -0.40401,0.202 -0.80802,0.404 -1.21203,0.404 -0.202,0 -0.60601,0 -0.80801,-0.202 h -0.20201 l -1.61603,1.01 c -1.61603,-1.616 -3.43407,-3.232 -5.0501,-4.8481 -7.47416,-5.8581 -16.76635,-9.4941 -26.26054,-10.5042 l -0.20201,-1.616 v 0 0.202 c -0.60601,-0.404 -0.80801,-1.01 -1.01002,-1.616 0,-2.2221 0,-4.4441 0.40401,-6.8682 v -0.202 c 0,-0.404 0.202,-0.808 0.202,-1.212 0.20201,-0.808 0.20201,-1.616 0.40401,-2.424 v -1.2121 0 c 0.20201,-2.02 -1.41403,-4.0401 -3.43407,-4.2421 -1.21202,-0.202 -2.42405,0.404 -3.43407,1.4141 -0.80801,0.808 -1.21202,1.818 -1.21202,2.828 v 0 1.01 c 0,0.8081 0.202,1.6161 0.40401,2.4241 0.202,0.404 0.202,0.808 0.202,1.212 v 0.202 c 0.40401,2.2221 0.40401,4.4441 0.40401,6.8682 -0.20201,0.606 -0.40401,1.212 -1.01002,1.616 v 0.404 0 l -0.20201,1.616 c -2.22204,0.202 -4.44409,0.6061 -6.86814,1.0101 -9.49419,2.02 -18.18037,7.0701 -24.84651,14.1403 l -1.21202,-0.8081 h -0.202 c -0.20201,0 -0.40401,0.202 -0.80802,0.202 -0.40401,0 -0.80802,-0.202 -1.21203,-0.404 -1.81803,-1.414 -3.63607,-3.03 -5.0501,-4.6461 v 0 c -0.202,-0.404 -0.60601,-0.606 -0.80802,-0.808 -0.60601,-0.606 -1.01002,-1.212 -1.61603,-1.818 -0.202,-0.202 -0.40401,-0.202 -0.60601,-0.404 -0.20201,-0.202 -0.20201,-0.202 -0.20201,-0.202 v 0 c -0.80801,-0.606 -1.81803,-1.0101 -2.82805,-1.0101 -1.21203,0 -2.22205,0.4041 -2.82806,1.4141 -1.21203,1.818 -0.80802,4.2421 0.80801,5.6561 v 0 c 0.20201,0 0.20201,0.202 0.20201,0.202 0,0 0.40401,0.404 0.60601,0.404 0.60601,0.404 1.41403,0.808 2.22205,1.212 0.40401,0.202 0.80801,0.404 1.21202,0.606 v 0 c 2.02004,1.2121 4.04008,2.4241 5.65612,4.0401 0.40401,0.404 0.80801,1.212 0.60601,1.8181 v -0.202 0 l 1.21202,1.212 c -0.202,0.404 -0.404,0.606 -0.60601,1.01 -6.26213,9.8982 -8.88818,21.6144 -7.07014,33.1287 l -1.61604,0.404 v 0 c 0,0.202 -0.202,0.202 -0.202,0.202 -0.202,0.606 -0.80802,1.01 -1.41403,1.414 -2.22204,0.606 -4.44409,1.01 -6.86814,1.212 v 0 c -0.40401,0 -0.80802,0 -1.21202,0.2021 -0.80802,0 -1.61604,0.202 -2.42405,0.202 -0.20201,0 -0.40401,0.202 -0.80802,0.202 -0.202,0 -0.202,0 -0.40401,0.202 v 0 c -2.22204,0.404 -3.63607,2.424 -3.23207,4.6461 0,0 0,0 0,0 0.40401,1.818 2.22205,3.03 4.04009,2.828 0.40401,0 0.60601,0 1.01002,-0.202 v 0 c 0.202,0 0.202,0 0.202,-0.202 0,-0.202 0.60601,0 0.80802,0 0.80802,-0.202 1.61603,-0.606 2.22204,-0.808 0.40401,-0.202 0.80802,-0.404 1.21203,-0.404 h 0.202 c 2.22205,-0.808 4.24209,-1.414 6.66614,-1.8181 h 0.202 c 0.60602,0 1.21203,0.2021 1.61604,0.6061 0.202,0 0.202,0.202 0.202,0.202 v 0 l 1.81804,-0.202 c 3.03006,9.2922 8.68618,17.5743 16.56434,23.6344 1.81804,1.4141 3.43407,2.6261 5.45411,3.6361 l -1.01002,1.414 v 0 c 0,0.2021 0.202,0.2021 0.202,0.2021 0.40401,0.606 0.40401,1.414 0.20201,2.02 -0.80802,2.02 -2.02004,4.0401 -3.23207,5.8581 v 0.202 c -0.202,0.404 -0.40401,0.606 -0.80802,1.01 -0.404,0.404 -0.80801,1.2121 -1.41402,2.0201 -0.20201,0.202 -0.20201,0.404 -0.40401,0.606 0,0 0,0.202 -0.20201,0.202 v 0 c -1.01002,2.02 -0.202,4.4441 1.61604,5.4541 0.404,0.202 1.01002,0.404 1.41403,0.404 1.61603,0 3.03006,-1.01 3.83807,-2.424 v 0 c 0,0 0,-0.202 0.20201,-0.202 0,-0.202 0.202,-0.404 0.40401,-0.606 0.202,-0.8081 0.60601,-1.4141 0.80801,-2.2221 l 0.40401,-1.212 v 0 c 0.60601,-2.2221 1.61603,-4.2421 2.62606,-6.2621 0.404,-0.6061 1.01002,-1.0101 1.61603,-1.2121 0.202,0 0.202,0 0.202,-0.202 v 0 l 0.80802,-1.616 c 5.65612,2.222 11.51424,3.2321 17.57436,3.2321 3.63607,0 7.27215,-0.4041 10.90822,-1.4141 2.22205,-0.404 4.44409,-1.212 6.46414,-1.818 l 0.80801,1.414 v 0 c 0.20201,0 0.20201,0 0.20201,0.202 0.60601,0.202 1.21202,0.606 1.61603,1.212 1.01002,2.0201 2.02004,4.0401 2.62605,6.2622 v 0.202 l 0.40401,1.212 c 0.20201,0.808 0.40401,1.616 0.80802,2.2221 0.202,0.202 0.202,0.404 0.40401,0.606 0,0 0,0.202 0.202,0.202 v 0 c 0.80802,1.414 2.22205,2.424 3.83808,2.424 0.60601,0 1.01002,-0.202 1.61603,-0.404 0.80802,-0.404 1.61604,-1.212 1.81804,-2.222 0.202,-1.0101 0.202,-2.0201 -0.202,-3.0301 v 0 c 0,-0.202 -0.20201,-0.202 -0.20201,-0.202 0,-0.202 -0.202,-0.404 -0.40401,-0.606 -0.40401,-0.808 -0.80801,-1.414 -1.41403,-2.0201 -0.202,-0.404 -0.404,-0.606 -0.80801,-1.01 v -0.404 c -1.41403,-1.818 -2.42405,-3.8381 -3.23207,-5.8581 -0.202,-0.606 -0.202,-1.414 0.20201,-2.02 0,-0.2021 0.202,-0.2021 0.202,-0.2021 v 0 l -0.60601,-1.616 c 10.30221,-6.2621 18.18037,-15.9583 21.81644,-27.4725 l 1.61604,0.202 v 0 c 0.202,0 0.202,-0.202 0.202,-0.202 0.40401,-0.4041 1.01002,-0.6061 1.61603,-0.6061 h 0.20201 c 2.22204,0.404 4.44409,1.0101 6.46413,1.8181 h 0.20201 c 0.404,0.202 0.80801,0.404 1.21202,0.404 0.80802,0.404 1.41403,0.808 2.22205,1.01 0.202,0 0.404,0.202 0.80801,0.202 0.20201,0 0.20201,0 0.40401,0.202 v 0 c 0.40401,0.202 0.60601,0.202 1.01002,0.202 1.81804,0 3.43407,-1.212 4.04008,-2.828 -0.202,-2.2221 -1.81803,-3.8381 -3.63607,-4.2421 z m -58.3792,-6.2622 -5.45411,2.6261 -5.45411,-2.6261 -1.41403,-5.8581 3.83808,-4.8481 h 6.06012 l 3.83808,4.8481 z m 32.92668,-13.1302 c 1.01002,4.2421 1.21202,8.4842 0.80801,12.7262 l -19.19039,-5.4541 v 0 c -1.81804,-0.404 -2.82806,-2.222 -2.42405,-4.0401 0.20201,-0.606 0.40401,-1.01 0.80802,-1.414 l 15.15031,-13.7363 c 2.22204,3.6361 3.83808,7.6762 4.8481,11.9183 z m -10.90823,-19.3924 -16.56434,11.7162 c -1.41403,0.808 -3.43407,0.606 -4.44409,-0.808 -0.40401,-0.404 -0.60601,-0.808 -0.60601,-1.414 l -1.21202,-20.4024 c 8.88818,1.01 16.76634,4.8481 22.82646,10.9082 z m -36.56275,-10.3022 4.04009,-0.808 -1.01002,20.2004 v 0 c 0,1.818 -1.61604,3.232 -3.43407,3.232 -0.60602,0 -1.01002,-0.202 -1.61604,-0.404 l -16.76634,-11.9182 c 5.25211,-5.0501 11.71624,-8.6862 18.78638,-10.3022 z m -24.6445,17.7763 14.94831,13.3323 v 0 c 1.41402,1.212 1.61603,3.2321 0.404,4.6461 -0.404,0.606 -0.80801,0.808 -1.61603,1.01 l -19.5944,5.6561 c -0.60601,-8.4841 1.41403,-17.1703 5.85812,-24.6445 z m -3.43407,34.1387 19.99841,-3.434 c 1.61603,0 3.23207,1.01 3.43407,2.626 0.202,0.606 0.202,1.414 -0.202,2.0201 v 0 l -7.67616,18.5843 c -7.07015,-4.6461 -12.72626,-11.7162 -15.55432,-19.7964 z m 45.85494,25.0485 c -2.82806,0.6061 -5.65612,1.0101 -8.68618,1.0101 -4.24209,0 -8.68618,-0.8081 -12.72626,-2.0201 l 9.8982,-17.9783 c 1.01002,-1.2121 2.62606,-1.6161 4.04008,-0.8081 0.60602,0.404 1.01003,0.8081 1.61604,1.4141 v 0 l 9.6962,17.5743 c -1.21203,0.202 -2.42405,0.404 -3.83808,0.808 z m 24.6445,-17.5743 c -3.03006,4.8481 -7.27214,9.0902 -12.12024,12.1202 l -7.87817,-18.9884 c -0.404,-1.616 0.40401,-3.232 1.81804,-3.838 0.60601,-0.202 1.21203,-0.404 1.81804,-0.404 l 20.20041,3.434 c -1.01002,2.8281 -2.22204,5.4541 -3.83808,7.6762 z"
       id="path10351"
       style="fill:#ffffff;stroke-width:2.02004147" />
    <path
       inkscape:connector-curvature="0"
       d="m 903.36061,827.11879 c 2.18677,0.15619 4.52977,-0.15619 6.56035,-0.93718 1.24959,-0.62485 2.03059,-2.03062 1.87438,-3.43638 -0.15618,-1.56204 -1.09339,-2.9678 -2.49918,-3.43639 -2.34299,-1.40584 -4.99837,-2.65541 -7.65375,-3.43639 -2.65539,-0.93717 -4.99838,-2.03063 -7.18516,-3.12399 -2.03058,-0.93717 -3.74878,-2.18683 -5.46696,-3.74878 -1.562,-1.56196 -2.65539,-3.2802 -3.43638,-5.31074 -0.93721,-2.34302 -1.2496,-4.84223 -1.2496,-7.34137 -0.15621,-5.15462 2.18678,-10.15296 6.24796,-13.27695 4.21737,-3.2802 9.84055,-4.84216 17.02571,-4.84216 3.43637,0 7.02896,0.31239 10.46534,1.09338 2.65534,0.46858 5.31075,1.09336 7.96616,2.03061 l -2.9678,13.27689 c -2.18674,-0.78098 -4.21736,-1.24957 -6.40415,-1.87435 -2.4992,-0.62478 -5.15458,-0.78098 -7.65376,-0.78098 -5.31076,0 -7.96616,1.40576 -7.96616,4.37356 0,0.62479 0.1562,1.24957 0.3124,1.87436 0.3124,0.62478 0.78099,1.09336 1.40579,1.56204 0.62481,0.46858 1.56199,0.93717 2.65539,1.56195 1.09339,0.62479 2.65538,1.24957 4.52977,1.87435 3.12398,1.09346 6.24797,2.49921 9.05954,4.06125 2.18683,1.09337 4.06118,2.49914 5.62322,4.37356 1.40576,1.40578 2.34294,3.124 2.96772,5.15456 0.62479,2.18681 0.93725,4.37355 0.93725,6.56037 0.31239,5.31074 -2.18682,10.46536 -6.71658,13.43308 -4.37358,2.96779 -10.62156,4.52983 -18.7439,4.52983 -4.52979,0.15621 -8.90336,-0.31238 -13.27693,-1.40583 -2.49919,-0.62479 -4.84218,-1.40577 -7.18516,-2.18674 l 2.81158,-13.74556 c 2.8116,1.09337 5.77936,2.03062 8.74715,2.65541 3.12399,0.15619 6.09176,0.46859 9.21576,0.46859 m -86.06572,-17.18194 c -0.15621,-4.68595 0.78099,-9.3719 2.34299,-13.74547 1.40579,-3.74878 3.59257,-7.02897 6.40415,-9.99677 2.65539,-2.65541 5.62318,-4.68595 9.05956,-5.9356 3.43638,-1.40576 7.02895,-2.03055 10.62153,-2.03055 8.43476,0 15.15132,2.65541 19.99349,7.80995 4.84218,5.15454 7.34136,12.8083 7.34136,22.80506 0,0.93719 0,2.03063 -0.15621,3.2802 0,1.24957 -0.15619,2.18674 -0.15619,3.124 h -38.11258 c 0.31239,3.28019 2.03058,6.40411 4.84217,8.27854 3.43638,2.18674 7.49756,3.28018 11.55873,3.12399 2.96779,0 6.09177,-0.31239 9.05955,-0.78106 2.49918,-0.46858 4.99838,-1.24957 7.34136,-2.34293 l 2.34298,13.74555 c -1.09339,0.62478 -2.34298,0.93717 -3.59257,1.40576 -1.71819,0.46858 -3.43638,0.93718 -5.15457,1.09336 -1.87439,0.3124 -3.74878,0.62479 -5.93557,0.93719 -2.03059,0.15619 -4.21738,0.31247 -6.40416,0.31247 -4.84218,0.15619 -9.52815,-0.62487 -14.05792,-2.34302 -3.74878,-1.40576 -7.02896,-3.59258 -9.84054,-6.40418 -2.65539,-2.81161 -4.52979,-6.24793 -5.77937,-9.8405 -1.09339,-4.21745 -1.71819,-8.43481 -1.71819,-12.49599 m 39.51837,-6.4041 c 0,-1.40585 -0.3124,-2.81161 -0.781,-4.21746 -0.31239,-1.40575 -1.09339,-2.49912 -1.87438,-3.5925 -0.9372,-1.09345 -2.03059,-2.03063 -3.28019,-2.65541 -1.56199,-0.78097 -3.12398,-1.09337 -4.84217,-1.09337 -1.71819,0 -3.28018,0.3124 -4.84217,1.09337 -1.24959,0.62478 -2.49919,1.40577 -3.43638,2.49914 -0.93719,1.09345 -1.71819,2.34302 -2.18679,3.74877 -0.46859,1.40585 -0.78099,2.81161 -0.93719,4.21746 h 22.18027 m -85.28472,-38.73744 16.86951,-2.65533 v 17.49424 h 20.30589 v 14.05794 h -20.30589 v 20.93072 c -0.1562,2.96772 0.46858,5.93553 1.87439,8.43474 1.24958,2.03054 3.74878,3.12399 7.65375,3.12399 1.8744,0 3.74879,-0.1562 5.46698,-0.46866 1.87439,-0.31239 3.59258,-0.78098 5.31077,-1.40576 l 2.34299,13.12076 c -2.1868,0.93718 -4.52978,1.56197 -6.87277,2.18675 -2.96778,0.62478 -6.09176,0.93717 -9.21576,0.93717 -3.90496,0.1562 -7.80994,-0.46859 -11.40253,-1.87435 -2.81157,-1.09337 -5.31077,-2.9678 -7.18516,-5.15453 -1.87439,-2.34303 -3.12397,-5.15464 -3.90496,-8.12243 -0.78101,-3.43639 -1.0934,-7.02889 -0.93721,-10.46528 v -50.13997 m -68.25901,45.14154 c -0.15621,-4.68595 0.78099,-9.3719 2.34299,-13.74547 1.40579,-3.74878 3.59257,-7.02897 6.40416,-9.99677 2.65538,-2.65541 5.62317,-4.68595 9.05955,-5.9356 3.43638,-1.40576 7.02896,-2.03055 10.62153,-2.03055 8.43476,0 15.15131,2.65541 19.99349,7.80995 4.84218,5.15454 7.34136,12.8083 7.34136,22.80506 0,0.93719 0,2.03063 -0.15619,3.2802 -0.15621,1.24957 -0.15621,2.18674 -0.15621,3.124 h -38.26878 c 0.3124,3.28019 2.03059,6.40411 4.84217,8.27854 3.43638,2.18674 7.49756,3.28018 11.55873,3.12399 2.96779,0 6.09178,-0.31239 9.05956,-0.78106 2.49918,-0.46858 4.99838,-1.24957 7.49755,-2.34293 l 2.34298,13.74555 c -1.09337,0.62478 -2.34298,0.93717 -3.59257,1.40576 -1.71819,0.46858 -3.43638,0.93718 -5.15457,1.09336 -1.8744,0.3124 -3.74878,0.62479 -5.93557,0.93719 -2.03058,0.15619 -4.21738,0.31247 -6.40416,0.31247 -4.84217,0.15619 -9.52815,-0.62487 -14.05792,-2.34302 -3.74878,-1.40576 -7.02896,-3.59258 -9.84054,-6.40418 -2.65539,-2.81161 -4.52978,-6.24793 -5.77937,-9.8405 -1.2496,-4.21745 -1.8744,-8.43481 -1.71819,-12.49599 m 39.51838,-6.4041 c 0,-1.40585 -0.3124,-2.81161 -0.78101,-4.21746 -0.3124,-1.40575 -1.09339,-2.49912 -1.87438,-3.5925 -0.9372,-1.09345 -2.03059,-2.03063 -3.28019,-2.65541 -1.56198,-0.78097 -3.12398,-1.09337 -4.84217,-1.09337 -1.71819,0 -3.28018,0.3124 -4.84217,1.09337 -1.24959,0.62478 -2.34299,1.40577 -3.28018,2.49914 -0.9372,1.09345 -1.71819,2.34302 -2.18679,3.74877 -0.4686,1.40585 -0.78099,2.81161 -0.93719,4.21746 h 22.02408 M 639.2279,781.66484 c 3.59256,-0.93717 7.34134,-1.71822 11.09013,-2.343 4.68596,-0.78099 9.52814,-1.09338 14.21412,-1.09338 4.21738,-0.15619 8.43475,0.62479 12.49593,2.03055 3.12398,1.09344 5.93557,2.9678 7.96615,5.46701 2.03059,2.49921 3.43639,5.46693 4.21738,8.59092 0.9372,3.5926 1.24959,7.34138 1.24959,11.09015 v 33.58283 h -16.7133 v -31.396 c 0,-5.46702 -0.781,-9.2158 -2.1868,-11.55873 -1.40578,-2.18683 -4.06117,-3.4364 -7.96615,-3.4364 -1.24959,0 -2.49918,0 -3.90498,0.1562 -1.4058,0 -2.49919,0.1562 -3.59258,0.31239 v 45.92254 H 639.2279 v -57.32508 m -11.87115,12.9645 c -1.56199,-0.3124 -3.28018,-0.78098 -5.31077,-1.09336 -2.18678,-0.4686 -4.37358,-0.62479 -6.56036,-0.62479 -1.2496,0 -2.49919,0.15619 -3.90498,0.31239 -1.0934,0.15619 -2.18678,0.3124 -3.28018,0.62478 v 45.45394 h -16.86951 v -56.54407 c 3.43638,-1.24957 7.02896,-2.18682 10.62155,-2.96781 4.52977,-1.09337 9.21576,-1.56196 13.74553,-1.40576 1.09338,0 2.18677,0.15619 3.28016,0.15619 1.24961,0 2.4992,0.1562 3.905,0.4686 1.24957,0.15618 2.49917,0.31239 3.90496,0.62477 1.09339,0.1562 2.1868,0.4686 3.28019,0.93719 l -2.81159,14.05793 m -104.80961,15.30751 c -0.15619,-4.68595 0.78099,-9.3719 2.343,-13.74547 1.40578,-3.74878 3.59257,-7.02897 6.40416,-9.99677 2.65538,-2.65541 5.62316,-4.68595 9.05955,-5.9356 3.43638,-1.40576 7.02896,-2.03055 10.62154,-2.03055 8.43475,0 15.15131,2.65541 19.99349,7.80995 4.84217,5.15454 7.34135,12.8083 7.34135,22.64888 0,0.93717 0,2.03054 -0.1562,3.28019 -0.1562,1.24956 -0.1562,2.18674 -0.1562,3.12399 h -38.26878 c 0.3124,3.2802 2.03059,6.40411 4.84217,8.27854 3.43638,2.18675 7.49756,3.28019 11.55874,3.124 2.96778,0 6.09176,-0.3124 9.05955,-0.78106 2.49918,-0.46859 4.99836,-1.24956 7.34135,-2.18674 l 2.34299,13.74555 c -1.09339,0.62478 -2.34299,0.93717 -3.59258,1.40576 -1.71819,0.46858 -3.43638,0.93718 -5.15457,1.09336 -1.87439,0.3124 -3.74878,0.62479 -5.93557,0.93719 -2.03059,0.15619 -4.21737,0.31247 -6.40416,0.31247 -4.84217,0.15619 -9.52815,-0.62487 -14.05792,-2.34302 -3.74878,-1.40576 -7.02897,-3.59258 -9.84055,-6.40418 -2.65537,-2.81161 -4.52977,-6.24793 -5.77936,-9.8405 -0.93719,-4.21745 -1.562,-8.27862 -1.562,-12.49599 m 39.67458,-6.4041 c 0,-1.40585 -0.3124,-2.81161 -0.78099,-4.21746 -0.3124,-1.40575 -1.0934,-2.49912 -1.87439,-3.5925 -0.9372,-1.09345 -2.03059,-2.03063 -3.28018,-2.65541 -1.562,-0.78097 -3.12399,-1.09337 -4.84218,-1.09337 -1.71819,0 -3.28018,0.3124 -4.84217,1.09337 -1.24959,0.62478 -2.49918,1.40577 -3.43638,2.49914 -0.9372,1.09345 -1.7182,2.34302 -2.18679,3.74877 -0.4686,1.40585 -0.78099,2.81161 -0.93719,4.21746 h 22.18027 m -67.00942,5.46693 c 0,-10.93396 -4.06118,-16.24469 -12.02734,-16.24469 -1.71819,0 -3.43638,0.1562 -5.15457,0.62478 -1.40579,0.31239 -2.81158,0.93717 -4.06118,1.71816 v 30.61502 c 0.781,0.15619 1.87439,0.31246 3.12399,0.46866 1.24959,0.1562 2.65538,0.1562 4.21737,0.1562 4.06118,0.31239 7.96615,-1.40584 10.46535,-4.68603 2.34298,-3.74878 3.59257,-8.12234 3.43638,-12.6521 m 17.1819,0.62478 c 0,4.37357 -0.62479,8.74721 -2.18678,12.96457 -1.2496,3.74878 -3.28019,7.02889 -5.93558,9.8405 -2.81158,2.81161 -6.09175,4.99842 -9.68434,6.40418 -4.21738,1.56196 -8.59095,2.18683 -13.12073,2.18683 -2.03059,0 -4.21737,-0.15628 -6.40415,-0.31247 -2.1868,-0.1562 -4.37359,-0.46859 -6.56037,-0.62479 -2.03059,-0.3124 -4.06118,-0.62478 -6.09177,-1.09336 -2.03059,-0.3124 -3.74877,-0.78099 -5.15457,-1.40577 v -83.56659 l 16.8695,-2.65535 v 29.67786 c 1.87439,-0.78106 3.90498,-1.40585 5.93557,-1.87444 2.1868,-0.46858 4.37357,-0.62478 6.56037,-0.62478 3.90497,0 7.65375,0.62478 11.24632,2.34302 3.12399,1.40576 5.93559,3.59258 8.12236,6.24792 2.343,2.96779 4.06118,6.24798 4.99838,9.84057 0.93719,3.90497 1.40579,8.27854 1.40579,12.6521 m -71.22679,27.49102 c -3.59259,0.93725 -7.34137,1.71823 -11.09014,2.18682 -4.68598,0.78098 -9.52815,1.09337 -14.21412,1.09337 -4.37358,0.1562 -8.59096,-0.62479 -12.65213,-2.03054 -3.12399,-1.24965 -5.77936,-3.12399 -7.96616,-5.62321 -2.03059,-2.65533 -3.43638,-5.62313 -4.21737,-8.90332 -0.93721,-3.59258 -1.2496,-7.49757 -1.2496,-11.24635 v -32.95803 h 16.86951 v 31.08361 c 0,5.46702 0.781,9.37199 2.18679,11.71501 1.40579,2.34294 4.06118,3.59257 7.96615,3.59257 1.2496,0 2.49919,0 3.90498,-0.15627 1.40579,-0.15619 2.49919,-0.15619 3.59258,-0.46858 v -45.76634 h 16.86951 v 57.48126 m -98.40546,-35.92576 c 1.71819,-1.87443 3.28019,-3.74878 5.15459,-5.6232 1.71817,-2.03054 3.43638,-3.90498 5.15456,-5.77932 1.71819,-2.03063 3.28017,-3.74879 4.68598,-5.46701 1.40578,-1.71817 2.81157,-3.28012 3.90497,-4.52977 h 19.99349 c -4.06119,4.52977 -7.96615,9.05959 -11.71494,13.27696 -3.90497,4.21738 -7.96614,8.59094 -12.49593,12.9645 2.49919,2.34301 4.84219,4.68595 7.02896,7.34136 2.343,2.81161 4.68599,5.62321 7.02896,8.74721 2.1868,2.96771 4.37359,6.09172 6.24798,9.05951 1.87438,2.9678 3.43637,5.77933 4.68597,8.27854 h -19.36869 c -1.24961,-2.03055 -2.65539,-4.06117 -4.21739,-6.40419 -1.56199,-2.34293 -3.28018,-4.68596 -4.84216,-7.18517 -1.7182,-2.34293 -3.59259,-4.68595 -5.62318,-6.87269 -1.71819,-2.03063 -3.59258,-3.90498 -5.62317,-5.46701 v 26.08526 h -16.8695 v -85.59714 l 16.8695,-2.65535 v 49.82751"
       id="path3003"
       style="fill:#bac2de;fill-opacity:0.94117647;stroke-width:1.56199133" />
    <g
       transform="translate(-8.9648437e-6)"
       aria-label="By Example"
       style="font-style:normal;font-variant:normal;font-weight:normal;font-stretch:normal;font-size:13.33333302px;line-height:1.25;font-family:Georgia;-inkscape-font-specification:Georgia;letter-spacing:0px;word-spacing:0px;fill:#bac2de;fill-opacity:0.94117647;stroke:none"
       id="text1325-4">
      <path
         inkscape:connector-curvature="0"
         d="m 362.03543,650.98193 v -4.01041 l 4.14063,-0.78125 v -28.30729 l -4.14063,-0.78125 v -4.03646 h 4.14063 12.5 q 6.3802,0 9.94791,2.60416 3.59375,2.57813 3.59375,7.73438 0,2.57812 -1.48437,4.63542 -1.48438,2.03125 -4.11459,3.02083 2.29167,0.49479 3.85417,1.79687 1.5625,1.30209 2.36979,3.17709 0.83334,1.84896 0.83334,4.0625 0,5.33854 -3.51563,8.125 -3.48958,2.76041 -9.73958,2.76041 z m 10.70313,-5.05208 h 7.68229 q 3.22916,0 4.94791,-1.48437 1.7448,-1.51042 1.7448,-4.34896 0,-2.00521 -0.65105,-3.41146 -0.65104,-1.40625 -1.97916,-2.16146 -1.32813,-0.75521 -3.41146,-0.75521 h -8.33333 z m 0,-16.875 h 6.66666 q 2.91667,0 4.58334,-1.40625 1.66666,-1.40625 1.66666,-3.93229 0,-2.83854 -1.77083,-4.19271 -1.77083,-1.38021 -5.20833,-1.38021 h -5.9375 z"
         style="font-style:normal;font-variant:normal;font-weight:500;font-stretch:normal;font-size:53.33333206px;font-family:'Roboto Slab';-inkscape-font-specification:'Roboto Slab Medium';fill:#bac2de;fill-opacity:0.94117647"
         id="path1313" />
      <path
         inkscape:connector-curvature="0"
         d="m 403.93647,662.36214 q -0.80729,0 -1.875,-0.15625 -1.04166,-0.15625 -1.82291,-0.39062 l 0.72916,-4.92188 q 0.46875,0.0781 1.11979,0.13021 0.67709,0.0521 1.06771,0.0521 1.64063,0 2.76042,-1.04166 1.11979,-1.01563 1.82292,-2.83854 l 0.85937,-2.26563 -9.63542,-23.61979 -3.28125,-0.46875 v -4.03646 h 13.64584 v 4.03646 l -3.46354,0.52083 4.89583,13.125 0.85937,2.44792 h 0.15625 l 5.78125,-15.59896 -3.46354,-0.49479 v -4.03646 h 12.94271 v 4.03646 l -3.04687,0.44271 -10.91146,27.94271 q -0.78125,1.97916 -1.95313,3.59375 -1.14583,1.64062 -2.91666,2.57812 -1.7448,0.96354 -4.27084,0.96354 z"
         style="font-style:normal;font-variant:normal;font-weight:500;font-stretch:normal;font-size:53.33333206px;font-family:'Roboto Slab';-inkscape-font-specification:'Roboto Slab Medium';fill:#bac2de;fill-opacity:0.94117647"
         id="path1315" />
      <path
         inkscape:connector-curvature="0"
         d="m 442.40001,650.98193 v -4.01041 l 4.14062,-0.78125 v -28.30729 l -4.14062,-0.78125 v -4.03646 h 28.88021 v 9.76562 h -5.10417 l -0.44271,-4.71354 h -12.63021 v 10.72917 h 13.3073 v 5.07812 h -13.3073 v 12.05729 h 13.33334 l 0.44271,-4.8177 h 5.05208 v 9.8177 z"
         style="font-style:normal;font-variant:normal;font-weight:500;font-stretch:normal;font-size:53.33333206px;font-family:'Roboto Slab';-inkscape-font-specification:'Roboto Slab Medium';fill:#bac2de;fill-opacity:0.94117647"
         id="path1317" />
      <path
         inkscape:connector-curvature="0"
         d="m 475.62918,650.98193 v -4.01041 l 3.41146,-0.52084 8.20312,-9.63541 -7.86458,-9.45313 -3.15104,-0.52083 v -4.03646 h 12.73437 v 3.93229 l -2.44792,0.3125 4.79167,6.14584 4.73958,-6.14584 -2.68229,-0.3125 v -3.93229 h 12.36979 v 4.03646 l -3.02083,0.52083 -7.39583,9.24479 8.35937,9.84375 3.22917,0.52084 v 4.01041 h -13.41146 v -3.90625 l 2.83854,-0.3125 -5.10416,-6.27604 -4.97396,6.30209 2.65625,0.28645 v 3.90625 z"
         style="font-style:normal;font-variant:normal;font-weight:500;font-stretch:normal;font-size:53.33333206px;font-family:'Roboto Slab';-inkscape-font-specification:'Roboto Slab Medium';fill:#bac2de;fill-opacity:0.94117647"
         id="path1319" />
      <path
         inkscape:connector-curvature="0"
         d="m 518.85834,651.52881 q -4.29687,0 -6.69271,-2.21354 -2.39583,-2.21354 -2.39583,-6.09375 0,-2.65625 1.45833,-4.66146 1.45834,-2.00521 4.27084,-3.125 2.8125,-1.14583 6.82291,-1.14583 h 4.29688 v -2.3698 q 0,-2.23958 -1.35417,-3.5677 -1.32812,-1.32813 -3.88021,-1.32813 -1.45833,0 -2.57812,0.36458 -1.11979,0.33855 -2.00521,0.98959 l -0.59896,3.80208 h -4.81771 l -0.0521,-6.95312 q 2.08333,-1.35417 4.63542,-2.13542 2.55208,-0.80729 5.67708,-0.80729 5.36458,0 8.4375,2.52604 3.09896,2.5 3.09896,7.1875 v 12.42187 q 0,0.57292 0,1.1198 0.026,0.54687 0.0781,1.0677 l 2.86459,0.36459 v 4.01041 h -8.56771 q -0.26042,-0.91145 -0.49479,-1.77083 -0.20834,-0.85937 -0.3125,-1.71875 -1.40625,1.77083 -3.41146,2.91667 -1.97917,1.11979 -4.47917,1.11979 z m 1.48438,-5.07813 q 1.97916,0 3.69791,-0.91145 1.71875,-0.9375 2.57813,-2.34375 v -4.71355 h -4.375 q -2.94271,0 -4.45313,1.38021 -1.48437,1.35417 -1.48437,3.17709 0,1.64062 1.04167,2.52604 1.04166,0.88541 2.99479,0.88541 z"
         style="font-style:normal;font-variant:normal;font-weight:500;font-stretch:normal;font-size:53.33333206px;font-family:'Roboto Slab';-inkscape-font-specification:'Roboto Slab Medium';fill:#bac2de;fill-opacity:0.94117647"
         id="path1321" />
      <path
         inkscape:connector-curvature="0"
         d="m 539.17085,650.98193 v -4.01041 l 3.93229,-0.78125 v -18.56771 l -4.14063,-0.78125 v -4.03646 h 10.15625 l 0.3125,3.69792 q 1.38021,-2.00521 3.4375,-3.09896 2.08334,-1.11979 4.81771,-1.11979 2.76042,0 4.71354,1.25 1.97917,1.22396 2.9948,3.72396 1.30208,-2.31771 3.41145,-3.64584 2.13542,-1.32812 5,-1.32812 4.24479,0 6.66667,2.89062 2.44792,2.89063 2.44792,8.75 v 12.26563 l 3.93229,0.78125 v 4.01041 h -14.19271 v -4.01041 l 3.69792,-0.78125 V 633.8986 q 0,-3.56771 -1.19792,-5 -1.19792,-1.43229 -3.51562,-1.43229 -2.16146,0 -3.56771,1.38021 -1.38021,1.38021 -1.79688,3.51562 v 13.82813 l 3.56771,0.78125 v 4.01041 h -13.67187 v -4.01041 l 3.5677,-0.78125 V 633.8986 q 0,-3.4375 -1.22395,-4.92187 -1.22396,-1.51042 -3.54167,-1.51042 -1.92708,0 -3.25521,0.78125 -1.30208,0.78125 -2.08333,2.21354 v 15.72917 l 3.67187,0.78125 v 4.01041 z"
         style="font-style:normal;font-variant:normal;font-weight:500;font-stretch:normal;font-size:53.33333206px;font-family:'Roboto Slab';-inkscape-font-specification:'Roboto Slab Medium';fill:#bac2de;fill-opacity:0.94117647"
         id="path1323" />
      <path
         inkscape:connector-curvature="0"
         d="m 589.48334,661.81527 v -4.03646 l 3.80208,-0.78125 v -29.375 l -4.14062,-0.78125 v -4.03646 h 10.02604 l 0.41666,3.33333 q 1.30209,-1.84895 3.17709,-2.83854 1.875,-1.01562 4.42708,-1.01562 3.4375,0 5.88542,1.875 2.44791,1.875 3.72396,5.23437 1.30208,3.35938 1.30208,7.86459 v 0.54687 q 0,4.11458 -1.30208,7.21354 -1.30209,3.07292 -3.75,4.79167 -2.42188,1.71875 -5.85938,1.71875 -2.42187,0 -4.24479,-0.83333 -1.82292,-0.85938 -3.125,-2.5 v 8.80208 l 4.01042,0.78125 v 4.03646 z m 15.72916,-15.33854 q 3.22917,0 4.76563,-2.3698 1.5625,-2.39583 1.5625,-6.30208 v -0.54687 q 0,-2.91667 -0.70313,-5.10417 -0.67708,-2.21354 -2.10937,-3.4375 -1.40625,-1.25 -3.56771,-1.25 -1.82292,0 -3.17708,0.83333 -1.32813,0.80729 -2.16146,2.29167 v 12.91667 q 0.83333,1.43229 2.16146,2.21354 1.32812,0.75521 3.22916,0.75521 z"
         style="font-style:normal;font-variant:normal;font-weight:500;font-stretch:normal;font-size:53.33333206px;font-family:'Roboto Slab';-inkscape-font-specification:'Roboto Slab Medium';fill:#bac2de;fill-opacity:0.94117647"
         id="path1325" />
      <path
         inkscape:connector-curvature="0"
         d="m 620.97513,650.98193 v -4.01041 l 3.93229,-0.78125 v -31.01563 l -4.16667,-0.78125 v -4.03646 h 10.70313 v 35.83334 l 3.93229,0.78125 v 4.01041 z"
         style="font-style:normal;font-variant:normal;font-weight:500;font-stretch:normal;font-size:53.33333206px;font-family:'Roboto Slab';-inkscape-font-specification:'Roboto Slab Medium';fill:#bac2de;fill-opacity:0.94117647"
         id="path1327" />
      <path
         inkscape:connector-curvature="0"
         d="m 651.02721,651.52881 q -3.98437,0 -6.95312,-1.77083 -2.94271,-1.79688 -4.58334,-4.94792 -1.61458,-3.15104 -1.61458,-7.21354 v -1.09375 q 0,-4.11459 1.58854,-7.31771 1.61458,-3.22917 4.42708,-5.05208 2.8125,-1.84896 6.40625,-1.84896 3.82813,0 6.40625,1.53646 2.60417,1.53645 3.9323,4.375 1.32812,2.8125 1.32812,6.77083 v 3.75 h -17.29167 l -0.0521,0.13021 q 0.10417,2.21354 0.91146,3.93229 0.83333,1.71875 2.34375,2.70833 1.53646,0.98959 3.72396,0.98959 2.29166,0 4.16666,-0.625 1.875,-0.625 3.46355,-1.77084 l 2.05729,4.11459 q -1.66667,1.40625 -4.24479,2.36979 -2.57813,0.96354 -6.01563,0.96354 z m -6.25,-17.42188 h 10.91146 v -0.67708 q 0,-1.84896 -0.57292,-3.22917 -0.54687,-1.40625 -1.74479,-2.1875 -1.17187,-0.78125 -2.99479,-0.78125 -1.58854,0 -2.78646,0.88542 -1.19792,0.88542 -1.92708,2.42188 -0.70313,1.51041 -0.96354,3.4375 z"
         style="font-style:normal;font-variant:normal;font-weight:500;font-stretch:normal;font-size:53.33333206px;font-family:'Roboto Slab';-inkscape-font-specification:'Roboto Slab Medium';fill:#bac2de;fill-opacity:0.94117647"
         id="path1329" />
    </g>
  </g>
  <style
     id="style838"
     type="text/css">.st0{fill:#0091E2;}</style>
</svg>
