<svg version="1.1" xmlns="http://www.w3.org/2000/svg" viewBox="0 0 645.6145553588865 289.68136271685364" width="645.6145553588865" height="289.68136271685364" filter="invert(93%) hue-rotate(180deg)">
  <!-- svg-source:excalidraw -->

  <defs>
    <style class="style-fonts">
      @font-face {
        font-family: "Virgil";
        src: url("https://excalidraw.com/Virgil.woff2");
      }
      @font-face {
        font-family: "Cascadia";
        src: url("https://excalidraw.com/Cascadia.woff2");
      }
    </style>
  </defs>
  <g stroke-linecap="round"><g transform="translate(14.999999999999773 43.145812527835375) rotate(0 -0.21719241256823807 31.82238837033509)"><path d="M-0.16 -0.99 C-0.23 9.93, -0.9 53.94, -0.94 64.64 M-1.71 1.1 C-1.36 11.75, 1.23 52.35, 1.28 62.85" stroke="#343a40" stroke-width="4" fill="none"></path></g></g><mask></mask><g stroke-linecap="round"><g transform="translate(14.999999999999773 107.14581252783537) rotate(0 7.309024445712566 -0.08071814064618366)"><path d="M-0.94 0.64 C1.68 0.67, 12.87 -0.79, 15.56 -0.8 M0.76 -0.07 C3.2 0.18, 11.57 0.55, 14.38 0.32" stroke="#343a40" stroke-width="4" fill="none"></path></g></g><mask></mask><g stroke-linecap="round"><g transform="translate(15.97930660123916 43.43487182316747) rotate(0 8.504313273527714 0.07335484097711742)"><path d="M-0.44 -0.8 C2.25 -0.81, 12.54 0.26, 15.17 0.57 M1.53 1.4 C4.68 0.97, 15.32 -0.9, 17.45 -1.25" stroke="#343a40" stroke-width="4" fill="none"></path></g></g><mask></mask><g stroke-linecap="round"><g transform="translate(627.7930827610724 43.25968785117689) rotate(179.57242749316657 -0.21719241256823807 31.82238837033509)"><path d="M-0.16 -0.99 C-0.23 9.93, -0.9 53.94, -0.94 64.64 M-1.71 1.1 C-1.36 11.75, 1.23 52.35, 1.28 62.85" stroke="#343a40" stroke-width="4" fill="none"></path></g></g><mask></mask><g stroke-linecap="round"><g transform="translate(612.5013362233501 43.12295883447453) rotate(179.57242749316657 7.309024445712566 -0.08071814064619787)"><path d="M-0.94 0.64 C1.68 0.67, 12.87 -0.79, 15.56 -0.8 M0.76 -0.07 C3.2 0.18, 11.57 0.55, 14.38 0.32" stroke="#343a40" stroke-width="4" fill="none"></path></g></g><mask></mask><g stroke-linecap="round"><g transform="translate(609.6058042935372 106.54021172732692) rotate(179.57242749316657 8.504313273527714 0.07335484097711742)"><path d="M-0.44 -0.8 C2.25 -0.81, 12.54 0.26, 15.17 0.57 M1.53 1.4 C4.68 0.97, 15.32 -0.9, 17.45 -1.25" stroke="#343a40" stroke-width="4" fill="none"></path></g></g><mask></mask><g transform="translate(22.85411071777321 52.645812527835375) rotate(0 137.109375 21.599999999999994)"><text x="0" y="0" font-family="Cascadia, Segoe UI Emoji" font-size="36px" fill="#343a40" text-anchor="start" style="white-space: pre;" direction="ltr" dominant-baseline="text-before-edge">0,  ...      </text></g><g stroke-linecap="round" transform="translate(16.999999999999773 124.14581252783537) rotate(0 19.5 27)"><path d="M10.84 0.26 L35.16 0.92 L39 6.98 L38.21 42.71 L39.85 47.47 L33.93 54.94 L5.94 54.75 L0.13 48.36 L-0.06 4 L5.15 1.34 L10.39 1.39" stroke="none" stroke-width="0" fill="#15aabf"></path><path d="M9.75 0 M9.75 0 C14.56 0.06, 24.61 1.27, 29.25 0 M9.75 0 C16.36 -0.82, 24.86 0.51, 29.25 0 M29.25 0 C36.29 0.4, 38.32 4.73, 39 9.75 M29.25 0 C35.06 -0.6, 39.84 3.37, 39 9.75 M39 9.75 C39.83 16.31, 40.87 25.77, 39 44.25 M39 9.75 C39.08 19.51, 39.87 27.75, 39 44.25 M39 44.25 C38.58 49.05, 37.13 55.93, 29.25 54 M39 44.25 C40.01 52.07, 33.58 54.19, 29.25 54 M29.25 54 C21.54 53.07, 17.09 52.57, 9.75 54 M29.25 54 C22.05 53.87, 16.73 54.29, 9.75 54 M9.75 54 C4.73 53.25, -0.09 52.44, 0 44.25 M9.75 54 C1.85 55.01, -1.73 49.95, 0 44.25 M0 44.25 C1.14 33.7, -0.39 23.81, 0 9.75 M0 44.25 C0.48 35.35, 0.39 26.87, 0 9.75 M0 9.75 C-0.74 1.94, 2.95 -1.98, 9.75 0 M0 9.75 C0.52 2.13, 1.56 -2.06, 9.75 0" stroke="#343a40" stroke-width="4" fill="none"></path></g><g transform="translate(25.953124999999773 129.54581252783535) rotate(0 10.546875 21.599999999999994)"><text x="10.546875" y="0" font-family="Cascadia, Segoe UI Emoji" font-size="36px" fill="#343a40" text-anchor="middle" style="white-space: pre;" direction="ltr" dominant-baseline="text-before-edge">L</text></g><g stroke-linecap="round" transform="translate(585.4999999999998 113.14581252783537) rotate(0 19.5 27)"><path d="M10.84 0.26 L35.16 0.92 L39 6.98 L38.21 42.71 L39.85 47.47 L33.93 54.94 L5.94 54.75 L0.13 48.36 L-0.06 4 L5.15 1.34 L10.39 1.39" stroke="none" stroke-width="0" fill="#15aabf"></path><path d="M9.75 0 M9.75 0 C14.56 0.06, 24.61 1.27, 29.25 0 M9.75 0 C16.36 -0.82, 24.86 0.51, 29.25 0 M29.25 0 C36.29 0.4, 38.32 4.73, 39 9.75 M29.25 0 C35.06 -0.6, 39.84 3.37, 39 9.75 M39 9.75 C39.83 16.31, 40.87 25.77, 39 44.25 M39 9.75 C39.08 19.51, 39.87 27.75, 39 44.25 M39 44.25 C38.58 49.05, 37.13 55.93, 29.25 54 M39 44.25 C40.01 52.07, 33.58 54.19, 29.25 54 M29.25 54 C21.54 53.07, 17.09 52.57, 9.75 54 M29.25 54 C22.05 53.87, 16.73 54.29, 9.75 54 M9.75 54 C4.73 53.25, -0.09 52.44, 0 44.25 M9.75 54 C1.85 55.01, -1.73 49.95, 0 44.25 M0 44.25 C1.14 33.7, -0.39 23.81, 0 9.75 M0 44.25 C0.48 35.35, 0.39 26.87, 0 9.75 M0 9.75 C-0.74 1.94, 2.95 -1.98, 9.75 0 M0 9.75 C0.52 2.13, 1.56 -2.06, 9.75 0" stroke="#343a40" stroke-width="4" fill="none"></path></g><g transform="translate(594.4531249999998 118.54581252783535) rotate(0 10.546875 21.599999999999994)"><text x="10.546875" y="0" font-family="Cascadia, Segoe UI Emoji" font-size="36px" fill="#343a40" text-anchor="middle" style="white-space: pre;" direction="ltr" dominant-baseline="text-before-edge">R</text></g><g stroke-linecap="round" transform="translate(286.4999999999998 121.14581252783537) rotate(0 19.5 27)"><path d="M10.84 0.26 L35.16 0.92 L39 6.98 L38.21 42.71 L39.85 47.47 L33.93 54.94 L5.94 54.75 L0.13 48.36 L-0.06 4 L5.15 1.34 L10.39 1.39" stroke="none" stroke-width="0" fill="#15aabf"></path><path d="M9.75 0 M9.75 0 C14.56 0.06, 24.61 1.27, 29.25 0 M9.75 0 C16.36 -0.82, 24.86 0.51, 29.25 0 M29.25 0 C36.29 0.4, 38.32 4.73, 39 9.75 M29.25 0 C35.06 -0.6, 39.84 3.37, 39 9.75 M39 9.75 C39.83 16.31, 40.87 25.77, 39 44.25 M39 9.75 C39.08 19.51, 39.87 27.75, 39 44.25 M39 44.25 C38.58 49.05, 37.13 55.93, 29.25 54 M39 44.25 C40.01 52.07, 33.58 54.19, 29.25 54 M29.25 54 C21.54 53.07, 17.09 52.57, 9.75 54 M29.25 54 C22.05 53.87, 16.73 54.29, 9.75 54 M9.75 54 C4.73 53.25, -0.09 52.44, 0 44.25 M9.75 54 C1.85 55.01, -1.73 49.95, 0 44.25 M0 44.25 C1.14 33.7, -0.39 23.81, 0 9.75 M0 44.25 C0.48 35.35, 0.39 26.87, 0 9.75 M0 9.75 C-0.74 1.94, 2.95 -1.98, 9.75 0 M0 9.75 C0.52 2.13, 1.56 -2.06, 9.75 0" stroke="#343a40" stroke-width="4" fill="none"></path></g><g transform="translate(295.4531249999998 126.54581252783535) rotate(0 10.546875 21.599999999999994)"><text x="10.546875" y="0" font-family="Cascadia, Segoe UI Emoji" font-size="36px" fill="#343a40" text-anchor="middle" style="white-space: pre;" direction="ltr" dominant-baseline="text-before-edge">M</text></g><g stroke-linecap="round"><g transform="translate(304.9999999999998 9.145812527835375) rotate(0 0.5081620380282175 94.38973766118288)"><path d="M-0.47 0.85 C-0.08 32.26, 1.11 156.63, 1.48 187.93" stroke="#343a40" stroke-width="1.5" fill="none" stroke-dasharray="1.5 7"></path></g></g><mask></mask><g stroke-linecap="round" transform="translate(17.944827436529295 190.67031399702697) rotate(0 19.5 27)"><path d="M10.84 0.26 L35.16 0.92 L39 6.98 L38.21 42.71 L39.85 47.47 L33.93 54.94 L5.94 54.75 L0.13 48.36 L-0.06 4 L5.15 1.34 L10.39 1.39" stroke="none" stroke-width="0" fill="#15aabf"></path><path d="M9.75 0 M9.75 0 C14.56 0.06, 24.61 1.27, 29.25 0 M9.75 0 C16.36 -0.82, 24.86 0.51, 29.25 0 M29.25 0 C36.29 0.4, 38.32 4.73, 39 9.75 M29.25 0 C35.06 -0.6, 39.84 3.37, 39 9.75 M39 9.75 C39.83 16.31, 40.87 25.77, 39 44.25 M39 9.75 C39.08 19.51, 39.87 27.75, 39 44.25 M39 44.25 C38.58 49.05, 37.13 55.93, 29.25 54 M39 44.25 C40.01 52.07, 33.58 54.19, 29.25 54 M29.25 54 C21.54 53.07, 17.09 52.57, 9.75 54 M29.25 54 C22.05 53.87, 16.73 54.29, 9.75 54 M9.75 54 C4.73 53.25, -0.09 52.44, 0 44.25 M9.75 54 C1.85 55.01, -1.73 49.95, 0 44.25 M0 44.25 C1.14 33.7, -0.39 23.81, 0 9.75 M0 44.25 C0.48 35.35, 0.39 26.87, 0 9.75 M0 9.75 C-0.74 1.94, 2.95 -1.98, 9.75 0 M0 9.75 C0.52 2.13, 1.56 -2.06, 9.75 0" stroke="#343a40" stroke-width="4" fill="none"></path></g><g transform="translate(26.897952436529295 196.07031399702694) rotate(0 10.546875 21.599999999999994)"><text x="10.546875" y="0" font-family="Cascadia, Segoe UI Emoji" font-size="36px" fill="#343a40" text-anchor="middle" style="white-space: pre;" direction="ltr" dominant-baseline="text-before-edge">L</text></g><g stroke-linecap="round" transform="translate(220.44482743652884 192.67031399702697) rotate(0 19.5 27)"><path d="M10.84 0.26 L35.16 0.92 L39 6.98 L38.21 42.71 L39.85 47.47 L33.93 54.94 L5.94 54.75 L0.13 48.36 L-0.06 4 L5.15 1.34 L10.39 1.39" stroke="none" stroke-width="0" fill="#15aabf"></path><path d="M9.75 0 M9.75 0 C14.56 0.06, 24.61 1.27, 29.25 0 M9.75 0 C16.36 -0.82, 24.86 0.51, 29.25 0 M29.25 0 C36.29 0.4, 38.32 4.73, 39 9.75 M29.25 0 C35.06 -0.6, 39.84 3.37, 39 9.75 M39 9.75 C39.83 16.31, 40.87 25.77, 39 44.25 M39 9.75 C39.08 19.51, 39.87 27.75, 39 44.25 M39 44.25 C38.58 49.05, 37.13 55.93, 29.25 54 M39 44.25 C40.01 52.07, 33.58 54.19, 29.25 54 M29.25 54 C21.54 53.07, 17.09 52.57, 9.75 54 M29.25 54 C22.05 53.87, 16.73 54.29, 9.75 54 M9.75 54 C4.73 53.25, -0.09 52.44, 0 44.25 M9.75 54 C1.85 55.01, -1.73 49.95, 0 44.25 M0 44.25 C1.14 33.7, -0.39 23.81, 0 9.75 M0 44.25 C0.48 35.35, 0.39 26.87, 0 9.75 M0 9.75 C-0.74 1.94, 2.95 -1.98, 9.75 0 M0 9.75 C0.52 2.13, 1.56 -2.06, 9.75 0" stroke="#343a40" stroke-width="4" fill="none"></path></g><g transform="translate(229.39795243652884 198.07031399702694) rotate(0 10.546875 21.599999999999994)"><text x="10.546875" y="0" font-family="Cascadia, Segoe UI Emoji" font-size="36px" fill="#343a40" text-anchor="middle" style="white-space: pre;" direction="ltr" dominant-baseline="text-before-edge">R</text></g><g stroke-linecap="round" transform="translate(119.44482743652884 191.67031399702697) rotate(0 19.5 27)"><path d="M10.84 0.26 L35.16 0.92 L39 6.98 L38.21 42.71 L39.85 47.47 L33.93 54.94 L5.94 54.75 L0.13 48.36 L-0.06 4 L5.15 1.34 L10.39 1.39" stroke="none" stroke-width="0" fill="#15aabf"></path><path d="M9.75 0 M9.75 0 C14.56 0.06, 24.61 1.27, 29.25 0 M9.75 0 C16.36 -0.82, 24.86 0.51, 29.25 0 M29.25 0 C36.29 0.4, 38.32 4.73, 39 9.75 M29.25 0 C35.06 -0.6, 39.84 3.37, 39 9.75 M39 9.75 C39.83 16.31, 40.87 25.77, 39 44.25 M39 9.75 C39.08 19.51, 39.87 27.75, 39 44.25 M39 44.25 C38.58 49.05, 37.13 55.93, 29.25 54 M39 44.25 C40.01 52.07, 33.58 54.19, 29.25 54 M29.25 54 C21.54 53.07, 17.09 52.57, 9.75 54 M29.25 54 C22.05 53.87, 16.73 54.29, 9.75 54 M9.75 54 C4.73 53.25, -0.09 52.44, 0 44.25 M9.75 54 C1.85 55.01, -1.73 49.95, 0 44.25 M0 44.25 C1.14 33.7, -0.39 23.81, 0 9.75 M0 44.25 C0.48 35.35, 0.39 26.87, 0 9.75 M0 9.75 C-0.74 1.94, 2.95 -1.98, 9.75 0 M0 9.75 C0.52 2.13, 1.56 -2.06, 9.75 0" stroke="#343a40" stroke-width="4" fill="none"></path></g><g transform="translate(128.39795243652884 197.07031399702694) rotate(0 10.546875 21.599999999999994)"><text x="10.546875" y="0" font-family="Cascadia, Segoe UI Emoji" font-size="36px" fill="#343a40" text-anchor="middle" style="white-space: pre;" direction="ltr" dominant-baseline="text-before-edge">M</text></g><g stroke-linecap="round"><g transform="translate(420.9999999999998 132.14581252783537) rotate(0 20.739046881245486 15.724693225896942)"><path d="M0.48 -0.57 C7.28 4.76, 33.24 25.7, 40.01 31.01 M-0.73 1.74 C6.51 7.28, 35.36 26.94, 42.21 32.02" stroke="#d9480f" stroke-width="1" fill="none"></path></g></g><mask></mask><g stroke-linecap="round"><g transform="translate(467.9999999999998 124.14581252783537) rotate(0 -23.57861521989105 20.082109626038005)"><path d="M0.54 0.09 C-7.56 6.69, -39.7 33.41, -47.7 40.03 M-0.64 -0.9 C-8.42 5.77, -37.38 34.15, -45.35 41.06" stroke="#d9480f" stroke-width="1" fill="none"></path></g></g><mask></mask><g stroke-linecap="round"><g transform="translate(137.49183796197144 158.75607486665254) rotate(0 0.5081620380282175 60.88973766118289)"><path d="M-0.47 0.85 C-0.08 21.09, 1.11 100.79, 1.48 120.93" stroke="#343a40" stroke-width="1.5" fill="none" stroke-dasharray="1.5 7"></path></g></g><mask></mask><g stroke-linecap="round"><g transform="translate(60.59621389006702 205.06370290179737) rotate(0 20.739046881245486 15.724693225896942)"><path d="M0.48 -0.57 C7.28 4.76, 33.24 25.7, 40.01 31.01 M-0.73 1.74 C6.51 7.28, 35.36 26.94, 42.21 32.02" stroke="#d9480f" stroke-width="1" fill="none"></path></g></g><mask></mask><g stroke-linecap="round"><g transform="translate(107.59621389006702 197.06370290179737) rotate(0 -23.57861521989105 20.082109626038005)"><path d="M0.54 0.09 C-7.56 6.69, -39.7 33.41, -47.7 40.03 M-0.64 -0.9 C-8.42 5.77, -37.38 34.15, -45.35 41.06" stroke="#d9480f" stroke-width="1" fill="none"></path></g></g><mask></mask><g transform="translate(95.99999999999977 99.64581252783537) rotate(0 52.448097229003906 10)"><text x="0" y="0" font-family="Virgil, Segoe UI Emoji" font-size="16px" fill="#000000" text-anchor="start" style="white-space: pre;" direction="ltr" dominant-baseline="text-before-edge">v &lt; N/2? Yes</text></g><g transform="translate(136.55190277099587 256.14581252783535) rotate(0 54.91209411621094 10)"><text x="0" y="0" font-family="Virgil, Segoe UI Emoji" font-size="16px" fill="#000000" text-anchor="start" style="white-space: pre;" direction="ltr" dominant-baseline="text-before-edge"> v &gt; N/4? Yes</text></g><g transform="translate(108.14062499999977 128.54581252783535) rotate(0 31.640625 21.599999999999994)"><text x="0" y="0" font-family="Cascadia, Segoe UI Emoji" font-size="36px" fill="#343a40" text-anchor="start" style="white-space: pre;" direction="ltr" dominant-baseline="text-before-edge">N/4</text></g><g stroke-linecap="round" transform="translate(10 116.14581252783537) rotate(0 162 33)"><path d="M16.5 0 M16.5 0 C124.85 3.08, 236.84 1.77, 307.5 0 M307.5 0 C319.75 1.18, 325.16 4.8, 324 16.5 M324 16.5 C323.06 23.77, 323.87 32.22, 324 49.5 M324 49.5 C323.2 62.33, 319.13 64.77, 307.5 66 M307.5 66 C217.69 65.59, 126.59 65.77, 16.5 66 M16.5 66 C7.45 67.97, 0.47 60.02, 0 49.5 M0 49.5 C-0.74 38.17, 1.97 25.86, 0 16.5 M0 16.5 C1.46 5.25, 4.72 0.29, 16.5 0" stroke="#000000" stroke-width="1.5" fill="none" stroke-dasharray="1.5 7"></path></g><g stroke-linecap="round" transform="translate(111.5 187.14581252783537) rotate(0 77 33)"><path d="M16.5 0 M16.5 0 C60.49 2.65, 109.34 0.9, 137.5 0 M137.5 0 C149.75 1.18, 155.16 4.8, 154 16.5 M154 16.5 C153.06 23.77, 153.87 32.22, 154 49.5 M154 49.5 C153.2 62.33, 149.13 64.77, 137.5 66 M137.5 66 C100.25 65.82, 61.28 66.06, 16.5 66 M16.5 66 C7.45 67.97, 0.47 60.02, 0 49.5 M0 49.5 C-0.74 38.17, 1.97 25.86, 0 16.5 M0 16.5 C1.46 5.25, 4.72 0.29, 16.5 0" stroke="#000000" stroke-width="1.5" fill="none" stroke-dasharray="1.5 7"></path></g><g transform="translate(593.4270553588865 53.24068135842688) rotate(0 21.09375 21.599999999999994)"><text x="0" y="0" font-family="Cascadia, Segoe UI Emoji" font-size="36px" fill="#343a40" text-anchor="start" style="white-space: pre;" direction="ltr" dominant-baseline="text-before-edge">N </text></g><g transform="translate(279.1926803588865 40.24068135842688) rotate(0 42.1875 21.599999999999994)"><text x="0" y="0" font-family="Cascadia, Segoe UI Emoji" font-size="36px" fill="#343a40" text-anchor="start" style="white-space: pre;" direction="ltr" dominant-baseline="text-before-edge">N/2 </text></g></svg>
