<svg version="1.1" xmlns="http://www.w3.org/2000/svg" viewBox="0 0 636.0088062049317 120.68763346299534" width="636.0088062049317" height="120.68763346299534" filter="invert(93%) hue-rotate(180deg)">
  <!-- svg-source:excalidraw -->

  <defs>
    <style class="style-fonts">
      @font-face {
        font-family: "Virgil";
        src: url("https://excalidraw.com/Virgil.woff2");
      }
      @font-face {
        font-family: "Cascadia";
        src: url("https://excalidraw.com/Cascadia.woff2");
      }
    </style>
  </defs>
  <g stroke-linecap="round"><g transform="translate(11.710443942947222 10.992764632403862) rotate(0 -0.21719241256823807 31.82238837033509)"><path d="M-0.16 -0.99 C-0.23 9.93, -0.9 53.94, -0.94 64.64 M-1.71 1.1 C-1.36 11.75, 1.23 52.35, 1.28 62.85" stroke="#343a40" stroke-width="4" fill="none"></path></g></g><mask></mask><g stroke-linecap="round"><g transform="translate(11.710443942947222 74.99276463240386) rotate(0 7.309024445712566 -0.08071814064618366)"><path d="M-0.94 0.64 C1.68 0.67, 12.87 -0.79, 15.56 -0.8 M0.76 -0.07 C3.2 0.18, 11.57 0.55, 14.38 0.32" stroke="#343a40" stroke-width="4" fill="none"></path></g></g><mask></mask><g stroke-linecap="round"><g transform="translate(12.689750544186609 11.281823927735957) rotate(0 8.504313273527714 0.07335484097711742)"><path d="M-0.44 -0.8 C2.25 -0.81, 12.54 0.26, 15.17 0.57 M1.53 1.4 C4.68 0.97, 15.32 -0.9, 17.45 -1.25" stroke="#343a40" stroke-width="4" fill="none"></path></g></g><mask></mask><g stroke-linecap="round"><g transform="translate(624.5035267040198 11.10663995574538) rotate(179.57242749316657 -0.21719241256823807 31.82238837033509)"><path d="M-0.16 -0.99 C-0.23 9.93, -0.9 53.94, -0.94 64.64 M-1.71 1.1 C-1.36 11.75, 1.23 52.35, 1.28 62.85" stroke="#343a40" stroke-width="4" fill="none"></path></g></g><mask></mask><g stroke-linecap="round"><g transform="translate(609.2117801662976 10.969910939043018) rotate(179.57242749316657 7.309024445712566 -0.08071814064619787)"><path d="M-0.94 0.64 C1.68 0.67, 12.87 -0.79, 15.56 -0.8 M0.76 -0.07 C3.2 0.18, 11.57 0.55, 14.38 0.32" stroke="#343a40" stroke-width="4" fill="none"></path></g></g><mask></mask><g stroke-linecap="round"><g transform="translate(606.3162482364846 74.3871638318954) rotate(179.57242749316657 8.504313273527714 0.07335484097711742)"><path d="M-0.44 -0.8 C2.25 -0.81, 12.54 0.26, 15.17 0.57 M1.53 1.4 C4.68 0.97, 15.32 -0.9, 17.45 -1.25" stroke="#343a40" stroke-width="4" fill="none"></path></g></g><mask></mask><g transform="translate(19.56455466072066 20.492764632403862) rotate(0 263.671875 21.599999999999994)"><text x="0" y="0" font-family="Cascadia, Segoe UI Emoji" font-size="36px" fill="#343a40" text-anchor="start" style="white-space: pre;" direction="ltr" dominant-baseline="text-before-edge">0%  10%...  50% ...  90% </text></g><g stroke-linecap="round"><g transform="translate(491.287038188784 64.69276463240391) rotate(0 13.873768190477449 7.995288675782831)"><path d="M0.19 1.09 C2.51 4.08, 8.45 17.87, 13.24 17.73 C18.02 17.59, 26.19 3.15, 28.92 0.24 M-1.17 0.62 C1.14 3.32, 7.89 16.62, 12.8 16.22 C17.72 15.83, 25.38 1.27, 28.31 -1.74" stroke="#000000" stroke-width="1" fill="none"></path></g><g transform="translate(491.287038188784 64.69276463240391) rotate(0 13.873768190477449 7.995288675782831)"><path d="M26.16 10.58 C27.03 7.17, 27.33 5.11, 29.05 -2.26 M24.91 9.29 C26.25 6.69, 27.11 4.02, 27.93 -2.16" stroke="#000000" stroke-width="1" fill="none"></path></g><g transform="translate(491.287038188784 64.69276463240391) rotate(0 13.873768190477449 7.995288675782831)"><path d="M19.62 5.85 C22.06 3.56, 23.93 2.64, 29.05 -2.26 M18.37 4.56 C21.23 3.14, 23.63 1.58, 27.93 -2.16" stroke="#000000" stroke-width="1" fill="none"></path></g></g><mask></mask><g stroke-linecap="round"><g transform="translate(523.2870381887842 64.69276463240391) rotate(0 13.873768190477449 7.995288675782717)"><path d="M0.19 1.09 C2.51 4.08, 8.45 17.87, 13.24 17.73 C18.02 17.59, 26.19 3.15, 28.92 0.24 M-1.17 0.62 C1.14 3.32, 7.89 16.62, 12.8 16.22 C17.72 15.83, 25.38 1.27, 28.31 -1.74" stroke="#000000" stroke-width="1" fill="none"></path></g><g transform="translate(523.2870381887842 64.69276463240391) rotate(0 13.873768190477449 7.995288675782717)"><path d="M26.16 10.58 C27.03 7.17, 27.33 5.11, 29.05 -2.26 M24.91 9.29 C26.25 6.69, 27.11 4.02, 27.93 -2.16" stroke="#000000" stroke-width="1" fill="none"></path></g><g transform="translate(523.2870381887842 64.69276463240391) rotate(0 13.873768190477449 7.995288675782717)"><path d="M19.62 5.85 C22.06 3.56, 23.93 2.64, 29.05 -2.26 M18.37 4.56 C21.23 3.14, 23.63 1.58, 27.93 -2.16" stroke="#000000" stroke-width="1" fill="none"></path></g></g><mask></mask><g stroke-linecap="round"><g transform="translate(554.9415069002348 64.2258307104093) rotate(0 14.04653383475204 8.461788746342933)"><path d="M0.19 1.09 C2.57 4.16, 8.74 18.26, 13.58 18.2 C18.43 18.13, 26.54 3.61, 29.27 0.71 M-1.17 0.62 C1.2 3.4, 8.18 17.01, 13.15 16.69 C18.12 16.37, 25.73 1.74, 28.66 -1.27" stroke="#000000" stroke-width="1" fill="none"></path></g><g transform="translate(554.9415069002348 64.2258307104093) rotate(0 14.04653383475204 8.461788746342933)"><path d="M26.54 11.05 C27.4 7.64, 27.69 5.58, 29.4 -1.79 M25.29 9.77 C26.62 7.16, 27.48 4.49, 28.28 -1.69" stroke="#000000" stroke-width="1" fill="none"></path></g><g transform="translate(554.9415069002348 64.2258307104093) rotate(0 14.04653383475204 8.461788746342933)"><path d="M19.98 6.34 C22.42 4.05, 24.29 3.12, 29.4 -1.79 M18.73 5.06 C21.59 3.62, 23.99 2.06, 28.28 -1.69" stroke="#000000" stroke-width="1" fill="none"></path></g></g><mask></mask><g stroke-linecap="round"><g transform="translate(586.9591740339288 64.2497052025301) rotate(0 14.037700267905166 8.437928260465242)"><path d="M0.19 1.09 C2.57 4.15, 8.72 18.24, 13.56 18.17 C18.41 18.11, 26.52 3.59, 29.25 0.69 M-1.17 0.62 C1.2 3.39, 8.16 16.99, 13.13 16.67 C18.1 16.35, 25.71 1.72, 28.64 -1.3" stroke="#000000" stroke-width="1" fill="none"></path></g><g transform="translate(586.9591740339288 64.2497052025301) rotate(0 14.037700267905166 8.437928260465242)"><path d="M26.52 11.03 C27.38 7.61, 27.67 5.55, 29.38 -1.81 M25.27 9.74 C26.6 7.14, 27.46 4.46, 28.26 -1.71" stroke="#000000" stroke-width="1" fill="none"></path></g><g transform="translate(586.9591740339288 64.2497052025301) rotate(0 14.037700267905166 8.437928260465242)"><path d="M19.96 6.32 C22.4 4.03, 24.27 3.1, 29.38 -1.81 M18.71 5.03 C21.57 3.6, 23.97 2.04, 28.26 -1.71" stroke="#000000" stroke-width="1" fill="none"></path></g></g><mask></mask><g transform="translate(387.99687430183394 90.68763346299534) rotate(0 104.92021179199219 10)"><text x="0" y="0" font-family="Virgil, Segoe UI Emoji" font-size="16px" fill="#000000" text-anchor="start" style="white-space: pre;" direction="ltr" dominant-baseline="text-before-edge">9 junps + 0.1N comparisons</text></g><g stroke-linecap="round" transform="translate(609.9968743018339 38.687633462995336) rotate(0 4.5 5)"><path d="M2.01 -0.13 C2.75 -0.44, 4.77 0.04, 5.63 0.52 C6.5 1.01, 6.47 2.11, 7.19 2.81 C7.92 3.5, 9.73 3.69, 9.98 4.67 C10.23 5.65, 9.56 7.87, 8.71 8.7 C7.85 9.53, 6.05 9.42, 4.85 9.65 C3.65 9.89, 2.33 10.78, 1.53 10.09 C0.72 9.41, 0.22 6.69, 0 5.55 C-0.23 4.42, -0.52 4.19, 0.17 3.29 C0.85 2.4, 3.5 0.61, 4.09 0.18 C4.67 -0.25, 3.94 0.69, 3.68 0.7 M5.01 -1.17 C5.83 -0.68, 8.41 1.69, 9.07 2.81 C9.74 3.93, 9.32 4.6, 8.98 5.55 C8.64 6.51, 7.77 7.64, 7.02 8.54 C6.26 9.43, 5.19 10.85, 4.44 10.93 C3.69 11, 3.22 9.63, 2.51 8.97 C1.8 8.31, 0.47 7.84, 0.18 6.98 C-0.12 6.12, 0.14 4.99, 0.74 3.83 C1.35 2.67, 2.83 0.38, 3.81 0.01 C4.79 -0.35, 6.2 1.36, 6.62 1.61 C7.05 1.87, 6.58 1.68, 6.37 1.56" stroke="#d9480f" stroke-width="1" fill="none"></path></g></svg>
