<svg version="1.1" xmlns="http://www.w3.org/2000/svg" viewBox="0 0 636.0088062049317 146.05098780869878" width="636.0088062049317" height="146.05098780869878" filter="invert(93%) hue-rotate(180deg)">
  <!-- svg-source:excalidraw -->

  <defs>
    <style class="style-fonts">
      @font-face {
        font-family: "Virgil";
        src: url("https://excalidraw.com/Virgil.woff2");
      }
      @font-face {
        font-family: "Cascadia";
        src: url("https://excalidraw.com/Cascadia.woff2");
      }
    </style>
  </defs>
  <g stroke-linecap="round"><g transform="translate(11.710443942947222 56.856118978107304) rotate(0 -0.21719241256823807 31.82238837033509)"><path d="M-0.16 -0.99 C-0.23 9.93, -0.9 53.94, -0.94 64.64 M-1.71 1.1 C-1.36 11.75, 1.23 52.35, 1.28 62.85" stroke="#343a40" stroke-width="4" fill="none"></path></g></g><mask></mask><g stroke-linecap="round"><g transform="translate(11.710443942947222 120.8561189781073) rotate(0 7.309024445712566 -0.08071814064618366)"><path d="M-0.94 0.64 C1.68 0.67, 12.87 -0.79, 15.56 -0.8 M0.76 -0.07 C3.2 0.18, 11.57 0.55, 14.38 0.32" stroke="#343a40" stroke-width="4" fill="none"></path></g></g><mask></mask><g stroke-linecap="round"><g transform="translate(12.689750544186609 57.1451782734394) rotate(0 8.504313273527714 0.07335484097711742)"><path d="M-0.44 -0.8 C2.25 -0.81, 12.54 0.26, 15.17 0.57 M1.53 1.4 C4.68 0.97, 15.32 -0.9, 17.45 -1.25" stroke="#343a40" stroke-width="4" fill="none"></path></g></g><mask></mask><g stroke-linecap="round"><g transform="translate(624.5035267040198 56.96999430144882) rotate(179.57242749316657 -0.21719241256823807 31.82238837033509)"><path d="M-0.16 -0.99 C-0.23 9.93, -0.9 53.94, -0.94 64.64 M-1.71 1.1 C-1.36 11.75, 1.23 52.35, 1.28 62.85" stroke="#343a40" stroke-width="4" fill="none"></path></g></g><mask></mask><g stroke-linecap="round"><g transform="translate(609.2117801662976 56.83326528474646) rotate(179.57242749316657 7.309024445712566 -0.08071814064619787)"><path d="M-0.94 0.64 C1.68 0.67, 12.87 -0.79, 15.56 -0.8 M0.76 -0.07 C3.2 0.18, 11.57 0.55, 14.38 0.32" stroke="#343a40" stroke-width="4" fill="none"></path></g></g><mask></mask><g stroke-linecap="round"><g transform="translate(606.3162482364846 120.25051817759885) rotate(179.57242749316657 8.504313273527714 0.07335484097711742)"><path d="M-0.44 -0.8 C2.25 -0.81, 12.54 0.26, 15.17 0.57 M1.53 1.4 C4.68 0.97, 15.32 -0.9, 17.45 -1.25" stroke="#343a40" stroke-width="4" fill="none"></path></g></g><mask></mask><g stroke-linecap="round"><g transform="translate(47.43078859610796 112.07321154579466) rotate(0 5.5039736752123645 2.4640357900669585)"><path d="M0 0 C0.82 0.82, 3.08 4.93, 4.92 4.93 C6.75 4.93, 9.99 0.82, 11.01 0 M0 0 C0.82 0.82, 3.08 4.93, 4.92 4.93 C6.75 4.93, 9.99 0.82, 11.01 0" stroke="#d9480f" stroke-width="1" fill="none"></path></g><g transform="translate(47.43078859610796 112.07321154579466) rotate(0 5.5039736752123645 2.4640357900669585)"><path d="M9.37 3.56 C9.82 2.58, 10.27 1.6, 11.01 0 M9.37 3.56 C9.91 2.37, 10.46 1.19, 11.01 0" stroke="#d9480f" stroke-width="1" fill="none"></path></g><g transform="translate(47.43078859610796 112.07321154579466) rotate(0 5.5039736752123645 2.4640357900669585)"><path d="M7.46 1.67 C8.44 1.21, 9.42 0.75, 11.01 0 M7.46 1.67 C8.64 1.11, 9.83 0.56, 11.01 0" stroke="#d9480f" stroke-width="1" fill="none"></path></g></g><mask></mask><g stroke-linecap="round"><g transform="translate(34.49290062662158 112.08695201863179) rotate(0 5.5039736752123645 2.4640357900669585)"><path d="M0 0 C0.82 0.82, 3.08 4.93, 4.92 4.93 C6.75 4.93, 9.99 0.82, 11.01 0 M0 0 C0.82 0.82, 3.08 4.93, 4.92 4.93 C6.75 4.93, 9.99 0.82, 11.01 0" stroke="#d9480f" stroke-width="1" fill="none"></path></g><g transform="translate(34.49290062662158 112.08695201863179) rotate(0 5.5039736752123645 2.4640357900669585)"><path d="M9.37 3.56 C9.82 2.58, 10.27 1.6, 11.01 0 M9.37 3.56 C9.91 2.37, 10.46 1.19, 11.01 0" stroke="#d9480f" stroke-width="1" fill="none"></path></g><g transform="translate(34.49290062662158 112.08695201863179) rotate(0 5.5039736752123645 2.4640357900669585)"><path d="M7.46 1.67 C8.44 1.21, 9.42 0.75, 11.01 0 M7.46 1.67 C8.64 1.11, 9.83 0.56, 11.01 0" stroke="#d9480f" stroke-width="1" fill="none"></path></g></g><mask></mask><g stroke-linecap="round"><g transform="translate(70.961844611365 111.0800817822132) rotate(0 5.5039736752123645 2.4640357900669585)"><path d="M0 0 C0.82 0.82, 3.08 4.93, 4.92 4.93 C6.75 4.93, 9.99 0.82, 11.01 0 M0 0 C0.82 0.82, 3.08 4.93, 4.92 4.93 C6.75 4.93, 9.99 0.82, 11.01 0" stroke="#d9480f" stroke-width="1" fill="none"></path></g><g transform="translate(70.961844611365 111.0800817822132) rotate(0 5.5039736752123645 2.4640357900669585)"><path d="M9.37 3.56 C9.82 2.58, 10.27 1.6, 11.01 0 M9.37 3.56 C9.91 2.37, 10.46 1.19, 11.01 0" stroke="#d9480f" stroke-width="1" fill="none"></path></g><g transform="translate(70.961844611365 111.0800817822132) rotate(0 5.5039736752123645 2.4640357900669585)"><path d="M7.46 1.67 C8.44 1.21, 9.42 0.75, 11.01 0 M7.46 1.67 C8.64 1.11, 9.83 0.56, 11.01 0" stroke="#d9480f" stroke-width="1" fill="none"></path></g></g><mask></mask><g stroke-linecap="round"><g transform="translate(58.02395664187816 111.09382225505038) rotate(0 5.5039736752123645 2.4640357900669585)"><path d="M0 0 C0.82 0.82, 3.08 4.93, 4.92 4.93 C6.75 4.93, 9.99 0.82, 11.01 0 M0 0 C0.82 0.82, 3.08 4.93, 4.92 4.93 C6.75 4.93, 9.99 0.82, 11.01 0" stroke="#d9480f" stroke-width="1" fill="none"></path></g><g transform="translate(58.02395664187816 111.09382225505038) rotate(0 5.5039736752123645 2.4640357900669585)"><path d="M9.37 3.56 C9.82 2.58, 10.27 1.6, 11.01 0 M9.37 3.56 C9.91 2.37, 10.46 1.19, 11.01 0" stroke="#d9480f" stroke-width="1" fill="none"></path></g><g transform="translate(58.02395664187816 111.09382225505038) rotate(0 5.5039736752123645 2.4640357900669585)"><path d="M7.46 1.67 C8.44 1.21, 9.42 0.75, 11.01 0 M7.46 1.67 C8.64 1.11, 9.83 0.56, 11.01 0" stroke="#d9480f" stroke-width="1" fill="none"></path></g></g><mask></mask><g stroke-linecap="round"><g transform="translate(82.25842863424987 111.59038713684112) rotate(0 5.819129263561422 2.464108820220588)"><path d="M0 0 C0.82 0.82, 2.98 4.9, 4.92 4.93 C6.86 4.96, 10.52 0.96, 11.64 0.17 M0 0 C0.82 0.82, 2.98 4.9, 4.92 4.93 C6.86 4.96, 10.52 0.96, 11.64 0.17" stroke="#d9480f" stroke-width="1" fill="none"></path></g><g transform="translate(82.25842863424987 111.59038713684112) rotate(0 5.819129263561422 2.464108820220588)"><path d="M9.66 3.78 C10.2 2.78, 10.75 1.79, 11.64 0.17 M9.66 3.78 C10.32 2.57, 10.98 1.37, 11.64 0.17" stroke="#d9480f" stroke-width="1" fill="none"></path></g><g transform="translate(82.25842863424987 111.59038713684112) rotate(0 5.819129263561422 2.464108820220588)"><path d="M7.8 1.66 C8.86 1.25, 9.91 0.84, 11.64 0.17 M7.8 1.66 C9.08 1.16, 10.36 0.67, 11.64 0.17" stroke="#d9480f" stroke-width="1" fill="none"></path></g></g><mask></mask><g stroke-linecap="round"><g transform="translate(34.99687430183394 59.55098780869875) rotate(0 45.15334934637144 -7.304324429106487)"><path d="M0.51 0.13 C7.94 -3.33, 31.01 -21.07, 45.71 -20.16 C60.41 -19.25, 81.16 1.3, 88.72 5.58 M-0.69 -0.85 C6.55 -4.17, 29.85 -19.49, 45.13 -18.7 C60.41 -17.92, 83.81 0.14, 91 3.86" stroke="#d9480f" stroke-width="1" fill="none"></path></g><g transform="translate(34.99687430183394 59.55098780869875) rotate(0 45.15334934637144 -7.304324429106487)"><path d="M66.22 -0.27 C75.55 -1.44, 87.58 4.52, 92.93 4.73 M66.75 -1.68 C74.29 0.9, 83.79 2.82, 90.95 3.43" stroke="#d9480f" stroke-width="1" fill="none"></path></g><g transform="translate(34.99687430183394 59.55098780869875) rotate(0 45.15334934637144 -7.304324429106487)"><path d="M75.49 -15.09 C81.26 -10.41, 89.66 1.35, 92.93 4.73 M76.01 -16.5 C80.24 -8.75, 86.52 -1.68, 90.95 3.43" stroke="#d9480f" stroke-width="1" fill="none"></path></g></g><mask></mask><g stroke-linecap="round" transform="translate(130.99687430183394 40.55098780869878) rotate(0 8 6.5)"><path d="M0.53 4.44 C0.53 4.44, 0.53 4.44, 0.53 4.44 M0.53 4.44 C0.53 4.44, 0.53 4.44, 0.53 4.44 M1.49 10.64 C3.58 7.26, 3.95 5.22, 6.55 4.07 M1 9.68 C2.53 8.18, 4.24 6.27, 6.96 3.66 M3.56 12.13 C5.65 9.77, 7.36 8.04, 12.31 1.93 M4.46 12.84 C5.21 10.42, 7.07 9.15, 13.56 1.7 M9.09 12.03 C11.72 8.88, 14.43 6.83, 15.84 4.05 M9.78 11.92 C11.91 10.21, 13.88 7.54, 16.21 4.83 M2.34 11.02 C2.34 11.02, 2.34 11.02, 2.34 11.02 M2.34 11.02 C2.34 11.02, 2.34 11.02, 2.34 11.02 M9.2 13.01 C6.71 9.71, 5.2 8.44, -0.02 3.56 M9.86 11.58 C7.07 8.92, 4.06 6.78, 0.71 4.53 M13.18 11.4 C10.73 7.72, 8.28 5.16, 3.41 0.77 M13.74 10.71 C9.95 7.29, 6.41 4.03, 4.42 1.26 M16.04 6.23 C14.31 4.39, 9.16 2.87, 6.29 -0.83 M16.33 6.59 C12.62 4.2, 9.43 0.94, 5.88 -1.24" stroke="#fd7e14" stroke-width="0.5" fill="none"></path><path d="M10.62 -0.05 C12.27 0.24, 13.11 1.94, 14.07 3.2 C15.04 4.47, 16.48 6.31, 16.43 7.54 C16.37 8.76, 14.92 9.75, 13.75 10.55 C12.57 11.35, 11.24 12.21, 9.38 12.33 C7.52 12.44, 4.05 11.75, 2.58 11.23 C1.12 10.71, 0.93 10.34, 0.59 9.2 C0.26 8.06, 0 5.71, 0.57 4.39 C1.15 3.07, 2.14 1.81, 4.04 1.26 C5.94 0.71, 10.29 0.91, 11.97 1.09 C13.65 1.27, 14.22 2.23, 14.09 2.36 M8.81 -0.43 C10.59 -0.27, 12.66 -0.09, 13.93 1.1 C15.21 2.3, 16.39 5.37, 16.44 6.74 C16.48 8.11, 15.35 8.34, 14.21 9.32 C13.07 10.31, 11.26 12.04, 9.6 12.65 C7.93 13.27, 5.94 13.9, 4.23 13.04 C2.52 12.17, -0.26 8.95, -0.64 7.48 C-1.01 6, 1.15 5.51, 1.97 4.19 C2.79 2.86, 3.09 0.27, 4.3 -0.48 C5.51 -1.23, 8.34 -0.65, 9.2 -0.31 C10.07 0.04, 9.28 1.18, 9.47 1.59" stroke="#d9480f" stroke-width="1" fill="none"></path></g><g stroke-linecap="round" transform="translate(118.99687430183394 123.05098780869878) rotate(0 8 6.5)"><path d="M0.53 4.44 C0.53 4.44, 0.53 4.44, 0.53 4.44 M0.53 4.44 C0.53 4.44, 0.53 4.44, 0.53 4.44 M1.49 10.64 C3.58 7.26, 3.95 5.22, 6.55 4.07 M1 9.68 C2.53 8.18, 4.24 6.27, 6.96 3.66 M3.56 12.13 C5.65 9.77, 7.36 8.04, 12.31 1.93 M4.46 12.84 C5.21 10.42, 7.07 9.15, 13.56 1.7 M9.09 12.03 C11.72 8.88, 14.43 6.83, 15.84 4.05 M9.78 11.92 C11.91 10.21, 13.88 7.54, 16.21 4.83 M2.34 11.02 C2.34 11.02, 2.34 11.02, 2.34 11.02 M2.34 11.02 C2.34 11.02, 2.34 11.02, 2.34 11.02 M9.2 13.01 C6.71 9.71, 5.2 8.44, -0.02 3.56 M9.86 11.58 C7.07 8.92, 4.06 6.78, 0.71 4.53 M13.18 11.4 C10.73 7.72, 8.28 5.16, 3.41 0.77 M13.74 10.71 C9.95 7.29, 6.41 4.03, 4.42 1.26 M16.04 6.23 C14.31 4.39, 9.16 2.87, 6.29 -0.83 M16.33 6.59 C12.62 4.2, 9.43 0.94, 5.88 -1.24" stroke="#fd7e14" stroke-width="0.5" fill="none"></path><path d="M10.62 -0.05 C12.27 0.24, 13.11 1.94, 14.07 3.2 C15.04 4.47, 16.48 6.31, 16.43 7.54 C16.37 8.76, 14.92 9.75, 13.75 10.55 C12.57 11.35, 11.24 12.21, 9.38 12.33 C7.52 12.44, 4.05 11.75, 2.58 11.23 C1.12 10.71, 0.93 10.34, 0.59 9.2 C0.26 8.06, 0 5.71, 0.57 4.39 C1.15 3.07, 2.14 1.81, 4.04 1.26 C5.94 0.71, 10.29 0.91, 11.97 1.09 C13.65 1.27, 14.22 2.23, 14.09 2.36 M8.81 -0.43 C10.59 -0.27, 12.66 -0.09, 13.93 1.1 C15.21 2.3, 16.39 5.37, 16.44 6.74 C16.48 8.11, 15.35 8.34, 14.21 9.32 C13.07 10.31, 11.26 12.04, 9.6 12.65 C7.93 13.27, 5.94 13.9, 4.23 13.04 C2.52 12.17, -0.26 8.95, -0.64 7.48 C-1.01 6, 1.15 5.51, 1.97 4.19 C2.79 2.86, 3.09 0.27, 4.3 -0.48 C5.51 -1.23, 8.34 -0.65, 9.2 -0.31 C10.07 0.04, 9.28 1.18, 9.47 1.59" stroke="#d9480f" stroke-width="1" fill="none"></path></g><g transform="translate(567.9343743018339 63.95098780869881) rotate(0 21.09375 21.599999999999994)"><text x="0" y="0" font-family="Cascadia, Segoe UI Emoji" font-size="36px" fill="#343a40" text-anchor="start" style="white-space: pre;" direction="ltr" dominant-baseline="text-before-edge">99</text></g><g transform="translate(469.90312430183394 65.95098780869881) rotate(0 21.09375 21.599999999999994)"><text x="0" y="0" font-family="Cascadia, Segoe UI Emoji" font-size="36px" fill="#343a40" text-anchor="start" style="white-space: pre;" direction="ltr" dominant-baseline="text-before-edge">95</text></g><g transform="translate(285.90312430183394 68.95098780869881) rotate(0 31.640625 21.599999999999994)"><text x="0" y="0" font-family="Cascadia, Segoe UI Emoji" font-size="36px" fill="#343a40" text-anchor="start" style="white-space: pre;" direction="ltr" dominant-baseline="text-before-edge">...</text></g><g transform="translate(213.90312430183394 65.95098780869881) rotate(0 21.09375 21.599999999999994)"><text x="0" y="0" font-family="Cascadia, Segoe UI Emoji" font-size="36px" fill="#343a40" text-anchor="start" style="white-space: pre;" direction="ltr" dominant-baseline="text-before-edge">27</text></g><g transform="translate(103.90312430183394 64.95098780869881) rotate(0 21.09375 21.599999999999994)"><text x="0" y="0" font-family="Cascadia, Segoe UI Emoji" font-size="36px" fill="#343a40" text-anchor="start" style="white-space: pre;" direction="ltr" dominant-baseline="text-before-edge">14</text></g><g stroke-linecap="round"><g transform="translate(94.16146647736218 112.17540105713425) rotate(0 5.5039736752123645 2.4640357900669585)"><path d="M0 0 C0.82 0.82, 3.08 4.93, 4.92 4.93 C6.75 4.93, 9.99 0.82, 11.01 0 M0 0 C0.82 0.82, 3.08 4.93, 4.92 4.93 C6.75 4.93, 9.99 0.82, 11.01 0" stroke="#d9480f" stroke-width="1" fill="none"></path></g><g transform="translate(94.16146647736218 112.17540105713425) rotate(0 5.5039736752123645 2.4640357900669585)"><path d="M9.37 3.56 C9.82 2.58, 10.27 1.6, 11.01 0 M9.37 3.56 C9.91 2.37, 10.46 1.19, 11.01 0" stroke="#d9480f" stroke-width="1" fill="none"></path></g><g transform="translate(94.16146647736218 112.17540105713425) rotate(0 5.5039736752123645 2.4640357900669585)"><path d="M7.46 1.67 C8.44 1.21, 9.42 0.75, 11.01 0 M7.46 1.67 C8.64 1.11, 9.83 0.56, 11.01 0" stroke="#d9480f" stroke-width="1" fill="none"></path></g></g><mask></mask><g stroke-linecap="round"><g transform="translate(117.69252249261922 111.18227129355279) rotate(0 5.5039736752123645 2.4640357900669585)"><path d="M0 0 C0.82 0.82, 3.08 4.93, 4.92 4.93 C6.75 4.93, 9.99 0.82, 11.01 0 M0 0 C0.82 0.82, 3.08 4.93, 4.92 4.93 C6.75 4.93, 9.99 0.82, 11.01 0" stroke="#d9480f" stroke-width="1" fill="none"></path></g><g transform="translate(117.69252249261922 111.18227129355279) rotate(0 5.5039736752123645 2.4640357900669585)"><path d="M9.37 3.56 C9.82 2.58, 10.27 1.6, 11.01 0 M9.37 3.56 C9.91 2.37, 10.46 1.19, 11.01 0" stroke="#d9480f" stroke-width="1" fill="none"></path></g><g transform="translate(117.69252249261922 111.18227129355279) rotate(0 5.5039736752123645 2.4640357900669585)"><path d="M7.46 1.67 C8.44 1.21, 9.42 0.75, 11.01 0 M7.46 1.67 C8.64 1.11, 9.83 0.56, 11.01 0" stroke="#d9480f" stroke-width="1" fill="none"></path></g></g><mask></mask><g stroke-linecap="round"><g transform="translate(104.75463452313238 111.19601176638997) rotate(0 5.5039736752123645 2.4640357900669585)"><path d="M0 0 C0.82 0.82, 3.08 4.93, 4.92 4.93 C6.75 4.93, 9.99 0.82, 11.01 0 M0 0 C0.82 0.82, 3.08 4.93, 4.92 4.93 C6.75 4.93, 9.99 0.82, 11.01 0" stroke="#d9480f" stroke-width="1" fill="none"></path></g><g transform="translate(104.75463452313238 111.19601176638997) rotate(0 5.5039736752123645 2.4640357900669585)"><path d="M9.37 3.56 C9.82 2.58, 10.27 1.6, 11.01 0 M9.37 3.56 C9.91 2.37, 10.46 1.19, 11.01 0" stroke="#d9480f" stroke-width="1" fill="none"></path></g><g transform="translate(104.75463452313238 111.19601176638997) rotate(0 5.5039736752123645 2.4640357900669585)"><path d="M7.46 1.67 C8.44 1.21, 9.42 0.75, 11.01 0 M7.46 1.67 C8.64 1.11, 9.83 0.56, 11.01 0" stroke="#d9480f" stroke-width="1" fill="none"></path></g></g><mask></mask><g stroke-linecap="round"><g transform="translate(128.9891065155041 111.6925766481807) rotate(0 5.819129263561422 2.464108820220588)"><path d="M0 0 C0.82 0.82, 2.98 4.9, 4.92 4.93 C6.86 4.96, 10.52 0.96, 11.64 0.17 M0 0 C0.82 0.82, 2.98 4.9, 4.92 4.93 C6.86 4.96, 10.52 0.96, 11.64 0.17" stroke="#d9480f" stroke-width="1" fill="none"></path></g><g transform="translate(128.9891065155041 111.6925766481807) rotate(0 5.819129263561422 2.464108820220588)"><path d="M9.66 3.78 C10.2 2.78, 10.75 1.79, 11.64 0.17 M9.66 3.78 C10.32 2.57, 10.98 1.37, 11.64 0.17" stroke="#d9480f" stroke-width="1" fill="none"></path></g><g transform="translate(128.9891065155041 111.6925766481807) rotate(0 5.819129263561422 2.464108820220588)"><path d="M7.8 1.66 C8.86 1.25, 9.91 0.84, 11.64 0.17 M7.8 1.66 C9.08 1.16, 10.36 0.67, 11.64 0.17" stroke="#d9480f" stroke-width="1" fill="none"></path></g></g><mask></mask><g transform="translate(21.231573416108176 66.45345053151414) rotate(0 10.546875 21.599999999999994)"><text x="0" y="0" font-family="Cascadia, Segoe UI Emoji" font-size="36px" fill="#343a40" text-anchor="start" style="white-space: pre;" direction="ltr" dominant-baseline="text-before-edge">0</text></g><g transform="translate(67.80352770538411 15.40208381386583) rotate(0 9.109992980957031 12.5)"><text x="0" y="0" font-family="Virgil, Segoe UI Emoji" font-size="20px" fill="#343a40" text-anchor="start" style="white-space: pre;" direction="ltr" dominant-baseline="text-before-edge">14</text></g><g transform="translate(174.9558333385978 15.160833525546309) rotate(0 9.519989013671875 12.5)"><text x="0" y="0" font-family="Virgil, Segoe UI Emoji" font-size="20px" fill="#343a40" text-anchor="start" style="white-space: pre;" direction="ltr" dominant-baseline="text-before-edge">13</text></g><g transform="translate(399.2725239627032 14.75874971168048) rotate(0 6.17999267578125 12.5)"><text x="0" y="0" font-family="Virgil, Segoe UI Emoji" font-size="20px" fill="#343a40" text-anchor="start" style="white-space: pre;" direction="ltr" dominant-baseline="text-before-edge">5</text></g><g transform="translate(527.9408647822809 15.437082660587805) rotate(0 6.399993896484375 12.5)"><text x="0" y="0" font-family="Virgil, Segoe UI Emoji" font-size="20px" fill="#343a40" text-anchor="start" style="white-space: pre;" direction="ltr" dominant-baseline="text-before-edge">4</text></g><g transform="translate(304.294594888235 10) rotate(0 8.219993591308594 12.5)"><text x="0" y="0" font-family="Virgil, Segoe UI Emoji" font-size="20px" fill="#343a40" text-anchor="start" style="white-space: pre;" direction="ltr" dominant-baseline="text-before-edge">...</text></g></svg>
