<svg version="1.1" xmlns="http://www.w3.org/2000/svg" viewBox="0 0 957.6895546607207 116.69988534617733" width="957.6895546607207" height="116.69988534617733" filter="invert(93%) hue-rotate(180deg)">
  <!-- svg-source:excalidraw -->

  <defs>
    <style class="style-fonts">
      @font-face {
        font-family: "Virgil";
        src: url("https://excalidraw.com/Virgil.woff2");
      }
      @font-face {
        font-family: "Cascadia";
        src: url("https://excalidraw.com/Cascadia.woff2");
      }
    </style>
  </defs>
  <g stroke-linecap="round"><g transform="translate(11.710443942947222 27.50501651558585) rotate(0 -0.21719241256823807 31.82238837033509)"><path d="M-0.16 -0.99 C-0.23 9.93, -0.9 53.94, -0.94 64.64 M-1.71 1.1 C-1.36 11.75, 1.23 52.35, 1.28 62.85" stroke="#343a40" stroke-width="4" fill="none"></path></g></g><mask></mask><g stroke-linecap="round"><g transform="translate(11.710443942947222 91.50501651558585) rotate(0 7.309024445712566 -0.08071814064618366)"><path d="M-0.94 0.64 C1.68 0.67, 12.87 -0.79, 15.56 -0.8 M0.76 -0.07 C3.2 0.18, 11.57 0.55, 14.38 0.32" stroke="#343a40" stroke-width="4" fill="none"></path></g></g><mask></mask><g stroke-linecap="round"><g transform="translate(12.689750544186609 27.794075810917946) rotate(0 8.504313273527714 0.07335484097711742)"><path d="M-0.44 -0.8 C2.25 -0.81, 12.54 0.26, 15.17 0.57 M1.53 1.4 C4.68 0.97, 15.32 -0.9, 17.45 -1.25" stroke="#343a40" stroke-width="4" fill="none"></path></g></g><mask></mask><g stroke-linecap="round"><g transform="translate(624.5035267040198 27.618891838927368) rotate(179.57242749316657 -0.21719241256823807 31.82238837033509)"><path d="M-0.16 -0.99 C-0.23 9.93, -0.9 53.94, -0.94 64.64 M-1.71 1.1 C-1.36 11.75, 1.23 52.35, 1.28 62.85" stroke="#343a40" stroke-width="4" fill="none"></path></g></g><mask></mask><g stroke-linecap="round"><g transform="translate(609.2117801662976 27.482162822225007) rotate(179.57242749316657 7.309024445712566 -0.08071814064619787)"><path d="M-0.94 0.64 C1.68 0.67, 12.87 -0.79, 15.56 -0.8 M0.76 -0.07 C3.2 0.18, 11.57 0.55, 14.38 0.32" stroke="#343a40" stroke-width="4" fill="none"></path></g></g><mask></mask><g stroke-linecap="round"><g transform="translate(606.3162482364846 90.8994157150774) rotate(179.57242749316657 8.504313273527714 0.07335484097711742)"><path d="M-0.44 -0.8 C2.25 -0.81, 12.54 0.26, 15.17 0.57 M1.53 1.4 C4.68 0.97, 15.32 -0.9, 17.45 -1.25" stroke="#343a40" stroke-width="4" fill="none"></path></g></g><mask></mask><g transform="translate(19.56455466072066 37.00501651558585) rotate(0 464.0625 21.599999999999994)"><text x="0" y="0" font-family="Cascadia, Segoe UI Emoji" font-size="36px" fill="#343a40" text-anchor="start" style="white-space: pre;" direction="ltr" dominant-baseline="text-before-edge">0   14   27 ...      95   99                </text></g><g transform="translate(63.41874930183394 14.59988534617736) rotate(0 239.4298095703125 12.5)"><text x="0" y="0" font-family="Virgil, Segoe UI Emoji" font-size="20px" fill="#343a40" text-anchor="start" style="white-space: pre;" direction="ltr" dominant-baseline="text-before-edge"> 14        13          ...           5          4</text></g><g stroke-linecap="round"><g transform="translate(47.43078859610796 82.72210908327321) rotate(0 5.5039736752123645 2.4640357900669585)"><path d="M0 0 C0.82 0.82, 3.08 4.93, 4.92 4.93 C6.75 4.93, 9.99 0.82, 11.01 0 M0 0 C0.82 0.82, 3.08 4.93, 4.92 4.93 C6.75 4.93, 9.99 0.82, 11.01 0" stroke="#d9480f" stroke-width="1" fill="none"></path></g><g transform="translate(47.43078859610796 82.72210908327321) rotate(0 5.5039736752123645 2.4640357900669585)"><path d="M9.37 3.56 C9.82 2.58, 10.27 1.6, 11.01 0 M9.37 3.56 C9.91 2.37, 10.46 1.19, 11.01 0" stroke="#d9480f" stroke-width="1" fill="none"></path></g><g transform="translate(47.43078859610796 82.72210908327321) rotate(0 5.5039736752123645 2.4640357900669585)"><path d="M7.46 1.67 C8.44 1.21, 9.42 0.75, 11.01 0 M7.46 1.67 C8.64 1.11, 9.83 0.56, 11.01 0" stroke="#d9480f" stroke-width="1" fill="none"></path></g></g><mask></mask><g stroke-linecap="round"><g transform="translate(34.49290062662158 82.73584955611034) rotate(0 5.5039736752123645 2.4640357900669585)"><path d="M0 0 C0.82 0.82, 3.08 4.93, 4.92 4.93 C6.75 4.93, 9.99 0.82, 11.01 0 M0 0 C0.82 0.82, 3.08 4.93, 4.92 4.93 C6.75 4.93, 9.99 0.82, 11.01 0" stroke="#d9480f" stroke-width="1" fill="none"></path></g><g transform="translate(34.49290062662158 82.73584955611034) rotate(0 5.5039736752123645 2.4640357900669585)"><path d="M9.37 3.56 C9.82 2.58, 10.27 1.6, 11.01 0 M9.37 3.56 C9.91 2.37, 10.46 1.19, 11.01 0" stroke="#d9480f" stroke-width="1" fill="none"></path></g><g transform="translate(34.49290062662158 82.73584955611034) rotate(0 5.5039736752123645 2.4640357900669585)"><path d="M7.46 1.67 C8.44 1.21, 9.42 0.75, 11.01 0 M7.46 1.67 C8.64 1.11, 9.83 0.56, 11.01 0" stroke="#d9480f" stroke-width="1" fill="none"></path></g></g><mask></mask><g stroke-linecap="round"><g transform="translate(70.961844611365 81.72897931969175) rotate(0 5.5039736752123645 2.4640357900669585)"><path d="M0 0 C0.82 0.82, 3.08 4.93, 4.92 4.93 C6.75 4.93, 9.99 0.82, 11.01 0 M0 0 C0.82 0.82, 3.08 4.93, 4.92 4.93 C6.75 4.93, 9.99 0.82, 11.01 0" stroke="#d9480f" stroke-width="1" fill="none"></path></g><g transform="translate(70.961844611365 81.72897931969175) rotate(0 5.5039736752123645 2.4640357900669585)"><path d="M9.37 3.56 C9.82 2.58, 10.27 1.6, 11.01 0 M9.37 3.56 C9.91 2.37, 10.46 1.19, 11.01 0" stroke="#d9480f" stroke-width="1" fill="none"></path></g><g transform="translate(70.961844611365 81.72897931969175) rotate(0 5.5039736752123645 2.4640357900669585)"><path d="M7.46 1.67 C8.44 1.21, 9.42 0.75, 11.01 0 M7.46 1.67 C8.64 1.11, 9.83 0.56, 11.01 0" stroke="#d9480f" stroke-width="1" fill="none"></path></g></g><mask></mask><g stroke-linecap="round"><g transform="translate(58.02395664187816 81.74271979252893) rotate(0 5.5039736752123645 2.4640357900669585)"><path d="M0 0 C0.82 0.82, 3.08 4.93, 4.92 4.93 C6.75 4.93, 9.99 0.82, 11.01 0 M0 0 C0.82 0.82, 3.08 4.93, 4.92 4.93 C6.75 4.93, 9.99 0.82, 11.01 0" stroke="#d9480f" stroke-width="1" fill="none"></path></g><g transform="translate(58.02395664187816 81.74271979252893) rotate(0 5.5039736752123645 2.4640357900669585)"><path d="M9.37 3.56 C9.82 2.58, 10.27 1.6, 11.01 0 M9.37 3.56 C9.91 2.37, 10.46 1.19, 11.01 0" stroke="#d9480f" stroke-width="1" fill="none"></path></g><g transform="translate(58.02395664187816 81.74271979252893) rotate(0 5.5039736752123645 2.4640357900669585)"><path d="M7.46 1.67 C8.44 1.21, 9.42 0.75, 11.01 0 M7.46 1.67 C8.64 1.11, 9.83 0.56, 11.01 0" stroke="#d9480f" stroke-width="1" fill="none"></path></g></g><mask></mask><g stroke-linecap="round"><g transform="translate(95.19631660373625 82.22554420148259) rotate(0 5.5039736752123645 2.4640357900669585)"><path d="M0 0 C0.82 0.82, 3.08 4.93, 4.92 4.93 C6.75 4.93, 9.99 0.82, 11.01 0 M0 0 C0.82 0.82, 3.08 4.93, 4.92 4.93 C6.75 4.93, 9.99 0.82, 11.01 0" stroke="#d9480f" stroke-width="1" fill="none"></path></g><g transform="translate(95.19631660373625 82.22554420148259) rotate(0 5.5039736752123645 2.4640357900669585)"><path d="M9.37 3.56 C9.82 2.58, 10.27 1.6, 11.01 0 M9.37 3.56 C9.91 2.37, 10.46 1.19, 11.01 0" stroke="#d9480f" stroke-width="1" fill="none"></path></g><g transform="translate(95.19631660373625 82.22554420148259) rotate(0 5.5039736752123645 2.4640357900669585)"><path d="M7.46 1.67 C8.44 1.21, 9.42 0.75, 11.01 0 M7.46 1.67 C8.64 1.11, 9.83 0.56, 11.01 0" stroke="#d9480f" stroke-width="1" fill="none"></path></g></g><mask></mask><g stroke-linecap="round"><g transform="translate(82.25842863424987 82.23928467431966) rotate(0 5.5039736752123645 2.4640357900669585)"><path d="M0 0 C0.82 0.82, 3.08 4.93, 4.92 4.93 C6.75 4.93, 9.99 0.82, 11.01 0 M0 0 C0.82 0.82, 3.08 4.93, 4.92 4.93 C6.75 4.93, 9.99 0.82, 11.01 0" stroke="#d9480f" stroke-width="1" fill="none"></path></g><g transform="translate(82.25842863424987 82.23928467431966) rotate(0 5.5039736752123645 2.4640357900669585)"><path d="M9.37 3.56 C9.82 2.58, 10.27 1.6, 11.01 0 M9.37 3.56 C9.91 2.37, 10.46 1.19, 11.01 0" stroke="#d9480f" stroke-width="1" fill="none"></path></g><g transform="translate(82.25842863424987 82.23928467431966) rotate(0 5.5039736752123645 2.4640357900669585)"><path d="M7.46 1.67 C8.44 1.21, 9.42 0.75, 11.01 0 M7.46 1.67 C8.64 1.11, 9.83 0.56, 11.01 0" stroke="#d9480f" stroke-width="1" fill="none"></path></g></g><mask></mask><g stroke-linecap="round"><g transform="translate(118.72737261899329 81.23241443790113) rotate(0 5.5039736752123645 2.4640357900669585)"><path d="M0 0 C0.82 0.82, 3.08 4.93, 4.92 4.93 C6.75 4.93, 9.99 0.82, 11.01 0 M0 0 C0.82 0.82, 3.08 4.93, 4.92 4.93 C6.75 4.93, 9.99 0.82, 11.01 0" stroke="#d9480f" stroke-width="1" fill="none"></path></g><g transform="translate(118.72737261899329 81.23241443790113) rotate(0 5.5039736752123645 2.4640357900669585)"><path d="M9.37 3.56 C9.82 2.58, 10.27 1.6, 11.01 0 M9.37 3.56 C9.91 2.37, 10.46 1.19, 11.01 0" stroke="#d9480f" stroke-width="1" fill="none"></path></g><g transform="translate(118.72737261899329 81.23241443790113) rotate(0 5.5039736752123645 2.4640357900669585)"><path d="M7.46 1.67 C8.44 1.21, 9.42 0.75, 11.01 0 M7.46 1.67 C8.64 1.11, 9.83 0.56, 11.01 0" stroke="#d9480f" stroke-width="1" fill="none"></path></g></g><mask></mask><g stroke-linecap="round"><g transform="translate(105.78948464950645 81.2461549107382) rotate(0 5.5039736752123645 2.4640357900669585)"><path d="M0 0 C0.82 0.82, 3.08 4.93, 4.92 4.93 C6.75 4.93, 9.99 0.82, 11.01 0 M0 0 C0.82 0.82, 3.08 4.93, 4.92 4.93 C6.75 4.93, 9.99 0.82, 11.01 0" stroke="#d9480f" stroke-width="1" fill="none"></path></g><g transform="translate(105.78948464950645 81.2461549107382) rotate(0 5.5039736752123645 2.4640357900669585)"><path d="M9.37 3.56 C9.82 2.58, 10.27 1.6, 11.01 0 M9.37 3.56 C9.91 2.37, 10.46 1.19, 11.01 0" stroke="#d9480f" stroke-width="1" fill="none"></path></g><g transform="translate(105.78948464950645 81.2461549107382) rotate(0 5.5039736752123645 2.4640357900669585)"><path d="M7.46 1.67 C8.44 1.21, 9.42 0.75, 11.01 0 M7.46 1.67 C8.64 1.11, 9.83 0.56, 11.01 0" stroke="#d9480f" stroke-width="1" fill="none"></path></g></g><mask></mask><g stroke-linecap="round"><g transform="translate(34.99687430183394 30.199885346177297) rotate(0 45.70534934637135 -7.008047430308196)"><path d="M0.51 0.13 C7.94 -3.33, 30.82 -21.17, 45.71 -20.16 C60.59 -19.15, 82.08 1.8, 89.82 6.18 M-0.69 -0.85 C6.55 -4.17, 29.67 -19.59, 45.13 -18.7 C60.6 -17.82, 84.73 0.64, 92.1 4.46" stroke="#d9480f" stroke-width="1" fill="none"></path></g><g transform="translate(34.99687430183394 30.199885346177297) rotate(0 45.70534934637135 -7.008047430308196)"><path d="M66.7 0.24 C76.28 -0.89, 88.55 5.1, 94.04 5.33 M67.23 -1.17 C74.99 1.44, 84.7 3.39, 92.06 4.03" stroke="#d9480f" stroke-width="1" fill="none"></path></g><g transform="translate(34.99687430183394 30.199885346177297) rotate(0 45.70534934637135 -7.008047430308196)"><path d="M76.17 -14.96 C82.11 -10.1, 90.68 1.85, 94.04 5.33 M76.69 -16.37 C81.07 -8.45, 87.49 -1.23, 92.06 4.03" stroke="#d9480f" stroke-width="1" fill="none"></path></g></g><mask></mask><g stroke-linecap="round" transform="translate(130.99687430183394 11.199885346177325) rotate(0 8 6.5)"><path d="M0.53 4.44 C0.53 4.44, 0.53 4.44, 0.53 4.44 M0.53 4.44 C0.53 4.44, 0.53 4.44, 0.53 4.44 M1.49 10.64 C3.58 7.26, 3.95 5.22, 6.55 4.07 M1 9.68 C2.53 8.18, 4.24 6.27, 6.96 3.66 M3.56 12.13 C5.65 9.77, 7.36 8.04, 12.31 1.93 M4.46 12.84 C5.21 10.42, 7.07 9.15, 13.56 1.7 M9.09 12.03 C11.72 8.88, 14.43 6.83, 15.84 4.05 M9.78 11.92 C11.91 10.21, 13.88 7.54, 16.21 4.83 M2.34 11.02 C2.34 11.02, 2.34 11.02, 2.34 11.02 M2.34 11.02 C2.34 11.02, 2.34 11.02, 2.34 11.02 M9.2 13.01 C6.71 9.71, 5.2 8.44, -0.02 3.56 M9.86 11.58 C7.07 8.92, 4.06 6.78, 0.71 4.53 M13.18 11.4 C10.73 7.72, 8.28 5.16, 3.41 0.77 M13.74 10.71 C9.95 7.29, 6.41 4.03, 4.42 1.26 M16.04 6.23 C14.31 4.39, 9.16 2.87, 6.29 -0.83 M16.33 6.59 C12.62 4.2, 9.43 0.94, 5.88 -1.24" stroke="#fd7e14" stroke-width="0.5" fill="none"></path><path d="M10.62 -0.05 C12.27 0.24, 13.11 1.94, 14.07 3.2 C15.04 4.47, 16.48 6.31, 16.43 7.54 C16.37 8.76, 14.92 9.75, 13.75 10.55 C12.57 11.35, 11.24 12.21, 9.38 12.33 C7.52 12.44, 4.05 11.75, 2.58 11.23 C1.12 10.71, 0.93 10.34, 0.59 9.2 C0.26 8.06, 0 5.71, 0.57 4.39 C1.15 3.07, 2.14 1.81, 4.04 1.26 C5.94 0.71, 10.29 0.91, 11.97 1.09 C13.65 1.27, 14.22 2.23, 14.09 2.36 M8.81 -0.43 C10.59 -0.27, 12.66 -0.09, 13.93 1.1 C15.21 2.3, 16.39 5.37, 16.44 6.74 C16.48 8.11, 15.35 8.34, 14.21 9.32 C13.07 10.31, 11.26 12.04, 9.6 12.65 C7.93 13.27, 5.94 13.9, 4.23 13.04 C2.52 12.17, -0.26 8.95, -0.64 7.48 C-1.01 6, 1.15 5.51, 1.97 4.19 C2.79 2.86, 3.09 0.27, 4.3 -0.48 C5.51 -1.23, 8.34 -0.65, 9.2 -0.31 C10.07 0.04, 9.28 1.18, 9.47 1.59" stroke="#d9480f" stroke-width="1" fill="none"></path></g><g stroke-linecap="round" transform="translate(118.99687430183394 93.69988534617733) rotate(0 8 6.5)"><path d="M0.53 4.44 C0.53 4.44, 0.53 4.44, 0.53 4.44 M0.53 4.44 C0.53 4.44, 0.53 4.44, 0.53 4.44 M1.49 10.64 C3.58 7.26, 3.95 5.22, 6.55 4.07 M1 9.68 C2.53 8.18, 4.24 6.27, 6.96 3.66 M3.56 12.13 C5.65 9.77, 7.36 8.04, 12.31 1.93 M4.46 12.84 C5.21 10.42, 7.07 9.15, 13.56 1.7 M9.09 12.03 C11.72 8.88, 14.43 6.83, 15.84 4.05 M9.78 11.92 C11.91 10.21, 13.88 7.54, 16.21 4.83 M2.34 11.02 C2.34 11.02, 2.34 11.02, 2.34 11.02 M2.34 11.02 C2.34 11.02, 2.34 11.02, 2.34 11.02 M9.2 13.01 C6.71 9.71, 5.2 8.44, -0.02 3.56 M9.86 11.58 C7.07 8.92, 4.06 6.78, 0.71 4.53 M13.18 11.4 C10.73 7.72, 8.28 5.16, 3.41 0.77 M13.74 10.71 C9.95 7.29, 6.41 4.03, 4.42 1.26 M16.04 6.23 C14.31 4.39, 9.16 2.87, 6.29 -0.83 M16.33 6.59 C12.62 4.2, 9.43 0.94, 5.88 -1.24" stroke="#fd7e14" stroke-width="0.5" fill="none"></path><path d="M10.62 -0.05 C12.27 0.24, 13.11 1.94, 14.07 3.2 C15.04 4.47, 16.48 6.31, 16.43 7.54 C16.37 8.76, 14.92 9.75, 13.75 10.55 C12.57 11.35, 11.24 12.21, 9.38 12.33 C7.52 12.44, 4.05 11.75, 2.58 11.23 C1.12 10.71, 0.93 10.34, 0.59 9.2 C0.26 8.06, 0 5.71, 0.57 4.39 C1.15 3.07, 2.14 1.81, 4.04 1.26 C5.94 0.71, 10.29 0.91, 11.97 1.09 C13.65 1.27, 14.22 2.23, 14.09 2.36 M8.81 -0.43 C10.59 -0.27, 12.66 -0.09, 13.93 1.1 C15.21 2.3, 16.39 5.37, 16.44 6.74 C16.48 8.11, 15.35 8.34, 14.21 9.32 C13.07 10.31, 11.26 12.04, 9.6 12.65 C7.93 13.27, 5.94 13.9, 4.23 13.04 C2.52 12.17, -0.26 8.95, -0.64 7.48 C-1.01 6, 1.15 5.51, 1.97 4.19 C2.79 2.86, 3.09 0.27, 4.3 -0.48 C5.51 -1.23, 8.34 -0.65, 9.2 -0.31 C10.07 0.04, 9.28 1.18, 9.47 1.59" stroke="#d9480f" stroke-width="1" fill="none"></path></g></svg>
