<svg version="1.1" xmlns="http://www.w3.org/2000/svg" viewBox="0 0 833.8628990573093 369.2930983436907" width="833.8628990573093" height="369.2930983436907" filter="invert(93%) hue-rotate(180deg)">
  <!-- svg-source:excalidraw -->

  <defs>
    <style class="style-fonts">
      @font-face {
        font-family: "Virgil";
        src: url("https://excalidraw.com/Virgil.woff2");
      }
      @font-face {
        font-family: "Cascadia";
        src: url("https://excalidraw.com/Cascadia.woff2");
      }
      @font-face {
        font-family: "Assistant";
        src: url("https://excalidraw.com/Assistant-Regular.woff2");
      }
    </style>

  </defs>
  <g stroke-linecap="round" transform="translate(231.0696504761952 43.20047424430392) rotate(0 294.42228049690095 44.51745821946268)"><path d="M22.26 0 C163.79 -1.12, 304.52 -1.95, 566.59 0 M22.26 0 C215.16 0.52, 408.15 1.19, 566.59 0 M566.59 0 C582.99 -0.18, 589.49 9.27, 588.84 22.26 M566.59 0 C583.62 2.25, 588.87 6.56, 588.84 22.26 M588.84 22.26 C590.22 38.11, 590.2 51.76, 588.84 66.78 M588.84 22.26 C588.85 33.7, 589.01 45.98, 588.84 66.78 M588.84 66.78 C587.79 80.09, 579.76 87.71, 566.59 89.03 M588.84 66.78 C589.14 82.4, 582.89 87.45, 566.59 89.03 M566.59 89.03 C382.49 90.82, 198.22 90.49, 22.26 89.03 M566.59 89.03 C395.83 88.43, 224.92 88.26, 22.26 89.03 M22.26 89.03 C5.67 89.2, 1.89 81.4, 0 66.78 M22.26 89.03 C5.94 89.37, 2.18 81.68, 0 66.78 M0 66.78 C-0.51 54.38, -1.26 43.26, 0 22.26 M0 66.78 C0.36 57.02, 0.08 45.82, 0 22.26 M0 22.26 C-1.49 7.84, 6.18 -1.83, 22.26 0 M0 22.26 C-0.69 8.52, 8.52 0.76, 22.26 0" stroke="#1e1e1e" stroke-width="1" fill="none"></path></g><g stroke-linecap="round" transform="translate(406.7405412836474 42.18871383022524) rotate(0 206.39912447205404 44.51745821946268)"><path d="M5.27 5.91 C5.27 5.91, 5.27 5.91, 5.27 5.91 M5.27 5.91 C5.27 5.91, 5.27 5.91, 5.27 5.91 M1.07 16.83 C7.11 10.01, 9.2 7.31, 14.19 1.74 M1.07 16.83 C5.62 11.7, 11.93 6.02, 14.19 1.74 M0.15 23.98 C4.95 19.17, 9.72 12.75, 20.49 0.59 M0.15 23.98 C8.64 14.66, 15.5 6.59, 20.49 0.59 M-0.11 30.38 C8.68 17.14, 19.2 6.11, 26.13 0.19 M-0.11 30.38 C7.69 22.58, 13.73 14.17, 26.13 0.19 M0.29 36.02 C9.2 22.97, 20.02 14.52, 31.78 -0.2 M0.29 36.02 C5.8 28.66, 13.42 21.89, 31.78 -0.2 M0.03 42.42 C6.32 33.84, 14.92 25.28, 36.76 0.16 M0.03 42.42 C13.18 27.92, 26.56 12.18, 36.76 0.16 M0.42 48.07 C14.07 33.31, 26.46 17.53, 42.41 -0.24 M0.42 48.07 C10.11 36.37, 19.88 25.34, 42.41 -0.24 M0.16 54.46 C8.56 44.79, 19.66 29.95, 47.39 0.12 M0.16 54.46 C13.01 40.23, 23.14 28.1, 47.39 0.12 M-0.1 60.86 C14.65 47.1, 23.66 32.4, 53.04 -0.27 M-0.1 60.86 C15.85 43.3, 29.54 27.95, 53.04 -0.27 M0.29 66.5 C22.68 40.02, 46.48 16.43, 58.02 0.09 M0.29 66.5 C19.37 42.74, 39.94 21.9, 58.02 0.09 M0.69 72.15 C24.53 46.22, 47.13 17.63, 63.67 -0.31 M0.69 72.15 C25.07 44.73, 50.72 15.71, 63.67 -0.31 M1.74 77.04 C19.49 58.05, 37.14 37.55, 68.65 0.06 M1.74 77.04 C17.72 59.35, 31.65 40.83, 68.65 0.06 M4.1 80.41 C26.99 53.49, 49.9 26.82, 73.64 0.42 M4.1 80.41 C22.05 59.85, 40.33 40.03, 73.64 0.42 M7.12 83.04 C21.97 65.13, 38.1 50.05, 79.28 0.02 M7.12 83.04 C33.33 52.14, 59.84 22.22, 79.28 0.02 M9.48 86.42 C26.26 68.94, 40.25 52.52, 84.27 0.38 M9.48 86.42 C35.83 56.6, 61.09 25.71, 84.27 0.38 M13.81 87.53 C37.43 60.22, 59.45 37.98, 89.91 -0.01 M13.81 87.53 C42.79 52.53, 72.51 18.93, 89.91 -0.01 M17.49 89.4 C42.31 59.67, 70.06 30.95, 94.9 0.35 M17.49 89.4 C48.32 53.92, 79.78 19.34, 94.9 0.35 M23.13 89.01 C45.86 66.21, 65.55 39.71, 100.54 -0.05 M23.13 89.01 C53.14 55.1, 82.15 21.07, 100.54 -0.05 M28.12 89.37 C52.92 61.15, 79.46 32.25, 105.53 0.31 M28.12 89.37 C53.16 60.09, 78.63 31.06, 105.53 0.31 M33.76 88.97 C62.53 58.91, 88.63 24.46, 111.18 -0.08 M33.76 88.97 C48.35 71.66, 64.36 53.55, 111.18 -0.08 M38.75 89.33 C65.78 56.13, 95.26 27.61, 116.16 0.28 M38.75 89.33 C60.22 65.61, 80.73 41.76, 116.16 0.28 M44.39 88.94 C67.27 63.31, 89.75 40.27, 121.81 -0.12 M44.39 88.94 C73.35 54.74, 103.67 18.8, 121.81 -0.12 M49.38 89.3 C78.14 55.59, 108.04 19.67, 126.79 0.24 M49.38 89.3 C64.7 70.72, 81.55 53.32, 126.79 0.24 M55.02 88.9 C72.96 70.08, 87.9 50.51, 132.44 -0.15 M55.02 88.9 C74.72 66.79, 96.37 42.94, 132.44 -0.15 M60.01 89.26 C84.03 62.12, 107.98 37.22, 137.42 0.21 M60.01 89.26 C84.6 61.11, 110.29 33.59, 137.42 0.21 M64.99 89.62 C82.12 68.53, 102.66 47.53, 143.07 -0.19 M64.99 89.62 C91.51 57.12, 119.73 26.15, 143.07 -0.19 M70.64 89.23 C91.46 63.16, 113.03 40.88, 148.05 0.17 M70.64 89.23 C87.25 69.87, 104.47 51.52, 148.05 0.17 M75.62 89.59 C100.44 62.63, 123.2 33.44, 153.7 -0.22 M75.62 89.59 C95.02 69.31, 112.57 47.15, 153.7 -0.22 M81.27 89.19 C109.24 56.79, 136.74 24.49, 158.68 0.14 M81.27 89.19 C105.41 62.27, 128.45 33.4, 158.68 0.14 M86.25 89.56 C104.2 68.24, 124.18 44.64, 163.67 0.5 M86.25 89.56 C109.62 63.23, 132.96 37.16, 163.67 0.5 M91.9 89.16 C111.91 67.14, 133.72 40.3, 169.31 0.1 M91.9 89.16 C110.83 64.57, 131.09 42.05, 169.31 0.1 M96.88 89.52 C126.99 52.4, 155.42 21.19, 174.3 0.46 M96.88 89.52 C121.09 62.47, 145.33 32.87, 174.3 0.46 M102.53 89.13 C117.74 68.75, 135.52 52.12, 179.94 0.07 M102.53 89.13 C125.68 60.61, 149.55 34.78, 179.94 0.07 M107.51 89.49 C129.91 61.43, 157.95 31.19, 184.93 0.43 M107.51 89.49 C135.13 60.52, 160.61 29.84, 184.93 0.43 M113.16 89.09 C133.31 64.98, 156.89 39.18, 190.57 0.04 M113.16 89.09 C140.47 59.14, 167.84 27.74, 190.57 0.04 M118.14 89.45 C144.96 58.65, 168.68 30.85, 195.56 0.4 M118.14 89.45 C150.02 54.6, 179.91 19.51, 195.56 0.4 M123.79 89.06 C141.19 70.42, 159.82 48.3, 201.2 0 M123.79 89.06 C143.27 66.82, 164.97 43.33, 201.2 0 M128.77 89.42 C158.36 58.97, 186 24.32, 206.19 0.36 M128.77 89.42 C155.45 59.68, 181.73 29.21, 206.19 0.36 M134.42 89.02 C161.42 60.86, 185.07 32.65, 211.83 -0.03 M134.42 89.02 C164.2 55.06, 192.42 21.43, 211.83 -0.03 M139.4 89.38 C160.65 65.76, 179.5 42.81, 216.82 0.33 M139.4 89.38 C158.13 68.18, 178.5 46.25, 216.82 0.33 M145.05 88.99 C167.87 62.42, 191.03 37.92, 222.46 -0.07 M145.05 88.99 C163.21 67.34, 181.04 47.54, 222.46 -0.07 M150.04 89.35 C176.32 56.54, 205.9 24.83, 227.45 0.29 M150.04 89.35 C166.32 70, 183.65 51.73, 227.45 0.29 M155.02 89.71 C183.42 60.72, 206.63 30.22, 233.09 -0.1 M155.02 89.71 C184.82 56.03, 213.32 21.04, 233.09 -0.1 M160.67 89.31 C177.95 66.47, 198.43 42.52, 238.08 0.26 M160.67 89.31 C189.35 57.42, 217.19 25.47, 238.08 0.26 M165.65 89.67 C195.82 56.37, 224.31 23.72, 243.72 -0.14 M165.65 89.67 C194.44 55.51, 223.98 21.58, 243.72 -0.14 M171.3 89.28 C189.3 67.94, 206.22 48.59, 248.71 0.22 M171.3 89.28 C186.34 70.94, 201.84 53.31, 248.71 0.22 M176.28 89.64 C205.72 60.01, 232.07 27.02, 253.7 0.58 M176.28 89.64 C194.73 69.51, 211.86 48.28, 253.7 0.58 M181.93 89.24 C203.44 65.82, 223.01 44.62, 259.34 0.19 M181.93 89.24 C204.47 62.43, 229.3 35.65, 259.34 0.19 M186.91 89.6 C215.69 57.76, 238.7 28.29, 264.33 0.55 M186.91 89.6 C213.6 56.74, 241.98 25.37, 264.33 0.55 M192.56 89.21 C222.59 57.2, 250.02 21.16, 269.97 0.15 M192.56 89.21 C211.25 68.7, 229.62 47.3, 269.97 0.15 M197.54 89.57 C219.93 62.6, 242.65 38, 274.96 0.51 M197.54 89.57 C228 55.47, 257.21 21.1, 274.96 0.51 M203.19 89.18 C229.43 58.09, 252.21 32.09, 280.6 0.12 M203.19 89.18 C231.91 55.7, 261.96 21.24, 280.6 0.12 M208.17 89.54 C224.23 72.11, 240.54 51.69, 285.59 0.48 M208.17 89.54 C233.88 59.34, 260.05 29.5, 285.59 0.48 M213.82 89.14 C236.95 60.21, 258.15 36.11, 291.23 0.09 M213.82 89.14 C242.4 56.99, 267.7 25.67, 291.23 0.09 M218.8 89.5 C249.3 56.69, 281.64 20.71, 296.22 0.45 M218.8 89.5 C241.65 62.37, 266.89 35.29, 296.22 0.45 M224.45 89.11 C239.04 72.62, 256.59 53.68, 301.86 0.05 M224.45 89.11 C253.53 57.08, 283.01 24.62, 301.86 0.05 M229.43 89.47 C248 68.68, 264.26 48.14, 306.85 0.41 M229.43 89.47 C258.1 58.04, 286 25.01, 306.85 0.41 M235.08 89.07 C250.2 70.81, 266.72 50.63, 312.49 0.02 M235.08 89.07 C256.03 64.92, 278.44 38.51, 312.49 0.02 M240.06 89.43 C267.72 54.4, 300.43 20.94, 317.48 0.38 M240.06 89.43 C258.18 69.19, 274.27 50.49, 317.48 0.38 M245.05 89.79 C274.69 58.97, 300.46 23.78, 323.12 -0.02 M245.05 89.79 C272.5 57.79, 299.08 26.56, 323.12 -0.02 M250.69 89.4 C283.67 56.16, 311.39 21.7, 328.11 0.34 M250.69 89.4 C282.31 53.97, 311.44 17.97, 328.11 0.34 M255.68 89.76 C269.01 72.05, 285.06 51.85, 333.75 -0.05 M255.68 89.76 C276.27 67.4, 294.98 45, 333.75 -0.05 M261.32 89.36 C284.98 65.49, 305.53 39.36, 338.74 0.31 M261.32 89.36 C279.1 67.59, 298.03 45.93, 338.74 0.31 M266.31 89.72 C291.25 59.6, 317.94 26.86, 343.72 0.67 M266.31 89.72 C288.97 62.72, 313.12 37.44, 343.72 0.67 M271.95 89.33 C300.06 55.44, 328.36 23.35, 349.37 0.27 M271.95 89.33 C295.85 62.94, 319.54 34.02, 349.37 0.27 M276.94 89.69 C298.43 64.11, 320.66 41.56, 354.36 0.63 M276.94 89.69 C293.64 70.79, 310.95 53.22, 354.36 0.63 M282.58 89.29 C298.36 68.04, 318.73 48.07, 360 0.24 M282.58 89.29 C311.44 55.9, 340.6 22.43, 360 0.24 M287.57 89.65 C304.24 70.27, 319.92 54.59, 364.99 0.6 M287.57 89.65 C311.73 62.55, 335.81 32.97, 364.99 0.6 M293.21 89.26 C319.09 59.84, 345.49 27.99, 370.63 0.2 M293.21 89.26 C311.85 67.81, 330.41 45.16, 370.63 0.2 M298.2 89.62 C326.33 57.96, 352.82 24.35, 375.62 0.56 M298.2 89.62 C327.07 56.09, 356.59 22.04, 375.62 0.56 M303.84 89.23 C323.42 67.78, 344.32 43.73, 381.26 0.17 M303.84 89.23 C329.51 59.4, 354.5 30.48, 381.26 0.17 M308.83 89.59 C329.61 64.04, 352.03 38.26, 386.25 0.53 M308.83 89.59 C336.51 57.61, 366.15 24.43, 386.25 0.53 M314.47 89.19 C346.31 55.28, 372.91 19.99, 391.89 0.14 M314.47 89.19 C335.78 66.57, 354.85 43.42, 391.89 0.14 M319.46 89.55 C337.08 67.43, 356.95 49.32, 396.22 1.25 M319.46 89.55 C342.27 63.72, 365.93 37.09, 396.22 1.25 M325.1 89.16 C345.46 65.19, 364.06 43.26, 400.55 2.36 M325.1 89.16 C347.89 63.3, 370.6 36.65, 400.55 2.36 M330.09 89.52 C350.92 66.96, 372.62 41.31, 404.23 4.23 M330.09 89.52 C357.38 57.81, 382.76 28.73, 404.23 4.23 M335.08 89.88 C356.95 64.3, 377.92 40.62, 407.9 6.1 M335.08 89.88 C358.89 62.84, 382.12 35.05, 407.9 6.1 M340.72 89.48 C353.92 73.6, 369.12 57.37, 410.26 9.48 M340.72 89.48 C367.47 57.58, 394.97 25.8, 410.26 9.48 M345.71 89.84 C367.65 66.08, 387.86 41.68, 411.97 13.62 M345.71 89.84 C360.3 72.53, 375.66 55.98, 411.97 13.62 M351.35 89.45 C369.07 69.54, 386.81 48.56, 412.36 19.26 M351.35 89.45 C365.75 71.48, 381.9 53.62, 412.36 19.26 M356.34 89.81 C376.49 68.59, 391.5 47.2, 413.41 24.15 M356.34 89.81 C372.71 70.67, 390.11 51.67, 413.41 24.15 M361.98 89.41 C378.14 72.79, 394.24 53.63, 413.15 30.55 M361.98 89.41 C372.52 76.86, 383.5 64.38, 413.15 30.55 M366.97 89.77 C383.47 73.05, 397.13 54.66, 413.55 36.19 M366.97 89.77 C380.41 74.29, 393.14 59.92, 413.55 36.19 M372.61 89.38 C379.98 78.28, 389.74 68.38, 413.29 42.59 M372.61 89.38 C386.43 73.16, 399.43 57.84, 413.29 42.59 M377.6 89.74 C388.46 79.09, 395.02 66.74, 413.03 48.98 M377.6 89.74 C389.78 77.42, 400.2 63.96, 413.03 48.98 M383.24 89.34 C393.94 75.83, 407.66 62.89, 413.42 54.63 M383.24 89.34 C395.2 76.1, 404.86 63.96, 413.42 54.63 M388.23 89.7 C398.08 79.11, 404.83 70.62, 413.16 61.03 M388.23 89.7 C398.1 77.91, 407.06 66.97, 413.16 61.03 M394.53 88.55 C401.25 79.63, 408.36 71.64, 412.9 67.42 M394.53 88.55 C398.86 84.96, 401.38 79.66, 412.9 67.42 M400.83 87.41 C403.75 84.56, 405.85 80.58, 411.98 74.58 M400.83 87.41 C404.24 84.33, 406.59 80.05, 411.98 74.58 M8.75 85.96 C8.75 85.96, 8.75 85.96, 8.75 85.96 M8.75 85.96 C8.75 85.96, 8.75 85.96, 8.75 85.96 M17.42 88.19 C10.8 83.43, 7.27 79.09, 1.57 74.41 M17.42 88.19 C12.41 84.71, 8.31 79.57, 1.57 74.41 M23.81 88.45 C18.06 81.12, 12.72 77.93, 0.42 68.11 M23.81 88.45 C15.68 79.82, 5.17 72.84, 0.42 68.11 M29.46 88.05 C18.89 79.73, 8.51 69.02, 0.02 62.47 M29.46 88.05 C19.15 79.96, 8.92 71.12, 0.02 62.47 M35.86 88.31 C29.55 80.85, 20.12 77.22, 0.38 57.48 M35.86 88.31 C28.07 81.75, 21.43 76.11, 0.38 57.48 M41.5 87.92 C30.44 79.12, 21.69 71.1, -0.01 51.84 M41.5 87.92 C27.2 76.77, 14.56 65.43, -0.01 51.84 M47.9 88.18 C35.69 77.03, 18.64 64.43, 0.35 46.85 M47.9 88.18 C37.66 79.17, 27.45 70.84, 0.35 46.85 M54.29 88.44 C41.78 77.02, 29.22 67.69, -0.05 41.21 M54.29 88.44 C43.1 78.18, 32.54 68.99, -0.05 41.21 M59.94 88.05 C44.43 73.9, 28.64 62.44, 0.31 36.22 M59.94 88.05 C39.32 71.46, 18.78 52.68, 0.31 36.22 M66.33 88.31 C41.44 65.64, 13.74 42, -0.08 30.58 M66.33 88.31 C52.35 77.67, 38.28 63.79, -0.08 30.58 M72.73 88.57 C52.43 71.64, 34.35 55.39, 0.28 25.59 M72.73 88.57 C56.28 75.2, 41.22 60.94, 0.28 25.59 M78.38 88.18 C55.24 70.93, 36.65 51.01, 0.64 20.6 M78.38 88.18 C59.62 71.06, 39.97 53.96, 0.64 20.6 M84.77 88.44 C66.46 72.83, 43.2 53.8, 1 15.62 M84.77 88.44 C56.84 64.16, 30.95 40.65, 1 15.62 M90.42 88.04 C57.46 58.61, 23.83 28.39, 2.12 11.28 M90.42 88.04 C63.92 65.76, 39.46 42.95, 2.12 11.28 M96.81 88.31 C62.08 58.01, 24.37 25.53, 3.98 7.61 M96.81 88.31 C73.45 68.13, 52.17 48.32, 3.98 7.61 M103.21 88.57 C78.82 69.99, 56.52 48.52, 6.61 4.59 M103.21 88.57 C82.7 70.11, 59.61 49.99, 6.61 4.59 M108.86 88.17 C78.32 62.51, 51.35 39.2, 9.99 2.23 M108.86 88.17 C84.64 67.69, 59.84 46.92, 9.99 2.23 M115.25 88.43 C92.03 65.58, 67.84 48.01, 14.12 0.52 M115.25 88.43 C75.53 53.7, 35.68 19.88, 14.12 0.52 M120.9 88.04 C82.78 56.46, 42.74 20.62, 19.76 0.13 M120.9 88.04 C93.23 65.36, 67.28 42.02, 19.76 0.13 M127.29 88.3 C94.84 58.06, 63.9 31.46, 25.41 -0.27 M127.29 88.3 C105.13 67.46, 79.66 46.62, 25.41 -0.27 M133.69 88.56 C103.03 65.72, 75.26 39.77, 31.81 -0.01 M133.69 88.56 C101.94 61.2, 67.98 32.04, 31.81 -0.01 M139.33 88.17 C108.63 61.1, 81.85 37.32, 37.45 -0.4 M139.33 88.17 C112.91 66.57, 87.07 43.52, 37.45 -0.4 M145.73 88.43 C119.9 65.33, 93.49 42.5, 43.85 -0.14 M145.73 88.43 C113.49 59.94, 81.99 30.94, 43.85 -0.14 M151.38 88.03 C116.1 54.52, 78.44 25.89, 50.24 0.12 M151.38 88.03 C126.79 67.49, 101.32 45.03, 50.24 0.12 M157.77 88.3 C121.34 54.72, 83.37 22.81, 55.89 -0.27 M157.77 88.3 C132.78 66.62, 109.22 43.8, 55.89 -0.27 M164.17 88.56 C124.85 58.42, 89.23 22.73, 62.29 -0.01 M164.17 88.56 C133.5 63.78, 105.57 37.37, 62.29 -0.01 M169.81 88.16 C138.6 61.24, 105.24 32.68, 67.93 -0.41 M169.81 88.16 C133.3 54.54, 95.69 23.16, 67.93 -0.41 M176.21 88.42 C140.96 55.4, 103.58 21.93, 74.33 -0.14 M176.21 88.42 C141.82 60.12, 106.2 29.39, 74.33 -0.14 M182.61 88.69 C161.92 72.33, 139.77 51.09, 80.72 0.12 M182.61 88.69 C160.56 68.91, 136.7 49.19, 80.72 0.12 M188.25 88.29 C166.58 69.9, 144.31 50.54, 86.37 -0.28 M188.25 88.29 C164.63 66.6, 141.08 47.21, 86.37 -0.28 M194.65 88.55 C155.67 54.71, 119.47 24.9, 92.76 -0.02 M194.65 88.55 C168.25 66.6, 141.9 43.62, 92.76 -0.02 M200.29 88.16 C179.83 69.19, 155.86 49.58, 98.41 -0.41 M200.29 88.16 C171.01 61.9, 139.42 35.07, 98.41 -0.41 M206.69 88.42 C170.97 54.75, 135.22 25.84, 104.81 -0.15 M206.69 88.42 C168.52 55.88, 132.3 23.58, 104.81 -0.15 M213.09 88.68 C186.9 63.69, 157.53 41, 111.2 0.11 M213.09 88.68 C179.9 60.92, 147.13 33.39, 111.2 0.11 M218.73 88.29 C183.61 60.02, 151.51 28.03, 116.85 -0.28 M218.73 88.29 C183.56 58.71, 149.03 28.34, 116.85 -0.28 M225.13 88.55 C194.72 62.71, 167.46 35.97, 123.24 -0.02 M225.13 88.55 C184.63 55.2, 145.88 20.32, 123.24 -0.02 M230.77 88.15 C201.2 62.63, 175.12 38.17, 128.89 -0.42 M230.77 88.15 C202.73 63.57, 175.72 40.82, 128.89 -0.42 M237.17 88.41 C215.44 66.42, 191.14 46.84, 135.29 -0.15 M237.17 88.41 C210.24 64.22, 181.52 40.16, 135.29 -0.15 M243.57 88.68 C220.88 70.24, 200.44 52.87, 141.68 0.11 M243.57 88.68 C213.61 64.2, 183.98 38.02, 141.68 0.11 M249.21 88.28 C221.34 61.45, 191.84 37.09, 147.33 -0.29 M249.21 88.28 C227.29 69.76, 206.37 50.93, 147.33 -0.29 M255.61 88.54 C219.67 57.81, 187.47 28.66, 153.72 -0.03 M255.61 88.54 C230.29 68.09, 206.36 46.87, 153.72 -0.03 M261.25 88.15 C221.66 53.46, 184.59 21.48, 160.12 0.24 M261.25 88.15 C228.96 59.94, 195.73 31.67, 160.12 0.24 M267.65 88.41 C235.23 62.26, 204.07 35.49, 165.76 -0.16 M267.65 88.41 C244.24 67.46, 220.15 46.18, 165.76 -0.16 M274.05 88.67 C238.84 56.24, 198.92 26, 172.16 0.1 M274.05 88.67 C251.06 70.33, 227.4 49.98, 172.16 0.1 M279.69 88.28 C240.09 57.59, 205.91 21.63, 177.81 -0.29 M279.69 88.28 C250.75 64.07, 222.58 38.77, 177.81 -0.29 M286.09 88.54 C264.95 68.37, 241.43 51.55, 184.2 -0.03 M286.09 88.54 C246.39 53.24, 205.86 17.45, 184.2 -0.03 M292.49 88.8 C271.66 70.53, 248.77 47.5, 190.6 0.23 M292.49 88.8 C267.07 66.36, 240.92 44.68, 190.6 0.23 M298.13 88.4 C278.46 68.53, 253.69 50.72, 196.24 -0.16 M298.13 88.4 C275.96 68.98, 252.77 49.88, 196.24 -0.16 M304.53 88.67 C270.56 55.9, 232.24 25.16, 202.64 0.1 M304.53 88.67 C274.25 63.67, 243.58 35.93, 202.64 0.1 M310.17 88.27 C270.1 53.64, 228.26 18.67, 208.28 -0.3 M310.17 88.27 C276.59 59.44, 243.36 29.38, 208.28 -0.3 M316.57 88.53 C286.36 63.94, 260.8 36.97, 214.68 -0.04 M316.57 88.53 C290.09 65.03, 262.22 40.47, 214.68 -0.04 M322.97 88.79 C297.2 67.38, 275.56 44.79, 221.08 0.23 M322.97 88.79 C296.8 63.9, 268.5 40.57, 221.08 0.23 M328.61 88.4 C295.11 58.26, 258.02 26.12, 226.72 -0.17 M328.61 88.4 C298.55 63.58, 269.98 37.44, 226.72 -0.17 M335.01 88.66 C312.44 65.7, 285.51 44.53, 233.12 0.09 M335.01 88.66 C308.98 67.01, 285.55 45.06, 233.12 0.09 M340.65 88.27 C311.2 62.57, 281.03 35.42, 238.76 -0.3 M340.65 88.27 C304.16 56.62, 266.69 24.67, 238.76 -0.3 M347.05 88.53 C314.39 60.61, 285.22 32.87, 245.16 -0.04 M347.05 88.53 C311.68 57.47, 276.1 27.06, 245.16 -0.04 M353.45 88.79 C323.59 60.66, 294.84 34.64, 251.56 0.22 M353.45 88.79 C313.88 54.18, 276.68 21.24, 251.56 0.22 M359.09 88.39 C321.67 56.35, 279.85 19.34, 257.2 -0.17 M359.09 88.39 C321.66 55.21, 284.44 22.21, 257.2 -0.17 M365.49 88.66 C326.8 59.01, 292.51 24.32, 263.6 0.09 M365.49 88.66 C336.15 62.9, 307.49 39.62, 263.6 0.09 M371.13 88.26 C350.63 69.9, 326.98 50.42, 270 0.35 M371.13 88.26 C336.84 59.13, 301.64 28.47, 270 0.35 M377.53 88.52 C348.04 64.62, 322.25 41.55, 275.64 -0.04 M377.53 88.52 C343.47 59.96, 308.11 29.93, 275.64 -0.04 M383.93 88.78 C349.03 56.42, 311.51 25.72, 282.04 0.22 M383.93 88.78 C361.44 67.91, 338.1 47.18, 282.04 0.22 M389.57 88.39 C358.74 63.36, 329.82 37.22, 287.68 -0.18 M389.57 88.39 C362.04 63.45, 334.02 39.14, 287.68 -0.18 M394.46 87.34 C373.59 70.12, 348.98 49.59, 294.08 0.08 M394.46 87.34 C370.96 67.51, 346.79 47.71, 294.08 0.08 M399.35 86.29 C377.78 68.08, 351.99 47.57, 300.48 0.34 M399.35 86.29 C369.9 61.39, 340.43 36.3, 300.48 0.34 M404.23 85.24 C384.56 68.35, 365.4 50.29, 306.12 -0.05 M404.23 85.24 C377.98 62.24, 352.73 40.74, 306.12 -0.05 M407.61 82.88 C369.59 53.5, 336.22 21.46, 312.52 0.21 M407.61 82.88 C378.54 58.79, 350.91 34.33, 312.52 0.21 M410.24 79.86 C382.4 52.95, 352.21 28.35, 318.16 -0.18 M410.24 79.86 C382.38 56.2, 355.37 30.7, 318.16 -0.18 M411.35 75.53 C392.06 56.54, 372.18 40.67, 324.56 0.08 M411.35 75.53 C390.91 56.85, 369.26 38.05, 324.56 0.08 M413.22 71.85 C392.2 53.19, 371.47 37.28, 330.96 0.34 M413.22 71.85 C397.72 57.76, 380.6 44.02, 330.96 0.34 M412.83 66.21 C391.41 49.88, 372.09 29.75, 336.6 -0.05 M412.83 66.21 C398.08 52.57, 381.89 39.8, 336.6 -0.05 M413.19 61.22 C399.53 50.53, 382.93 35.67, 343 0.21 M413.19 61.22 C391.22 41.73, 369.18 21.99, 343 0.21 M412.79 55.58 C397.09 44.28, 382.91 29.44, 348.64 -0.19 M412.79 55.58 C394.03 39.52, 373.5 22.24, 348.64 -0.19 M413.15 50.59 C393.34 36.05, 375.61 18.78, 355.04 0.07 M413.15 50.59 C398.47 37.99, 382.11 23.35, 355.04 0.07 M412.76 44.95 C400.38 32.77, 387.07 24.97, 361.44 0.34 M412.76 44.95 C395.24 28.47, 376.73 13.58, 361.44 0.34 M413.12 39.96 C399.42 29.58, 389.73 18.02, 367.08 -0.06 M413.12 39.96 C395.95 25.87, 380.5 11.84, 367.08 -0.06 M413.48 34.97 C404.5 25.53, 392.69 14.6, 373.48 0.2 M413.48 34.97 C402.79 25.67, 394.04 18.42, 373.48 0.2 M413.08 29.33 C401.3 16.91, 387.71 7.93, 379.12 -0.19 M413.08 29.33 C400.54 18.47, 386.29 7.24, 379.12 -0.19 M413.44 24.34 C404.42 15.98, 398.25 10.66, 385.52 0.07 M413.44 24.34 C402.43 15.45, 391.68 6.76, 385.52 0.07 M413.05 18.7 C403.73 10.31, 397.72 6.26, 391.92 0.33 M413.05 18.7 C408.56 15.31, 405.01 11.35, 391.92 0.33 M411.9 12.4 C408.01 7.73, 402.41 6.39, 399.07 1.25 M411.9 12.4 C409.09 9.16, 405.69 7.7, 399.07 1.25" stroke="#ffc9c9" stroke-width="0.5" fill="none"></path><path d="M22.26 0 C161.79 0.87, 302.42 0.67, 390.54 0 M22.26 0 C156.43 -0.23, 291.33 0.7, 390.54 0 M390.54 0 C404.64 -0.01, 411.64 8.24, 412.8 22.26 M390.54 0 C404.97 -0.39, 412.22 9.1, 412.8 22.26 M412.8 22.26 C414.08 37.01, 411.22 54.1, 412.8 66.78 M412.8 22.26 C411.81 31.86, 412.1 42.08, 412.8 66.78 M412.8 66.78 C412.76 82.02, 405.09 90.87, 390.54 89.03 M412.8 66.78 C411.63 80.54, 405.8 90.66, 390.54 89.03 M390.54 89.03 C289.5 90.29, 189.48 88.31, 22.26 89.03 M390.54 89.03 C311.45 87.13, 232.38 86.83, 22.26 89.03 M22.26 89.03 C7.21 89.77, 1.49 81.47, 0 66.78 M22.26 89.03 C6.96 87.13, -1.47 82.35, 0 66.78 M0 66.78 C-0.26 52.03, -2.18 39.44, 0 22.26 M0 66.78 C-0.43 55.32, 0.07 42.47, 0 22.26 M0 22.26 C-1.21 8.47, 8.83 1.88, 22.26 0 M0 22.26 C1.92 9.36, 6.75 -1.4, 22.26 0" stroke="#e8590c" stroke-width="1" fill="none"></path></g><g transform="translate(591.7076131433969 66.70617204968792) rotate(0 21.432052612304688 19.999999999999993)"><text x="21.432052612304688" y="0" font-family="Virgil, Segoe UI Emoji" font-size="16px" fill="#e03131" text-anchor="middle" style="white-space: pre;" direction="ltr" dominant-baseline="text-before-edge">UDP</text><text x="21.432052612304688" y="20" font-family="Virgil, Segoe UI Emoji" font-size="16px" fill="#e03131" text-anchor="middle" style="white-space: pre;" direction="ltr" dominant-baseline="text-before-edge">Data</text></g><g stroke-linecap="round" transform="translate(327.3754212422418 44.2122346583826) rotate(0 246.36366082816278 44.51745821946268)"><path d="M22.26 0 C159.7 1.49, 296.91 0.58, 470.47 0 M22.26 0 C193.06 -0.37, 363.41 -0.23, 470.47 0 M470.47 0 C484.23 1.8, 494 7.54, 492.73 22.26 M470.47 0 C487.52 -0.05, 490.97 6.98, 492.73 22.26 M492.73 22.26 C492.89 37.03, 493.22 54.83, 492.73 66.78 M492.73 22.26 C491.9 37.08, 493.6 54.3, 492.73 66.78 M492.73 66.78 C492.05 81, 484.52 90.34, 470.47 89.03 M492.73 66.78 C491.92 80.81, 484.36 87.69, 470.47 89.03 M470.47 89.03 C355 88.98, 237.84 88.54, 22.26 89.03 M470.47 89.03 C344.72 90.4, 217.9 91.22, 22.26 89.03 M22.26 89.03 C8.85 87.97, 0.83 83.07, 0 66.78 M22.26 89.03 C5.88 87.52, 2.02 83.81, 0 66.78 M0 66.78 C-1.71 48.55, -0.4 31.7, 0 22.26 M0 66.78 C1.19 53.49, -0.28 39.06, 0 22.26 M0 22.26 C-0.32 6.92, 8.43 -0.67, 22.26 0 M0 22.26 C1.25 5.99, 6.56 1.96, 22.26 0" stroke="#e8590c" stroke-width="1" fill="none"></path></g><g transform="translate(254.9873219510589 67.48272418219265) rotate(0 26.488059997558594 20)"><text x="26.488059997558594" y="0" font-family="Virgil, Segoe UI Emoji" font-size="16px" fill="#1e1e1e" text-anchor="middle" style="white-space: pre;" direction="ltr" dominant-baseline="text-before-edge">IP</text><text x="26.488059997558594" y="20" font-family="Virgil, Segoe UI Emoji" font-size="16px" fill="#1e1e1e" text-anchor="middle" style="white-space: pre;" direction="ltr" dominant-baseline="text-before-edge">Header</text></g><g transform="translate(342.1810067933395 66.70617204968794) rotate(0 26.488059997558594 20)"><text x="26.488059997558594" y="0" font-family="Virgil, Segoe UI Emoji" font-size="16px" fill="#e8590c" text-anchor="middle" style="white-space: pre;" direction="ltr" dominant-baseline="text-before-edge">UDP</text><text x="26.488059997558594" y="20" font-family="Virgil, Segoe UI Emoji" font-size="16px" fill="#e8590c" text-anchor="middle" style="white-space: pre;" direction="ltr" dominant-baseline="text-before-edge">Header</text></g><g mask="url(#mask-QbDam0GKAWFnTc5o0DJj2)" stroke-linecap="round"><g transform="translate(339.9568442288635 22.023520828157373) rotate(0 235.94866602724846 -2.0235208281573733)"><path d="M0.47 1.17 C79.07 0.4, 392.41 -3.24, 470.86 -4.09 M-0.75 0.73 C78.28 0.13, 393.95 -2.03, 473.02 -2.58" stroke="#1e1e1e" stroke-width="1" fill="none"></path></g><g transform="translate(339.9568442288635 22.023520828157373) rotate(0 235.94866602724846 -2.0235208281573733)"><path d="M28.54 -9.41 C23.87 -8.53, 15.19 -5.5, 0.47 1.17 M28.54 -9.41 C19.01 -6.83, 11.91 -2.85, 0.47 1.17" stroke="#1e1e1e" stroke-width="1" fill="none"></path></g><g transform="translate(339.9568442288635 22.023520828157373) rotate(0 235.94866602724846 -2.0235208281573733)"><path d="M28.77 11.11 C23.96 7.13, 15.23 5.29, 0.47 1.17 M28.77 11.11 C19.3 7.35, 12.13 5, 0.47 1.17" stroke="#1e1e1e" stroke-width="1" fill="none"></path></g><g transform="translate(339.9568442288635 22.023520828157373) rotate(0 235.94866602724846 -2.0235208281573733)"><path d="M444.9 7.87 C453.47 3.55, 458.12 1.59, 473.02 -2.58 M444.9 7.87 C452.85 4.32, 463.09 1.81, 473.02 -2.58" stroke="#1e1e1e" stroke-width="1" fill="none"></path></g><g transform="translate(339.9568442288635 22.023520828157373) rotate(0 235.94866602724846 -2.0235208281573733)"><path d="M444.76 -12.65 C453.45 -12.11, 458.13 -9.2, 473.02 -2.58 M444.76 -12.65 C452.62 -9.87, 462.9 -6.05, 473.02 -2.58" stroke="#1e1e1e" stroke-width="1" fill="none"></path></g></g><mask id="mask-QbDam0GKAWFnTc5o0DJj2"><rect x="0" y="0" fill="#fff" width="911.8541762833604" height="126.07056248447212"></rect><rect x="506.60936767798694" y="10" fill="#000" width="138.59228515625" height="20" opacity="1"></rect></mask><g transform="translate(506.60936767798694 10) rotate(0 69.48499983039687 10.55902541726828)"><text x="69.296142578125" y="0" font-family="Virgil, Segoe UI Emoji" font-size="16px" fill="#1e1e1e" text-anchor="middle" style="white-space: pre;" direction="ltr" dominant-baseline="text-before-edge">IP Payload: 1480</text></g><g transform="translate(235.68324155545884 111.11778654244232) rotate(0 5.5040130615234375 10)"><text x="5.5040130615234375" y="0" font-family="Virgil, Segoe UI Emoji" font-size="16px" fill="#1e1e1e" text-anchor="middle" style="white-space: pre;" direction="ltr" dominant-baseline="text-before-edge">0</text></g><g transform="translate(333.116226902717 112.11778654244232) rotate(0 11.200027465820312 10)"><text x="11.200027465820312" y="0" font-family="Virgil, Segoe UI Emoji" font-size="16px" fill="#f08c00" text-anchor="middle" style="white-space: pre;" direction="ltr" dominant-baseline="text-before-edge">20</text></g><g transform="translate(415.53514602718906 111.10602612836361) rotate(0 11.816024780273438 10)"><text x="11.816024780273438" y="0" font-family="Virgil, Segoe UI Emoji" font-size="16px" fill="#e03131" text-anchor="middle" style="white-space: pre;" direction="ltr" dominant-baseline="text-before-edge">28</text></g><g transform="translate(674.220711842665 66.42392211179923) rotate(0 36.75209045410156 20)"><text x="0" y="0" font-family="Virgil, Segoe UI Emoji" font-size="16px" fill="#1e1e1e" text-anchor="start" style="white-space: pre;" direction="ltr" dominant-baseline="text-before-edge">3rd Frag:</text><text x="0" y="20" font-family="Virgil, Segoe UI Emoji" font-size="16px" fill="#1e1e1e" text-anchor="start" style="white-space: pre;" direction="ltr" dominant-baseline="text-before-edge">1472</text></g><g stroke-linecap="round" transform="translate(235.01833806350737 153.07038008281683) rotate(0 294.42228049690095 44.517458219462696)"><path d="M22.26 0 C208.13 -1.41, 394.43 -0.3, 566.59 0 M22.26 0 C166.91 1.71, 311.65 1.52, 566.59 0 M566.59 0 C579.51 0.58, 588.42 8.13, 588.84 22.26 M566.59 0 C581.57 1.17, 590.01 6.39, 588.84 22.26 M588.84 22.26 C590.73 31.53, 587.23 41.7, 588.84 66.78 M588.84 22.26 C588.27 39.69, 589.33 57.62, 588.84 66.78 M588.84 66.78 C588.06 79.91, 580.84 88.36, 566.59 89.03 M588.84 66.78 C587.84 83.37, 581.01 88.63, 566.59 89.03 M566.59 89.03 C375.56 90.32, 185.23 90.58, 22.26 89.03 M566.59 89.03 C429.06 90.19, 291.24 90.09, 22.26 89.03 M22.26 89.03 C9.27 89.36, 0.92 81.69, 0 66.78 M22.26 89.03 C5.46 89.09, 0.59 80.31, 0 66.78 M0 66.78 C0.46 50.9, -0.27 38.25, 0 22.26 M0 66.78 C0.46 52.48, 0.68 39.38, 0 22.26 M0 22.26 C-1.5 8.08, 6.46 -1.36, 22.26 0 M0 22.26 C0.89 7.63, 8.26 -1.71, 22.26 0" stroke="#1e1e1e" stroke-width="1" fill="none"></path></g><g stroke-linecap="round" transform="translate(328.73663533058493 152.05861966873817) rotate(0 247.37542124224126 44.51745821946267)"><path d="M5.27 5.91 C5.27 5.91, 5.27 5.91, 5.27 5.91 M5.27 5.91 C5.27 5.91, 5.27 5.91, 5.27 5.91 M1.07 16.83 C4.42 11.84, 9.88 5.66, 14.19 1.74 M1.07 16.83 C4.99 11.62, 9.43 6.99, 14.19 1.74 M0.15 23.98 C6.11 16.24, 9.78 11.39, 20.49 0.59 M0.15 23.98 C6.33 16.04, 14.29 7.8, 20.49 0.59 M-0.11 30.38 C4.49 24.1, 12.09 17.51, 26.13 0.19 M-0.11 30.38 C5.43 23.12, 13.22 15.89, 26.13 0.19 M0.29 36.02 C5.68 27.77, 14.09 18.81, 31.78 -0.2 M0.29 36.02 C8.02 26.39, 16.74 17.35, 31.78 -0.2 M0.03 42.42 C12.11 28.62, 24.34 15.6, 36.76 0.16 M0.03 42.42 C12.27 29.07, 22.88 15.99, 36.76 0.16 M0.42 48.07 C10.19 36.25, 23.66 22.36, 42.41 -0.24 M0.42 48.07 C13.2 33.64, 25.01 20.64, 42.41 -0.24 M0.16 54.46 C16.74 36.86, 31.55 18.12, 47.39 0.12 M0.16 54.46 C11.82 42.13, 22.13 29.28, 47.39 0.12 M-0.1 60.86 C15.22 43.13, 29.99 24.73, 53.04 -0.27 M-0.1 60.86 C17.09 40.11, 35.66 20.04, 53.04 -0.27 M0.29 66.5 C22.56 41.2, 44.52 15.32, 58.02 0.09 M0.29 66.5 C19.56 44, 39.66 21.76, 58.02 0.09 M0.69 72.15 C22.17 49.15, 43.2 23.05, 63.67 -0.31 M0.69 72.15 C26.74 44.39, 50.99 14.66, 63.67 -0.31 M1.74 77.04 C18.42 62.49, 33.32 41.96, 68.65 0.06 M1.74 77.04 C24.42 51.23, 46.4 25.57, 68.65 0.06 M4.1 80.41 C19.52 58.09, 39.95 39.3, 73.64 0.42 M4.1 80.41 C22.17 60.13, 37.94 41.13, 73.64 0.42 M7.12 83.04 C30.42 56.06, 57.07 28.85, 79.28 0.02 M7.12 83.04 C32.75 51.9, 59.51 22.41, 79.28 0.02 M9.48 86.42 C23.69 67.38, 40.71 50.22, 84.27 0.38 M9.48 86.42 C29.88 61.78, 51.17 37.11, 84.27 0.38 M13.81 87.53 C34.58 65.22, 54.08 38.43, 89.91 -0.01 M13.81 87.53 C29.96 68.55, 43.62 51.61, 89.91 -0.01 M17.49 89.4 C39.14 64.26, 59.24 42.19, 94.9 0.35 M17.49 89.4 C44.22 59.29, 70.38 30.42, 94.9 0.35 M23.13 89.01 C46.88 65.39, 67.98 36.98, 100.54 -0.05 M23.13 89.01 C38.57 69.91, 57.23 49.2, 100.54 -0.05 M28.12 89.37 C54.44 57.1, 79.92 29.58, 105.53 0.31 M28.12 89.37 C48.91 67.45, 67.55 45.01, 105.53 0.31 M33.76 88.97 C56.44 66.01, 77.36 38.35, 111.18 -0.08 M33.76 88.97 C51.45 68.93, 68.77 48.2, 111.18 -0.08 M38.75 89.33 C54.36 69.5, 74.44 48.21, 116.16 0.28 M38.75 89.33 C60.19 64.74, 82.69 37.92, 116.16 0.28 M44.39 88.94 C64.77 65.09, 83.19 46.08, 121.81 -0.12 M44.39 88.94 C62.5 67.22, 81.8 47.8, 121.81 -0.12 M49.38 89.3 C67.19 67.95, 82.72 50.62, 126.79 0.24 M49.38 89.3 C74.15 60.97, 97.37 34.42, 126.79 0.24 M55.02 88.9 C74.63 64.43, 97.64 40.62, 132.44 -0.15 M55.02 88.9 C78.93 62.46, 102.34 37.91, 132.44 -0.15 M60.01 89.26 C81.21 62.75, 103.97 37.52, 137.42 0.21 M60.01 89.26 C79.07 67.71, 96.8 45.81, 137.42 0.21 M64.99 89.62 C89.13 61.23, 116.22 32.22, 143.07 -0.19 M64.99 89.62 C84.58 66.63, 105.21 44.67, 143.07 -0.19 M70.64 89.23 C93.05 62.88, 116.54 38.92, 148.05 0.17 M70.64 89.23 C101.07 55.48, 130.48 21.05, 148.05 0.17 M75.62 89.59 C92.5 70.59, 109.72 48.35, 153.7 -0.22 M75.62 89.59 C106.5 54.2, 136.41 19.92, 153.7 -0.22 M81.27 89.19 C107.53 55.72, 136.78 26.13, 158.68 0.14 M81.27 89.19 C102.34 66.21, 123.47 42.1, 158.68 0.14 M86.25 89.56 C111.91 60.98, 133.73 34.27, 163.67 0.5 M86.25 89.56 C116.82 55.77, 148.06 19.39, 163.67 0.5 M91.9 89.16 C113.46 65.13, 136.33 39.36, 169.31 0.1 M91.9 89.16 C111.85 65.6, 131.01 43.79, 169.31 0.1 M96.88 89.52 C126.29 53.5, 155.54 21.97, 174.3 0.46 M96.88 89.52 C126.17 54.27, 157.99 20.85, 174.3 0.46 M102.53 89.13 C134.44 54, 162.87 22.99, 179.94 0.07 M102.53 89.13 C125.63 61.36, 151.87 32.87, 179.94 0.07 M107.51 89.49 C134.09 60.33, 155.85 31.74, 184.93 0.43 M107.51 89.49 C129.68 63.53, 153.71 36.13, 184.93 0.43 M113.16 89.09 C132.87 69.34, 147.25 49.51, 190.57 0.04 M113.16 89.09 C131.06 68.26, 150.17 45.34, 190.57 0.04 M118.14 89.45 C143.84 62.99, 167.36 36.01, 195.56 0.4 M118.14 89.45 C139.8 63.48, 161.18 39.35, 195.56 0.4 M123.79 89.06 C141.78 66.22, 163.19 41.01, 201.2 0 M123.79 89.06 C142.51 65.41, 163.38 44.21, 201.2 0 M128.77 89.42 C155.56 57.65, 185.08 24.4, 206.19 0.36 M128.77 89.42 C153.02 62.86, 174.41 37.59, 206.19 0.36 M134.42 89.02 C152.13 67.14, 170.66 47.03, 211.83 -0.03 M134.42 89.02 C161.93 56.7, 190.59 25.44, 211.83 -0.03 M139.4 89.38 C156.36 69.24, 174.41 47.71, 216.82 0.33 M139.4 89.38 C165.59 58.15, 192.61 28.01, 216.82 0.33 M145.05 88.99 C174.98 54.33, 203.02 21.92, 222.46 -0.07 M145.05 88.99 C162.09 68.32, 180.13 49.21, 222.46 -0.07 M150.04 89.35 C174.27 61.2, 202.43 30.56, 227.45 0.29 M150.04 89.35 C167.15 68.64, 184.35 48.72, 227.45 0.29 M155.68 88.95 C185.02 54.72, 213.06 23.02, 233.09 -0.1 M155.68 88.95 C180.78 60.2, 204.79 32.56, 233.09 -0.1 M160.67 89.31 C188.14 60.41, 211.38 29.03, 238.08 0.26 M160.67 89.31 C189.57 55.04, 218.33 22.13, 238.08 0.26 M165.65 89.67 C180.6 71.83, 195.19 54.97, 243.72 -0.14 M165.65 89.67 C189.38 61.97, 212.64 33.55, 243.72 -0.14 M171.3 89.28 C188.56 69.73, 205.02 50.13, 248.71 0.22 M171.3 89.28 C188.84 69.46, 207.39 49.45, 248.71 0.22 M176.28 89.64 C200.77 60.08, 229.21 31.12, 253.7 0.58 M176.28 89.64 C200.1 61.59, 224.17 34.2, 253.7 0.58 M181.93 89.24 C202.32 67.94, 221.11 43.73, 259.34 0.19 M181.93 89.24 C201.67 67.34, 219.98 46.5, 259.34 0.19 M186.91 89.6 C210.7 61.17, 234.69 33, 264.33 0.55 M186.91 89.6 C206.84 67.59, 226.78 45.89, 264.33 0.55 M192.56 89.21 C221.09 56.78, 249.57 27.07, 269.97 0.15 M192.56 89.21 C215.88 61.93, 240.66 34.66, 269.97 0.15 M197.54 89.57 C226.4 58.54, 254.32 23.79, 274.96 0.51 M197.54 89.57 C218.38 65.26, 238.87 42.16, 274.96 0.51 M203.19 89.18 C228.45 56.63, 255.06 26.59, 280.6 0.12 M203.19 89.18 C228.38 58.84, 254.53 28, 280.6 0.12 M208.17 89.54 C237.79 55.29, 268.09 18.59, 285.59 0.48 M208.17 89.54 C233.34 63.4, 256.84 33.99, 285.59 0.48 M213.82 89.14 C241.04 60.74, 265.08 32.55, 291.23 0.09 M213.82 89.14 C231.85 69.15, 249.89 48.42, 291.23 0.09 M218.8 89.5 C250.62 52.29, 278.12 19.03, 296.22 0.45 M218.8 89.5 C248.09 54.51, 278.29 22.4, 296.22 0.45 M224.45 89.11 C247.44 61.92, 265.85 37.37, 301.86 0.05 M224.45 89.11 C249.69 58.07, 276.21 28.61, 301.86 0.05 M229.43 89.47 C246.52 70.63, 265.26 49.53, 306.85 0.41 M229.43 89.47 C248.85 67.03, 268.63 44.46, 306.85 0.41 M235.08 89.07 C253.81 64.94, 275.49 46.17, 312.49 0.02 M235.08 89.07 C252.04 69.49, 269.18 49.55, 312.49 0.02 M240.06 89.43 C257.94 68.89, 278.38 49.14, 317.48 0.38 M240.06 89.43 C267.58 58.15, 294.94 26.92, 317.48 0.38 M245.71 89.04 C275.5 57.24, 303.58 19.49, 323.12 -0.02 M245.71 89.04 C263.15 66.45, 282.04 46.43, 323.12 -0.02 M250.69 89.4 C271.6 65.49, 292.5 42.96, 328.11 0.34 M250.69 89.4 C276.11 61.77, 299.65 32.8, 328.11 0.34 M255.68 89.76 C280.78 62.86, 304.67 32.48, 333.75 -0.05 M255.68 89.76 C271.2 72.39, 287.04 54.49, 333.75 -0.05 M261.32 89.36 C278.49 67.05, 297.18 49.04, 338.74 0.31 M261.32 89.36 C276.29 70.98, 293.68 53.02, 338.74 0.31 M266.31 89.72 C292.67 61.91, 320.22 28.34, 344.38 -0.09 M266.31 89.72 C290.95 62.06, 317.14 33.31, 344.38 -0.09 M271.95 89.33 C296.02 61.7, 322.18 29.91, 349.37 0.27 M271.95 89.33 C295.04 63, 315.91 37.15, 349.37 0.27 M276.94 89.69 C296.65 67.77, 314.3 49.35, 354.36 0.63 M276.94 89.69 C293.81 71.41, 310.89 51.53, 354.36 0.63 M282.58 89.29 C301.21 70.32, 316.72 51.02, 360 0.24 M282.58 89.29 C302.35 66.84, 323.29 44.3, 360 0.24 M287.57 89.65 C308.34 64.87, 330.91 41.39, 364.99 0.6 M287.57 89.65 C316.05 58.86, 341.83 26.46, 364.99 0.6 M293.21 89.26 C312.04 64.55, 335.7 43.94, 370.63 0.2 M293.21 89.26 C308.92 70.71, 325.94 51.53, 370.63 0.2 M298.2 89.62 C313.43 73.57, 327.27 53.29, 375.62 0.56 M298.2 89.62 C328.84 54.33, 359.19 19.34, 375.62 0.56 M303.84 89.23 C324.75 60.77, 352.12 35.18, 381.26 0.17 M303.84 89.23 C326.37 62.31, 348.31 35.66, 381.26 0.17 M308.83 89.59 C326.38 67.49, 346.87 43.98, 386.25 0.53 M308.83 89.59 C327.91 68.53, 345.93 48.45, 386.25 0.53 M314.47 89.19 C333.63 65.15, 355.35 41.75, 391.89 0.14 M314.47 89.19 C334.85 67.78, 353.9 45.93, 391.89 0.14 M319.46 89.55 C343.88 61.37, 370.7 29.92, 396.88 0.5 M319.46 89.55 C348.09 56.65, 378 23.45, 396.88 0.5 M325.1 89.16 C351.4 60.42, 378.93 28.25, 402.52 0.1 M325.1 89.16 C343.51 67.98, 361.58 47.04, 402.52 0.1 M330.09 89.52 C349.17 70.43, 365.16 46.62, 407.51 0.46 M330.09 89.52 C357.02 58.2, 384.19 27.73, 407.51 0.46 M335.73 89.12 C366.3 52.52, 399.28 18.82, 413.15 0.07 M335.73 89.12 C354.84 67.99, 373.58 46, 413.15 0.07 M340.72 89.48 C359.39 68.02, 375.8 48.85, 418.14 0.43 M340.72 89.48 C362.99 64.3, 383.84 39.14, 418.14 0.43 M345.71 89.84 C362.46 71.28, 383.61 47.91, 423.78 0.03 M345.71 89.84 C368.45 63.79, 390.87 36.86, 423.78 0.03 M351.35 89.45 C370.8 63.98, 394.57 40.28, 428.77 0.39 M351.35 89.45 C379.39 57.32, 406.84 25.17, 428.77 0.39 M356.34 89.81 C375.3 66.88, 394.79 42.16, 434.41 0 M356.34 89.81 C385.15 55.6, 416.54 20.81, 434.41 0 M361.98 89.41 C392.34 52.34, 420.45 17.53, 439.4 0.36 M361.98 89.41 C390.17 57.63, 418.16 25.22, 439.4 0.36 M366.97 89.77 C382.27 69.18, 402.25 51.63, 444.38 0.72 M366.97 89.77 C395.54 57.92, 423.61 23.34, 444.38 0.72 M372.61 89.38 C394.29 59.64, 421.05 34.09, 450.03 0.32 M372.61 89.38 C394.54 64.83, 414.91 40.45, 450.03 0.32 M377.6 89.74 C403.73 62.48, 428.04 33.49, 455.01 0.68 M377.6 89.74 C400.87 62.67, 425.41 34.97, 455.01 0.68 M383.24 89.34 C400.39 68.98, 418.69 49.19, 460.66 0.29 M383.24 89.34 C410.07 60.85, 435.55 30.87, 460.66 0.29 M388.23 89.7 C407.57 69.35, 425.05 45.95, 465.64 0.65 M388.23 89.7 C408.66 65.06, 430.19 40.81, 465.64 0.65 M393.87 89.31 C411.61 71.05, 427.75 52.19, 471.29 0.25 M393.87 89.31 C423.13 56.75, 451.76 23.57, 471.29 0.25 M398.86 89.67 C426.83 56.46, 452.19 26.52, 476.27 0.61 M398.86 89.67 C428.45 57.04, 455.93 22.74, 476.27 0.61 M404.5 89.27 C421.4 67.56, 441.56 46.42, 480.6 1.73 M404.5 89.27 C421.53 67.85, 441.86 46.61, 480.6 1.73 M409.49 89.64 C432.08 63.55, 453.5 34.67, 484.28 3.6 M409.49 89.64 C433.32 63.29, 457.75 36.31, 484.28 3.6 M415.13 89.24 C439.7 60.79, 464 32.88, 487.95 5.47 M415.13 89.24 C430.92 70.45, 448.61 49.45, 487.95 5.47 M420.12 89.6 C438.67 70.48, 452.67 49.23, 490.97 8.09 M420.12 89.6 C436.59 70.46, 455.22 49.71, 490.97 8.09 M425.76 89.21 C439.02 71.26, 454.64 53.01, 492.68 12.23 M425.76 89.21 C440.22 72.24, 454.51 54.94, 492.68 12.23 M430.75 89.57 C455.79 64.16, 478.03 36.93, 494.39 16.36 M430.75 89.57 C451.6 66.23, 470.53 43.77, 494.39 16.36 M436.39 89.17 C453.68 67.49, 471.15 44.79, 494.78 22 M436.39 89.17 C454.79 67.08, 475.37 45.02, 494.78 22 M441.38 89.53 C461.47 66.7, 479.61 44.04, 495.18 27.65 M441.38 89.53 C455.84 72.07, 472.54 54.41, 495.18 27.65 M446.37 89.89 C459.5 72.58, 476.51 56.22, 495.57 33.29 M446.37 89.89 C462.05 72.58, 476.41 57.39, 495.57 33.29 M452.01 89.5 C463.19 79.67, 473.1 68.53, 495.31 39.69 M452.01 89.5 C467.13 72.61, 483.44 53.66, 495.31 39.69 M457 89.86 C467.82 73.88, 482.66 61.61, 495.05 46.08 M457 89.86 C466.07 77.47, 477.3 67.24, 495.05 46.08 M462.64 89.46 C469.27 81.37, 477.24 73.27, 495.44 51.73 M462.64 89.46 C473.73 76.69, 485.16 63.58, 495.44 51.73 M467.63 89.82 C476.4 82.19, 481.64 75.25, 495.18 58.12 M467.63 89.82 C473.88 84.41, 478.76 77.06, 495.18 58.12 M473.27 89.43 C477.6 82.9, 482.09 79, 494.92 64.52 M473.27 89.43 C478.93 82.14, 485.08 76.9, 494.92 64.52 M479.57 88.28 C482.27 84.77, 486.71 80.42, 495.31 70.17 M479.57 88.28 C483.83 82.15, 488.42 77.27, 495.31 70.17 M8.75 85.96 C8.75 85.96, 8.75 85.96, 8.75 85.96 M8.75 85.96 C8.75 85.96, 8.75 85.96, 8.75 85.96 M17.42 88.19 C12.62 85.48, 6.55 81.4, 1.57 74.41 M17.42 88.19 C11.27 82.52, 5.25 77.57, 1.57 74.41 M23.81 88.45 C12.85 80.61, 5.93 73.99, 0.42 68.11 M23.81 88.45 C18.88 83.21, 12.71 79.01, 0.42 68.11 M29.46 88.05 C17.47 80.84, 7.41 68.57, 0.02 62.47 M29.46 88.05 C19.98 80.78, 10.4 71.7, 0.02 62.47 M35.86 88.31 C28.07 79.32, 17.23 70.16, 0.38 57.48 M35.86 88.31 C23.52 79.21, 13.22 69.54, 0.38 57.48 M41.5 87.92 C32.4 80.28, 20.53 70.58, -0.01 51.84 M41.5 87.92 C26.34 74.98, 12.73 63.68, -0.01 51.84 M47.9 88.18 C36.23 76.69, 26.47 66.24, 0.35 46.85 M47.9 88.18 C30.98 72.6, 16.17 59.39, 0.35 46.85 M54.29 88.44 C34.01 71.77, 17.85 56.25, -0.05 41.21 M54.29 88.44 C42.92 77.51, 30.52 67.78, -0.05 41.21 M59.94 88.05 C35.62 67.99, 13.77 48.24, 0.31 36.22 M59.94 88.05 C47.28 76.49, 34.99 67.1, 0.31 36.22 M66.33 88.31 C53.3 73.66, 36.64 63.12, -0.08 30.58 M66.33 88.31 C50.88 75.37, 34.16 61.02, -0.08 30.58 M72.73 88.57 C51.28 70, 33.36 54.43, 0.28 25.59 M72.73 88.57 C53.24 69.89, 32.95 53.98, 0.28 25.59 M78.38 88.18 C56 68.62, 32.36 46.36, 0.64 20.6 M78.38 88.18 C53.97 66.21, 27.98 44.96, 0.64 20.6 M84.77 88.44 C60.64 68.22, 38.13 48.03, 1 15.62 M84.77 88.44 C52.95 59.46, 21.33 32.19, 1 15.62 M90.42 88.04 C56.07 58.14, 22.03 28.91, 2.12 11.28 M90.42 88.04 C60.17 61.58, 31.55 36.38, 2.12 11.28 M96.81 88.31 C62.71 59.61, 33.26 31.99, 3.98 7.61 M96.81 88.31 C72.21 66.6, 49.54 46.68, 3.98 7.61 M103.21 88.57 C70.73 60.94, 40.33 36.52, 6.61 4.59 M103.21 88.57 C64.76 54.6, 27.62 22.11, 6.61 4.59 M108.86 88.17 C77.26 62.65, 48.51 36.03, 9.99 2.23 M108.86 88.17 C80.69 62.03, 51.09 35.74, 9.99 2.23 M115.25 88.43 C78.64 57.24, 36.65 22.76, 14.12 0.52 M115.25 88.43 C87.23 65.3, 60 41, 14.12 0.52 M120.9 88.04 C87.27 56.32, 50.14 24.67, 19.76 0.13 M120.9 88.04 C100.16 69.32, 79.61 50.18, 19.76 0.13 M127.29 88.3 C102.51 68.75, 79.11 50.23, 25.41 -0.27 M127.29 88.3 C99.3 63.63, 72.63 40.01, 25.41 -0.27 M133.69 88.56 C96.8 56.01, 61.09 25.85, 31.81 -0.01 M133.69 88.56 C99.13 58.32, 62.59 26.94, 31.81 -0.01 M139.33 88.17 C103.11 54.82, 62.59 22.77, 37.45 -0.4 M139.33 88.17 C104.71 58.68, 71.56 29.32, 37.45 -0.4 M145.73 88.43 C110.92 57.22, 76.2 29.23, 43.85 -0.14 M145.73 88.43 C108.6 55.77, 72.87 23.19, 43.85 -0.14 M151.38 88.03 C119.43 61.03, 88.95 30, 50.24 0.12 M151.38 88.03 C121.84 60.82, 89.02 34.29, 50.24 0.12 M157.77 88.3 C133.96 69.91, 111.83 50.81, 55.89 -0.27 M157.77 88.3 C117.8 53.79, 76.75 19.06, 55.89 -0.27 M164.17 88.56 C142.17 70.79, 120.06 52.05, 62.29 -0.01 M164.17 88.56 C131.64 59.26, 98.46 31.5, 62.29 -0.01 M169.81 88.16 C144.48 67.11, 116.19 44.84, 67.93 -0.41 M169.81 88.16 C143.39 65.61, 116.6 42.22, 67.93 -0.41 M176.21 88.42 C155.72 69.62, 135.02 50.71, 74.33 -0.14 M176.21 88.42 C138.89 54.59, 102.64 22.69, 74.33 -0.14 M181.85 88.03 C142.35 54.4, 105.95 20.08, 80.72 0.12 M181.85 88.03 C156.97 67.82, 134.88 47.19, 80.72 0.12 M188.25 88.29 C161.64 64.84, 131.56 40.8, 86.37 -0.28 M188.25 88.29 C153.02 58.73, 118.16 28.59, 86.37 -0.28 M194.65 88.55 C162.93 61.68, 130.56 32.75, 92.76 -0.02 M194.65 88.55 C164.91 60.8, 132.58 33.89, 92.76 -0.02 M200.29 88.16 C159.47 52.26, 119.8 20.18, 98.41 -0.41 M200.29 88.16 C159.35 53.74, 119.05 17.41, 98.41 -0.41 M206.69 88.42 C185.01 67.78, 161.95 48.32, 104.81 -0.15 M206.69 88.42 C172.96 58.06, 139.23 28.83, 104.81 -0.15 M213.09 88.68 C174.7 54.85, 134.19 17.92, 111.2 0.11 M213.09 88.68 C174.93 54.31, 133.6 18.21, 111.2 0.11 M218.73 88.29 C192.81 65.51, 166.46 43.64, 116.85 -0.28 M218.73 88.29 C193.26 64.89, 167.75 44.49, 116.85 -0.28 M225.13 88.55 C195.8 62.9, 161.95 35.03, 123.24 -0.02 M225.13 88.55 C198.52 65.55, 173.46 43.25, 123.24 -0.02 M230.77 88.15 C206.76 69.44, 185.73 51.32, 128.89 -0.42 M230.77 88.15 C202.94 62.77, 175.63 38.77, 128.89 -0.42 M237.17 88.41 C201.04 57.85, 165.73 24.31, 135.29 -0.15 M237.17 88.41 C197.44 53.57, 157.87 19.19, 135.29 -0.15 M243.57 88.68 C211.14 60.39, 178.61 33.13, 141.68 0.11 M243.57 88.68 C213.09 61.76, 180.73 32.38, 141.68 0.11 M249.21 88.28 C226.7 70.47, 201.49 47.36, 147.33 -0.29 M249.21 88.28 C220.33 62.78, 188.98 36.36, 147.33 -0.29 M255.61 88.54 C216.61 55.57, 181.18 24.99, 153.72 -0.03 M255.61 88.54 C219.6 58.28, 185.46 29.22, 153.72 -0.03 M261.25 88.15 C238.49 69.33, 219.54 52.78, 159.37 -0.42 M261.25 88.15 C227.86 59.15, 193.17 30.6, 159.37 -0.42 M267.65 88.41 C246.2 66.93, 223.95 47.9, 165.76 -0.16 M267.65 88.41 C244.51 68.89, 220.47 47.81, 165.76 -0.16 M274.05 88.67 C234.24 52.25, 192.77 18.48, 172.16 0.1 M274.05 88.67 C236.32 56.94, 199.29 23.96, 172.16 0.1 M279.69 88.28 C244.49 59.67, 207.98 25.33, 177.81 -0.29 M279.69 88.28 C248.53 60.58, 216.06 32.5, 177.81 -0.29 M286.09 88.54 C253.64 61.18, 223.17 33.97, 184.2 -0.03 M286.09 88.54 C253.47 58.8, 221.4 31.7, 184.2 -0.03 M291.73 88.14 C268.66 68.5, 247.02 49.29, 190.6 0.23 M291.73 88.14 C269.81 69.7, 247.37 50.8, 190.6 0.23 M298.13 88.4 C267.69 64.01, 240.6 38.18, 196.24 -0.16 M298.13 88.4 C275.32 69.87, 251.53 48.4, 196.24 -0.16 M304.53 88.67 C269.08 58.58, 235.59 31.45, 202.64 0.1 M304.53 88.67 C278.75 65.93, 253.68 44.64, 202.64 0.1 M310.17 88.27 C278.81 62.37, 249.22 33.57, 208.28 -0.3 M310.17 88.27 C273.78 57.25, 236.95 23.64, 208.28 -0.3 M316.57 88.53 C295.75 67.43, 268.8 47.58, 214.68 -0.04 M316.57 88.53 C295.8 69.47, 274.22 51.27, 214.68 -0.04 M322.21 88.14 C288.24 58.93, 254.32 26.18, 221.08 0.23 M322.21 88.14 C289.21 59.55, 256.85 30.44, 221.08 0.23 M328.61 88.4 C303.95 68, 282.95 47.83, 226.72 -0.17 M328.61 88.4 C292.01 56.92, 255.08 25.14, 226.72 -0.17 M335.01 88.66 C295.96 53.12, 257 20.26, 233.12 0.09 M335.01 88.66 C297.41 56.55, 261.47 23.75, 233.12 0.09 M340.65 88.27 C313.03 63.13, 281.42 38.13, 238.76 -0.3 M340.65 88.27 C316.15 65.63, 291.5 45.25, 238.76 -0.3 M347.05 88.53 C320.54 66.33, 296.98 43.42, 245.16 -0.04 M347.05 88.53 C324.74 68.89, 301.94 50.62, 245.16 -0.04 M353.45 88.79 C313.17 51.08, 272.55 18.17, 251.56 0.22 M353.45 88.79 C323.17 61.18, 293.09 34.8, 251.56 0.22 M359.09 88.39 C323.24 54.71, 284.57 22.34, 257.2 -0.17 M359.09 88.39 C327.43 59.48, 292.89 31.18, 257.2 -0.17 M365.49 88.66 C329.03 56.9, 293.55 26.48, 263.6 0.09 M365.49 88.66 C340.5 66.49, 317.19 45.96, 263.6 0.09 M371.13 88.26 C350.15 67.57, 327.17 51.98, 269.24 -0.31 M371.13 88.26 C332.48 54.24, 295.14 22.46, 269.24 -0.31 M377.53 88.52 C345.29 59, 311.03 29.88, 275.64 -0.04 M377.53 88.52 C352.41 65.38, 324.92 43.2, 275.64 -0.04 M383.93 88.78 C358.54 67.11, 335.53 45.96, 282.04 0.22 M383.93 88.78 C348.3 58.42, 314.32 27.89, 282.04 0.22 M389.57 88.39 C366.53 71.47, 346.37 52.6, 287.68 -0.18 M389.57 88.39 C365.58 68.97, 342.3 48.51, 287.68 -0.18 M395.97 88.65 C359.99 57.66, 321.98 27.51, 294.08 0.08 M395.97 88.65 C361.95 59.66, 330.4 32.08, 294.08 0.08 M401.61 88.26 C380.45 69.87, 357.36 47.29, 299.72 -0.31 M401.61 88.26 C369.35 61, 337.38 33.6, 299.72 -0.31 M408.01 88.52 C383.26 66.07, 354.45 42.45, 306.12 -0.05 M408.01 88.52 C383.7 67.75, 358.68 46.34, 306.12 -0.05 M414.4 88.78 C391.7 66.81, 365.6 49.41, 312.52 0.21 M414.4 88.78 C380.81 57.77, 346.39 26.94, 312.52 0.21 M420.05 88.39 C392.46 62.43, 361.2 37.01, 318.16 -0.18 M420.05 88.39 C387.14 58.57, 353.11 29.16, 318.16 -0.18 M426.45 88.65 C393.28 60.01, 358.75 28.13, 324.56 0.08 M426.45 88.65 C402.5 68.09, 378.77 46.36, 324.56 0.08 M432.09 88.25 C391.28 55.23, 353.19 21.88, 330.96 0.34 M432.09 88.25 C400.74 61.75, 371.59 34.88, 330.96 0.34 M438.49 88.51 C413.52 67.63, 390.66 46.87, 336.6 -0.05 M438.49 88.51 C416.36 71.37, 396.68 53.33, 336.6 -0.05 M444.88 88.77 C414.36 63.38, 381.67 33.16, 343 0.21 M444.88 88.77 C409.53 57.79, 374.67 27.34, 343 0.21 M450.53 88.38 C424.56 62.77, 395.92 41.13, 348.64 -0.19 M450.53 88.38 C419.27 60.49, 385.32 31.37, 348.64 -0.19 M456.93 88.64 C430.07 64.7, 406.66 42.34, 355.04 0.07 M456.93 88.64 C422.66 58.2, 388.84 28.79, 355.04 0.07 M462.57 88.25 C426.08 57.23, 387.81 23.17, 361.44 0.34 M462.57 88.25 C427.97 56.51, 392.53 26.58, 361.44 0.34 M468.97 88.51 C447.26 70.68, 421.98 49.58, 367.08 -0.06 M468.97 88.51 C444.09 68.17, 420.21 47.18, 367.08 -0.06 M474.61 88.11 C442.05 62.61, 413.46 36.31, 373.48 0.2 M474.61 88.11 C440.65 58.46, 406.08 29.45, 373.48 0.2 M479.5 87.06 C453.94 68.2, 431.36 45.37, 379.12 -0.19 M479.5 87.06 C452.85 64.21, 427.94 41.38, 379.12 -0.19 M484.39 86.01 C459.65 65.31, 438.06 42.89, 385.52 0.07 M484.39 86.01 C465.01 68.57, 444.56 51.22, 385.52 0.07 M487.76 83.65 C452.24 56.33, 419.39 27.27, 391.92 0.33 M487.76 83.65 C454.83 55.61, 422.98 27.75, 391.92 0.33 M491.14 81.29 C472.75 64.89, 450.98 45.63, 397.56 -0.06 M491.14 81.29 C456.23 52.2, 424.02 24.47, 397.56 -0.06 M493.01 77.61 C474.72 63.43, 456.32 44.8, 403.96 0.2 M493.01 77.61 C469.04 55.98, 445.08 35.3, 403.96 0.2 M494.13 73.28 C473.77 58.15, 458.74 43.26, 409.6 -0.2 M494.13 73.28 C468.87 50.6, 445.55 29.69, 409.6 -0.2 M495.24 68.95 C473.25 46.68, 447.54 30.04, 416 0.06 M495.24 68.95 C469.92 47.67, 444.7 24.93, 416 0.06 M494.85 63.31 C473.37 45.79, 453.75 26.09, 422.4 0.33 M494.85 63.31 C468.65 39.52, 441.97 15.28, 422.4 0.33 M495.21 58.32 C474.46 40.7, 452.71 22.69, 428.04 -0.07 M495.21 58.32 C479.06 42.33, 461.02 28.5, 428.04 -0.07 M494.81 52.68 C476.11 37.49, 458.93 20.43, 434.44 0.19 M494.81 52.68 C478.65 39.94, 464.34 26.09, 434.44 0.19 M495.17 47.69 C473.53 29.91, 455.13 12.19, 440.08 -0.2 M495.17 47.69 C476.28 31.31, 459.54 16.54, 440.08 -0.2 M495.53 42.7 C481.05 30.28, 462.71 17.08, 446.48 0.06 M495.53 42.7 C483.35 31.27, 470.24 20.87, 446.48 0.06 M495.14 37.06 C486.36 29.03, 477.52 21.95, 452.88 0.32 M495.14 37.06 C485.01 28.49, 476.09 18.33, 452.88 0.32 M495.5 32.07 C484.94 24.27, 478.19 15.54, 458.52 -0.07 M495.5 32.07 C480.05 19.74, 466.05 5.58, 458.52 -0.07 M495.1 26.43 C485.36 15.17, 472.61 8.37, 464.92 0.19 M495.1 26.43 C488.13 21.5, 483.07 15.82, 464.92 0.19 M494.71 20.79 C486.29 12.37, 476.59 6.51, 471.31 0.45 M494.71 20.79 C485.43 12.93, 476.27 5.06, 471.31 0.45 M493.56 14.49 C489.28 9.45, 484.93 6.81, 476.96 0.05 M493.56 14.49 C489.14 10.62, 482.78 5.1, 476.96 0.05" stroke="#ffc9c9" stroke-width="0.5" fill="none"></path><path d="M22.26 0 C174.61 2.19, 327.26 1.78, 472.49 0 M22.26 0 C119.52 0.18, 217.2 0.67, 472.49 0 M472.49 0 C486.9 0.72, 494.88 8.43, 494.75 22.26 M472.49 0 C488.5 -1.03, 493.06 8.53, 494.75 22.26 M494.75 22.26 C493.3 33.18, 497.12 45.92, 494.75 66.78 M494.75 22.26 C494.85 35.45, 494.06 48.25, 494.75 66.78 M494.75 66.78 C494.16 80.94, 486.46 90.56, 472.49 89.03 M494.75 66.78 C494.34 81.21, 488.48 90.23, 472.49 89.03 M472.49 89.03 C308.31 89, 145.1 88.23, 22.26 89.03 M472.49 89.03 C308.92 87.3, 144.89 87.8, 22.26 89.03 M22.26 89.03 C8.34 89.11, -1.7 81.67, 0 66.78 M22.26 89.03 C8.01 87.73, 0.73 81.59, 0 66.78 M0 66.78 C-0.37 51.15, 0.2 32.97, 0 22.26 M0 66.78 C0.41 52.85, -0.9 37.88, 0 22.26 M0 22.26 C-0.96 6.06, 8.19 0.18, 22.26 0 M0 22.26 C0.84 5.71, 5.37 -0.03, 22.26 0" stroke="#e8590c" stroke-width="1" fill="none"></path></g><g transform="translate(554.6800039605216 176.57607788820087) rotate(0 21.432052612304688 20)"><text x="21.432052612304688" y="0" font-family="Virgil, Segoe UI Emoji" font-size="16px" fill="#e03131" text-anchor="middle" style="white-space: pre;" direction="ltr" dominant-baseline="text-before-edge">UDP</text><text x="21.432052612304688" y="20" font-family="Virgil, Segoe UI Emoji" font-size="16px" fill="#e03131" text-anchor="middle" style="white-space: pre;" direction="ltr" dominant-baseline="text-before-edge">Data</text></g><g transform="translate(258.9360095383711 177.35263002070553) rotate(0 26.488059997558594 20)"><text x="26.488059997558594" y="0" font-family="Virgil, Segoe UI Emoji" font-size="16px" fill="#1e1e1e" text-anchor="middle" style="white-space: pre;" direction="ltr" dominant-baseline="text-before-edge">IP</text><text x="26.488059997558594" y="20" font-family="Virgil, Segoe UI Emoji" font-size="16px" fill="#1e1e1e" text-anchor="middle" style="white-space: pre;" direction="ltr" dominant-baseline="text-before-edge">Header</text></g><g transform="translate(239.631929142771 220.9876923809552) rotate(0 5.5040130615234375 10)"><text x="5.5040130615234375" y="0" font-family="Virgil, Segoe UI Emoji" font-size="16px" fill="#1e1e1e" text-anchor="middle" style="white-space: pre;" direction="ltr" dominant-baseline="text-before-edge">0</text></g><g transform="translate(337.0649144900292 221.9876923809552) rotate(0 11.200027465820312 10)"><text x="11.200027465820312" y="0" font-family="Virgil, Segoe UI Emoji" font-size="16px" fill="#e03131" text-anchor="middle" style="white-space: pre;" direction="ltr" dominant-baseline="text-before-edge">20</text></g><g transform="translate(671.0870765314266 173.25854670807598) rotate(0 37.29608917236328 20)"><text x="0" y="0" font-family="Virgil, Segoe UI Emoji" font-size="16px" fill="#1e1e1e" text-anchor="start" style="white-space: pre;" direction="ltr" dominant-baseline="text-before-edge">2nd Frag:</text><text x="0" y="20" font-family="Virgil, Segoe UI Emoji" font-size="16px" fill="#1e1e1e" text-anchor="start" style="white-space: pre;" direction="ltr" dominant-baseline="text-before-edge">1480</text></g><g stroke-linecap="round" transform="translate(15.564682277432553 146.79989055900677) rotate(0 105.7289632712239 48.564499875777486)"><path d="M3.66 34.98 C3.66 34.98, 3.66 34.98, 3.66 34.98 M3.66 34.98 C3.66 34.98, 3.66 34.98, 3.66 34.98 M2.74 42.13 C8.56 39.54, 11.58 33.66, 19.8 22.51 M2.74 42.13 C9.01 33.72, 16.89 27.54, 19.8 22.51 M1.82 49.29 C10.62 40.34, 16.28 30.46, 30.69 16.08 M1.82 49.29 C11.43 37.09, 20.48 26.82, 30.69 16.08 M2.22 54.93 C14.47 38.41, 28.88 24.31, 38.3 13.42 M2.22 54.93 C13.19 41.36, 23.26 30.25, 38.3 13.42 M4.58 58.31 C12.23 47.23, 23.58 38.07, 46.57 10.01 M4.58 58.31 C21.16 39.48, 36.22 21.87, 46.57 10.01 M6.94 61.69 C23.5 43.22, 39.56 22.8, 54.18 7.35 M6.94 61.69 C17.81 49.54, 27.41 36.54, 54.18 7.35 M9.96 64.31 C28.63 46.87, 45 23.94, 61.79 4.69 M9.96 64.31 C28.7 43.42, 45.88 21.39, 61.79 4.69 M12.33 67.69 C23.84 51.3, 36.62 39, 67.43 4.29 M12.33 67.69 C26.47 51.11, 41.2 35.22, 67.43 4.29 M14.69 71.07 C32.88 49.04, 49.72 28.73, 73.73 3.14 M14.69 71.07 C27.74 56.79, 40.13 40.33, 73.73 3.14 M17.71 73.69 C36.26 53.88, 52.89 34.58, 79.38 2.75 M17.71 73.69 C38.89 49.98, 58.32 26, 79.38 2.75 M21.38 75.56 C41.22 51.65, 64.55 27.38, 85.02 2.36 M21.38 75.56 C45.42 49.16, 67.88 22.58, 85.02 2.36 M24.4 78.19 C45.84 55.74, 65.22 33.26, 91.32 1.21 M24.4 78.19 C49.94 47.86, 75.75 18.56, 91.32 1.21 M28.08 80.06 C48.11 57.18, 70.18 30.21, 96.96 0.81 M28.08 80.06 C55.27 49.78, 81.01 19.92, 96.96 0.81 M31.75 81.93 C56.22 56.09, 76.31 31.65, 103.26 -0.34 M31.75 81.93 C58.34 54.51, 82.61 24.27, 103.26 -0.34 M35.43 83.8 C61.31 57.91, 84.8 26.68, 107.59 0.78 M35.43 83.8 C54.86 61.59, 74.46 37.61, 107.59 0.78 M39.1 85.66 C61.6 62.64, 82.81 36.72, 112.58 1.14 M39.1 85.66 C55.19 66.73, 72.67 47.24, 112.58 1.14 M42.78 87.53 C66.03 61.41, 87.48 37.25, 117.57 1.5 M42.78 87.53 C65.72 61.45, 87.81 35.43, 117.57 1.5 M46.45 89.4 C68.55 67.08, 84.98 43.12, 122.55 1.86 M46.45 89.4 C75.69 53.38, 107.45 18.91, 122.55 1.86 M50.78 90.52 C70.8 69.12, 91.94 45.97, 126.88 2.97 M50.78 90.52 C76.12 62.07, 99.67 34.77, 126.88 2.97 M55.77 90.88 C80.64 62.62, 104.71 37.72, 131.87 3.33 M55.77 90.88 C77.68 66.34, 97.86 40.36, 131.87 3.33 M60.1 91.99 C76.36 68.32, 96.16 47.89, 136.86 3.69 M60.1 91.99 C88.64 61.2, 117.16 27.51, 136.86 3.69 M64.43 93.11 C78.8 75.98, 98.91 54.52, 141.84 4.05 M64.43 93.11 C89.45 64.28, 113.92 36.9, 141.84 4.05 M69.42 93.47 C95.17 65.75, 119.78 38.7, 146.18 5.17 M69.42 93.47 C97.23 60.89, 126.78 27.92, 146.18 5.17 M73.75 94.58 C96.24 71.12, 115.7 48.65, 150.51 6.28 M73.75 94.58 C98.82 64.61, 126.94 33.81, 150.51 6.28 M78.08 95.7 C94.88 73.33, 113.25 51.3, 154.84 7.4 M78.08 95.7 C94.54 77.77, 111.31 56.96, 154.84 7.4 M83.07 96.06 C114.09 60.21, 143.84 26.18, 159.17 8.51 M83.07 96.06 C102.48 75.54, 120.13 55.71, 159.17 8.51 M87.4 97.17 C105.48 73.76, 125.97 55.25, 163.5 9.63 M87.4 97.17 C106.56 74.51, 124.71 53.07, 163.5 9.63 M93.04 96.78 C109.93 76.14, 127.89 58.3, 167.83 10.74 M93.04 96.78 C115.97 71.99, 136.72 48.02, 167.83 10.74 M98.03 97.14 C117.54 75.3, 139.25 50.05, 171.51 12.61 M98.03 97.14 C114.27 77.62, 131.22 59.96, 171.51 12.61 M103.67 96.74 C125.31 74.35, 147.12 49.96, 175.84 13.73 M103.67 96.74 C132.53 65.16, 160.09 32.47, 175.84 13.73 M108.66 97.1 C129.9 73.72, 149.92 50.41, 180.17 14.84 M108.66 97.1 C129.34 73.39, 150.35 49.63, 180.17 14.84 M114.3 96.71 C139.82 66.36, 164.68 40.46, 183.84 16.71 M114.3 96.71 C133.08 74.81, 153.77 50.59, 183.84 16.71 M119.29 97.07 C148.43 65.8, 174.11 35.07, 187.52 18.58 M119.29 97.07 C135.75 77.97, 150.93 61.25, 187.52 18.58 M124.93 96.68 C145.51 75.04, 166.9 48.77, 190.54 21.2 M124.93 96.68 C144.41 73.34, 166.73 48.45, 190.54 21.2 M129.92 97.04 C150.63 71.33, 174.29 46.33, 193.55 23.83 M129.92 97.04 C145.56 76.7, 162.24 58.31, 193.55 23.83 M136.87 95.13 C153.36 76.15, 170.71 52.11, 196.57 26.45 M136.87 95.13 C152.62 78.85, 166.81 62.34, 196.57 26.45 M143.17 93.98 C165.82 66.8, 189.17 41.87, 200.25 28.32 M143.17 93.98 C154.8 79.3, 167.47 66.63, 200.25 28.32 M149.47 92.83 C170.11 68.25, 188.07 48.49, 203.27 30.95 M149.47 92.83 C162.63 76.59, 176.97 63.1, 203.27 30.95 M155.77 91.68 C168.74 76.62, 183.65 59.21, 205.63 34.33 M155.77 91.68 C171.69 73.24, 185.91 55.94, 205.63 34.33 M162.72 89.78 C171.78 77.05, 182.63 67.42, 206.68 39.21 M162.72 89.78 C178.2 72.14, 192.21 57.01, 206.68 39.21 M169.02 88.63 C184.72 73.7, 196.67 55.62, 208.39 43.35 M169.02 88.63 C178.34 79.37, 186.24 68.8, 208.39 43.35 M179.92 82.2 C187.44 73.53, 194.6 66.69, 209.44 48.24 M179.92 82.2 C189.24 70.6, 197.28 61.14, 209.44 48.24 M190.15 76.52 C197.35 65.99, 207.27 59.25, 211.15 52.37 M190.15 76.52 C194.95 71.56, 198.51 66.75, 211.15 52.37 M16.03 73.02 C16.03 73.02, 16.03 73.02, 16.03 73.02 M16.03 73.02 C16.03 73.02, 16.03 73.02, 16.03 73.02 M32.24 81.81 C23.54 74.35, 16.3 68.77, 3.56 56.88 M32.24 81.81 C25.16 76.69, 19.3 70.3, 3.56 56.88 M45.43 87.97 C35.62 78.56, 30.29 73.47, 3.16 51.23 M45.43 87.97 C28.96 74.97, 13.78 60.56, 3.16 51.23 M53.34 89.55 C34.63 72.57, 15.55 58.09, 4.28 46.9 M53.34 89.55 C40.73 78.48, 29.23 67.59, 4.28 46.9 M61.24 91.12 C47.52 81.38, 34.73 68.9, 4.64 41.91 M61.24 91.12 C38.71 71.9, 16.52 52.11, 4.64 41.91 M69.15 92.69 C46.29 72, 21.58 49.88, 5 36.93 M69.15 92.69 C55.14 79.19, 39.2 66.31, 5 36.93 M77.06 94.27 C54.8 76.23, 36.3 58.85, 6.11 32.6 M77.06 94.27 C58.66 80.08, 41.95 64.83, 6.11 32.6 M84.96 95.84 C64.49 78.66, 45.87 62.54, 9.49 30.23 M84.96 95.84 C60.34 74.09, 33.63 50.68, 9.49 30.23 M88.34 93.48 C59.92 68.04, 27.76 42.1, 12.12 27.22 M88.34 93.48 C65.51 73.71, 40.42 52.38, 12.12 27.22 M94.74 93.74 C77.59 77.3, 57.21 62.33, 15.5 24.85 M94.74 93.74 C63.92 68.69, 35.45 41.08, 15.5 24.85 M101.14 94 C69.22 69, 39.37 41.06, 18.88 22.49 M101.14 94 C69.81 65.64, 37.77 37.09, 18.88 22.49 M106.78 93.61 C84.85 76.27, 67.04 57.88, 22.25 20.13 M106.78 93.61 C82.3 72.65, 57.34 51.92, 22.25 20.13 M113.18 93.87 C83.93 70.51, 59.78 46.46, 25.63 17.76 M113.18 93.87 C80.32 63.18, 45.11 34.65, 25.63 17.76 M118.82 93.47 C86.76 64.45, 57.48 39.59, 28.26 14.75 M118.82 93.47 C94.99 75.1, 74.62 55.22, 28.26 14.75 M125.22 93.73 C98.67 72.97, 75.35 50.85, 33.15 13.69 M125.22 93.73 C97.37 68.7, 71.06 46.6, 33.15 13.69 M131.62 94 C98.1 63.28, 66.81 37.94, 37.28 11.99 M131.62 94 C99.59 66.62, 68.29 39.15, 37.28 11.99 M136.51 92.94 C106.76 66.25, 76.25 41.73, 41.41 10.28 M136.51 92.94 C100.17 61.26, 66.33 31.82, 41.41 10.28 M141.4 91.89 C109.79 66.18, 81.8 38.35, 45.55 8.57 M141.4 91.89 C110.61 65.01, 82.01 40.85, 45.55 8.57 M146.28 90.84 C108.27 57.3, 72.19 26.25, 49.68 6.87 M146.28 90.84 C111.87 60.88, 74.93 29.35, 49.68 6.87 M151.17 89.79 C121.09 65.63, 94.02 38.17, 53.81 5.16 M151.17 89.79 C113.1 56.03, 74.25 21.77, 53.81 5.16 M156.06 88.74 C136.53 71.15, 116.25 53.46, 57.95 3.45 M156.06 88.74 C124.37 62.57, 95.53 36.53, 57.95 3.45 M160.95 87.69 C140.86 70.14, 118.9 50.72, 62.08 1.75 M160.95 87.69 C128.46 58.29, 94.28 30, 62.08 1.75 M165.84 86.64 C134.88 61.53, 104.52 32.33, 67.72 1.35 M165.84 86.64 C135.48 59.06, 105.34 32.05, 67.72 1.35 M170.73 85.59 C137.86 59.53, 103.44 29.52, 73.37 0.96 M170.73 85.59 C139.81 58.27, 109.43 31.83, 73.37 0.96 M174.86 83.88 C147.3 58.9, 120.99 35.47, 78.26 -0.09 M174.86 83.88 C140 53.81, 105.71 22.93, 78.26 -0.09 M178.24 81.52 C159.94 63.86, 137.05 43.82, 83.9 -0.49 M178.24 81.52 C156.94 63.42, 134.8 45.8, 83.9 -0.49 M182.37 79.81 C155.61 57.79, 127.28 31.13, 89.54 -0.88 M182.37 79.81 C152.83 54.09, 121.83 26.31, 89.54 -0.88 M185.75 77.45 C149.83 46.17, 113.82 14.47, 94.43 -1.93 M185.75 77.45 C165.65 61.53, 146.76 43.6, 94.43 -1.93 M189.88 75.74 C159.05 48.36, 127.47 18.08, 100.07 -2.33 M189.88 75.74 C156.42 46.41, 122.22 17.98, 100.07 -2.33 M193.26 73.38 C174.03 56.8, 150.8 38.3, 104.96 -3.38 M193.26 73.38 C164.46 45.55, 133.39 19.3, 104.96 -3.38 M197.4 71.67 C173.58 48.71, 147.66 30.02, 112.11 -2.46 M197.4 71.67 C169.42 46.65, 140.98 22.41, 112.11 -2.46 M200.02 68.66 C174.63 46.28, 150.42 24.52, 119.27 -1.54 M200.02 68.66 C172.95 45.92, 147 23.86, 119.27 -1.54 M202.65 65.64 C177.03 43.68, 150.99 19.38, 125.66 -1.28 M202.65 65.64 C179.51 44.1, 155.53 23.09, 125.66 -1.28 M204.51 61.96 C187.3 48.02, 173.23 34.72, 132.82 -0.36 M204.51 61.96 C177.62 40.08, 151.95 16.23, 132.82 -0.36 M207.14 58.94 C182.82 37.97, 160.17 14.28, 139.97 0.55 M207.14 58.94 C185.6 41.18, 164.3 23.18, 139.97 0.55 M209.76 55.92 C197.54 42.79, 182.18 33.09, 147.88 2.13 M209.76 55.92 C186.61 35.07, 163.58 14.69, 147.88 2.13 M211.63 52.25 C199.8 41.06, 184.21 31.13, 157.29 5.01 M211.63 52.25 C198.94 41.21, 188 31.63, 157.29 5.01 M209.73 45.29 C198.48 35.54, 184.27 21.83, 166.71 7.9 M209.73 45.29 C196.76 35.72, 185.94 24.18, 166.71 7.9 M207.82 38.34 C199.63 28.84, 192.11 24.9, 176.13 10.78 M207.82 38.34 C194.65 27.15, 183.55 16.45, 176.13 10.78" stroke="#d0bfff" stroke-width="0.5" fill="none"></path><path d="M145.96 4.38 C159.13 5.99, 172.81 10.74, 182.58 15.33 C192.35 19.92, 199.85 25.57, 204.59 31.91 C209.34 38.26, 212.2 46.68, 211.03 53.39 C209.86 60.11, 204.56 66.4, 197.57 72.19 C190.58 77.98, 180.4 84.06, 169.09 88.12 C157.77 92.19, 143.5 95.16, 129.67 96.58 C115.84 98, 100.2 97.91, 86.1 96.63 C71.99 95.35, 56.71 92.8, 45.06 88.89 C33.41 84.98, 23.49 79, 16.19 73.16 C8.89 67.31, 3.36 60.17, 1.26 53.82 C-0.83 47.46, -0.52 41.03, 3.63 35.01 C7.79 28.99, 16.82 22.76, 26.2 17.71 C35.57 12.66, 47.14 7.7, 59.88 4.71 C72.62 1.72, 86.55 -0.61, 102.64 -0.24 C118.74 0.12, 146.14 5.3, 156.44 6.91 C166.74 8.51, 165.31 8.8, 164.46 9.37 M60.04 3.55 C71.34 0.39, 87.06 1.36, 101.2 1.51 C115.35 1.67, 131.35 2.32, 144.89 4.47 C158.43 6.62, 172.57 10.04, 182.45 14.42 C192.33 18.8, 199.27 24.63, 204.16 30.77 C209.05 36.9, 212.37 44.7, 211.79 51.22 C211.21 57.74, 207.41 63.86, 200.69 69.9 C193.97 75.93, 182.91 83.39, 171.47 87.44 C160.03 91.48, 146.08 92.89, 132.04 94.19 C118 95.48, 101.56 95.88, 87.22 95.2 C72.88 94.52, 57.76 93.69, 46.01 90.08 C34.26 86.48, 24.02 79.11, 16.7 73.57 C9.38 68.03, 4.21 63.33, 2.1 56.86 C-0.02 50.4, 0.15 41.14, 4.03 34.78 C7.9 28.42, 15.94 23.9, 25.34 18.71 C34.74 13.51, 54.71 5.59, 60.42 3.62 C66.12 1.65, 59.2 5.96, 59.56 6.9" stroke="#6741d9" stroke-width="1" fill="none"></path></g><g transform="translate(36.19634090062982 167.04685925465952) rotate(0 93.75 28.80000000000001)"><text x="0" y="0" font-family="Cascadia, Segoe UI Emoji" font-size="16px" fill="#6741d9" text-anchor="start" style="white-space: pre;" direction="ltr" dominant-baseline="text-before-edge">ip.id: 0xa7b4</text><text x="0" y="19.2" font-family="Cascadia, Segoe UI Emoji" font-size="16px" fill="#6741d9" text-anchor="start" style="white-space: pre;" direction="ltr" dominant-baseline="text-before-edge">ip.frag_offset: 1480</text><text x="0" y="38.4" font-family="Cascadia, Segoe UI Emoji" font-size="16px" fill="#6741d9" text-anchor="start" style="white-space: pre;" direction="ltr" dominant-baseline="text-before-edge">flags.mf: 1</text></g><g stroke-linecap="round" transform="translate(235.37892225505448 264.387546459631) rotate(0 135.5758954865455 44.517458219462696)"><path d="M22.26 0 C99.11 1.4, 172.65 -1.03, 248.89 0 M22.26 0 C111.31 0.48, 198.63 0.44, 248.89 0 M248.89 0 C263.96 -1.3, 270.94 8.39, 271.15 22.26 M248.89 0 C265.93 -1.97, 271.78 5.72, 271.15 22.26 M271.15 22.26 C270.01 34.46, 270.6 51.59, 271.15 66.78 M271.15 22.26 C272.2 33.68, 270.88 44.39, 271.15 66.78 M271.15 66.78 C272.12 83.02, 263.69 90.87, 248.89 89.03 M271.15 66.78 C273.04 83.11, 265.81 87.5, 248.89 89.03 M248.89 89.03 C191.61 87.57, 132.25 87.92, 22.26 89.03 M248.89 89.03 C172.46 89.65, 94.46 90.26, 22.26 89.03 M22.26 89.03 C7.76 89.84, -0.04 81.01, 0 66.78 M22.26 89.03 C8.19 89.44, -1.28 80.22, 0 66.78 M0 66.78 C1.16 59.37, -1.74 47.88, 0 22.26 M0 66.78 C0.66 50.8, 0.42 33.26, 0 22.26 M0 22.26 C-0.88 6.1, 8.42 0.9, 22.26 0 M0 22.26 C-1.26 9.58, 8.14 -2.02, 22.26 0" stroke="#1e1e1e" stroke-width="1" fill="none"></path></g><g stroke-linecap="round" transform="translate(329.09721952213204 263.3757860455523) rotate(0 89.03491643892517 44.517458219462696)"><path d="M5.27 5.91 C5.27 5.91, 5.27 5.91, 5.27 5.91 M5.27 5.91 C5.27 5.91, 5.27 5.91, 5.27 5.91 M0.41 17.59 C3.92 10.46, 10.23 8.13, 14.19 1.74 M0.41 17.59 C4.67 12.63, 9.28 7.13, 14.19 1.74 M0.81 23.23 C7.87 15.63, 14.02 10.27, 20.49 0.59 M0.81 23.23 C7.47 14.57, 16.22 7.41, 20.49 0.59 M0.55 29.63 C6.96 21.79, 16.64 10.67, 26.13 0.19 M0.55 29.63 C7.21 19.86, 15.55 12.09, 26.13 0.19 M0.94 35.27 C12.11 21.39, 25.6 9.21, 31.78 -0.2 M0.94 35.27 C12.98 22.4, 22.79 8.66, 31.78 -0.2 M0.68 41.67 C10.55 29.94, 23.61 15.46, 36.76 0.16 M0.68 41.67 C15.62 25.15, 30.08 8.12, 36.76 0.16 M0.42 48.07 C9.16 39.12, 17.44 28.97, 42.41 -0.24 M0.42 48.07 C12.43 33.44, 27.05 18.88, 42.41 -0.24 M0.81 53.71 C10.84 42.8, 19.15 30.12, 47.39 0.12 M0.81 53.71 C17.13 34.69, 32.01 17.32, 47.39 0.12 M0.55 60.11 C16.78 43.21, 33.38 21.78, 53.04 -0.27 M0.55 60.11 C17.19 41.09, 33.93 21.83, 53.04 -0.27 M0.95 65.75 C20.71 44.94, 38.76 21.38, 58.02 0.09 M0.95 65.75 C19.23 43.85, 37.96 23.44, 58.02 0.09 M0.69 72.15 C17.71 51.71, 36.05 31.5, 63.67 -0.31 M0.69 72.15 C23.34 46.46, 46.66 19.74, 63.67 -0.31 M2.39 76.28 C19.61 60.8, 32.28 42.04, 68.65 0.06 M2.39 76.28 C17.03 58.28, 30.78 41.96, 68.65 0.06 M3.44 81.17 C24.62 58.68, 44.23 31.79, 74.3 -0.34 M3.44 81.17 C28.2 54.03, 51.49 25.97, 74.3 -0.34 M6.46 83.79 C35.9 52.11, 65.26 18.66, 79.28 0.02 M6.46 83.79 C21.91 65.5, 38.58 46.63, 79.28 0.02 M9.48 86.42 C37.2 57.38, 64.14 24.27, 84.27 0.38 M9.48 86.42 C38.12 53.46, 65.99 22.03, 84.27 0.38 M13.81 87.53 C33.11 69.61, 48.3 48.59, 89.91 -0.01 M13.81 87.53 C41.29 57.55, 66.41 27.62, 89.91 -0.01 M18.14 88.65 C41.44 62.36, 62.62 39.55, 94.9 0.35 M18.14 88.65 C43.87 58.82, 69.23 29.88, 94.9 0.35 M22.47 89.76 C46.46 62.55, 71.49 34.71, 100.54 -0.05 M22.47 89.76 C46.92 59.99, 72.47 31.57, 100.54 -0.05 M28.12 89.37 C54.83 60.07, 81.25 28.25, 105.53 0.31 M28.12 89.37 C53.31 61.26, 77.57 33.34, 105.53 0.31 M33.1 89.73 C50.17 68.53, 70.32 48.95, 111.18 -0.08 M33.1 89.73 C61.96 56.34, 91.84 22.29, 111.18 -0.08 M38.75 89.33 C67.13 57.7, 97.05 22.85, 116.16 0.28 M38.75 89.33 C62.94 61.4, 87.33 33.72, 116.16 0.28 M43.73 89.69 C60.88 69.81, 74.73 52.59, 121.81 -0.12 M43.73 89.69 C72.33 56.74, 101.03 23.06, 121.81 -0.12 M49.38 89.3 C68.94 67.63, 85.13 47.61, 126.79 0.24 M49.38 89.3 C65.53 69.87, 83.73 51.04, 126.79 0.24 M54.36 89.66 C77.68 65.16, 98.51 36.28, 132.44 -0.15 M54.36 89.66 C76.97 64.02, 101.25 37.29, 132.44 -0.15 M60.01 89.26 C81.52 63.74, 103.52 43.17, 137.42 0.21 M60.01 89.26 C89.33 55.01, 120.54 20.46, 137.42 0.21 M64.99 89.62 C91.78 62.56, 117.42 32.1, 143.07 -0.19 M64.99 89.62 C95.44 55.28, 124.24 21.44, 143.07 -0.19 M70.64 89.23 C98.43 57.46, 129.01 21.69, 148.05 0.17 M70.64 89.23 C90.14 66.27, 109.95 44.04, 148.05 0.17 M75.62 89.59 C89.15 70.96, 107.45 55.45, 153.7 -0.22 M75.62 89.59 C106.17 56.15, 134.16 21.08, 153.7 -0.22 M81.27 89.19 C101.25 62.96, 124.2 42.43, 158.03 0.89 M81.27 89.19 C108.38 59.25, 136.25 27.96, 158.03 0.89 M86.25 89.56 C100.58 70.37, 117.67 55.63, 162.36 2.01 M86.25 89.56 C109.42 64.5, 130.37 39.41, 162.36 2.01 M91.9 89.16 C116.4 58.87, 140.52 29.9, 167.34 2.37 M91.9 89.16 C112.67 66.66, 133.17 42.9, 167.34 2.37 M96.88 89.52 C114.74 68.15, 133.95 46.82, 171.02 4.24 M96.88 89.52 C113.07 72.35, 127.64 52.83, 171.02 4.24 M102.53 89.13 C123.99 63.47, 145.48 36.74, 173.38 7.62 M102.53 89.13 C124.16 64.64, 146.47 39.75, 173.38 7.62 M107.51 89.49 C127.43 69.92, 145.6 49.03, 175.74 11 M107.51 89.49 C128.17 64.93, 151 39.37, 175.74 11 M113.16 89.09 C126.78 70.44, 144.38 52.95, 177.45 15.13 M113.16 89.09 C129.04 73.43, 143.65 56.41, 177.45 15.13 M118.14 89.45 C131.45 74.64, 142.76 59.24, 177.85 20.77 M118.14 89.45 C135.62 69.83, 151.73 50.39, 177.85 20.77 M123.13 89.81 C136.67 71.86, 152.37 56.34, 178.24 26.42 M123.13 89.81 C138.46 73.09, 154 56.82, 178.24 26.42 M128.77 89.42 C141.86 74.16, 150.94 60.25, 177.98 32.81 M128.77 89.42 C138.77 79.04, 149.07 66.82, 177.98 32.81 M133.76 89.78 C148.77 74.31, 159.2 59.48, 178.37 38.46 M133.76 89.78 C150 71.62, 166.3 51.23, 178.37 38.46 M139.4 89.38 C152.65 74.55, 168.88 56.79, 178.11 44.85 M139.4 89.38 C151.52 74.95, 165.29 59.71, 178.11 44.85 M144.39 89.74 C154.13 77.19, 164.74 63.51, 178.51 50.5 M144.39 89.74 C156.21 76.31, 166.83 62.91, 178.51 50.5 M150.04 89.35 C159.91 75.87, 172.27 65.55, 178.25 56.9 M150.04 89.35 C160.98 76.59, 171.4 64.91, 178.25 56.9 M155.02 89.71 C158.63 82.72, 165.08 79.95, 178.64 62.54 M155.02 89.71 C161.74 83.37, 166.29 75.55, 178.64 62.54 M161.32 88.56 C167.17 81.36, 172.02 76.85, 178.38 68.94 M161.32 88.56 C165.59 83.34, 171.1 76.63, 178.38 68.94 M168.28 86.65 C169.45 83.5, 171.4 82.57, 176.15 77.6 M168.28 86.65 C170.18 83.88, 173.4 80.89, 176.15 77.6 M8.75 85.96 C8.75 85.96, 8.75 85.96, 8.75 85.96 M8.75 85.96 C8.75 85.96, 8.75 85.96, 8.75 85.96 M16.66 87.53 C10.9 82.56, 9.37 80.74, 1.57 74.41 M16.66 87.53 C11.59 82.86, 6.39 78.67, 1.57 74.41 M23.81 88.45 C18.87 83.88, 10.64 77.24, 1.17 68.77 M23.81 88.45 C18.18 84.7, 12.36 79.45, 1.17 68.77 M30.21 88.71 C19.69 79.55, 9.19 68.72, 0.78 63.12 M30.21 88.71 C23.81 84.04, 16.51 77.71, 0.78 63.12 M36.61 88.97 C27.4 78.94, 15.64 73.13, 1.14 58.14 M36.61 88.97 C25.11 77.66, 11.42 67.59, 1.14 58.14 M42.25 88.58 C34.95 81.78, 24.21 74.83, 0.74 52.49 M42.25 88.58 C29.7 77.77, 14.88 66.65, 0.74 52.49 M48.65 88.84 C29.69 73.01, 10.91 56.81, 1.1 47.51 M48.65 88.84 C35.44 76.91, 20.88 63.81, 1.1 47.51 M54.29 88.44 C43.83 79.36, 32.38 68.29, 0.71 41.86 M54.29 88.44 C42.07 77.43, 26.88 65.74, 0.71 41.86 M60.69 88.7 C46.65 75.99, 34.19 67.05, 1.07 36.88 M60.69 88.7 C46.41 74.95, 31.28 62.32, 1.07 36.88 M67.09 88.97 C48.69 73.02, 27.93 56.24, 0.68 31.23 M67.09 88.97 C49.55 75.22, 33.9 61.05, 0.68 31.23 M72.73 88.57 C49.03 66.07, 23.67 47.54, 1.04 26.25 M72.73 88.57 C58.15 74.95, 44.39 63.73, 1.04 26.25 M79.13 88.83 C57.1 68.35, 31.77 50.42, 0.64 20.6 M79.13 88.83 C48.15 62.96, 17.57 34.82, 0.64 20.6 M84.77 88.44 C58.33 67.41, 32.37 45.15, 1 15.62 M84.77 88.44 C52.34 59.87, 21.14 32.54, 1 15.62 M91.17 88.7 C67.71 64.41, 39.95 46.18, 2.87 11.94 M91.17 88.7 C61.65 62.86, 31.25 35.34, 2.87 11.94 M97.57 88.96 C76.83 72.17, 56.08 52.17, 4.74 8.27 M97.57 88.96 C76.08 70.96, 56.84 51.93, 4.74 8.27 M103.21 88.57 C78.56 67.5, 58.8 48.08, 6.61 4.59 M103.21 88.57 C82.2 70.11, 61.46 52.64, 6.61 4.59 M109.61 88.83 C86.46 68.65, 64.89 49.4, 9.99 2.23 M109.61 88.83 C71.07 54.24, 33.48 21.56, 9.99 2.23 M115.25 88.43 C75.03 53.63, 38.75 22.76, 14.12 0.52 M115.25 88.43 C82.58 61.56, 51.36 31.71, 14.12 0.52 M121.65 88.69 C82.54 56.35, 44.05 21.37, 19.76 0.13 M121.65 88.69 C87.16 59.19, 52.65 29.94, 19.76 0.13 M128.05 88.96 C97.76 62.92, 72.15 38.33, 25.41 -0.27 M128.05 88.96 C88.18 54.94, 47.86 20.41, 25.41 -0.27 M133.69 88.56 C95.41 53.39, 55.08 20.09, 31.81 -0.01 M133.69 88.56 C93.56 54.03, 53.95 19.35, 31.81 -0.01 M140.09 88.82 C105.56 61.17, 73.08 31.73, 37.45 -0.4 M140.09 88.82 C102.1 55.22, 61.75 22.54, 37.45 -0.4 M145.73 88.43 C119.92 63.32, 91.26 42.04, 43.85 -0.14 M145.73 88.43 C121.57 65.61, 96.87 44.91, 43.85 -0.14 M152.13 88.69 C131.42 69.95, 106.82 51.17, 50.24 0.12 M152.13 88.69 C125.49 65.6, 99.49 42.14, 50.24 0.12 M157.77 88.3 C126.98 61.71, 97.78 35.24, 55.89 -0.27 M157.77 88.3 C133.98 67.16, 110.16 46.07, 55.89 -0.27 M162.66 87.24 C129.05 59.16, 94.13 28.95, 62.29 -0.01 M162.66 87.24 C138.82 66.47, 116.67 47.08, 62.29 -0.01 M167.55 86.19 C144.19 66.95, 117.93 44.96, 67.93 -0.41 M167.55 86.19 C135.42 58.59, 105.99 31.36, 67.93 -0.41 M170.93 83.83 C136.17 53.91, 105.51 24.73, 74.33 -0.14 M170.93 83.83 C142.88 58.1, 114.62 34.06, 74.33 -0.14 M174.31 81.47 C140.95 51.3, 108.5 24.36, 80.72 0.12 M174.31 81.47 C150.81 60.95, 128.53 41.8, 80.72 0.12 M176.18 77.79 C144.33 49.17, 112.29 21.37, 86.37 -0.28 M176.18 77.79 C150.39 56.28, 126.12 34.46, 86.37 -0.28 M177.29 73.46 C149.52 47.29, 115.76 18.86, 92.76 -0.02 M177.29 73.46 C157.8 56.77, 137.99 38.86, 92.76 -0.02 M177.65 68.48 C159.97 53.08, 141.39 39.9, 98.41 -0.41 M177.65 68.48 C158.26 51.63, 139.62 34.95, 98.41 -0.41 M178.01 63.49 C158.48 45.42, 139.82 29.34, 104.81 -0.15 M178.01 63.49 C158.14 45.43, 138.35 29.87, 104.81 -0.15 M178.37 58.5 C165.06 45.87, 149.35 32.98, 111.2 0.11 M178.37 58.5 C162.28 43.89, 145.6 30.58, 111.2 0.11 M177.98 52.86 C157.27 35.01, 131.58 15.83, 116.85 -0.28 M177.98 52.86 C154.57 32.85, 130.15 12.38, 116.85 -0.28 M178.34 47.87 C161.6 32.01, 140.93 17.52, 123.24 -0.02 M178.34 47.87 C157.77 29.02, 138.49 12.72, 123.24 -0.02 M177.94 42.23 C165.62 33.98, 153.83 22.06, 128.89 -0.42 M177.94 42.23 C167.53 32.1, 155.8 22.62, 128.89 -0.42 M178.3 37.24 C167.11 29.87, 157.83 19.96, 135.29 -0.15 M178.3 37.24 C163.57 26.04, 151.24 14.08, 135.29 -0.15 M177.91 31.6 C167.34 21.94, 156.69 11.58, 141.68 0.11 M177.91 31.6 C167.96 22.86, 159.17 16.53, 141.68 0.11 M178.27 26.61 C168.42 18.69, 161.67 11.15, 147.33 -0.29 M178.27 26.61 C171.57 19.65, 164.6 13.3, 147.33 -0.29 M177.87 20.97 C169.56 13.07, 160.73 4.55, 153.72 -0.03 M177.87 20.97 C168.46 14.08, 160.14 4.9, 153.72 -0.03 M177.48 15.33 C171.6 12.57, 168.09 8.04, 160.12 0.24 M177.48 15.33 C173.21 12.38, 168.79 8.04, 160.12 0.24" stroke="#ffc9c9" stroke-width="0.5" fill="none"></path><path d="M22.26 0 C56.45 -2.53, 95.97 0.3, 155.81 0 M22.26 0 C60.08 -0.14, 98.85 -0.99, 155.81 0 M155.81 0 C170.44 0.97, 179.98 5.71, 178.07 22.26 M155.81 0 C171.28 -1.7, 178.33 9.19, 178.07 22.26 M178.07 22.26 C176.85 39.09, 176.52 53.77, 178.07 66.78 M178.07 22.26 C177.91 32.03, 178.91 40.84, 178.07 66.78 M178.07 66.78 C178.03 83.45, 172.29 90.33, 155.81 89.03 M178.07 66.78 C180.14 80.08, 169.62 89.7, 155.81 89.03 M155.81 89.03 C115.99 86.95, 79.09 86.62, 22.26 89.03 M155.81 89.03 C112.24 90.09, 69.09 89.63, 22.26 89.03 M22.26 89.03 C7.38 88.43, 0.67 81.97, 0 66.78 M22.26 89.03 C6.14 87.64, -2.15 83.16, 0 66.78 M0 66.78 C-1.77 48.97, 1.05 30.5, 0 22.26 M0 66.78 C-0.08 54.64, -0.57 43.22, 0 22.26 M0 22.26 C1 8.32, 6.32 1.87, 22.26 0 M0 22.26 C0.72 5.4, 8.92 2.2, 22.26 0" stroke="#e8590c" stroke-width="1" fill="none"></path></g><g transform="translate(396.7000833487525 287.89324426501497) rotate(0 21.432052612304688 20)"><text x="21.432052612304688" y="0" font-family="Virgil, Segoe UI Emoji" font-size="16px" fill="#e03131" text-anchor="middle" style="white-space: pre;" direction="ltr" dominant-baseline="text-before-edge">UDP</text><text x="21.432052612304688" y="20" font-family="Virgil, Segoe UI Emoji" font-size="16px" fill="#e03131" text-anchor="middle" style="white-space: pre;" direction="ltr" dominant-baseline="text-before-edge">Data</text></g><g transform="translate(259.2965937299182 288.66979639751963) rotate(0 26.488059997558594 20)"><text x="26.488059997558594" y="0" font-family="Virgil, Segoe UI Emoji" font-size="16px" fill="#1e1e1e" text-anchor="middle" style="white-space: pre;" direction="ltr" dominant-baseline="text-before-edge">IP</text><text x="26.488059997558594" y="20" font-family="Virgil, Segoe UI Emoji" font-size="16px" fill="#1e1e1e" text-anchor="middle" style="white-space: pre;" direction="ltr" dominant-baseline="text-before-edge">Header</text></g><g transform="translate(239.99251333431812 332.3048587577693) rotate(0 5.5040130615234375 10)"><text x="5.5040130615234375" y="0" font-family="Virgil, Segoe UI Emoji" font-size="16px" fill="#1e1e1e" text-anchor="middle" style="white-space: pre;" direction="ltr" dominant-baseline="text-before-edge">0</text></g><g transform="translate(337.4254986815763 333.3048587577693) rotate(0 11.200027465820312 10)"><text x="11.200027465820312" y="0" font-family="Virgil, Segoe UI Emoji" font-size="16px" fill="#e03131" text-anchor="middle" style="white-space: pre;" direction="ltr" dominant-baseline="text-before-edge">20</text></g><g transform="translate(534.8600048223493 285.5874734989688) rotate(0 34.344085693359375 20)"><text x="0" y="0" font-family="Virgil, Segoe UI Emoji" font-size="16px" fill="#1e1e1e" text-anchor="start" style="white-space: pre;" direction="ltr" dominant-baseline="text-before-edge">1st Frag:</text><text x="0" y="20" font-family="Virgil, Segoe UI Emoji" font-size="16px" fill="#1e1e1e" text-anchor="start" style="white-space: pre;" direction="ltr" dominant-baseline="text-before-edge">48</text></g><g stroke-linecap="round" transform="translate(17.082322898550956 35.106390931674284) rotate(0 101.68192161490913 48.5644998757775)"><path d="M12.44 25.39 C12.44 25.39, 12.44 25.39, 12.44 25.39 M12.44 25.39 C12.44 25.39, 12.44 25.39, 12.44 25.39 M0.37 45.37 C6.37 37.07, 15.76 28.95, 22.67 19.71 M0.37 45.37 C6.69 39.63, 11.55 33.01, 22.67 19.71 M1.42 50.26 C12.79 36.85, 20.79 26.57, 32.91 14.03 M1.42 50.26 C7.67 41.4, 16.16 32.69, 32.91 14.03 M3.13 54.39 C13.42 43.32, 24.46 32.44, 41.18 10.62 M3.13 54.39 C15.28 40.73, 28.66 24, 41.18 10.62 M4.18 59.28 C14.06 50.03, 23.5 37.02, 48.13 8.71 M4.18 59.28 C20.09 41.57, 35.48 22.85, 48.13 8.71 M5.23 64.17 C17.61 50.47, 26.5 36.25, 54.43 7.57 M5.23 64.17 C15.94 50.35, 28.07 37.57, 54.43 7.57 M8.25 66.79 C28.15 42.08, 47.43 21.26, 61.39 5.66 M8.25 66.79 C24.78 49.48, 41.11 30.13, 61.39 5.66 M11.92 68.66 C32.28 47.67, 50 24.64, 67.69 4.51 M11.92 68.66 C25.14 54.1, 36.51 39.84, 67.69 4.51 M14.94 71.29 C34.66 46.39, 57.7 21.2, 74.64 2.61 M14.94 71.29 C35.65 47.23, 55.68 22.47, 74.64 2.61 M17.96 73.91 C36.91 49.85, 56.74 31.29, 80.94 1.46 M17.96 73.91 C34.85 53.68, 53.5 33.01, 80.94 1.46 M20.98 76.54 C40.56 53.95, 63.59 27.19, 86.58 1.06 M20.98 76.54 C39.02 55.35, 57.35 34.84, 86.58 1.06 M24 79.16 C42.55 58.76, 59.16 38.68, 91.57 1.42 M24 79.16 C44.37 53.79, 66.69 29.19, 91.57 1.42 M27.01 81.78 C48.35 59.33, 64.97 35.51, 97.21 1.03 M27.01 81.78 C53.33 52.68, 78.47 22.2, 97.21 1.03 M31.35 82.9 C56.15 54.25, 83.84 24.24, 102.86 0.64 M31.35 82.9 C49.04 61.77, 66.27 41.93, 102.86 0.64 M35.68 84.01 C53.46 64.05, 71.92 39.87, 107.84 1 M35.68 84.01 C58.12 57.34, 82.46 29.98, 107.84 1 M39.35 85.88 C66.56 51.41, 95.86 20.16, 113.49 0.6 M39.35 85.88 C62.11 60.15, 86.28 33.05, 113.49 0.6 M43.68 87 C66.05 61.7, 84 38.93, 118.47 0.96 M43.68 87 C73.04 53.1, 101.46 19.42, 118.47 0.96 M48.01 88.11 C73.25 58.82, 101.29 27.59, 123.46 1.32 M48.01 88.11 C64.46 66.55, 83.41 48, 123.46 1.32 M51.69 89.98 C78.89 57.47, 111.51 22.72, 127.79 2.44 M51.69 89.98 C72.96 66.01, 93.3 41.54, 127.79 2.44 M56.02 91.1 C74.84 71.15, 91.65 51.1, 132.78 2.8 M56.02 91.1 C86.25 56.24, 116.47 21.39, 132.78 2.8 M59.69 92.97 C80.04 67.14, 103.63 44.64, 137.11 3.91 M59.69 92.97 C88.18 62.25, 115.39 31.45, 137.11 3.91 M64.68 93.33 C86.46 70.52, 107.27 44, 141.44 5.03 M64.68 93.33 C84.46 68.69, 106.75 44.92, 141.44 5.03 M69.67 93.69 C85.39 71.91, 107.53 50.35, 146.43 5.39 M69.67 93.69 C93.15 68.19, 115.77 42.39, 146.43 5.39 M74 94.8 C103.35 63.08, 128.08 32.36, 150.76 6.5 M74 94.8 C91.85 75.65, 109.35 54.38, 150.76 6.5 M78.99 95.16 C107.65 61.6, 134.88 28.29, 155.74 6.86 M78.99 95.16 C98.06 73.84, 116.46 51.17, 155.74 6.86 M83.97 95.52 C107.69 69.36, 129.77 39.78, 160.08 7.98 M83.97 95.52 C107.19 68.91, 130.42 42.24, 160.08 7.98 M88.3 96.64 C104.99 78.33, 116.98 60, 163.75 9.84 M88.3 96.64 C105.63 76.16, 123.5 57.7, 163.75 9.84 M93.29 97 C110.26 78.01, 129.56 54.42, 167.43 11.71 M93.29 97 C107.53 78.87, 122.18 61.47, 167.43 11.71 M98.28 97.36 C121.37 72.83, 141.15 49.53, 171.1 13.58 M98.28 97.36 C125.6 66.1, 152.19 34.69, 171.1 13.58 M102.61 98.47 C122.3 75.91, 138.74 56.87, 174.78 15.45 M102.61 98.47 C126.8 70.77, 151.39 42.45, 174.78 15.45 M108.91 97.32 C124.23 81.64, 136.48 63.61, 178.45 17.32 M108.91 97.32 C126.39 78.85, 142.88 58.35, 178.45 17.32 M115.21 96.17 C133.14 76.14, 151.52 51.35, 181.47 19.95 M115.21 96.17 C141.32 67.44, 165.77 36.89, 181.47 19.95 M120.85 95.78 C141.09 71.75, 163.03 47.68, 185.14 21.82 M120.85 95.78 C141.1 71.51, 163.7 48.24, 185.14 21.82 M127.15 94.63 C142.44 75.29, 161.04 56.31, 188.82 23.69 M127.15 94.63 C146.42 71.66, 167.8 48.86, 188.82 23.69 M132.79 94.23 C148.59 77.58, 161.08 63.39, 191.84 26.31 M132.79 94.23 C155.66 69.38, 177.09 42.24, 191.84 26.31 M139.09 93.09 C158.64 68.21, 180.33 47.64, 194.2 29.69 M139.09 93.09 C159.97 70.26, 180.44 46.44, 194.2 29.69 M145.39 91.94 C164.77 70.33, 183.1 46.79, 196.56 33.07 M145.39 91.94 C156.72 77.6, 168.38 64.63, 196.56 33.07 M153 89.28 C168.97 70.75, 187.02 51.83, 198.93 36.45 M153 89.28 C164.79 74.24, 177.46 60.5, 198.93 36.45 M160.61 86.62 C169.34 74.45, 177.11 65.48, 201.29 39.83 M160.61 86.62 C170.26 76.2, 177.95 66.75, 201.29 39.83 M168.22 83.96 C177.09 74.66, 187.6 64.3, 203.65 43.21 M168.22 83.96 C175.25 74.97, 184.23 66.09, 203.65 43.21 M175.84 81.3 C186.87 69.2, 194.95 57.97, 202.73 50.36 M175.84 81.3 C183.13 73.41, 190.64 63.89, 202.73 50.36 M192.63 68.08 C195.72 63.99, 198.57 62.67, 201.16 58.26 M192.63 68.08 C195.9 65.48, 197.94 61.56, 201.16 58.26 M4.59 63.32 C4.59 63.32, 4.59 63.32, 4.59 63.32 M4.59 63.32 C4.59 63.32, 4.59 63.32, 4.59 63.32 M29.1 79.32 C20.09 72.7, 11.89 63.69, 3.44 57.02 M29.1 79.32 C20.49 71.57, 11.79 63.6, 3.44 57.02 M39.27 82.86 C27.51 73.82, 17.75 65.99, 1.53 50.06 M39.27 82.86 C27.92 72.67, 16.02 63.26, 1.53 50.06 M48.68 85.75 C31.61 69.6, 13.45 53.8, 0.38 43.76 M48.68 85.75 C35.36 73.96, 20.38 62.07, 0.38 43.76 M61.87 91.92 C39.72 73.43, 19.96 55.12, 2.25 40.09 M61.87 91.92 C40.07 75.22, 21.26 57.64, 2.25 40.09 M69.03 92.83 C49.15 76.59, 27.6 58.78, 4.88 37.07 M69.03 92.83 C56.19 80.57, 41.59 68.35, 4.88 37.07 M76.18 93.75 C50 72.49, 21.8 48.2, 6.75 33.39 M76.18 93.75 C53.33 73.25, 28.67 52.01, 6.75 33.39 M83.33 94.67 C64.15 80.11, 46.96 64.9, 9.37 30.37 M83.33 94.67 C65.73 78.06, 48.7 62.93, 9.37 30.37 M90.48 95.59 C60.09 70.54, 31.12 41.15, 11.24 26.7 M90.48 95.59 C64.16 73.72, 37.96 50.85, 11.24 26.7 M97.64 96.5 C73.68 73.85, 50.38 55.77, 13.86 23.68 M97.64 96.5 C67.67 71.14, 38.19 45.5, 13.86 23.68 M104.04 96.77 C73.16 68.71, 44.33 42.72, 18 21.97 M104.04 96.77 C76.47 74.23, 50.44 51.14, 18 21.97 M108.92 95.71 C84.07 74.7, 62.1 54.64, 21.38 19.61 M108.92 95.71 C79.09 69.81, 47.66 41.97, 21.38 19.61 M114.57 95.32 C93.65 78.43, 79.37 63.15, 25.51 17.9 M114.57 95.32 C83.29 66.99, 51.07 39.51, 25.51 17.9 M119.45 94.27 C91.85 69.46, 63.92 45.32, 28.89 15.54 M119.45 94.27 C96.65 74.91, 74.48 55.84, 28.89 15.54 M125.1 93.87 C92.44 65.59, 63.47 39.87, 32.27 13.18 M125.1 93.87 C93.43 67.04, 63.17 40.03, 32.27 13.18 M129.99 92.82 C95.88 62.96, 58.77 30.93, 36.4 11.47 M129.99 92.82 C104.69 71.44, 79.76 49.44, 36.4 11.47 M134.87 91.77 C114.23 74.78, 90.73 54.98, 39.78 9.11 M134.87 91.77 C100.61 64.26, 67.92 34.84, 39.78 9.11 M140.52 91.38 C104.47 62.35, 74.66 35.11, 43.16 6.75 M140.52 91.38 C113.41 67.8, 86.54 44.15, 43.16 6.75 M146.16 90.98 C121.91 68.8, 99.8 49.8, 48.05 5.7 M146.16 90.98 C118.19 66.7, 89.3 41.4, 48.05 5.7 M150.29 89.28 C116.13 56.95, 81.23 26.26, 52.94 4.65 M150.29 89.28 C118.65 61.87, 87.11 32.81, 52.94 4.65 M154.43 87.57 C114.64 55.45, 76.31 21.33, 57.83 3.6 M154.43 87.57 C123.57 60.48, 92.71 35.06, 57.83 3.6 M158.56 85.86 C134.95 62.77, 109.54 43.69, 62.71 2.54 M158.56 85.86 C127.7 57.78, 96.92 32.14, 62.71 2.54 M163.45 84.81 C141.82 66.18, 120.15 48, 67.6 1.49 M163.45 84.81 C130.93 57.66, 98.61 27.52, 67.6 1.49 M167.58 83.11 C136.4 54.72, 103.8 29.44, 72.49 0.44 M167.58 83.11 C132.38 51.93, 98.53 22.59, 72.49 0.44 M171.72 81.4 C140.12 56.93, 111.89 31.51, 77.38 -0.61 M171.72 81.4 C136.84 50.67, 104.11 23.06, 77.38 -0.61 M175.85 79.69 C140.63 49.49, 104.19 15.88, 82.27 -1.66 M175.85 79.69 C141.15 48.18, 105.87 18.28, 82.27 -1.66 M179.98 77.99 C145.88 48.79, 111.94 19.39, 87.91 -2.05 M179.98 77.99 C150.51 51.76, 118.52 23.71, 87.91 -2.05 M182.61 74.97 C155.69 53.67, 130.62 30.19, 94.31 -1.79 M182.61 74.97 C156.27 51.6, 128.91 29.04, 94.31 -1.79 M185.99 72.6 C154.78 47.55, 129.37 24.65, 99.95 -2.19 M185.99 72.6 C160.66 52.19, 137.65 29.59, 99.95 -2.19 M189.37 70.24 C172.88 53.29, 153.3 41.85, 106.35 -1.92 M189.37 70.24 C164.1 47.04, 137.56 25.22, 106.35 -1.92 M191.99 67.22 C169.65 50.17, 150.28 30.7, 112.75 -1.66 M191.99 67.22 C174.99 52.43, 156.51 36.75, 112.75 -1.66 M195.37 64.86 C167.89 41.7, 142.36 19.2, 121.41 0.57 M195.37 64.86 C166.91 40.64, 138.07 14.2, 121.41 0.57 M198.75 62.5 C178.71 46.52, 158.62 30.76, 128.56 1.48 M198.75 62.5 C183.84 48.83, 169.37 35.66, 128.56 1.48 M201.37 59.48 C183.47 43.95, 168.58 32.92, 136.47 3.06 M201.37 59.48 C180.46 42.6, 159.5 23.54, 136.47 3.06 M202.49 55.15 C179.32 34.41, 159.38 16.33, 144.38 4.63 M202.49 55.15 C186.75 39.32, 168.14 24.77, 144.38 4.63 M203.6 50.82 C189.69 39.1, 173.83 23.84, 152.28 6.2 M203.6 50.82 C185.56 36.22, 168.08 19.67, 152.28 6.2 M203.96 45.83 C193.8 36.93, 181.49 25.24, 159.44 7.12 M203.96 45.83 C187.51 32.56, 172.31 19.09, 159.44 7.12 M204.32 40.84 C187.26 28.01, 174.14 13.45, 163.57 5.42 M204.32 40.84 C192.51 31.5, 180.85 20.21, 163.57 5.42" stroke="#d0bfff" stroke-width="0.5" fill="none"></path><path d="M120.86 0.73 C134.15 1.12, 149.44 4.08, 160.97 7.98 C172.5 11.89, 182.97 18.43, 190.04 24.15 C197.11 29.87, 201.81 36, 203.38 42.31 C204.96 48.63, 203.72 55.71, 199.47 62.01 C195.22 68.32, 186.99 75.15, 177.9 80.14 C168.81 85.14, 157.5 89, 144.95 91.98 C132.39 94.96, 116.56 97.9, 102.56 98.04 C88.57 98.19, 73.56 95.62, 60.97 92.85 C48.39 90.08, 36.44 86.31, 27.08 81.43 C17.73 76.54, 9.38 69.82, 4.85 63.55 C0.32 57.27, -1.37 50.15, -0.1 43.78 C1.17 37.41, 5.64 30.99, 12.48 25.34 C19.32 19.68, 29.74 13.87, 40.95 9.84 C52.17 5.8, 65.36 2.47, 79.78 1.13 C94.2 -0.21, 118.85 1.55, 127.45 1.78 C136.05 2.01, 131.98 1.88, 131.37 2.52 M110.08 -0.34 C123.68 -0.37, 139.73 3.4, 151.71 6.59 C163.68 9.78, 173.64 13.92, 181.91 18.81 C190.18 23.71, 198.06 29.37, 201.32 35.95 C204.58 42.53, 203.88 51.83, 201.45 58.29 C199.03 64.75, 194.63 69.46, 186.78 74.71 C178.92 79.96, 166.32 86.11, 154.33 89.77 C142.33 93.43, 128.65 95.77, 114.78 96.67 C100.91 97.56, 84.25 97.07, 71.11 95.13 C57.97 93.18, 46.14 89.41, 35.92 85 C25.7 80.59, 15.99 74.47, 9.79 68.68 C3.59 62.89, -0.97 56.96, -1.29 50.25 C-1.62 43.53, 2.15 34.55, 7.85 28.41 C13.55 22.26, 23.07 17.83, 32.89 13.37 C42.7 8.92, 53.91 4.05, 66.75 1.68 C79.59 -0.69, 102.64 -0.6, 109.92 -0.86 C117.19 -1.11, 110.3 -0.99, 110.39 0.17" stroke="#6741d9" stroke-width="1" fill="none"></path></g><g transform="translate(40.619898209118446 54.35335962732704) rotate(0 79.6875 28.799999999999997)"><text x="0" y="0" font-family="Cascadia, Segoe UI Emoji" font-size="16px" fill="#6741d9" text-anchor="start" style="white-space: pre;" direction="ltr" dominant-baseline="text-before-edge">ip.id: 0xa7b4</text><text x="0" y="19.2" font-family="Cascadia, Segoe UI Emoji" font-size="16px" fill="#6741d9" text-anchor="start" style="white-space: pre;" direction="ltr" dominant-baseline="text-before-edge">ip.frag_offset: 0</text><text x="0" y="38.4" font-family="Cascadia, Segoe UI Emoji" font-size="16px" fill="#6741d9" text-anchor="start" style="white-space: pre;" direction="ltr" dominant-baseline="text-before-edge">flags.mf: 1</text></g><g stroke-linecap="round" transform="translate(10 262.16409859213564) rotate(0 105.72896327122385 48.5644998757775)"><path d="M13.19 26.04 C13.19 26.04, 13.19 26.04, 13.19 26.04 M13.19 26.04 C13.19 26.04, 13.19 26.04, 13.19 26.04 M1.77 45.27 C8.83 33.44, 18.21 25.91, 24.08 19.61 M1.77 45.27 C6.52 38.9, 12.66 33.15, 24.08 19.61 M2.82 50.16 C11.69 40.01, 19.74 27.56, 34.97 13.18 M2.82 50.16 C11.13 40.13, 22.08 29.49, 34.97 13.18 M3.88 55.04 C20.23 38.41, 33.12 20.5, 43.24 9.76 M3.88 55.04 C15.17 42.68, 25.73 30.32, 43.24 9.76 M4.93 59.93 C13.86 48.46, 25.7 36.39, 50.19 7.86 M4.93 59.93 C18.27 44.19, 32.02 28.24, 50.19 7.86 M5.98 64.82 C17.84 51.23, 32.79 33.4, 56.49 6.71 M5.98 64.82 C19.1 48.98, 33.35 32.61, 56.49 6.71 M9 67.45 C26.3 46.66, 44.26 30.1, 63.45 4.8 M9 67.45 C20.47 52.83, 32.73 38.96, 63.45 4.8 M12.01 70.07 C36.6 42.36, 57.63 19.57, 69.75 3.66 M12.01 70.07 C29.23 49.65, 48.06 29.06, 69.75 3.66 M15.69 71.94 C34.3 48.66, 53.19 28.89, 76.7 1.75 M15.69 71.94 C35.02 49.8, 53.37 28.95, 76.7 1.75 M18.71 74.56 C36.35 56.49, 52.2 36.28, 83 0.6 M18.71 74.56 C40.01 49.63, 61.78 25.11, 83 0.6 M21.73 77.19 C38.13 57.72, 53.35 40.27, 87.99 0.96 M21.73 77.19 C35.87 59.88, 51.5 41.61, 87.99 0.96 M24.75 79.81 C50.92 48.7, 74.98 22.27, 92.98 1.32 M24.75 79.81 C43.12 60.92, 59.39 39.92, 92.98 1.32 M28.42 81.68 C46.99 60.4, 65.25 39.25, 98.62 0.93 M28.42 81.68 C47.25 59.33, 67.62 35.64, 98.62 0.93 M32.1 83.55 C59.44 52.85, 82.22 22.89, 103.61 1.29 M32.1 83.55 C50.43 61.99, 66.3 42.33, 103.61 1.29 M36.43 84.67 C61.44 58.52, 85.62 28.36, 108.59 1.65 M36.43 84.67 C63.43 52.27, 90.68 22.78, 108.59 1.65 M40.76 85.78 C62.17 60.37, 84.8 35.15, 113.58 2.01 M40.76 85.78 C60.22 62.82, 79.9 40.95, 113.58 2.01 M44.43 87.65 C74.58 54.47, 103.51 20.15, 119.22 1.61 M44.43 87.65 C61.66 66.36, 80.8 44.18, 119.22 1.61 M48.76 88.76 C74.44 57.14, 101.45 24.46, 124.21 1.97 M48.76 88.76 C71.26 62.15, 96.26 34.67, 124.21 1.97 M53.09 89.88 C81.45 60.38, 109.68 28.57, 129.2 2.33 M53.09 89.88 C71.55 67.18, 90.33 44.4, 129.2 2.33 M56.77 91.75 C75.64 73.59, 90.32 51.41, 133.53 3.45 M56.77 91.75 C87.61 56.29, 116.44 20.27, 133.53 3.45 M61.1 92.86 C86.46 63.94, 111.48 38.82, 137.86 4.56 M61.1 92.86 C87.36 60.5, 115.82 28.7, 137.86 4.56 M65.43 93.98 C82.16 73.48, 98.95 53.78, 142.85 4.92 M65.43 93.98 C92.87 62.95, 119.82 33.13, 142.85 4.92 M69.76 95.09 C97.17 61.29, 125.95 29.05, 147.18 6.04 M69.76 95.09 C95.31 63.8, 123.31 32.61, 147.18 6.04 M74.75 95.45 C101.41 64.55, 129.81 32.95, 152.16 6.4 M74.75 95.45 C90.59 75.97, 108.34 57.68, 152.16 6.4 M80.39 95.06 C106.15 66.91, 129.69 36.99, 156.49 7.51 M80.39 95.06 C97.4 76.28, 114.55 55.11, 156.49 7.51 M85.38 95.42 C108.66 68.01, 135.81 37.09, 160.83 8.63 M85.38 95.42 C103.73 74.6, 124.21 52.35, 160.83 8.63 M90.37 95.78 C113.03 68.49, 133.59 42.88, 165.81 8.99 M90.37 95.78 C109.78 75.14, 125.72 56.14, 165.81 8.99 M95.35 96.14 C120.69 66.26, 145.93 39.13, 169.49 10.86 M95.35 96.14 C123.26 65, 148.69 33.8, 169.49 10.86 M100.34 96.5 C116.91 74.42, 133.3 55.96, 173.16 12.73 M100.34 96.5 C114.19 78.69, 129.91 62.04, 173.16 12.73 M105.33 96.86 C124.01 77.08, 141.35 56.79, 176.84 14.6 M105.33 96.86 C121.99 77.09, 139.18 58.19, 176.84 14.6 M110.31 97.22 C125.05 82.25, 139.99 62.19, 180.51 16.47 M110.31 97.22 C123.79 80.65, 139.33 64.18, 180.51 16.47 M116.61 96.07 C141.24 67.57, 166.49 36.69, 184.19 18.34 M116.61 96.07 C132.33 79.78, 145.04 63.38, 184.19 18.34 M122.26 95.68 C143.14 70.76, 166.88 44.61, 187.86 20.2 M122.26 95.68 C142.46 71.23, 164.4 47.02, 187.86 20.2 M127.9 95.28 C153.39 66.83, 177.74 37.43, 192.19 21.32 M127.9 95.28 C141.72 78.46, 156.38 62.2, 192.19 21.32 M133.54 94.89 C150.64 78.05, 163.84 55.61, 195.87 23.19 M133.54 94.89 C147.79 77.02, 163.53 60.73, 195.87 23.19 M139.19 94.49 C160.96 69.46, 184.16 45, 198.89 25.81 M139.19 94.49 C153.46 79.23, 166.14 65.09, 198.89 25.81 M144.83 94.1 C160.46 77.18, 173.9 60.34, 201.25 29.19 M144.83 94.1 C161.98 75.44, 178.44 55.72, 201.25 29.19 M150.47 93.7 C166.75 77.19, 181.55 57.15, 203.61 32.57 M150.47 93.7 C172.32 70.33, 191.39 46.09, 203.61 32.57 M158.08 91.04 C172.87 74.19, 186.27 57.23, 205.98 35.95 M158.08 91.04 C169.44 78.9, 180.11 67.64, 205.98 35.95 M165.69 88.39 C177.9 76.53, 186.25 63.6, 208.34 39.33 M165.69 88.39 C179.69 71.7, 195.29 54.32, 208.34 39.33 M173.31 85.73 C181.82 73.53, 195.6 64.03, 211.36 41.95 M173.31 85.73 C186.83 69.57, 200.53 54.19, 211.36 41.95 M180.92 83.07 C190.32 70.76, 203.68 58.5, 209.78 49.86 M180.92 83.07 C188.87 74.56, 196.1 65.42, 209.78 49.86 M193.12 75.13 C198.25 70.33, 202.92 66.39, 207.55 58.52 M193.12 75.13 C198.87 70.31, 203.46 64.13, 207.55 58.52 M5.79 64.98 C5.79 64.98, 5.79 64.98, 5.79 64.98 M5.79 64.98 C5.79 64.98, 5.79 64.98, 5.79 64.98 M32.57 82.95 C24.35 77.56, 18.37 69.91, 3.89 58.02 M32.57 82.95 C26.09 76.84, 18.62 71.62, 3.89 58.02 M42.74 86.49 C29.81 74.61, 12.17 61.49, 2.74 51.72 M42.74 86.49 C26.98 73.1, 13.89 60.78, 2.74 51.72 M52.16 89.38 C38.19 75.95, 25.15 63.33, 0.84 44.77 M52.16 89.38 C38.26 76.32, 24.12 65.41, 0.84 44.77 M62.33 92.92 C41.48 76.46, 19.35 55.31, 3.46 41.75 M62.33 92.92 C41.1 72.6, 18.51 53.8, 3.46 41.75 M69.48 93.84 C45.36 72.14, 19.85 51.1, 5.33 38.07 M69.48 93.84 C43.8 70.66, 19.16 49, 5.33 38.07 M75.88 94.1 C59.84 80.76, 42.07 63.5, 7.2 34.4 M75.88 94.1 C54.63 76.66, 34.24 58.02, 7.2 34.4 M83.03 95.02 C64.18 79.08, 41.34 60.36, 9.82 31.38 M83.03 95.02 C65.82 78.83, 47.28 63.74, 9.82 31.38 M89.43 95.28 C58.9 68.34, 29.63 44.97, 11.69 27.7 M89.43 95.28 C73.68 81.5, 56.19 66.84, 11.69 27.7 M95.83 95.54 C81.22 80.1, 63.5 66.77, 14.32 24.68 M95.83 95.54 C73.01 74.71, 49.92 55.81, 14.32 24.68 M102.22 95.8 C85.95 78.6, 64.29 65.13, 18.45 22.98 M102.22 95.8 C76.12 73.28, 52.38 53.64, 18.45 22.98 M108.62 96.06 C82.98 74.1, 54.05 52.2, 21.83 20.61 M108.62 96.06 C82.88 75.68, 56.93 53.86, 21.83 20.61 M114.26 95.67 C80.21 67.5, 51.95 40.11, 25.96 18.91 M114.26 95.67 C95.59 79.25, 78.24 65.1, 25.96 18.91 M119.91 95.27 C101.41 77.29, 82.93 62.28, 29.34 16.55 M119.91 95.27 C92.34 71.76, 64.78 47.24, 29.34 16.55 M125.55 94.88 C93.55 65.29, 59.58 38.28, 32.72 14.18 M125.55 94.88 C101.08 71.3, 74.07 49.45, 32.72 14.18 M131.19 94.48 C100.2 67.61, 69.02 38.77, 36.86 12.48 M131.19 94.48 C106.39 73.45, 82.34 52.66, 36.86 12.48 M136.84 94.09 C114.83 77.2, 94.88 58.9, 40.23 10.11 M136.84 94.09 C104.65 66.48, 72.18 39.15, 40.23 10.11 M142.48 93.69 C108.85 65.67, 75.45 35.37, 44.37 8.41 M142.48 93.69 C107.24 63.26, 71.53 30.18, 44.37 8.41 M148.12 93.3 C115.82 67.97, 86.33 40.15, 49.26 7.36 M148.12 93.3 C120.14 70.56, 93.49 44.87, 49.26 7.36 M153.01 92.25 C123.84 68.18, 95.85 42.16, 54.14 6.31 M153.01 92.25 C122.04 66.55, 91.9 38.69, 54.14 6.31 M157.15 90.54 C127.02 64.3, 96.57 39.72, 59.03 5.25 M157.15 90.54 C127.93 66.74, 99.92 40.77, 59.03 5.25 M162.03 89.49 C136.47 66.46, 110.23 43.96, 63.92 4.2 M162.03 89.49 C135.11 64.76, 108.24 41.55, 63.92 4.2 M166.17 87.78 C144.4 69.18, 123.98 51.35, 68.81 3.15 M166.17 87.78 C142.31 67.67, 120.88 48.18, 68.81 3.15 M170.3 86.08 C132.62 54.38, 99.55 22.75, 72.94 1.45 M170.3 86.08 C140.37 60.12, 112.39 34.84, 72.94 1.45 M174.43 84.37 C142.53 55.99, 109.23 29.45, 77.83 0.4 M174.43 84.37 C151.94 63.79, 127.6 43.13, 77.83 0.4 M179.32 83.32 C149.11 54.01, 117.65 29.65, 83.47 0 M179.32 83.32 C148.35 55.95, 117.21 28.52, 83.47 0 M183.46 81.61 C155.35 56.12, 125.51 32.2, 89.87 0.26 M183.46 81.61 C149.1 52.31, 115.54 21.42, 89.87 0.26 M186.84 79.25 C160.6 59.14, 131.5 36.14, 95.52 -0.13 M186.84 79.25 C153.18 49.69, 117.91 20.4, 95.52 -0.13 M190.21 76.89 C165.21 55.4, 140.69 35.88, 101.91 0.13 M190.21 76.89 C165.21 56.93, 140.38 34.54, 101.91 0.13 M192.84 73.87 C174.93 58.68, 157.4 42.87, 108.31 0.39 M192.84 73.87 C164.17 50.6, 136.44 24.38, 108.31 0.39 M196.22 71.51 C168.34 47.91, 144.07 24.66, 114.71 0.65 M196.22 71.51 C164.99 43.2, 132.24 15.28, 114.71 0.65 M198.84 68.49 C177.65 50.3, 159.05 35.31, 121.11 0.91 M198.84 68.49 C167.71 41.14, 138.52 15.56, 121.11 0.91 M202.22 66.13 C185.59 53.04, 173.35 39.62, 128.26 1.83 M202.22 66.13 C174.85 41.92, 146.61 16.97, 128.26 1.83 M204.85 63.11 C186.38 49.52, 169.43 33.62, 136.17 3.4 M204.85 63.11 C176.96 38.95, 149.71 15.51, 136.17 3.4 M207.47 60.09 C189.76 45.97, 170.14 27.93, 144.07 4.98 M207.47 60.09 C183.55 39.31, 160.71 19.08, 144.07 4.98 M208.58 55.76 C188.1 37.39, 163.2 16.03, 151.98 6.55 M208.58 55.76 C192.17 40.37, 174.33 25.5, 151.98 6.55 M209.7 51.43 C193.33 37.15, 176.27 22.67, 159.13 7.47 M209.7 51.43 C199.29 42.73, 188 32.3, 159.13 7.47 M210.81 47.09 C197.66 33.66, 182.07 22, 167.04 9.04 M210.81 47.09 C196.32 34.49, 182.35 22.74, 167.04 9.04 M211.93 42.76 C202.9 32.88, 190.45 25.83, 180.23 15.21 M211.93 42.76 C206.5 37.09, 198.22 32.3, 180.23 15.21 M199.46 26.62 C198.31 25.46, 195.46 23.95, 193.42 21.38 M199.46 26.62 C197.18 24.74, 195.18 23.16, 193.42 21.38" stroke="#d0bfff" stroke-width="0.5" fill="none"></path><path d="M81.15 0.35 C93.95 -1.76, 110.21 0.16, 124.38 1.65 C138.54 3.15, 154.08 5.63, 166.15 9.33 C178.22 13.02, 189.29 18.23, 196.82 23.82 C204.34 29.41, 209.7 36.58, 211.31 42.89 C212.92 49.21, 210.72 55.35, 206.46 61.69 C202.2 68.03, 194.89 75.69, 185.75 80.93 C176.62 86.17, 164.73 90.49, 151.66 93.13 C138.59 95.77, 121.62 96.58, 107.33 96.77 C93.05 96.96, 79.2 96.77, 65.96 94.28 C52.71 91.79, 37.91 86.73, 27.84 81.81 C17.76 76.88, 9.98 70.87, 5.49 64.71 C1.01 58.56, -0.37 51.37, 0.94 44.88 C2.26 38.39, 6.64 31.68, 13.4 25.8 C20.15 19.92, 29.27 13.63, 41.47 9.61 C53.67 5.58, 78.42 3.16, 86.62 1.67 C94.82 0.18, 90.52 0.06, 90.69 0.67 M74.7 1.67 C87.26 -1.08, 104.54 -1.48, 119.01 -0.69 C133.47 0.1, 149.48 2.99, 161.48 6.39 C173.48 9.79, 183.05 14.39, 190.99 19.71 C198.94 25.02, 206.04 31.85, 209.14 38.27 C212.25 44.7, 212.79 51.79, 209.63 58.28 C206.47 64.77, 198.79 71.59, 190.2 77.21 C181.61 82.83, 170.81 88.68, 158.09 92.01 C145.36 95.34, 128.39 96.73, 113.87 97.2 C99.35 97.67, 84.47 97.16, 70.94 94.83 C57.41 92.51, 43.07 87.96, 32.67 83.24 C22.28 78.52, 13.92 72.26, 8.56 66.5 C3.2 60.75, 0.18 55.13, 0.52 48.73 C0.85 42.33, 4.49 34.25, 10.58 28.11 C16.67 21.97, 26.44 16.34, 37.07 11.87 C47.69 7.4, 67.88 2.69, 74.33 1.29 C80.79 -0.11, 75 2.69, 75.81 3.45" stroke="#6741d9" stroke-width="1" fill="none"></path></g><g transform="translate(30.63165862319738 282.4110672877885) rotate(0 93.75 28.80000000000001)"><text x="0" y="0" font-family="Cascadia, Segoe UI Emoji" font-size="16px" fill="#6741d9" text-anchor="start" style="white-space: pre;" direction="ltr" dominant-baseline="text-before-edge">ip.id: 0xa7b4</text><text x="0" y="19.2" font-family="Cascadia, Segoe UI Emoji" font-size="16px" fill="#6741d9" text-anchor="start" style="white-space: pre;" direction="ltr" dominant-baseline="text-before-edge">ip.frag_offset: 2960</text><text x="0" y="38.4" font-family="Cascadia, Segoe UI Emoji" font-size="16px" fill="#6741d9" text-anchor="start" style="white-space: pre;" direction="ltr" dominant-baseline="text-before-edge">flags.mf: 0</text></g><g transform="translate(772.4531185681606 107.05898447204883) rotate(0 18.120040893554688 10)"><text x="18.120040893554688" y="0" font-family="Virgil, Segoe UI Emoji" font-size="16px" fill="#e03131" text-anchor="middle" style="white-space: pre;" direction="ltr" dominant-baseline="text-before-edge">1500</text></g><g transform="translate(778.5236810526326 214.7054424430665) rotate(0 18.120040893554688 10)"><text x="18.120040893554688" y="0" font-family="Virgil, Segoe UI Emoji" font-size="16px" fill="#e03131" text-anchor="middle" style="white-space: pre;" direction="ltr" dominant-baseline="text-before-edge">1500</text></g><g transform="translate(468.72269158760196 331.08141089027396) rotate(0 11.240020751953125 10)"><text x="11.240020751953125" y="0" font-family="Virgil, Segoe UI Emoji" font-size="16px" fill="#e03131" text-anchor="middle" style="white-space: pre;" direction="ltr" dominant-baseline="text-before-edge">68</text></g><g transform="translate(363.6102647205046 45.22399507246132) rotate(0 6.1200103759765625 10)"><text x="0" y="0" font-family="Virgil, Segoe UI Emoji" font-size="16px" fill="#f08c00" text-anchor="start" style="white-space: pre;" direction="ltr" dominant-baseline="text-before-edge">8</text></g><g transform="translate(271.52590039007487 44.318078385090914) rotate(0 11.200027465820312 10)"><text x="0" y="0" font-family="Virgil, Segoe UI Emoji" font-size="16px" fill="#1e1e1e" text-anchor="start" style="white-space: pre;" direction="ltr" dominant-baseline="text-before-edge">20</text></g></svg>
